<?xml version="1.0" standalone="no"?><!DOCTYPE svg PUBLIC "-//W3C//DTD SVG 1.1//EN" "http://www.w3.org/Graphics/SVG/1.1/DTD/svg11.dtd"><svg class="icon" width="200px" height="143.22px" viewBox="0 0 1430 1024" version="1.1" xmlns="http://www.w3.org/2000/svg"><path d="M1107.49929 1000.198185v-69.555127a48.781105 48.781105 0 0 1 48.108262-49.117526 48.86521 48.86521 0 0 1 48.192367 49.117526v69.555127" fill="#F3A8BC" /><path d="M797.486958 412.133556h337.262466a45.753312 45.753312 0 0 1 43.230152 36.92225l122.877921 559.384704h-214.805072" fill="#E9D1E5" /><path d="M1030.626997 1008.272299H203.61906c1.09337 0 15.138964-60.471749 16.400544-65.433965a217.832865 217.832865 0 0 0 8.410535-82.675562c-5.046321-37.595093-22.960761-88.647042-20.101179-127.671926 3.280109-43.818889 21.36276-84.105353 31.539507-126.15803 16.316439-67.284283 5.635059-150.296266 2.691371-218.673918-0.841054-19.512442-0.420527-122.457394 26.997819-122.457394h37.679198l356.01796-0.925159c22.62434 0 25.820343 32.04414 41.211623 58.873747z" fill="#F5E455" /><path d="M201.684637 728.537894h730.286781v30.025612H201.684637zM183.097354 976.985108h1109.938345v28.848136H183.097354zM233.392355 463.606032h573.682614v33.558036H233.392355z" fill="#FFFFFF" /><path d="M247.017422 40.808422l-17.830335 187.470832h328.010877L436.843204 29.285989a39.865937 39.865937 0 0 0-33.642141-17.325703H282.17346a34.146773 34.146773 0 0 0-35.156038 28.848136z" fill="#FBDEB5" /><path d="M321.114238 221.971353V134.585891a48.781105 48.781105 0 0 1 48.192368-49.033421A48.696999 48.696999 0 0 1 417.414868 134.585891v87.385462" fill="#FFFFFF" /><path d="M1051.316914 685.139532v-69.555127a48.781105 48.781105 0 0 1 48.108262-49.117526 48.781105 48.781105 0 0 1 48.108262 49.117526v69.555127" fill="#F3A8BC" /><path d="M269.13713 996.329339v-80.152402c0-31.118981 21.615076-56.602903 48.108262-56.602902s48.108262 25.231606 48.108262 56.602902v80.152402M487.811048 996.329339v-69.555127a48.696999 48.696999 0 0 1 48.108262-49.033421 48.781105 48.781105 0 0 1 48.192367 49.033421v69.555127M705.728018 996.329339v-69.555127a48.781105 48.781105 0 0 1 48.192367-49.033421 48.696999 48.696999 0 0 1 48.108262 49.033421v69.555127M269.13713 746.872861v-76.704082c0-29.773295 21.615076-54.163847 48.108262-54.163847s48.108262 24.390552 48.108262 54.163847v76.704082M487.811048 746.872861v-69.555127a48.696999 48.696999 0 0 1 48.108262-49.03342 48.781105 48.781105 0 0 1 48.192367 49.03342v69.555127M269.13713 486.062161v-69.555127c0-26.997818 21.615076-67.284283 48.108262-67.284282s48.108262 40.202359 48.108262 67.284282v69.555127M487.811048 486.062161v-69.555127a48.696999 48.696999 0 0 1 48.108262-49.03342 48.781105 48.781105 0 0 1 48.192367 49.03342v69.555127" fill="#FFFFFF" /><path d="M557.029754 240.222214h-328.010877a11.94296 11.94296 0 0 1-8.410536-3.868846 12.279382 12.279382 0 0 1-3.280109-9.251589L235.494989 39.715052A45.837417 45.837417 0 0 1 282.17346 0.017326H403.705695a52.145319 52.145319 0 0 1 43.566573 22.708445l120.018339 199.413792a11.94296 11.94296 0 0 1-10.260853 18.082651z m-314.722232-23.801815h293.611788l-109.336959-180.99472A28.091188 28.091188 0 0 0 403.705695 23.819141H282.17346A22.456129 22.456129 0 0 0 258.876277 42.070002zM1300.857497 1020.215259h-186.9662a11.94296 11.94296 0 1 1 0-23.88592h172.163658l-119.766023-544.834478a33.642141 33.642141 0 0 0-31.539508-27.586556H804.131281a11.94296 11.94296 0 1 1 0-23.88592h330.618143a57.612167 57.612167 0 0 1 54.836691 46.173839l122.962026 559.468809a12.447592 12.447592 0 0 1-2.35495 10.092642 12.111171 12.111171 0 0 1-9.335694 4.457584z" fill="#952D2E" /><path d="M1030.626997 1020.215259H159.800171a11.774749 11.774749 0 0 1-8.410535-3.868846 11.94296 11.94296 0 0 1-3.111898-9.167484L217.328232 227.101779a11.858855 11.858855 0 0 1 11.858855-10.84959h414.47118c26.913713 0 35.576564 15.307174 46.678471 34.73551 2.102634 3.700636 4.289373 7.653587 6.896639 11.942961l0.672843 1.093369 343.486262 739.033738a11.94296 11.94296 0 0 1-10.765485 16.821071z m-857.874602-23.88592h838.866792L676.543461 274.87362c-2.607266-4.289373-4.87811-8.410535-6.896639-11.858855-10.933696-19.091915-13.625067-22.792551-25.988555-22.792551h-403.705695z" fill="#952D2E" /><path d="M1418.520886 1024H11.94296a11.94296 11.94296 0 1 1 0-23.88592h1406.577926a11.94296 11.94296 0 1 1 0 23.88592zM637.182155 505.238182H133.811617a11.94296 11.94296 0 1 1 0-23.801815h503.370538a11.94296 11.94296 0 1 1 0 23.801815zM1352.834605 711.043981h-349.794164a11.94296 11.94296 0 0 1 0-23.88592h349.794164a11.94296 11.94296 0 0 1 0 23.88592zM703.457174 772.272678H81.834509a11.94296 11.94296 0 1 1 0-23.801815h621.622665a11.94296 11.94296 0 1 1 0 23.801815zM833.315839 772.272678h-58.873747a11.94296 11.94296 0 1 1 0-23.801815h58.873747a11.94296 11.94296 0 1 1 0 23.801815z" fill="#952D2E" /><path d="M365.60597 1008.272299a11.94296 11.94296 0 0 1-11.858855-11.94296V908.355139a36.249407 36.249407 0 1 0-72.498814 0v87.637778a11.94296 11.94296 0 1 1-23.801815 0V908.355139a60.051222 60.051222 0 1 1 120.102444 0v87.637778a11.94296 11.94296 0 0 1-11.94296 12.279382zM583.859361 1008.272299a11.94296 11.94296 0 0 1-11.94296-11.94296v-69.555127a36.249407 36.249407 0 1 0-72.414709 0v69.555127a11.94296 11.94296 0 0 1-23.88592 0v-69.555127a60.051222 60.051222 0 1 1 120.102444 0v69.555127a11.94296 11.94296 0 0 1-11.858855 11.94296zM802.028647 1008.272299a12.027065 12.027065 0 0 1-11.94296-11.94296v-69.555127a36.249407 36.249407 0 1 0-72.414709 0v69.555127a11.94296 11.94296 0 1 1-23.801815 0v-69.555127a60.051222 60.051222 0 1 1 120.102445 0v69.555127a12.027065 12.027065 0 0 1-11.942961 11.94296zM365.60597 758.815822a11.94296 11.94296 0 0 1-11.858855-11.942961V659.235083a36.249407 36.249407 0 1 0-72.498814 0V746.872861a11.94296 11.94296 0 1 1-23.801815 0V659.235083a60.051222 60.051222 0 1 1 120.102444 0V746.872861a11.94296 11.94296 0 0 1-11.94296 11.942961zM583.859361 758.815822A11.94296 11.94296 0 0 1 571.916401 746.872861v-69.555127a36.249407 36.249407 0 1 0-72.414709 0v69.555127a11.94296 11.94296 0 0 1-23.88592 0v-69.555127a60.051222 60.051222 0 1 1 120.102444 0v69.555127a11.94296 11.94296 0 0 1-11.858855 11.942961zM365.60597 498.005122a11.94296 11.94296 0 0 1-11.858855-11.942961V398.424383a36.249407 36.249407 0 1 0-72.498814 0v87.637778a11.94296 11.94296 0 1 1-23.801815 0V398.424383a60.051222 60.051222 0 1 1 120.102444 0v87.637778a11.94296 11.94296 0 0 1-11.94296 11.942961zM417.414868 233.914313a11.94296 11.94296 0 0 1-11.942961-11.94296V134.585891a36.249407 36.249407 0 1 0-72.414709 0v87.385462a11.94296 11.94296 0 1 1-23.801815 0V134.585891a60.051222 60.051222 0 1 1 120.102445 0v87.385462a11.94296 11.94296 0 0 1-11.94296 11.94296zM583.859361 498.005122A11.94296 11.94296 0 0 1 571.916401 486.062161v-69.555127a36.249407 36.249407 0 1 0-72.414709 0v69.555127a11.94296 11.94296 0 0 1-23.88592 0v-69.555127a60.051222 60.051222 0 1 1 120.102444 0v69.555127a11.94296 11.94296 0 0 1-11.858855 11.942961zM1147.449333 696.998387a11.94296 11.94296 0 0 1-12.027066-11.858855v-69.555127a36.249407 36.249407 0 1 0-72.414709 0v69.555127a11.94296 11.94296 0 0 1-23.801815 0v-69.555127a60.051222 60.051222 0 1 1 120.102444 0v69.555127a11.94296 11.94296 0 0 1-11.858854 11.858855zM1203.715814 1012.05704a11.858855 11.858855 0 0 1-11.858855-11.858855v-79.311348a36.249407 36.249407 0 1 0-72.414709 0v79.311348a11.94296 11.94296 0 0 1-23.88592 0v-79.311348a60.051222 60.051222 0 1 1 120.102444 0v79.311348a11.858855 11.858855 0 0 1-11.94296 11.858855z" fill="#952D2E" /></svg>