<?xml version="1.0" standalone="no"?><!DOCTYPE svg PUBLIC "-//W3C//DTD SVG 1.1//EN" "http://www.w3.org/Graphics/SVG/1.1/DTD/svg11.dtd"><svg class="icon" width="200px" height="199.42px" viewBox="0 0 1027 1024" version="1.1" xmlns="http://www.w3.org/2000/svg"><path d="M604.821642 751.150433H404.563173L297.247341 1015.182407h414.890133l-107.315832-264.031974z" fill="#C9E4F7" /><path d="M463.082611 751.090041c-18.117473 17.755124-18.117473 60.391577-38.771392 71.564019-8.273646 4.468977-18.962955 3.140362-24.156631 12.803014s-1.690964 26.632685-8.273646 35.510247c-3.925452 5.314459-26.089161 15.70181-31.645186 15.641419-17.755124 0-29.47109 10.145785-47.286605 10.085393l73.1342-140.712374z" fill="#FFFFFF" /><path d="M343.084548 707.608106m23.975456 0l272.607578 0q23.975456 0 23.975456 23.975456l0 0.060392q0 23.975456-23.975456 23.975456l-272.607578 0q-23.975456 0-23.975456-23.975456l0-0.060392q0-23.975456 23.975456-23.975456Z" fill="#F5E455" /><path d="M418.755194 278.405169L391.337418 178.819459h227.193112l-35.510247 128.936017H426.847665" fill="#C1E1C4" /><path d="M403.476125 467.61198l-28.263258-139.625326h257.690859l-35.812206 177.007712H411.025072" fill="#D8E1F3" /><path d="M395.383654 671.977076l-34.725157-146.69114H640.150715l-44.206635 182.32217H404.80474" fill="#C1E1C4" /><path d="M404.623565 171.21012c17.453166 27.9613 35.63103 42.696845 38.711001 70.778928 1.811747 16.788858-9.96461 31.343228-17.513558 46.259948a99.827277 99.827277 0 0 0-7.428164 69.148356c6.039158 22.828016 19.92922 45.716424 12.98419 68.18209-6.039158 18.962955-24.156631 28.504824-32.309494 45.837207-10.447743 22.646841-0.483133 47.165822 9.96461 67.759349s21.861751 43.119586 15.943376 65.404078c-4.106627 15.460244-16.4869 28.987957-14.916719 44.991725 1.449398 14.856328 14.735545 26.81386 13.890063 41.730579-1.026657 17.573949-20.533136 26.572294-37.020037 28.263258s-35.087506 0.664307-47.226213 12.682231a124.406648 124.406648 0 0 0-14.312804 22.042926 59.36492 59.36492 0 0 1-84.548207 14.433587s113.958906-498.65325 138.900626-590.327664C382.459856 169.096415 404.623565 171.21012 404.623565 171.21012z" fill="#FFFFFF" /><path d="M457.164237 83.944292h92.338721v75.006338H457.164237z" fill="#FBDEB5" /><path d="M1018.564335 1023.758011H239.935735a8.575604 8.575604 0 0 1 0-17.151208h778.6286a8.575604 8.575604 0 1 1 0 17.151208zM188.602895 1023.758011h-48.313262a8.575604 8.575604 0 0 1 0-17.151208h48.313262a8.575604 8.575604 0 0 1 0 17.151208zM103.269596 1023.758011H8.575604a8.575604 8.575604 0 0 1 0-17.151208H103.269596a8.575604 8.575604 0 0 1 0 17.151208zM639.667582 764.134622H367.060004a32.55106 32.55106 0 0 1 0-65.10212h272.607578a32.55106 32.55106 0 0 1 0 65.10212z m-272.607578-47.950912a15.460244 15.460244 0 1 0 0 30.860096h272.607578a15.460244 15.460244 0 0 0 0-30.860096zM582.53715 316.270688H424.190436a8.575604 8.575604 0 0 1 0-17.090816h151.582858l31.826361-130.687373H399.06754l25.243679 103.571555a8.575604 8.575604 0 1 1-16.607684 4.106627L379.863018 161.970209a8.575604 8.575604 0 0 1 1.630573-7.307381 8.515212 8.515212 0 0 1 6.703465-3.261145h230.333474a8.575604 8.575604 0 0 1 6.703465 3.261145 8.394429 8.394429 0 0 1 1.570181 7.307381l-36.234946 147.778189a8.454821 8.454821 0 0 1-8.03208 6.52229z" fill="#952D2E" /><path d="M596.910346 513.328403h-187.213889a8.575604 8.575604 0 0 1 0-17.151208h179.966899l32.853018-180.148073H384.030037L410.662723 461.814388a8.515212 8.515212 0 1 1-16.788859 3.079971L365.36904 309.265265a8.635995 8.635995 0 0 1 1.872139-7.005423 8.575604 8.575604 0 0 1 6.582682-3.07997h259.079865a8.575604 8.575604 0 0 1 8.45482 10.085393l-36.234946 197.299282A8.515212 8.515212 0 0 1 596.910346 513.328403z" fill="#952D2E" /><path d="M596.910346 716.18371h-187.213889a8.575604 8.575604 0 0 1 0-17.151208h180.268857L629.521797 513.328403H377.145397l31.826362 152.730298a8.575604 8.575604 0 0 1-16.728467 3.502712l-34.000458-163.057258a8.394429 8.394429 0 0 1 1.690964-7.126206 8.696387 8.696387 0 0 1 6.643074-3.200754H640.150715a8.696387 8.696387 0 0 1 6.703465 3.200754 8.515212 8.515212 0 0 1 1.690964 7.186598l-43.179978 202.61374a8.575604 8.575604 0 0 1-8.45482 7.005423zM712.137474 1023.758011H294.590112a8.575604 8.575604 0 0 1-7.126206-3.804669 8.635995 8.635995 0 0 1-0.785091-8.03208l108.040531-259.683781a8.515212 8.515212 0 0 1 7.911297-5.254067H603.915769a8.575604 8.575604 0 0 1 7.911296 5.254067l108.040531 259.683781a8.575604 8.575604 0 0 1-7.911296 12.078315z m-404.623565-17.151208h391.880943l-100.853934-242.472181h-190.233467zM549.563349 167.526234H457.164237a8.575604 8.575604 0 0 1-8.515212-8.575604V83.944292a8.515212 8.515212 0 0 1 8.515212-8.575604H549.563349a8.515212 8.515212 0 0 1 8.515213 8.575604v75.006338A8.575604 8.575604 0 0 1 549.563349 167.526234zM465.739841 150.375026h75.247905v-57.915522H465.739841z" fill="#952D2E" /><path d="M503.363793 88.594443a8.635995 8.635995 0 0 1-8.575604-8.575604V44.267026a8.575604 8.575604 0 1 1 17.151208 0v35.751813a8.635995 8.635995 0 0 1-8.575604 8.575604zM503.363793 23.613107a8.575604 8.575604 0 0 1-8.575604-8.575604V8.575604a8.575604 8.575604 0 1 1 17.151208 0v6.461899a8.575604 8.575604 0 0 1-8.575604 8.575604zM463.082611 394.055039a8.515212 8.515212 0 0 1-8.575604-8.575604v-31.464011a8.575604 8.575604 0 1 1 17.090817 0v31.464011a8.515212 8.515212 0 0 1-8.515213 8.575604zM463.082611 456.077188a8.515212 8.515212 0 0 1-8.575604-8.515212v-13.890063a8.575604 8.575604 0 0 1 17.090817 0v13.890063a8.515212 8.515212 0 0 1-8.515213 8.515212zM545.819072 394.055039A8.575604 8.575604 0 0 1 537.485034 385.479435v-31.464011a8.575604 8.575604 0 0 1 17.151208 0v31.464011a8.515212 8.515212 0 0 1-8.81717 8.575604zM545.819072 467.853546A8.575604 8.575604 0 0 1 537.485034 459.277942v-37.321994a8.575604 8.575604 0 0 1 17.151208 0v37.321994a8.515212 8.515212 0 0 1-8.81717 8.575604zM463.082611 599.627967a8.575604 8.575604 0 0 1-8.575604-8.575604v-37.382386a8.575604 8.575604 0 0 1 17.090817 0v37.382386a8.575604 8.575604 0 0 1-8.515213 8.575604zM463.082611 655.792133a8.515212 8.515212 0 0 1-8.575604-8.575604v-13.829671a8.575604 8.575604 0 1 1 17.090817 0v13.829671a8.515212 8.515212 0 0 1-8.515213 8.575604zM545.819072 599.627967A8.635995 8.635995 0 0 1 537.485034 591.052363v-37.382386a8.575604 8.575604 0 0 1 17.151208 0v37.382386a8.575604 8.575604 0 0 1-8.81717 8.575604zM545.819072 667.568491a8.635995 8.635995 0 0 1-8.334038-8.575604v-37.382386a8.575604 8.575604 0 0 1 17.151208 0v37.382386a8.575604 8.575604 0 0 1-8.81717 8.575604zM463.082611 856.594126a8.575604 8.575604 0 0 1-8.575604-8.575604v-37.382386a8.575604 8.575604 0 0 1 17.090817 0v37.382386a8.575604 8.575604 0 0 1-8.515213 8.575604zM463.082611 912.758293a8.575604 8.575604 0 0 1-8.575604-8.575604v-13.829671a8.575604 8.575604 0 1 1 17.090817 0v13.829671a8.575604 8.575604 0 0 1-8.515213 8.575604zM545.819072 856.594126a8.635995 8.635995 0 0 1-8.334038-8.575604v-37.382386a8.575604 8.575604 0 0 1 17.151208 0v37.382386a8.575604 8.575604 0 0 1-8.81717 8.575604zM463.082611 276.351856a8.575604 8.575604 0 0 1-8.575604-8.575604V242.170223a8.575604 8.575604 0 1 1 17.090817 0v25.606029a8.575604 8.575604 0 0 1-8.515213 8.575604zM545.819072 276.351856A8.635995 8.635995 0 0 1 537.485034 267.776252V242.170223a8.575604 8.575604 0 0 1 17.151208 0v25.606029a8.575604 8.575604 0 0 1-8.81717 8.575604zM545.819072 924.474259a8.575604 8.575604 0 0 1-8.334038-8.515213v-37.382386a8.575604 8.575604 0 0 1 17.151208 0v37.382386a8.515212 8.515212 0 0 1-8.81717 8.515213zM554.817417 206.176843H360.477322a8.575604 8.575604 0 0 1 0-17.090816h194.340095a8.575604 8.575604 0 1 1 0 17.090816z" fill="#952D2E" /></svg>