<?xml version="1.0" standalone="no"?><!DOCTYPE svg PUBLIC "-//W3C//DTD SVG 1.1//EN" "http://www.w3.org/Graphics/SVG/1.1/DTD/svg11.dtd"><svg class="icon" width="200px" height="187.72px" viewBox="0 0 1091 1024" version="1.1" xmlns="http://www.w3.org/2000/svg"><path d="M739.292111 883.987097c141.181242-611.763992-393.18976-799.214178-393.18976-799.214178V884.307963h393.18976s151.192276-587.442315-393.18976-799.535044" fill="#F3A8BC" /><path d="M400.521302 407.372057l0.320867 404.29174h267.217588s93.500486-232.17897-70.013062-404.29174z" fill="#FFFFFF" /><path d="M400.521302 183.214749v113.6509h140.603683a265.998295 265.998295 0 0 0-140.603683-113.6509z" fill="#C9E4F7" /><path d="M425.80558 433.9398l0.320866 377.659823h244.243549s85.414652-216.905727-64.173292-377.659823z" fill="#D8E1F3" /><path d="M279.682994 1011.756121c-27.658689 0-48.964222-27.016956-48.964222-52.814619a48.771702 48.771702 0 0 1 50.247688-46.846503h567.356074a48.771702 48.771702 0 0 1 50.247687 46.846503 122.827681 122.827681 0 0 1-8.663394 30.353967l-78.419763-27.081129-61.092974 23.038211-93.757179 33.177592-97.222538-22.396479-111.789874-40.55752-89.842609 32.792552z" fill="#88CAEF" /><path d="M382.167741 886.682375a26.11853 26.11853 0 0 1-10.3319-17.198442c-20.214587-99.340256 43.702012-191.493103 7.957488-292.501865a191.364757 191.364757 0 0 1-12.834658-86.698117c3.593704-32.471686 16.107496-63.146519 24.321677-94.719779C401.740595 355.455864 404.307527 309.507787 379.857502 275.945155a86.633944 86.633944 0 0 1-13.219698-20.599626 57.755963 57.755963 0 0 1-1.411812-23.294905c3.337011-43.509492 12.834658-114.22846-27.273649-147.598572l6.032289 667.402237c-2.438585 123.469414 6.417329 129.63005 6.417329 129.630049 10.845286 1.155119 21.818919 2.566932 31.76578 5.198037z" fill="#FFFFFF" /><path d="M343.214553 893.420571a9.176781 9.176781 0 0 1-9.112608-9.112608v-85.863865a9.112607 9.112607 0 0 1 18.225215 0v85.863865a9.176781 9.176781 0 0 1-9.112607 9.112608zM343.214553 760.64603a9.112607 9.112607 0 0 1-9.112608-9.112608v-43.316972a9.112607 9.112607 0 1 1 18.225215 0v43.316972a9.112607 9.112607 0 0 1-9.112607 9.112608zM343.214553 666.88885a9.112607 9.112607 0 0 1-9.112608-9.112607V9.112607a9.112607 9.112607 0 1 1 18.225215 0V657.776243a9.112607 9.112607 0 0 1-9.112607 9.112607z" fill="#952D2E" /><path d="M725.173986 362.322406H266.270776a9.112607 9.112607 0 0 1 0-18.161041H725.173986a9.112607 9.112607 0 1 1 0 18.161041zM541.124985 305.978256H400.521302A9.176781 9.176781 0 0 1 391.472868 296.865649V183.150575a9.176781 9.176781 0 0 1 3.786225-7.379928 9.369301 9.369301 0 0 1 8.214181-1.219293 273.057357 273.057357 0 0 1 145.673373 118.014684 9.176781 9.176781 0 0 1 0 8.984261 9.240954 9.240954 0 0 1-8.021662 4.427957z m-131.491075-18.225215h114.870193a262.468764 262.468764 0 0 0-114.870193-91.511114zM476.11744 684.472332h-17.005922a9.112607 9.112607 0 0 1 0-18.225215h17.005922a9.112607 9.112607 0 0 1 0 18.225215z" fill="#952D2E" /><path d="M668.059757 820.712231H400.842169a9.112607 9.112607 0 0 1-9.048434-9.112608V534.178482a9.048434 9.048434 0 0 1 9.048434-9.112607h198.937205a9.112607 9.112607 0 1 1 0 18.161041H409.954776v259.2601h251.559305a501.96349 501.96349 0 0 0 20.727973-118.014684H514.172203a9.112607 9.112607 0 1 1 0-18.225215h177.567498a9.176781 9.176781 0 0 1 9.112608 9.433474 494.134348 494.134348 0 0 1-24.257505 139.320217 9.048434 9.048434 0 0 1-8.535047 5.711423z" fill="#952D2E" /><path d="M691.097968 644.620718a9.176781 9.176781 0 0 1-9.112607-8.663395C677.557404 548.5533 648.166036 474.88236 594.132124 416.484665H409.63391v77.00795a9.112607 9.112607 0 0 1-18.225215 0V407.372057a9.176781 9.176781 0 0 1 9.112607-9.112607h197.525393a8.855914 8.855914 0 0 1 6.417329 2.887798c58.654389 61.927227 90.805208 140.667856 95.554032 233.911649a9.176781 9.176781 0 0 1-8.663394 9.561821zM248.943987 1022.280541c-34.525231 0-60.258721-40.429174-60.258721-76.622911S216.408128 879.1741 250.291626 879.1741h595.528149c34.076018 0 61.863053 29.840581 61.863054 66.419357a118.399724 118.399724 0 0 1-9.690167 47.809102 9.112607 9.112607 0 1 1-16.17167-8.342528 99.276083 99.276083 0 0 0 7.636622-39.466574c0-26.567743-19.251988-48.194142-43.637839-48.194142H250.291626c-24.064984 0-43.637839 21.626399-43.637838 48.194142s18.802775 58.461869 42.097679 58.461869a9.112607 9.112607 0 1 1 0 18.161042z" fill="#952D2E" /><path d="M599.907721 600.662013H454.041828a9.112607 9.112607 0 0 1 0-18.161042h145.865893a9.112607 9.112607 0 1 1 0 18.161042zM599.907721 747.169638H454.041828a9.112607 9.112607 0 0 1 0-18.161041h145.865893a9.112607 9.112607 0 1 1 0 18.161041zM280.838113 1023.949046a162.743468 162.743468 0 0 1-89.842609-24.385851 145.865893 145.865893 0 0 0-80.922521-22.203959 145.545026 145.545026 0 0 0-26.567743 1.861026 9.112607 9.112607 0 0 1-2.759451-18.032695 197.332873 197.332873 0 0 1 29.134674-1.989372 162.743468 162.743468 0 0 1 89.842609 24.385851 146.443452 146.443452 0 0 0 80.922521 22.139785 145.480853 145.480853 0 0 0 80.922521-22.268132 162.679295 162.679295 0 0 1 89.842609-24.578371 162.679295 162.679295 0 0 1 89.842609 24.450025A146.443452 146.443452 0 0 0 622.496719 1005.467138a145.480853 145.480853 0 0 0 80.922522-22.268132 162.679295 162.679295 0 0 1 89.842608-24.578371 163.192681 163.192681 0 0 1 89.842609 24.385851 145.41668 145.41668 0 0 0 80.858348 22.203959 145.159986 145.159986 0 0 0 80.986694-22.332305 210.103358 210.103358 0 0 1 34.461058-16.17167 9.112607 9.112607 0 0 1 5.903943 17.198442 199.643111 199.643111 0 0 0-31.637433 14.952377 162.294255 162.294255 0 0 1-89.842609 24.514198 162.550949 162.550949 0 0 1-89.842608-24.385851 145.865893 145.865893 0 0 0-80.922522-22.203959 145.994239 145.994239 0 0 0-80.730001 22.332305 162.679295 162.679295 0 0 1-89.842609 24.578371 162.679295 162.679295 0 0 1-89.842608-24.450024 146.443452 146.443452 0 0 0-80.922522-22.139786 145.480853 145.480853 0 0 0-80.922521 22.268133 162.679295 162.679295 0 0 1-89.842608 24.57837zM9.128395 1009.125016a9.176781 9.176781 0 0 1-8.214181-5.133863 9.048434 9.048434 0 0 1 4.235437-12.128753c5.326383-2.631105 10.3319-5.390557 15.337417-8.150008 5.968116-3.272838 12.064579-6.417329 18.674428-9.75434a9.112607 9.112607 0 1 1 7.764968 16.492536c-6.096463 2.887798-11.679539 5.903943-17.647655 9.176781s-10.52442 5.775596-16.17167 8.535048a8.855914 8.855914 0 0 1-3.978744 0.962599z" fill="#952D2E" /><path d="M739.292111 893.420571h-1.411813a9.112607 9.112607 0 0 1-7.572448-10.396074c30.097274-191.493103 27.787035-459.159904-154.015901-646.610089-108.517037-111.854048-231.023851-142.400535-232.17897-142.721402a9.112607 9.112607 0 0 1 4.29961-17.647655c5.198037 1.219293 128.795797 32.086646 240.970712 147.598571C776.51262 416.484665 779.015378 690.119582 748.276372 885.591429a9.112607 9.112607 0 0 1-8.984261 7.829142z" fill="#952D2E" /></svg>