<?xml version="1.0" standalone="no"?><!DOCTYPE svg PUBLIC "-//W3C//DTD SVG 1.1//EN" "http://www.w3.org/Graphics/SVG/1.1/DTD/svg11.dtd"><svg class="icon" width="200px" height="175.04px" viewBox="0 0 1170 1024" version="1.1" xmlns="http://www.w3.org/2000/svg"><path d="M359.997093 9.854019l-13.949358 239.131859 341.999787 50.025285 86.238644 713.203897h269.710502L907.732738 157.181233 359.997093 9.854019z" fill="#C9E4F7" /><path d="M355.736698 3.257278c21.370692 30.922223 45.833606 64.04336 82.459261 73.251311 26.867976 6.871605 56.55331-0.824593 82.459262 9.688963 23.019877 9.482815 38.343557 31.746816 60.332693 43.497261 43.565977 23.294741 99.70699-0.481012 145.609313 17.797457 10.994568 4.397827 20.614815 11.063284 31.746816 16.079556a114.274793 114.274793 0 0 0 76.068668 6.871605c13.74321-3.641951 46.726915-6.390593 60.470125-10.925852 40.611186-13.193482 88.025262-5.90958 130.560498-2.817358z" fill="#FFFFFF" /><path d="M443.349663 362.985807l22.264001-36.144643 152.96193 16.698 69.471928-44.528001-341.999787-50.025285-55.591286 88.91857 152.893214 25.081359z" fill="#FBDEB5" /><path d="M390.575736 838.432166l52.773927-475.446359-152.893214-25.081359-61.157286 674.310612h544.987003L688.047522 299.011163 618.575594 343.539164l72.289286 481.01236-116.817287 25.012642-183.471857-11.132z" fill="#D8E1F3" /><path d="M574.047593 849.564166L390.575736 838.432166l52.773927-475.446359-152.893214-25.081359-61.157286 674.310612h347.565788l-2.817358-162.650894z" fill="#88CAEF" /><path d="M199.407681 336.530127l13.193482-129.254892L359.997093 9.854019l-13.949358 239.131859-55.591286 88.91857-61.157286 674.310612H126.362519l44.802865-412.365024" fill="#C2E5F3" /><path d="M283.99714 118.287948c-29.204322 58.408644-9.963827 105.685287-25.837235 158.046918-4.603975 15.323679-13.74321 29.06689-18.003605 44.528001-7.971062 28.998174 1.924049 60.744989-6.871606 89.330867-12.575037 42.329088-24.256766 94.553287-18.896914 138.325411 6.871605 58.47736 4.603975 99.157262-20.614815 153.168079-11.132 24.050618-22.813729 48.101236-41.229631 67.34173s-44.940298 32.090396-71.052397 27.898717l65.967409-624.21661z" fill="#FFFFFF" /><path d="M1159.783214 1023.965505H10.575972a9.757679 9.757679 0 1 1 0-19.446643h1149.207242a9.757679 9.757679 0 1 1 0 19.446643z" fill="#952D2E" /><path d="M1043.996668 1021.972739h-269.710502a9.757679 9.757679 0 0 1-9.688963-8.589506L679.251867 307.60067 344.398549 258.606125a9.688963 9.688963 0 0 1-8.314642-10.238692l13.74321-239.063142A9.757679 9.757679 0 0 1 362.470871 0.43992l547.804361 147.39593a9.688963 9.688963 0 0 1 6.871605 7.83363l136.26393 855.033827a9.757679 9.757679 0 0 1-9.620247 11.269432z m-261.120995-19.515359h249.71413L899.074516 165.014863 368.998896 22.360341 356.286426 240.60252l333.204133 48.788396a9.757679 9.757679 0 0 1 8.245926 8.452074zM179.892323 528.728923h-1.099457a9.620247 9.620247 0 0 1-8.589507-10.719704l12.918618-121.215115a9.757679 9.757679 0 0 1 19.377926 2.061482l-12.987333 121.146398a9.688963 9.688963 0 0 1-9.620247 8.726939z" fill="#952D2E" /><path d="M229.299163 1021.972739h-103.074077a9.688963 9.688963 0 0 1-7.215185-3.229654 9.826395 9.826395 0 0 1-2.473778-7.558766l44.802866-412.296308a9.757679 9.757679 0 1 1 19.377926 2.130198l-43.634692 401.507888H220.709657L280.767486 336.804991a9.826395 9.826395 0 0 1 1.443037-4.329111l54.28568-86.857089 11.887877-203.94924-126.368818 169.31635-12.918618 126.574967a9.757679 9.757679 0 0 1-19.377926-1.992766L202.9122 206.244494a9.688963 9.688963 0 0 1 1.855333-4.87884L352.163463 4.013155a9.757679 9.757679 0 0 1 17.522593 6.390593l-13.74321 239.131858a9.895111 9.895111 0 0 1-1.511753 4.603976l-54.491829 86.994521-60.951137 671.974265a9.757679 9.757679 0 0 1-9.688964 8.864371z" fill="#952D2E" /><path d="M443.349663 372.67477h-1.580469l-152.893214-25.150075a9.551531 9.551531 0 0 1-7.283902-5.566 9.757679 9.757679 0 0 1 0.962025-9.207951l54.972841-88.987286a10.032543 10.032543 0 0 1 9.688963-4.466543l341.999788 50.094001a9.757679 9.757679 0 0 1 3.848099 17.866173l-69.26578 44.459285a9.757679 9.757679 0 0 1-6.321877 1.443038l-146.777485-16.01084-19.034347 30.922223a9.757679 9.757679 0 0 1-8.314642 4.603975z m-136.882374-41.985507l132.003535 21.57684 18.828198-30.578643a9.688963 9.688963 0 0 1 9.345383-4.535259l149.526127 16.285704 44.665434-28.585878L351.270154 259.499434z" fill="#952D2E" /><path d="M774.286166 1021.972739H229.299163a9.895111 9.895111 0 0 1-6.871605-3.160938 10.032543 10.032543 0 0 1-2.542494-7.49005L280.767486 336.804991a9.826395 9.826395 0 0 1 3.710667-6.871605 9.620247 9.620247 0 0 1 7.558765-1.855333l152.893214 25.012643A9.620247 9.620247 0 0 1 453.038626 364.291412l-51.67447 465.345099 171.790128 10.376124 106.578596-22.813729-70.846249-472.216705a9.826395 9.826395 0 0 1 4.397827-9.688963l69.540644-44.459285a9.688963 9.688963 0 0 1 14.911383 6.871605L784.181278 1011.046887a9.620247 9.620247 0 0 1-2.336346 7.627482 9.895111 9.895111 0 0 1-7.558766 3.29837z m-534.336015-19.515359H763.566462l-83.00899-687.160513-51.193458 32.708841 71.395977 474.827914a9.688963 9.688963 0 0 1-7.627481 10.925852l-116.817287 25.012643a8.589506 8.589506 0 0 1-2.61121 0l-183.540573-11.063284a9.895111 9.895111 0 0 1-6.871606-3.504519 9.414099 9.414099 0 0 1-2.198913-7.352617L432.698675 371.163017l-133.515287-21.92042z" fill="#952D2E" /><path d="M576.864951 1017.78106a9.757679 9.757679 0 0 1-9.757679-9.551531L564.289914 849.701598a9.757679 9.757679 0 0 1 19.515358 0l2.748642 158.527931a9.688963 9.688963 0 0 1-9.551531 9.895111zM750.166832 806.616634A9.688963 9.688963 0 0 1 742.951647 790.33093l216.455562-253.356081a9.688963 9.688963 0 1 1 14.773951 12.849901l-216.592994 253.630946a9.620247 9.620247 0 0 1-7.421334 3.160938z" fill="#952D2E" /><path d="M1025.580766 930.168094a8.795655 8.795655 0 0 1-3.916815-0.893308l-275.413934-121.627411a9.757679 9.757679 0 0 1 7.902346-17.866173l275.345218 121.696127a9.757679 9.757679 0 0 1-3.916815 18.690765zM710.311523 432.526451a9.551531 9.551531 0 0 1-5.909581-2.061482 9.688963 9.688963 0 0 1-1.786617-13.74321l194.603857-253.081217a9.757679 9.757679 0 0 1 15.461112 11.887877l-194.672574 253.149933a9.620247 9.620247 0 0 1-7.696197 3.848099z" fill="#952D2E" /><path d="M966.828542 552.985689a9.895111 9.895111 0 0 1-3.916815-0.755877l-255.073982-110.770274a9.826395 9.826395 0 0 1-5.084988-12.849902 9.688963 9.688963 0 0 1 12.849902-5.016272l255.073982 110.770275a9.688963 9.688963 0 0 1-3.848099 18.62205zM346.047735 258.674841a9.757679 9.757679 0 0 1-6.871606-16.698L526.221221 58.504984a9.757679 9.757679 0 1 1 13.74321 13.74321L352.850624 255.926199a9.551531 9.551531 0 0 1-6.802889 2.748642z" fill="#952D2E" /><path d="M603.939075 294.132323a9.757679 9.757679 0 0 1-9.276667-6.871605L523.747443 68.812391a9.757679 9.757679 0 0 1 18.553334-6.047012l70.914965 218.654475a9.757679 9.757679 0 0 1-6.253161 12.231457 9.276667 9.276667 0 0 1-3.023506 0.481012z" fill="#952D2E" /><path d="M603.939075 294.132323a9.757679 9.757679 0 0 1-3.641951-18.759482l303.656231-122.589435a9.757679 9.757679 0 0 1 7.283902 18.072321L607.581026 293.445163a9.551531 9.551531 0 0 1-3.641951 0.68716zM774.21745 1021.972739a9.757679 9.757679 0 0 1-9.620247-8.589506L678.358559 300.179336a9.757679 9.757679 0 1 1 19.377926-2.336346L784.181278 1011.046887a9.757679 9.757679 0 0 1-8.452075 10.857136zM636.716632 237.441581a9.895111 9.895111 0 0 1-9.139235-6.390593l-9.757679-26.455679a9.757679 9.757679 0 1 1 18.278469-6.871606l9.757679 26.45568a9.688963 9.688963 0 0 1-5.978296 12.643754 9.414099 9.414099 0 0 1-3.160938 0.618444zM614.796211 177.864765a9.757679 9.757679 0 0 1-9.276667-6.390593l-21.57684-58.408644a9.757679 9.757679 0 0 1 18.27847-6.871605L623.86673 165.014863a9.688963 9.688963 0 0 1-5.703432 12.506321 10.032543 10.032543 0 0 1-3.367087 0.343581zM795.931723 409.231709a9.551531 9.551531 0 0 1-5.634717-1.855333 9.620247 9.620247 0 0 1-2.267629-13.74321l28.379729-39.786594a9.757679 9.757679 0 1 1 15.873408 11.544297L803.834068 405.521043a9.757679 9.757679 0 0 1-7.902345 3.710666zM842.108909 344.569905a9.826395 9.826395 0 0 1-7.902346-15.461111l45.42131-63.562348a9.688963 9.688963 0 0 1 13.74321-2.26763 9.826395 9.826395 0 0 1 2.26763 13.743211l-45.42131 63.562347a9.826395 9.826395 0 0 1-8.108494 3.985531zM898.181207 575.868134a10.10126 10.10126 0 0 1-3.985531-0.824593l-24.394198-10.925852a9.757679 9.757679 0 0 1 7.971062-17.797457l24.394198 10.925852a9.757679 9.757679 0 0 1 4.87884 12.849902 9.620247 9.620247 0 0 1-8.864371 5.772148zM841.2156 550.374479a9.757679 9.757679 0 0 1-3.916815-0.824593l-96.202471-43.222396a9.757679 9.757679 0 0 1 7.902346-17.797457l96.202471 43.222396a9.688963 9.688963 0 0 1-3.985531 18.62205z" fill="#952D2E" /></svg>