<?xml version="1.0" standalone="no"?><!DOCTYPE svg PUBLIC "-//W3C//DTD SVG 1.1//EN" "http://www.w3.org/Graphics/SVG/1.1/DTD/svg11.dtd"><svg class="icon" width="200px" height="155.03px" viewBox="0 0 1321 1024" version="1.1" xmlns="http://www.w3.org/2000/svg"><path d="M1090.877904 976.590801H229.118557V473.509248A104.300238 104.300238 0 0 1 333.418795 369.20901h757.459109z" fill="#F3A8BC" /><path d="M481.863993 987.704761V674.804045a14.99996 14.99996 0 0 0 0-1.86528v-4.35232a178.755997 178.755997 0 0 1 356.734794 0 13.13468 13.13468 0 0 1 0 1.78756v2.56476a14.30048 14.30048 0 0 0 0 2.56476v312.201236z" fill="#C9E4F7" /><path d="M660.61999 501.410728A167.253437 167.253437 0 0 1 827.407108 668.431005a4.43004 4.43004 0 0 0 0 1.01036v3.1088a14.68908 14.68908 0 0 0 0 3.65284v300.310076H492.589353V675.503525v-4.6632-2.25388A167.719757 167.719757 0 0 1 660.61999 501.410728m0-22.07248A189.869957 189.869957 0 0 0 470.594593 668.431005v330.309995h378.807274V673.249645v-4.6632A189.092757 189.092757 0 0 0 660.61999 479.338248z" fill="#FFFFFF" /><path d="M254.066676 429.675169m25.88076 0l106.087798 0q25.88076 0 25.88076 25.88076l0 56.891039q0 25.88076-25.88076 25.880759l-106.087798 0q-25.88076 0-25.88076-25.880759l0-56.891039q0-25.88076 25.88076-25.88076Z" fill="#FFFFFF" /><path d="M922.070066 429.675169m25.88076 0l106.087798 0q25.88076 0 25.88076 25.88076l0 56.891039q0 25.88076-25.88076 25.880759l-106.087798 0q-25.88076 0-25.88076-25.880759l0-56.891039q0-25.88076 25.88076-25.88076Z" fill="#FFFFFF" /><path d="M267.279076 864.907162v-58.756319a65.984279 65.984279 0 0 1 65.751119-65.828839 65.906559 65.906559 0 0 1 65.673399 65.828839v58.756319zM935.360186 864.907162v-58.756319a65.906559 65.906559 0 0 1 65.673399-65.828839 65.906559 65.906559 0 0 1 65.673399 65.828839v58.756319z" fill="#FFFFFF" /><path d="M1143.805223 262.188571H178.056517l-27.357439-93.574878h1020.463584l-27.357439 93.574878z" fill="#F5E455" /><path d="M201.372517 83.043974h918.728106V166.359813H201.372517z" fill="#FBDEB5" /><path d="M160.491798 11.075255m28.445519 0l942.121826 0q28.44552 0 28.44552 28.44552l0 4.74092q0 28.44552-28.44552 28.445519l-942.121826 0q-28.44552 0-28.445519-28.445519l0-4.74092q0-28.44552 28.445519-28.44552Z" fill="#F5E455" /><path d="M288.885236 1016.69432a11.11396 11.11396 0 0 1-11.03624-11.03624v-85.491998a11.03624 11.03624 0 0 1 22.072479 0v85.491998a11.03624 11.03624 0 0 1-11.036239 11.03624zM376.941994 1016.69432a11.03624 11.03624 0 0 1-10.95852-11.03624v-52.150119a11.03624 11.03624 0 1 1 21.99476 0v52.150119a11.03624 11.03624 0 0 1-11.03624 11.03624zM86.968679 1016.69432a11.03624 11.03624 0 0 1-11.03624-11.03624v-52.150119a11.03624 11.03624 0 1 1 21.99476 0v52.150119a11.03624 11.03624 0 0 1-10.95852 11.03624zM1045.100824 1016.69432a11.11396 11.11396 0 0 1-11.03624-11.03624v-85.491998a11.03624 11.03624 0 0 1 22.07248 0v85.491998a11.11396 11.11396 0 0 1-11.03624 11.03624zM957.044066 1016.69432a11.03624 11.03624 0 0 1-11.03624-11.03624v-52.150119a11.03624 11.03624 0 1 1 22.072479 0v52.150119a11.11396 11.11396 0 0 1-11.036239 11.03624zM1242.509621 1016.69432a11.11396 11.11396 0 0 1-11.03624-11.03624v-52.150119a11.03624 11.03624 0 1 1 22.07248 0v52.150119a11.11396 11.11396 0 0 1-11.03624 11.03624zM1131.991783 83.743454H189.869957a39.559479 39.559479 0 0 1-39.481759-39.481759v-4.74092A39.559479 39.559479 0 0 1 189.869957 0.039015h47.642359a11.03624 11.03624 0 0 1 0 21.99476h-47.642359a17.40928 17.40928 0 0 0-17.40928 17.487v4.74092a17.40928 17.40928 0 0 0 17.40928 17.40928h942.121826a17.40928 17.40928 0 0 0 17.40928-17.40928v-4.74092a17.40928 17.40928 0 0 0-17.40928-17.487H406.553314a11.03624 11.03624 0 1 1 0-21.99476h725.438469a39.559479 39.559479 0 0 1 39.481759 39.48176v4.74092a39.559479 39.559479 0 0 1-39.481759 39.481759z" fill="#952D2E" /><path d="M361.864315 22.033775h-71.890999a11.03624 11.03624 0 1 1 0-21.99476h71.890999a11.03624 11.03624 0 1 1 0 21.99476zM290.206476 131.696693a10.95852 10.95852 0 0 1-11.03624-10.958519v-37.6942a11.03624 11.03624 0 0 1 21.994759 0v37.6942a10.95852 10.95852 0 0 1-10.958519 10.958519zM201.372517 177.396053a11.03624 11.03624 0 0 1-11.03624-11.03624V83.043974a11.03624 11.03624 0 0 1 21.99476 0V166.359813a11.03624 11.03624 0 0 1-10.95852 11.03624zM1120.100623 177.396053a11.03624 11.03624 0 0 1-11.03624-11.03624V83.043974a11.03624 11.03624 0 0 1 21.99476 0V166.359813a11.03624 11.03624 0 0 1-10.95852 11.03624zM395.439354 131.696693a11.03624 11.03624 0 0 1-11.03624-10.958519v-37.6942a11.03624 11.03624 0 0 1 22.07248 0v37.6942a11.03624 11.03624 0 0 1-11.03624 10.958519zM500.672232 131.696693A11.03624 11.03624 0 0 1 489.635993 120.738174v-37.6942a11.03624 11.03624 0 0 1 22.072479 0v37.6942a11.03624 11.03624 0 0 1-11.03624 10.958519zM660.61999 131.696693a11.03624 11.03624 0 0 1-11.03624-10.958519v-37.6942a11.03624 11.03624 0 0 1 22.07248 0v37.6942A11.03624 11.03624 0 0 1 660.61999 131.696693z" fill="#952D2E" /><path d="M659.99823 131.696693a11.03624 11.03624 0 0 1-11.03624-10.958519v-37.6942a11.03624 11.03624 0 0 1 22.07248 0v37.6942a11.03624 11.03624 0 0 1-11.03624 10.958519zM816.448588 131.696693a10.95852 10.95852 0 0 1-11.03624-10.958519v-37.6942a11.03624 11.03624 0 0 1 21.99476 0v37.6942a10.95852 10.95852 0 0 1-10.95852 10.958519zM921.681466 131.696693a11.03624 11.03624 0 0 1-11.03624-10.958519v-37.6942a11.03624 11.03624 0 0 1 22.07248 0v37.6942a11.03624 11.03624 0 0 1-11.03624 10.958519zM1026.914345 131.696693a11.03624 11.03624 0 0 1-11.03624-10.958519v-37.6942a11.03624 11.03624 0 0 1 22.072479 0v37.6942a11.03624 11.03624 0 0 1-11.036239 10.958519zM1142.872583 273.224811H177.123877a11.11396 11.11396 0 0 1-10.56992-7.772l-22.305639-76.476478a24.32636 24.32636 0 0 1 23.315999-31.088h979.271986a28.7564 28.7564 0 0 1 27.279719 36.45068l-20.673519 70.802918a11.11396 11.11396 0 0 1-10.56992 8.08288z m-957.510386-22.072479H1134.711983l18.41964-62.797759a6.52848 6.52848 0 0 0-1.08808-5.98444 6.68392 6.68392 0 0 0-5.36268-2.7202h-979.271986a2.3316 2.3316 0 0 0-1.865279 0.93264 2.25388 2.25388 0 0 0 0 2.09844z" fill="#952D2E" /><path d="M181.009877 597.161766a11.03624 11.03624 0 0 1-11.03624-10.958519V267.939851a11.03624 11.03624 0 0 1 22.07248 0v318.651996a11.03624 11.03624 0 0 1-11.03624 10.569919zM181.009877 1021.59068a11.11396 11.11396 0 0 1-11.03624-11.19168V671.928405a11.03624 11.03624 0 0 1 22.07248 0V1010.399a11.11396 11.11396 0 0 1-11.03624 11.19168zM1142.950303 1021.59068a11.03624 11.03624 0 0 1-11.03624-11.03624V656.384406a11.03624 11.03624 0 1 1 21.99476 0V1010.399a11.03624 11.03624 0 0 1-10.95852 11.19168z" fill="#952D2E" /><path d="M1142.950303 667.342925a10.95852 10.95852 0 0 1-11.03624-10.958519V262.188571a11.03624 11.03624 0 1 1 21.99476 0v394.195835a10.95852 10.95852 0 0 1-10.95852 10.958519zM1310.8255 1024H11.03624a11.03624 11.03624 0 0 1 0-22.07248h1299.78926a11.03624 11.03624 0 0 1 0 22.07248z" fill="#952D2E" /><path d="M1245.229821 676.203005h-371.579314a11.03624 11.03624 0 0 1 0-21.994759h371.579314a11.03624 11.03624 0 1 1 0 21.994759zM1138.364823 337.11065H373.988634a11.03624 11.03624 0 0 1 0-22.072479h764.376189a11.03624 11.03624 0 0 1 0 22.072479zM323.004315 337.11065h-21.7616a11.03624 11.03624 0 0 1 0-22.072479h21.7616a11.03624 11.03624 0 0 1 0 22.072479zM251.657356 337.11065H186.527997a11.03624 11.03624 0 0 1 0-22.072479h65.362519a11.03624 11.03624 0 0 1 0 22.072479z" fill="#952D2E" /><path d="M857.329307 1019.25908H464.532433a10.95852 10.95852 0 0 1-10.95852-10.95852V670.840325a7.07252 7.07252 0 0 1 0-1.32124v-3.4974a207.356957 207.356957 0 0 1 414.713914 0v3.1088a12.0466 12.0466 0 0 1 0 1.70984v337.460235a10.95852 10.95852 0 0 1-10.95852 10.95852z m-381.760634-21.99476h370.724394V673.016485a13.44556 13.44556 0 0 1 0-2.48704v-2.64248-1.86528a185.362197 185.362197 0 0 0-370.724394 0v4.50776a16.39892 16.39892 0 0 1 0 1.943zM1054.116344 549.286247H948.183986a36.916999 36.916999 0 0 1-36.83928-36.916999V455.478209a36.916999 36.916999 0 0 1 36.83928-36.83928h106.165518a36.916999 36.916999 0 0 1 36.83928 36.83928v56.891039a36.916999 36.916999 0 0 1-37.07244 36.916999zM948.183986 440.633689a14.92224 14.92224 0 0 0-14.84452 14.84452v56.891039a14.84452 14.84452 0 0 0 14.84452 14.844519h106.165518a14.84452 14.84452 0 0 0 14.84452-14.844519V455.478209a14.92224 14.92224 0 0 0-14.84452-14.84452zM1066.706984 875.865682h-131.346798a10.95852 10.95852 0 0 1-11.03624-10.95852v-58.756319a76.709639 76.709639 0 1 1 153.419278 0v58.756319a10.95852 10.95852 0 0 1-11.03624 10.95852z m-120.388278-21.994759h109.429758v-47.72008a54.403999 54.403999 0 1 0-109.429758 0z" fill="#952D2E" /><path d="M256.475996 349.77901a63.574959 63.574959 0 0 0-48.730439 60.466159c-5.12952 126.605878 2.79792 255.232476 4.2746 381.993794a154.118758 154.118758 0 0 0 14.14504-12.746079 65.207079 65.207079 0 0 0 7.771999-20.12948 114.015238 114.015238 0 0 0-0.7772-61.010199 32.17608 32.17608 0 0 1-2.253879-18.18648c3.73056-11.96888 18.18648-17.56472 23.315999-30.077639a86.036039 86.036039 0 0 0-1.47668-54.404c-4.2746-13.83416-10.1036-28.29008-6.37304-42.279679 3.1088-11.89116 12.4352-20.90668 19.43-31.087999 22.61652-32.40924 11.11396-69.947999 20.36264-105.699199A85.491999 85.491999 0 0 1 310.879995 373.09501c7.30568-6.2176 39.404039-12.97924 40.88072-20.75124-8.9378-3.80828-19.8186 0.85492-29.22272 0.46632l-28.212359-1.32124z" fill="#FFFFFF" /><path d="M386.035234 549.286247H279.791996a36.916999 36.916999 0 0 1-36.917-36.916999V455.478209A36.916999 36.916999 0 0 1 279.791996 418.638929h106.243238a36.916999 36.916999 0 0 1 36.917 36.83928v56.891039a36.916999 36.916999 0 0 1-36.917 36.916999zM279.791996 440.633689a14.92224 14.92224 0 0 0-14.84452 14.84452v56.891039A14.84452 14.84452 0 0 0 279.791996 527.213767h106.243238a14.7668 14.7668 0 0 0 14.84452-14.844519V455.478209a14.84452 14.84452 0 0 0-14.84452-14.84452zM398.703594 875.865682H267.279076a10.95852 10.95852 0 0 1-10.80308-10.95852v-58.756319a76.709639 76.709639 0 1 1 153.419278 0v58.756319a11.03624 11.03624 0 0 1-11.19168 10.95852z m-120.388278-21.994759h109.352038v-47.72008a54.403999 54.403999 0 1 0-109.352038 0zM460.335553 676.203005h-371.501594a11.03624 11.03624 0 1 1 0-21.994759h371.501594a11.03624 11.03624 0 1 1 0 21.994759z" fill="#952D2E" /></svg>