<?xml version="1.0" standalone="no"?><!DOCTYPE svg PUBLIC "-//W3C//DTD SVG 1.1//EN" "http://www.w3.org/Graphics/SVG/1.1/DTD/svg11.dtd"><svg class="icon" width="200px" height="183.18px" viewBox="0 0 1118 1024" version="1.1" xmlns="http://www.w3.org/2000/svg"><path d="M420.194035 876.982346h281.950514v135.031506H420.194035z" fill="#FBDEB5" /><path d="M645.465468 871.925232c-15.499725 10.902349-37.304424 26.270721-57.92694 24.366094a300.799756 300.799756 0 0 1-38.946344-9.65449 59.76589 59.76589 0 0 0-39.406081 1.510566c-12.084532 6.107943-18.061121 18.717889-31.524866 22.527144a74.346141 74.346141 0 0 1-26.270721 0c-8.735015-0.722445-18.849242 0-24.366094 5.319821-3.809255 3.612224-5.057114 9.063399-10.245581 11.29641l-2.298688-62.392963z" fill="#FFFFFF" /><path d="M367.9153 822.4706l65.676803-110.008645s8.340954-99.369002 12.150208-157.624326c4.137639-63.640822 5.648205-153.421011 5.648205-153.421011 0-67.844137 53.132533-122.815621 118.612306-122.815621s118.218245 54.971484 118.218245 122.815621c0 0 2.035981 61.342134 5.713881 153.618041 2.561395 63.575145 12.150208 157.624326 12.150209 157.624327l73.163958 110.008644" fill="#C2E5F3" /><path d="M336.718819 875.997194l78.812163-0.065677 0.131354 78.812163-78.943517-78.746486z" fill="#F5E455" /><path d="M575.58535 235.714045c-1.050829 28.897793-19.703041 60.882396-48.535157 65.217065a73.295312 73.295312 0 0 0-23.118235 4.860083c-12.018855 6.56768-16.484877 21.344961-17.207322 34.874382S481.536169 361.222415 476.938792 374.357775c-8.669338 23.906356-36.187918 34.808705-61.276456 38.946344a27.715611 27.715611 0 0 0-9.785844 2.889779c-8.143924 5.188467-7.487156 17.010292-10.705319 26.270722-5.648205 16.22217-24.23474 23.840679-41.245032 26.270721a48.666511 48.666511 0 0 1-22.39579-0.722445 20.885223 20.885223 0 0 1-14.645927-15.631079z" fill="#FFFFFF" /><path d="M783.45243 875.997194l-78.812163-0.065677-0.065677 78.812163 78.87784-78.746486z" fill="#F5E455" /><path d="M496.576156 817.019425v-63.575145a61.933225 61.933225 0 0 1 62.45864-60.685366 61.933225 61.933225 0 0 1 62.721346 60.685366v63.575145" fill="#FFFFFF" /><path d="M867.124677 831.928059H251.470329a9.326106 9.326106 0 1 1 0-18.586535h615.654348a9.326106 9.326106 0 1 1 0 18.586535zM867.124677 878.164528H251.470329a9.326106 9.326106 0 1 1 0-18.586535h615.654348a9.326106 9.326106 0 1 1 0 18.586535z" fill="#952D2E" /><path d="M339.214537 831.731029a9.326106 9.326106 0 0 1-7.946893-14.18619l68.894966-111.650564c1.313536-15.302695 9.063399-106.002359 12.806977-160.908167 4.334669-64.757327 6.042266-157.164589 6.042266-158.084064a136.213689 136.213689 0 0 1 272.3617 0s2.167334 64.166236 6.042266 158.412448c2.495719 59.109122 11.09938 144.883027 12.675623 160.120045l76.973213 111.650565a9.326106 9.326106 0 0 1-15.368372 10.573965l-78.286749-113.620868a9.391783 9.391783 0 0 1-1.576243-4.334669c0-0.985152-10.311258-98.515204-13.135361-163.600916-3.940608-94.311889-6.107943-158.215418-6.107942-158.872186a117.561477 117.561477 0 1 0-235.122954 0c0 1.116506-1.707597 93.983505-6.107943 159.20057-4.006285 59.962921-13.135361 162.418733-13.13536 163.469562a9.129076 9.129076 0 0 1-1.379213 4.071962L347.16143 827.527713a9.45746 9.45746 0 0 1-7.946893 4.203316z" fill="#952D2E" /><path d="M850.508446 526.530927l19.571687 19.637364M899.437664 575.525822l10.968026 10.968026c35.53115 35.465473 28.503732 100.091447-3.546547 132.141727L655.448342 467.290451 723.226802 399.380637l93.983505 93.852151M543.666424 355.442856l253.578135 253.578135M412.641203 672.464782l-19.571688 19.571688M363.711985 721.394l-10.968026 10.968026c-35.53115 35.53115-102.652843 26.270721-137.001811-8.340953L467.087272 472.872979l72.704221 72.244483-93.852151 94.049181M578.934867 360.828354L325.356732 614.406489" fill="#FFFFFF" /><path d="M850.508446 526.530927l19.571687 19.637364M899.437664 575.525822l10.968026 10.968026c35.53115 35.465473 33.560846 95.034333 6.042266 122.552913l-251.410801-251.345123 58.189647-58.321001 93.983505 93.852151M553.255237 345.854043l253.578135 253.578135M268.08656 234.006448l-19.571687-19.571687M219.157342 185.07723l-10.968026-10.968026C172.658166 138.578054 174.62847 78.812163 202.212727 51.490613l251.345124 251.345124L395.23685 361.222415 301.384699 267.304587M565.405446 414.683332L311.827311 161.105197M412.641203 672.464782l-19.571688 19.571688M363.711985 721.394l-10.968026 10.968026c-35.53115 35.53115-94.640273 34.020584-121.699116 6.567681l251.345124-251.01674L539.791493 545.117462 445.939342 639.166643M594.237562 376.065372L340.659427 629.643507M702.669963 91.684817l19.637364-19.571688M751.664858 42.755599L762.632884 31.787572c35.465473-35.53115 93.786474-34.808705 120.254226-8.40663L631.279279 274.791742l-55.956636-55.956636L669.371824 124.785925M519.628714 386.57366l253.643812-253.578135" fill="#F4D5E6" /><path d="M870.080133 555.42872a9.063399 9.063399 0 0 1-6.56768-2.692749l-19.703041-19.703041a9.326106 9.326106 0 0 1 13.135361-13.13536l19.70304 19.703041a9.326106 9.326106 0 0 1-6.56768 15.893786z" fill="#952D2E" /><path d="M902.064736 732.756087a9.063399 9.063399 0 0 1-6.56768-2.758425L644.414639 478.652538a9.45746 9.45746 0 0 1 0-13.135361l72.244483-72.70422a9.326106 9.326106 0 0 1 13.135361 0l93.983504 93.852151a9.326106 9.326106 0 0 1-13.13536 13.13536L723.226802 412.581674l-59.109122 59.503184 237.815702 237.815702a105.542622 105.542622 0 0 0 21.476315-55.299868c2.167334-25.022862-4.663053-46.893237-19.30898-61.539164l-10.968026-10.968026a9.260429 9.260429 0 0 1 13.13536-13.135361l10.968026 10.968026c18.652212 18.586535 27.387227 45.973762 24.694478 76.316445a119.794488 119.794488 0 0 1-32.838401 73.75505 9.063399 9.063399 0 0 1-7.027418 2.758425z" fill="#952D2E" /><path d="M792.450152 623.141504a9.129076 9.129076 0 0 1-6.56768-2.758426L532.304337 366.804943a9.260429 9.260429 0 0 1 13.135361-13.135361l253.578135 253.578135a9.326106 9.326106 0 0 1-6.567681 15.893787zM702.669963 101.010922a9.326106 9.326106 0 0 1-6.56768-15.893786l19.703041-19.703041a9.326106 9.326106 0 0 1 13.13536 13.135361l-19.703041 19.703041a9.129076 9.129076 0 0 1-6.56768 2.758425z" fill="#952D2E" /><path d="M648.158217 300.799756a9.260429 9.260429 0 0 1-6.56768-2.758426L568.951993 225.402787a9.326106 9.326106 0 0 1 0-13.135361L662.804144 118.218245a9.326106 9.326106 0 0 1 13.135361 13.13536L588.720711 218.835106l59.109122 59.503184 238.209763-237.88138a106.068036 106.068036 0 0 0-55.299868-21.476314c-25.088539-2.167334-46.893237 4.72873-61.539164 19.374657l-10.968026 10.968026a9.326106 9.326106 0 0 1-13.13536-13.135361L756.065204 25.154215C774.651739 6.56768 802.038966-2.167334 832.315972 0.459738a120.188549 120.188549 0 0 1 73.820726 32.838401 9.260429 9.260429 0 0 1 0 13.13536L654.791574 298.04133a9.326106 9.326106 0 0 1-6.633357 2.758426z" fill="#952D2E" /><path d="M536.376299 412.581674a9.063399 9.063399 0 0 1-6.56768-2.692749 9.260429 9.260429 0 0 1 0-13.13536l253.578135-253.578135a9.326106 9.326106 0 0 1 13.13536 13.13536L542.943979 409.888925a9.194752 9.194752 0 0 1-6.56768 2.692749zM268.08656 243.332554a9.260429 9.260429 0 0 1-6.56768-2.758426l-19.703041-19.703041a9.260429 9.260429 0 0 1 13.13536-13.13536l19.703041 19.703041a9.326106 9.326106 0 0 1-6.56768 15.893786z" fill="#952D2E" /><path d="M395.23685 370.482844a9.326106 9.326106 0 0 1-6.56768-2.758426L294.817019 273.872267a9.326106 9.326106 0 0 1 13.13536-13.13536L395.23685 348.087054l59.503183-59.503183L216.924331 50.702492c-25.022862 31.721896-31.787572 87.218794-2.167335 116.839032l10.968026 10.968026a9.260429 9.260429 0 0 1-13.13536 13.13536l-10.968026-10.968026c-39.931496-39.931496-28.306702-113.489515 8.340954-150.137171a9.326106 9.326106 0 0 1 13.13536 0l251.345124 251.410801a9.260429 9.260429 0 0 1 0 13.13536L401.80453 367.790095a9.063399 9.063399 0 0 1-6.56768 2.692749z" fill="#952D2E" /><path d="M579.722989 409.626218a9.063399 9.063399 0 0 1-6.567681-2.692749L319.577173 153.355334a9.326106 9.326106 0 1 1 13.135361-13.13536L586.290669 394.060816a9.194752 9.194752 0 0 1 0 13.13536 9.063399 9.063399 0 0 1-6.56768 2.430042zM393.069515 701.362576a9.326106 9.326106 0 0 1-6.56768-15.893787l19.703041-19.70304a9.326106 9.326106 0 1 1 13.135361 13.13536l-19.703041 19.703041a9.260429 9.260429 0 0 1-6.567681 2.758426z" fill="#952D2E" /><path d="M293.634836 764.149599c-3.480871 0-7.027418 0-10.639642-0.525414a119.991518 119.991518 0 0 1-73.820726-32.838402 9.326106 9.326106 0 0 1 0-13.13536L460.519592 466.305299a9.194752 9.194752 0 0 1 13.13536 0l72.704221 72.244483a9.326106 9.326106 0 0 1 0 13.13536L452.507022 645.734324a9.326106 9.326106 0 0 1-13.135361-13.135361L526.590455 545.117462 467.087272 486.00834l-237.750026 237.618672a105.082884 105.082884 0 0 0 55.299868 21.476314c24.957185 2.167334 46.82756-4.663053 61.473488-19.30898l10.968026-10.968026a9.326106 9.326106 0 0 1 13.13536 13.135361l-10.968026 10.968026a91.028048 91.028048 0 0 1-65.611126 25.219892z" fill="#952D2E" /><path d="M325.356732 623.929625a9.326106 9.326106 0 0 1-6.56768-15.893786L572.170156 354.260674a9.326106 9.326106 0 0 1 13.135361 13.13536L331.990089 620.974169a9.326106 9.326106 0 0 1-6.633357 2.955456z" fill="#952D2E" /><path d="M559.297503 383.158467m-66.793308 0a66.793308 66.793308 0 1 0 133.586616 0 66.793308 66.793308 0 1 0-133.586616 0Z" fill="#88CAEF" /><path d="M559.034796 459.277881a76.119414 76.119414 0 1 1 76.382121-76.119414A76.185091 76.185091 0 0 1 559.034796 459.277881z m0-133.586617a57.532879 57.532879 0 1 0 57.467202 57.467203A57.467202 57.467202 0 0 0 559.034796 325.691264zM420.194035 1011.422761a9.391783 9.391783 0 0 1-9.326106-9.326106v-124.785925a9.326106 9.326106 0 0 1 18.652212 0v124.785925a9.391783 9.391783 0 0 1-9.326106 9.326106zM702.144549 1011.422761a9.326106 9.326106 0 0 1-9.260429-9.326106v-124.785925a9.326106 9.326106 0 0 1 18.586535 0v124.785925a9.326106 9.326106 0 0 1-9.326106 9.326106z" fill="#952D2E" /><path d="M419.405913 971.228558a9.260429 9.260429 0 0 1-6.56768-2.758426l-89.451805-89.386128a9.326106 9.326106 0 1 1 13.13536-13.135361l89.386129 89.451805a9.326106 9.326106 0 0 1-6.56768 15.893787zM704.640267 973.592923a9.326106 9.326106 0 0 1-6.56768-15.893787l91.947524-91.947523a9.326106 9.326106 0 1 1 13.13536 13.13536l-91.947523 91.947524a9.45746 9.45746 0 0 1-6.567681 2.758426zM622.01885 826.345531a9.326106 9.326106 0 0 1-9.326106-9.326106v-63.575145a53.460917 53.460917 0 0 0-106.790482 0v63.575145a9.326106 9.326106 0 1 1-18.652212 0v-63.575145a72.244483 72.244483 0 0 1 144.094906 0v63.575145a9.326106 9.326106 0 0 1-9.326106 9.326106zM1108.486927 1023.96703H261.71591a9.326106 9.326106 0 1 1 0-18.586535h846.771017a9.326106 9.326106 0 1 1 0 18.586535zM205.890628 1023.96703h-52.541442a9.326106 9.326106 0 1 1 0-18.586535h52.541442a9.326106 9.326106 0 0 1 0 18.586535zM113.089306 1023.96703H10.108079a9.326106 9.326106 0 1 1 0-18.586535H113.089306a9.326106 9.326106 0 1 1 0 18.586535z" fill="#952D2E" /></svg>