<?xml version="1.0" standalone="no"?><!DOCTYPE svg PUBLIC "-//W3C//DTD SVG 1.1//EN" "http://www.w3.org/Graphics/SVG/1.1/DTD/svg11.dtd"><svg class="icon" width="200px" height="185.51px" viewBox="0 0 1104 1024" version="1.1" xmlns="http://www.w3.org/2000/svg"><path d="M729.766928 1011.857507H405.452503l90.727738-160.279193h142.858949l90.727738 160.279193z" fill="#C9E4F7" /><path d="M504.145631 878.000096H595.909517v142.470394H504.145631z" fill="#FFFFFF" /><path d="M522.213467 399.170053h73.63129v621.300437H522.213467z" fill="#88CAEF" /><path d="M477.59433 635.41187a134.245967 134.245967 0 1 1-29.983542 27.52269" fill="#F3A8BC" /><path d="M492.100407 213.051911a108.407018 108.407018 0 1 1-24.155208 22.341948" fill="#F4D5E6" /><path d="M558.154862 196.862094a84.187051 84.187051 0 0 0-12.951854-0.90663A91.893404 91.893404 0 0 0 454.086715 288.431701v8.742502h2.396093a189.809421 189.809421 0 0 0 101.672054-100.312109zM558.931973 619.027775a117.797112 117.797112 0 0 0-16.643132-1.165667A119.73989 119.73989 0 0 0 423.649858 738.37911v11.332872h3.108445a246.6033 246.6033 0 0 0 132.17367-130.684207z" fill="#FFFFFF" /><path d="M550.448509 196.473538a9.195816 9.195816 0 0 1-9.131057-9.195816V9.96684a9.195816 9.195816 0 1 1 18.326873 0V187.277722a9.195816 9.195816 0 0 1-9.195816 9.195816z" fill="#952D2E" /><path d="M549.412361 122.259415m-32.573913 0a32.573913 32.573913 0 1 0 65.147826 0 32.573913 32.573913 0 1 0-65.147826 0Z" fill="#952D2E" /><path d="M552.715084 420.411094A117.538075 117.538075 0 0 1 460.562642 229.695044a9.195816 9.195816 0 1 1 14.376558 11.397631 98.110294 98.110294 0 0 0-21.564837 61.780344A99.081683 99.081683 0 1 0 497.281148 220.952542a9.195816 9.195816 0 0 1-10.296724-15.218428A117.538075 117.538075 0 1 1 552.715084 420.411094zM552.456046 889.397728a143.247505 143.247505 0 0 1-143.053227-143.053228 141.239968 141.239968 0 0 1 31.149209-89.108756 9.195816 9.195816 0 1 1 14.311798 11.462391 123.042613 123.042613 0 0 0-27.069374 77.711124 124.661595 124.661595 0 1 0 54.98062-103.614832 9.195816 9.195816 0 1 1-10.296724-15.218428 143.053228 143.053228 0 1 1 79.977698 261.69221z" fill="#952D2E" /><path d="M654.840452 312.068835H528.624635a9.195816 9.195816 0 0 1 0-18.391633H654.840452a9.195816 9.195816 0 0 1 0 18.391633zM678.736623 755.475557H510.751077a9.195816 9.195816 0 1 1 0-18.326873h167.985546a9.195816 9.195816 0 1 1 0 18.326873zM475.975348 755.475557h-16.643132a9.195816 9.195816 0 0 1 0-18.326873h16.643132a9.195816 9.195816 0 0 1 0 18.326873zM503.433279 580.625528a9.131057 9.131057 0 0 1-9.195816-9.131057V399.170053a9.195816 9.195816 0 0 1 18.391632 0v172.324418a9.195816 9.195816 0 0 1-9.195816 9.131057zM503.433279 1017.944879a9.131057 9.131057 0 0 1-9.195816-9.131057v-89.950626a9.195816 9.195816 0 1 1 18.391632 0v89.950626a9.195816 9.195816 0 0 1-9.195816 9.131057zM595.715239 1017.944879a9.131057 9.131057 0 0 1-9.195817-9.131057v-128.67667a9.195816 9.195816 0 0 1 18.391633 0v128.67667a9.195816 9.195816 0 0 1-9.195816 9.131057zM594.096257 626.993165a9.131057 9.131057 0 0 1-9.195816-9.195816V412.186667a9.195816 9.195816 0 0 1 18.391632 0v205.610682a9.195816 9.195816 0 0 1-9.195816 9.195816z" fill="#952D2E" /><path d="M585.742311 465.159749h-46.367637a9.195816 9.195816 0 1 1 0-18.326873h46.367637a9.195816 9.195816 0 1 1 0 18.326873zM585.742311 520.205129h-46.367637a9.195816 9.195816 0 1 1 0-18.326873h46.367637a9.195816 9.195816 0 1 1 0 18.326873zM585.742311 575.250509h-46.367637a9.195816 9.195816 0 1 1 0-18.326874h46.367637a9.195816 9.195816 0 1 1 0 18.326874zM592.282998 937.902421h-46.432397a9.195816 9.195816 0 1 1 0-18.326873h46.432397a9.195816 9.195816 0 0 1 0 18.326873zM592.282998 992.9478h-46.432397a9.195816 9.195816 0 1 1 0-18.326873h46.432397a9.195816 9.195816 0 0 1 0 18.326873zM374.756609 1022.866583a9.195816 9.195816 0 0 1-8.030149-13.599446l89.043996-161.898176a9.195816 9.195816 0 1 1 16.060299 8.87202L382.851518 1018.074397a9.260576 9.260576 0 0 1-8.094909 4.792186zM729.443132 1022.866583a9.195816 9.195816 0 0 1-8.03015-4.792186l-88.979237-161.898175a9.195816 9.195816 0 1 1 16.060299-8.87202l89.043996 161.898175a9.260576 9.260576 0 0 1-3.626519 12.43378 9.390094 9.390094 0 0 1-4.468389 1.230426z" fill="#952D2E" /><path d="M1093.001674 1023.967491H277.488186a9.195816 9.195816 0 1 1 0-18.326874h815.513488a9.195816 9.195816 0 1 1 0 18.326874zM222.442806 1023.967491h-71.235197a9.195816 9.195816 0 1 1 0-18.326874h71.235197a9.195816 9.195816 0 1 1 0 18.326874zM111.510177 1023.967491H9.967641a9.195816 9.195816 0 1 1 0-18.326874H111.510177a9.195816 9.195816 0 1 1 0 18.326874z" fill="#952D2E" /></svg>