<?xml version="1.0" standalone="no"?><!DOCTYPE svg PUBLIC "-//W3C//DTD SVG 1.1//EN" "http://www.w3.org/Graphics/SVG/1.1/DTD/svg11.dtd"><svg class="icon" width="200px" height="140.95px" viewBox="0 0 1453 1024" version="1.1" xmlns="http://www.w3.org/2000/svg"><path d="M214.757451 881.456969q3.58891 4.016161 7.690521 7.690521a301.89566 301.89566 0 0 0 70.75279 43.494166 170.900458 170.900458 0 0 0 77.674258 17.090046c64.942174-2.221706 118.861269-49.304782 176.625624-69.214685 41.785162-14.355639 71.009141-5.127014 112.452502 10.339477 49.475683 18.45725 97.242361 48.108479 150.990555 51.270138 72.632695 4.528862 142.274632-28.454926 142.274632-28.454926 76.905206-52.979142 128.175344-39.905257 207.644057-2.307157 51.270138 24.182415 113.648805 9.314075 164.918942-20.593505l1.110853-50.586536-261.135901-93.140749h-401.616077l-85.450229-47.681228h-76.050704l-95.533357-55.457199H212.621196l-27.942225 187.990504a256.350688 256.350688 0 0 0 30.07848 49.561133z" fill="#C9E4F7" /><path d="M532.717754 613.31415S664.909259 316.374603 496.230507 12.599038c0 0 354.874802-25.635069 424.602189 367.435986a388.542192 388.542192 0 0 0-106.556436 125.697287c-22.900661 44.092318-44.177769 149.537901-44.177769 149.537901h-84.168476l-90.235442-41.956062z" fill="#F4D5E6" /><path d="M439.235204 578.365006s-8.545023-152.357759-92.542599-356.840157c0 0 122.108378-9.314075 217.983535 81.177717l-8.545023 176.454724-38.794404 139.112973z" fill="#F3A8BC" /><path d="M242.357875 566.231073c-19.055401-39.990707-70.325539-136.720367-102.540275-188.674106A457.073276 457.073276 0 0 1 353.784974 410.369855s18.969951 21.106207 31.018434 69.214686a453.826168 453.826168 0 0 1 10.254027 88.270087l-86.475632-0.939953z" fill="#F4D5E6" /><path d="M845.380143 655.270212s36.829049-321.805563 364.359778-256.350687a1178.102311 1178.102311 0 0 0-61.780516 127.406291l-47.766678 42.725115-18.62815 5.383364-48.27938 73.743548z" fill="#F3A8BC" /><path d="M1064.474531 653.903009c35.632746-96.90056 152.272309-163.466289 256.350688-124.671885A215.932729 215.932729 0 0 0 1236.571293 709.445658zM1033.285197 647.836042a259.768697 259.768697 0 0 1 18.200899-31.872935" fill="#F4D5E6" /><path d="M1325.01228 878.466211l1.879905-94.678854-261.135901-93.14075H664.225657l-85.621129-47.681228h-75.965254l-95.533357-56.05535h-246.951162v228.066662l52.466441 2.905308 158.253824 75.281652 132.276955-59.47336 98.182314-14.95379 209.609412 66.99298 125.099135-28.454927 119.972122-38.965304 148.085248 53.577293 120.912074 6.579668z" fill="#88CAEF" /><path d="M172.630488 821.214558c1.965355-1.794455 3.930711-3.67436 5.981516-5.383365 36.145447-29.053078 25.635069-74.5126 19.739003-86.133831-10.339478-21.533458-11.36488-46.826726 0.854503-85.450229 6.665118-20.764406-15.03924-40.332508-26.233221-45.972224-11.19398 12.732084-6.408767 37.854452-13.330235 54.688147a196.535527 196.535527 0 0 0-12.732085 100.831271 158.424725 158.424725 0 0 0 17.602748 54.175445 107.838189 107.838189 0 0 0 8.117771 13.244786z" fill="#FFFFFF" /><path d="M687.55357 728.330158m10.510378 0l35.461845 0q10.510378 0 10.510378 10.510379l0 35.461845q0 10.510378-10.510378 10.510378l-35.461845 0q-10.510378 0-10.510378-10.510378l0-35.461845q0-10.510378 10.510378-10.510379Z" fill="#FFFFFF" /><path d="M831.537206 728.330158m10.510378 0l35.461845 0q10.510378 0 10.510379 10.510379l0 35.461845q0 10.510378-10.510379 10.510378l-35.461845 0q-10.510378 0-10.510378-10.510378l0-35.461845q0-10.510378 10.510378-10.510379Z" fill="#FFFFFF" /><path d="M975.520842 728.330158m10.510379 0l35.461845 0q10.510378 0 10.510378 10.510379l0 35.461845q0 10.510378-10.510378 10.510378l-35.461845 0q-10.510378 0-10.510379-10.510378l0-35.461845q0-10.510378 10.510379-10.510379Z" fill="#FFFFFF" /><path d="M488.881787 14.906194S509.218941 34.388847 531.0942 139.492629a942.686929 942.686929 0 0 1 32.043836 150.477853 558.673599 558.673599 0 0 1-1.538104 125.013686c-13.073885 68.360183-28.027675 135.865865-39.307106 204.311498-2.563507 15.808292 24.096965 2.307156 28.625827 0 14.099288-7.006919 30.762083-17.090046 36.99995-34.180092a54.859047 54.859047 0 0 0-1.196304-33.49649c-5.127014-17.090046-14.526539-37.4272-7.092369-55.9699 6.494217-16.235544 22.38796-21.362557 33.49649-32.043836a63.574971 63.574971 0 0 0 17.090046-46.912176c0-23.840614-18.62815-43.750517-24.780566-66.394828a182.094439 182.094439 0 0 1 2.050805-90.406342c3.503459-15.124691 9.826776-29.480329 10.339478-45.374072 1.709005-39.136205-11.10853-51.953739-28.198576-82.03222-7.690521-14.270188-70.581889-120.570273-32.471087-120.228473z" fill="#FFFFFF" /><path d="M373.951228 895.983508a216.701781 216.701781 0 0 1-119.63032-32.471087 194.228371 194.228371 0 0 0-107.75274-29.565779 235.842633 235.842633 0 0 0-35.120044 2.478056 12.133933 12.133933 0 1 1-3.67436-24.011514 274.466136 274.466136 0 0 1 38.794404-2.734407 216.616331 216.616331 0 0 1 119.630321 32.556537A194.997423 194.997423 0 0 0 373.951228 871.801093a193.71567 193.71567 0 0 0 108.00909-29.73668 216.616331 216.616331 0 0 1 119.630321-32.727437 215.932729 215.932729 0 0 1 119.630321 32.556537A194.997423 194.997423 0 0 0 828.888249 871.801093a193.71567 193.71567 0 0 0 107.752739-29.651229 216.616331 216.616331 0 0 1 119.630321-32.727438 217.299933 217.299933 0 0 1 119.630321 32.471087 196.022826 196.022826 0 0 0 107.923639 29.565779 193.288419 193.288419 0 0 0 107.83819-29.736679 279.764051 279.764051 0 0 1 45.886773-21.533458 12.133933 12.133933 0 0 1 7.861421 22.900661 265.835663 265.835663 0 0 0-42.126963 19.909904 216.10363 216.10363 0 0 1-119.630321 32.641987 216.445431 216.445431 0 0 1-119.630321-32.471087 194.228371 194.228371 0 0 0-107.752739-29.565779A194.399272 194.399272 0 0 0 948.51857 863.25607a216.616331 216.616331 0 0 1-119.630321 32.727438A216.616331 216.616331 0 0 1 709.257928 863.25607a194.997423 194.997423 0 0 0-107.667289-29.651229A193.71567 193.71567 0 0 0 493.581549 863.25607a216.616331 216.616331 0 0 1-119.630321 32.727438zM12.154958 876.244505a12.219383 12.219383 0 0 1-10.93763-6.836018 12.048482 12.048482 0 0 1 5.639716-16.150094c7.092369-3.503459 13.757487-7.177819 20.422604-10.852179 7.946871-4.357962 16.064643-8.545023 24.866017-12.988434a12.133933 12.133933 0 1 1 10.339478 21.960708c-8.117772 3.75981-15.551942 7.861421-23.498813 12.219383s-14.013838 7.690521-21.533458 11.364881a11.792132 11.792132 0 0 1-5.297914 1.281753zM342.590994 1016.553782a121.082975 121.082975 0 0 1-66.053027-17.944549 12.133933 12.133933 0 0 1 11.621231-21.277107 96.98601 96.98601 0 0 0 54.431796 15.039241 96.387859 96.387859 0 0 0 54.517247-15.124691 122.364728 122.364728 0 0 1 66.138477-18.029998 121.766577 121.766577 0 0 1 66.053027 17.944548c3.58891 1.965355 7.177819 3.930711 11.02308 5.810615s5.468815 2.478057 8.545023 3.58891a12.133933 12.133933 0 1 1-8.545023 22.729761 109.718094 109.718094 0 0 1-10.595829-4.528862c-4.187061-1.965355-8.545023-4.187061-12.133932-6.323317a97.07146 97.07146 0 0 0-54.431796-14.95379 96.387859 96.387859 0 0 0-54.517246 15.03924 120.741174 120.741174 0 0 1-66.053028 18.029999zM648.246464 1010.999517a84.681177 84.681177 0 0 1-45.972223-12.390284 12.133933 12.133933 0 0 1 11.621231-21.277107 61.182364 61.182364 0 0 0 34.180092 9.484976 60.926013 60.926013 0 0 0 34.180092-9.570426 84.424826 84.424826 0 0 1 45.972223-12.475733 83.912125 83.912125 0 0 1 45.972223 12.475733c2.307156 1.281753 4.614312 2.478057 7.092369 3.67436a49.561133 49.561133 0 0 0 5.297915 2.307156 12.133933 12.133933 0 1 1-8.545023 22.729761c-2.648957-0.939953-5.041564-2.050806-7.43417-3.161658s-5.554265-2.819858-8.545023-4.357962a61.865966 61.865966 0 0 0-34.180092-9.484975 61.609615 61.609615 0 0 0-34.180092 9.570425 83.655774 83.655774 0 0 1-45.972223 12.475734zM1050.546144 1023.987952a54.004545 54.004545 0 0 1-29.309429-7.946872 12.048482 12.048482 0 0 1 11.621231-21.191657 31.531135 31.531135 0 0 0 17.688198 4.870663 30.420282 30.420282 0 0 0 17.688197-4.956113 54.517246 54.517246 0 0 1 29.309429-7.946871 54.175445 54.175445 0 0 1 29.223978 7.946871l4.016161 2.050806 2.648957 1.110853a12.133933 12.133933 0 0 1-8.545023 22.729761 47.424877 47.424877 0 0 1-4.785213-2.050806c-1.709005-0.769052-3.332559-1.709005-4.956113-2.563507a30.847533 30.847533 0 0 0-17.688197-4.956113 30.334831 30.334831 0 0 0-17.602748 4.956113 54.773597 54.773597 0 0 1-29.309428 7.946872zM1214.012432 1023.987952a53.833644 53.833644 0 0 1-29.309428-7.946872 12.048482 12.048482 0 1 1 11.621231-21.191657 31.274784 31.274784 0 0 0 17.688197 4.870663 30.591182 30.591182 0 0 0 17.688198-4.956113 54.260896 54.260896 0 0 1 29.309428-7.946871 54.260896 54.260896 0 0 1 29.309429 7.946871l3.93071 2.050806 2.648958 1.110853a12.133933 12.133933 0 1 1-8.545023 22.729761 40.332508 40.332508 0 0 1-4.785213-2.050806c-1.709005-0.769052-3.332559-1.709005-5.041564-2.563507a30.591182 30.591182 0 0 0-17.688197-4.956113 30.847533 30.847533 0 0 0-17.688198 4.956113 54.260896 54.260896 0 0 1-29.309428 7.946872z" fill="#952D2E" /><path d="M1325.01228 891.112845a12.048482 12.048482 0 0 1-11.877582-12.304833l1.709005-94.935205-247.805665-83.912125H667.216415a11.19398 11.19398 0 0 1-5.041563-1.110853L575.95557 659.457274h-68.958335a11.877582 11.877582 0 0 1-5.383364-1.281754l-97.327811-47.766678H172.288687v207.473157a12.133933 12.133933 0 0 1-24.267865 0V598.36036a12.219383 12.219383 0 0 1 12.133933-12.133933h246.951162a11.535781 11.535781 0 0 1 5.297915 1.281754l97.413261 47.766678h68.360183a13.073885 13.073885 0 0 1 5.041564 1.110853l86.133831 39.478006h398.88167a11.706681 11.706681 0 0 1 3.84526 0.598151l258.230593 87.415585a12.133933 12.133933 0 0 1 8.545023 11.706681l-1.879905 103.736578a11.963032 11.963032 0 0 1-11.963032 11.792132z" fill="#952D2E" /><path d="M733.611243 796.946692h-35.547295a22.644311 22.644311 0 0 1-22.558861-22.64431v-35.461845a22.644311 22.644311 0 0 1 22.558861-22.644311h35.547295a22.644311 22.644311 0 0 1 22.558861 22.644311v35.461845a22.644311 22.644311 0 0 1-22.558861 22.64431z m-34.180091-24.182414h32.300186v-32.300187h-32.043836zM877.59488 796.946692h-35.547296a22.644311 22.644311 0 0 1-22.55886-22.64431v-35.461845a22.644311 22.644311 0 0 1 22.55886-22.644311h35.547296a22.644311 22.644311 0 0 1 22.55886 22.644311v35.461845a22.644311 22.644311 0 0 1-22.55886 22.64431z m-34.180092-24.182414h32.300187v-32.300187h-32.043836zM1021.578516 796.946692h-35.547295a22.644311 22.644311 0 0 1-22.644311-22.64431v-35.461845a22.644311 22.644311 0 0 1 22.644311-22.644311h35.547295a22.644311 22.644311 0 0 1 22.55886 22.644311v35.461845a22.644311 22.644311 0 0 1-22.55886 22.64431z m-34.180092-24.182414h32.300187v-32.300187h-32.300187zM458.034254 700.900635a12.133933 12.133933 0 0 1-4.870663-1.025403L359.339239 658.17552a12.133933 12.133933 0 1 1 9.741326-22.217059l93.995253 41.27246A12.048482 12.048482 0 0 1 458.034254 700.900635zM318.323129 656.979217H248.681192a12.133933 12.133933 0 0 1 0-24.267865h69.641937a12.133933 12.133933 0 0 1 0 24.267865zM506.997235 659.457274a12.561184 12.561184 0 0 1-4.956113-1.025403 12.133933 12.133933 0 0 1-6.408767-15.979193c1.452654-3.332559 142.787333-329.410634-27.514974-623.786674A12.219383 12.219383 0 0 1 478.029608 0.208755c3.84526 0 381.022572-21.704358 454.68067 377.519113a12.048482 12.048482 0 1 1-23.755164 4.357961c-29.309429-158.424725-110.059895-266.690165-240.115144-321.891013a473.30882 473.30882 0 0 0-169.447805-35.718196C660.294947 324.919626 519.472969 648.946895 518.020315 652.279454a11.963032 11.963032 0 0 1-11.02308 7.17782z" fill="#952D2E" /><path d="M407.020467 610.408842a12.133933 12.133933 0 0 1-12.048482-11.364881c0-1.709005-11.621231-170.900458-97.498712-372.7339a12.304833 12.304833 0 0 1 0.769052-10.937629 11.963032 11.963032 0 0 1 9.399526-5.896066c5.896066-0.598152 145.692641-12.902985 260.879549 85.45023a12.133933 12.133933 0 1 1-15.722842 18.457249c-85.450229-72.803595-186.623301-80.579566-226.101306-80.579566C407.96042 431.903313 418.727149 595.882303 419.1544 597.505857a12.133933 12.133933 0 0 1-11.364881 12.902985zM217.235508 603.231023a12.048482 12.048482 0 0 1-10.852179-6.665118c-3.58891-7.177819-8.545023-17.090046-13.757487-28.113126-24.951467-51.270138-66.736629-136.720367-93.995252-178.078277a12.048482 12.048482 0 0 1 7.34872-18.3718A408.537546 408.537546 0 0 1 333.276919 392.083506a12.133933 12.133933 0 0 1 6.750568 15.808293 12.048482 12.048482 0 0 1-15.722842 6.665118 394.181908 394.181908 0 0 0-195.082873-21.960709c27.173173 45.801323 63.147719 119.630321 85.450229 165.260743 5.554265 11.19398 10.168577 20.764406 13.757487 27.856775a12.133933 12.133933 0 0 1-5.468815 16.235543 11.10853 11.10853 0 0 1-5.725165 1.281754zM843.671139 552.473587a11.621231 11.621231 0 0 1-5.212464-1.196304 12.133933 12.133933 0 0 1-5.725166-16.150093c1.281753-2.648957 130.824301-266.092014 393.840107-172.438563a12.048482 12.048482 0 0 1 5.810615 18.3718 895.262052 895.262052 0 0 0-84.766627 151.417806 12.133933 12.133933 0 1 1-22.38796-9.314075 875.693949 875.693949 0 0 1 78.18696-142.701883c-95.789707-29.480329-182.69259-12.048482-258.401493 51.868289A383.329728 383.329728 0 0 0 854.523318 545.637568a12.133933 12.133933 0 0 1-10.852179 6.836019z" fill="#952D2E" /><path d="M1221.959304 741.831295a12.048482 12.048482 0 0 1-12.133933-11.706682c-3.418009-106.556436 64.600373-183.717993 97.156911-214.394625-98.011413-27.942225-167.82425 17.090046-209.951214 62.036866a12.133933 12.133933 0 1 1-17.602747-17.090045c49.988384-52.979142 134.925912-106.641886 255.752536-61.524166a12.048482 12.048482 0 0 1 3.161659 20.935307c-1.110853 0.854502-108.350891 84.681177-104.33473 208.84036a12.048482 12.048482 0 0 1-12.048482 12.902985zM1033.285197 659.969975a11.706681 11.706681 0 0 1-5.041563-1.110853 11.963032 11.963032 0 0 1-5.981516-15.979193 276.687842 276.687842 0 0 1 19.140851-33.58194 12.133933 12.133933 0 0 1 20.251704 13.244786 261.734052 261.734052 0 0 0-17.090045 30.334831 12.219383 12.219383 0 0 1-11.279431 7.092369zM638.163337 401.824832a12.988435 12.988435 0 0 1-3.588909-0.512701 12.048482 12.048482 0 0 1-8.032322-15.03924 240.798746 240.798746 0 0 0 0-129.457098 12.133933 12.133933 0 1 1 22.900662-7.177819A261.734052 261.734052 0 0 1 649.442768 393.279809a12.048482 12.048482 0 0 1-11.279431 8.545023zM620.64604 200.247742a11.963032 11.963032 0 0 1-11.27943-7.775971l-19.226302-49.817484a12.133933 12.133933 0 0 1 22.644311-8.545023L632.352722 183.841298a12.048482 12.048482 0 0 1-6.921469 15.637392 12.988435 12.988435 0 0 1-4.785213 0.769052zM434.706341 424.127342a12.133933 12.133933 0 0 1-12.048482-11.36488c-1.965355-31.958386-30.932983-111.085298-31.274784-111.68345a12.133933 12.133933 0 0 1 11.963032-16.320994c47.253977 2.392606 79.725064 38.794404 81.006818 40.417959a12.048482 12.048482 0 0 1-1.110853 17.090046 12.219383 12.219383 0 0 1-17.090046-1.110853 111.085298 111.085298 0 0 0-45.032271-28.796728c9.143175 26.745922 24.182415 73.828998 25.635069 98.865916A12.133933 12.133933 0 0 1 435.817194 424.127342z" fill="#952D2E" /></svg>