<?xml version="1.0" standalone="no"?><!DOCTYPE svg PUBLIC "-//W3C//DTD SVG 1.1//EN" "http://www.w3.org/Graphics/SVG/1.1/DTD/svg11.dtd"><svg class="icon" width="200px" height="174.30px" viewBox="0 0 1175 1024" version="1.1" xmlns="http://www.w3.org/2000/svg"><path d="M726.547303 644.989839L625.661977 234.617038A23.254689 23.254689 0 0 0 580.463695 234.617038L479.785383 644.437799 575.840359 772.856124l150.706944-128.21131" fill="#FBDEB5" /><path d="M599.716093 213.915534c0 23.323694 6.900501 47.889478 6.900501 71.213172a41.748032 41.748032 0 0 1-2.277166 16.561202 97.642091 97.642091 0 0 1-8.211596 12.282892C577.910509 342.264855 605.995549 385.669007 587.364196 414.030067c-8.349606 12.972942-24.910809 19.597423-29.87917 34.502505s3.105225 32.018325-4.485326 45.060272c-5.175376 8.970651-15.871153 12.282892-25.600859 14.422048a326.876738 326.876738 0 0 1-37.400716 5.934431z" fill="#FFFFFF" /><path d="M602.959328 153.39814m-60.241374 0a60.241375 60.241375 0 1 0 120.482749 0 60.241375 60.241375 0 1 0-120.482749 0Z" fill="#F5E455" /><path d="M1006.845658 590.544885c24.841804-27.602004 40.022906-57.205154 40.022906-96.607016 0-84.738154-100.954331-108.682892-153.329134-184.036364-50.097638 73.007302-153.329135 99.298211-153.329135 184.036364 0 39.746886 15.112097 69.695061 39.953902 96.607016z" fill="#E9D1E5" /><path d="M479.785383 654.23651a8.694631 8.694631 0 0 1-2.277165 0 9.729707 9.729707 0 0 1-6.900501-11.799857l100.126271-410.441806a33.122405 33.122405 0 0 1 64.519685 0l85.497209 342.33386a9.798712 9.798712 0 1 1-18.976378 4.761346L616.20829 236.687188a13.801002 13.801002 0 0 0-26.428919 0L489.308075 646.714964a9.867717 9.867717 0 0 1-9.522692 7.521546z" fill="#952D2E" /><path d="M563.419457 644.989839a103.507517 103.507517 0 0 0 30.15519-73.145312c0-63.89864-75.905512-82.046958-115.652399-138.907087-37.814746 55.204009-115.721404 75.008447-115.721403 138.907087a103.921547 103.921547 0 0 0 30.155189 73.145312zM289.745583 646.507949a89.292484 89.292484 0 0 0 25.945884-62.863565c0-55.204009-65.416751-70.385111-99.367216-119.240659-32.432355 47.337438-99.367216 64.381675-99.367216 119.240659a88.947459 88.947459 0 0 0 25.945884 62.863565z" fill="#E9D1E5" /><path d="M121.856391 567.497211a69.005011 69.005011 0 0 0 10.695777 0c41.886042-2.829205 82.184968-36.710666 79.424767-79.148748l-0.483035-6.900501h-2.001145c-40.160916 19.459413-75.491482 51.339728-87.636364 86.049249zM534.575362 147.325699a45.612312 45.612312 0 0 0 7.521546 0c29.258125-2.001145 57.619184-25.669864 55.618039-55.204009v-5.037366h-1.449105c-28.430065 13.593987-53.202864 35.951611-61.69048 60.241375zM374.552741 543.621477a75.905512 75.905512 0 0 0 11.178812 0c43.956192-3.03622 86.463279-38.573801 83.427059-82.806013l-0.483035-7.659556h-2.139156C424.374359 473.650396 387.249664 507.117826 374.552741 543.621477zM754.563338 461.367504a102.265426 102.265426 0 0 0 15.250107 0c59.89635-4.140301 117.722549-52.512813 113.582248-113.237223l-0.69005-10.005727h-2.89821c-57.412169 28.016035-107.923837 73.628347-125.244095 123.24295z" fill="#FFFFFF" /><path d="M1063.015737 1014.373663H107.158324v-234.134003a15.733143 15.733143 0 0 1 15.664137-15.664137h924.667149a15.733143 15.733143 0 0 1 15.664137 15.664137z" fill="#F3A8BC" /><path d="M790.928978 591.02792h204.530853v38.435791H790.928978z" fill="#F5E455" /><path d="M1032.032487 764.575523h-277.055119V659.825916a26.428919 26.428919 0 0 1 26.290909-26.359914h224.473301a26.359914 26.359914 0 0 1 26.290909 26.359914z" fill="#FBDEB5" /><path d="M557.001991 772.856124c-23.392699 23.530709-60.72441 23.737724-93.846815 22.426629l-85.566214-3.312241a244.898784 244.898784 0 0 0-63.48461 5.244381c-6.900501 1.725125-13.801002 5.037366-20.701504 6.900501-35.537581 9.453687-69.833071-15.181102-105.577667-11.799857-33.536435 3.243236-52.098783 33.0534-52.098783 65.209736 0 19.183393 2.7602 35.882606-5.934431 54.030923-5.037366 10.626772-9.660702 18.631353-6.900501 30.84524a111.995133 111.995133 0 0 1 5.313386 23.944739c0 35.468576-66.382821 29.120115-88.740444 28.430065l20.701503-205.013888 178.101934-76.250537z" fill="#FFFFFF" /><path d="M1032.032487 774.374234h-277.055119a9.798712 9.798712 0 0 1-9.798712-9.798711V659.825916a36.089621 36.089621 0 0 1 36.089621-36.089621h224.473301a36.089621 36.089621 0 0 1 36.089621 36.089621v104.749607a9.729707 9.729707 0 0 1-9.798712 9.798711z m-267.256408-19.528418H1022.095766V659.825916a16.630208 16.630208 0 0 0-16.561203-16.561203h-224.266286a16.561203 16.561203 0 0 0-16.492198 16.561203z" fill="#952D2E" /><path d="M393.460115 644.989839h165.128991v118.481604H393.460115zM141.591824 644.989839h152.15605v119.585684H141.591824z" fill="#FBDEB5" /><path d="M562.798412 763.471443h286.922836v250.76421H562.798412z" fill="#F4D5E6" /><path d="M638.358899 1005.126991v-58.930279a67.486901 67.486901 0 0 1 67.900931-66.658841 67.486901 67.486901 0 0 1 67.831926 66.658841v58.930279" fill="#F3A8BC" /><path d="M706.25983 591.30394l-140.839228 172.167503h281.678455l-140.839227-172.167503z" fill="#F5E455" /><path d="M1164.660118 1023.965359H10.620313a9.798712 9.798712 0 1 1 0-19.528418h1154.039805a9.798712 9.798712 0 1 1 0 19.528418zM1006.845658 600.343596h-226.681461a9.936722 9.936722 0 0 1-6.900501-3.17423c-28.982105-31.880315-42.507087-64.795705-42.507087-103.507517 0-56.584109 40.712957-88.188404 83.841088-121.655834 25.531854-20.080458 52.236793-40.781962 70.868147-67.969936a9.384682 9.384682 0 0 1 8.073586-4.278311 9.867717 9.867717 0 0 1 8.004581 4.209306c19.597423 28.22305 46.578382 49.062563 72.662277 69.005011 42.369077 33.122405 82.391983 64.17466 82.391983 120.620759 0 38.780816-13.801002 71.696207-42.507087 103.507517a9.936722 9.936722 0 0 1-7.245526 3.243235z m-222.265141-19.528418h217.917825a125.520115 125.520115 0 0 0 34.502506-87.222334c0-46.854403-34.502506-73.766357-74.870437-104.887617a386.428062 386.428062 0 0 1-68.659986-62.79456c-19.321403 24.289764-43.680172 43.128132-67.279886 61.483465-40.919972 31.742305-76.319542 59.2063-76.319542 106.198712a125.3131 125.3131 0 0 0 34.70952 87.222334zM563.419457 654.78855H392.356034a9.936722 9.936722 0 0 1-7.245526-3.17423A113.444238 113.444238 0 0 1 352.747158 571.844527c0-32.570365 17.941303-53.616894 33.60544-68.383966A9.729707 9.729707 0 0 1 399.394545 517.537583c-19.252398 18.148318-27.602004 34.502506-27.602004 54.168934a92.12169 92.12169 0 0 0 24.772799 63.415605h162.437796a92.190695 92.190695 0 0 0 24.841804-63.415605c0-34.502506-25.807874-54.168934-55.618039-77.216608a310.52255 310.52255 0 0 1-50.304653-45.474302A302.103939 302.103939 0 0 1 428.65267 493.592844l-2.34617 1.794131a9.798712 9.798712 0 1 1-12.006872-15.457123l2.34617-1.79413c19.321403-15.043092 39.332856-30.56922 53.202864-50.718683a9.729707 9.729707 0 0 1 8.004581-4.209306 9.798712 9.798712 0 0 1 8.004581 4.140301c14.560057 20.701503 34.502506 36.641661 54.306944 51.822763 32.50136 25.117824 63.139585 48.924553 63.139585 92.67373a113.444238 113.444238 0 0 1-32.708375 79.769793 9.936722 9.936722 0 0 1-7.176521 3.17423zM289.745583 656.237655H142.902919a9.660702 9.660702 0 0 1-7.245526-3.17423 98.263136 98.263136 0 0 1-28.499069-69.419041 79.700788 79.700788 0 0 1 27.602004-58.033215 9.798712 9.798712 0 1 1 13.801002 13.801003c-15.181102 14.698067-21.598568 27.602004-21.598568 44.025197a77.492627 77.492627 0 0 0 20.701503 53.064853h138.010022a77.492627 77.492627 0 0 0 20.701504-53.064853c0-28.63708-21.874589-45.612312-47.199428-65.209736a275.606014 275.606014 0 0 1-42.369077-38.021761 270.361633 270.361633 0 0 1-41.403007 37.193701l-2.001145 1.587115A9.798712 9.798712 0 0 1 160.775217 503.736581l2.001145-1.587115a203.978813 203.978813 0 0 0 45.474303-43.266142 9.660702 9.660702 0 0 1 8.004581-4.278311 9.729707 9.729707 0 0 1 8.004581 4.209306 211.569364 211.569364 0 0 0 46.371368 44.163207C297.543149 523.817039 325.145154 545.139588 325.145154 583.644384a98.608161 98.608161 0 0 1-28.430065 69.419041 9.660702 9.660702 0 0 1-6.969506 3.17423z" fill="#952D2E" /><path d="M1063.015737 1023.965359H107.158324A9.729707 9.729707 0 0 1 97.428617 1014.373663v-120.413744a9.798712 9.798712 0 0 1 19.528418 0v110.408017h936.259991v-224.059271a5.934431 5.934431 0 0 0-5.865426-5.934431h-924.667149a5.934431 5.934431 0 0 0-5.865426 5.934431v29.74116a9.798712 9.798712 0 1 1-19.528418 0v-29.74116a25.462849 25.462849 0 0 1 25.393844-25.462849h924.667149a25.462849 25.462849 0 0 1 25.462849 25.462849V1014.373663a9.798712 9.798712 0 0 1-9.798712 9.591696z" fill="#952D2E" /><path d="M107.158324 868.704085a9.798712 9.798712 0 0 1-9.729707-9.798712v-16.699213a9.798712 9.798712 0 0 1 19.528418 0v16.699213a9.798712 9.798712 0 0 1-9.798711 9.798712zM847.099057 773.201149H565.420602a9.729707 9.729707 0 0 1-7.590551-15.940157l140.839228-172.167503a10.074732 10.074732 0 0 1 15.112097 0l140.839228 172.167503a9.729707 9.729707 0 0 1-7.521547 15.940157z m-261.045957-19.528418h240.413459l-120.206729-146.980674z" fill="#952D2E" /><path d="M849.583238 1023.965359H562.729407A9.729707 9.729707 0 0 1 552.86169 1014.373663v-250.90222a9.729707 9.729707 0 0 1 9.729707-9.798712H849.583238a9.798712 9.798712 0 0 1 9.798711 9.798712V1014.373663a9.798712 9.798712 0 0 1-9.798711 9.591696z m-277.19313-19.528418h267.532428v-231.235792H572.528118z" fill="#952D2E" /><path d="M652.297911 761.746317a9.729707 9.729707 0 0 1-3.105225-0.483035 9.798712 9.798712 0 0 1-6.141446-12.420902l53.892913-160.643666a9.798712 9.798712 0 1 1 18.562348 6.210451l-53.892913 160.643666a9.798712 9.798712 0 0 1-9.315677 6.693486z" fill="#952D2E" /><path d="M761.463839 761.746317a9.729707 9.729707 0 0 1-9.246672-6.900501l-53.961919-160.643666a9.798712 9.798712 0 1 1 18.562348-6.210451l53.961919 160.643666a9.936722 9.936722 0 0 1-6.210451 12.420902 9.729707 9.729707 0 0 1-3.105225 0.69005zM558.589106 773.201149H393.460115a9.798712 9.798712 0 0 1-9.798712-9.729706V644.989839a9.798712 9.798712 0 0 1 9.798712-9.729707h165.128991a9.798712 9.798712 0 0 1 9.798712 9.729707v118.481604a9.798712 9.798712 0 0 1-9.798712 9.729706z m-155.33028-19.528418h145.531568V654.78855H403.258826zM293.747874 774.374234H141.591824a9.798712 9.798712 0 0 1-9.660701-9.798711V644.989839a9.798712 9.798712 0 0 1 9.798711-9.729707h152.01804a9.798712 9.798712 0 0 1 9.798711 9.729707v119.585684a9.798712 9.798712 0 0 1-9.798711 9.798711z m-142.357338-19.528418H283.742147v-100.057266H151.390536zM774.091756 1014.925703a9.867717 9.867717 0 0 1-9.798712-9.798712v-58.930279a58.102219 58.102219 0 0 0-116.135434 0v58.930279a9.798712 9.798712 0 1 1-19.528418 0v-58.930279a77.630637 77.630637 0 0 1 155.261275 0v58.930279a9.867717 9.867717 0 0 1-9.798711 9.798712zM790.928978 639.262423a9.867717 9.867717 0 0 1-9.798711-9.798712v-38.435791a9.798712 9.798712 0 0 1 19.597423 0v38.435791a9.867717 9.867717 0 0 1-9.798712 9.798712zM995.459831 639.262423a9.798712 9.798712 0 0 1-9.798711-9.798712v-38.435791a9.798712 9.798712 0 0 1 19.528418 0v38.435791a9.798712 9.798712 0 0 1-9.729707 9.798712z" fill="#952D2E" /><path d="M254.069992 691.016181H112.609719a9.798712 9.798712 0 0 1 0-19.597423h141.460273a9.798712 9.798712 0 0 1 0 19.597423zM222.189677 833.649539h-63.553615a9.798712 9.798712 0 1 1 0-19.597423h63.553615a9.798712 9.798712 0 0 1 0 19.597423zM339.498196 833.649539h-63.553615a9.798712 9.798712 0 1 1 0-19.597423h63.553615a9.798712 9.798712 0 0 1 0 19.597423zM256.692183 881.055982h-42.852112a9.798712 9.798712 0 0 1 0-19.528419h42.852112a9.798712 9.798712 0 1 1 0 19.528419zM353.299198 881.055982h-42.852112a9.798712 9.798712 0 1 1 0-19.528419h42.852112a9.798712 9.798712 0 0 1 0 19.528419zM445.558898 881.055982h-42.783107a9.798712 9.798712 0 1 1 0-19.528419h42.783107a9.798712 9.798712 0 1 1 0 19.528419zM500.210867 691.016181h-141.460273a9.798712 9.798712 0 1 1 0-19.597423h141.460273a9.798712 9.798712 0 0 1 0 19.597423zM602.959328 223.369221a70.040086 70.040086 0 0 1-61.13844-104.059557 9.729707 9.729707 0 1 1 17.044238 9.522692A50.442663 50.442663 0 1 0 576.875434 110.408018 9.798712 9.798712 0 0 1 566.662692 93.432785a69.971081 69.971081 0 1 1 36.158626 129.936436z" fill="#952D2E" /><path d="M602.959328 99.298211A9.798712 9.798712 0 0 1 593.160617 89.706514V53.340874a9.798712 9.798712 0 1 1 19.597423 0V89.706514a9.798712 9.798712 0 0 1-9.798712 9.591697zM475.507073 393.673588a9.729707 9.729707 0 0 1-9.729707-9.798711v-29.32713a9.798712 9.798712 0 0 1 19.528418 0v29.32713a9.729707 9.729707 0 0 1-9.798711 9.798711zM214.737136 430.522264A9.729707 9.729707 0 0 1 205.214444 420.930568v-29.46514a9.798712 9.798712 0 1 1 19.528418 0V420.930568A9.729707 9.729707 0 0 1 214.737136 430.522264zM602.959328 28.154045a9.798712 9.798712 0 0 1-9.798711-9.798712V9.798712a9.798712 9.798712 0 1 1 19.597423 0v8.556621a9.798712 9.798712 0 0 1-9.798712 9.798712z" fill="#952D2E" /><path d="M216.324251 451.844813m-24.427774 0a24.427774 24.427774 0 1 0 48.855548 0 24.427774 24.427774 0 1 0-48.855548 0Z" fill="#F3A8BC" /><path d="M216.324251 486.071298a34.502506 34.502506 0 1 1 34.502506-34.502505 34.502506 34.502506 0 0 1-34.502506 34.502505z m0-48.924553a14.698067 14.698067 0 1 0 14.698067 14.698068 14.767072 14.767072 0 0 0-14.698067-14.698068z" fill="#952D2E" /><path d="M477.922248 417.342307m-30.638225 0a30.638225 30.638225 0 1 0 61.27645 0 30.638225 30.638225 0 1 0-61.27645 0Z" fill="#F3A8BC" /><path d="M477.922248 457.779244A40.436936 40.436936 0 1 1 518.359185 417.342307a40.436936 40.436936 0 0 1-40.436937 40.436937z m0-61.345455a20.701503 20.701503 0 1 0 20.701503 20.701503 20.701503 20.701503 0 0 0-20.701503-20.701503zM891.88331 266.014318a9.729707 9.729707 0 0 1-9.798712-9.798712v-29.32713a9.798712 9.798712 0 0 1 19.528418 0v29.32713a9.729707 9.729707 0 0 1-9.729706 9.798712z" fill="#952D2E" /><path d="M498.554746 313.42076m23.737724 0l161.333716 0q23.737724 0 23.737724 23.737724l0 0.069005q0 23.737724-23.737724 23.737724l-161.333716 0q-23.737724 0-23.737724-23.737724l0-0.069005q0-23.737724 23.737724-23.737724Z" fill="#F5E455" /><path d="M683.971211 370.763925H522.29247a33.60544 33.60544 0 0 1 0-67.141876H683.971211a33.60544 33.60544 0 0 1 0 67.141876z m-161.678741-47.544453a13.801002 13.801002 0 1 0 0 27.602004H683.971211a13.801002 13.801002 0 0 0 0-27.602004zM1006.845658 600.343596h-226.681461a9.936722 9.936722 0 0 1-6.900501-3.17423c-28.982105-31.880315-42.507087-64.795705-42.507087-103.507517 0-56.584109 40.712957-88.188404 83.841088-121.655834 25.531854-20.080458 52.236793-40.781962 70.868147-67.969936a9.384682 9.384682 0 0 1 8.073586-4.278311 9.867717 9.867717 0 0 1 8.004581 4.209306c19.597423 28.22305 46.578382 49.062563 72.662277 69.005011 42.369077 33.122405 82.391983 64.17466 82.391983 120.620759 0 38.780816-13.801002 71.696207-42.507087 103.507517a9.936722 9.936722 0 0 1-7.245526 3.243235z m-222.265141-19.528418h217.917825a125.520115 125.520115 0 0 0 34.502506-87.222334c0-46.854403-34.502506-73.766357-74.870437-104.887617a386.428062 386.428062 0 0 1-68.659986-62.79456c-19.321403 24.289764-43.680172 43.128132-67.279886 61.483465-40.919972 31.742305-76.319542 59.2063-76.319542 106.198712a125.3131 125.3131 0 0 0 34.70952 87.222334z" fill="#952D2E" /><path d="M780.164197 600.343596a9.936722 9.936722 0 0 1-6.900501-3.17423c-28.982105-31.880315-42.507087-64.795705-42.507087-103.507517 0-43.749177 47.820473-90.534575 68.383966-108.682892a9.798712 9.798712 0 0 1 14.905082 12.282892 179.413029 179.413029 0 0 0-20.080458 69.005011 110.408018 110.408018 0 0 0 4.692341 52.167788 106.681747 106.681747 0 0 0 17.113242 31.39728 182.656264 182.656264 0 0 0 39.884897 32.501361 9.729707 9.729707 0 0 1-5.244381 18.010307h-38.021761z m-0.69005-167.751182c-15.250107 18.286328-29.534145 40.781962-29.534145 61.00043a125.520115 125.520115 0 0 0 34.502505 87.222334h35.468576a220.816035 220.816035 0 0 1-18.631353-17.734288 127.10723 127.10723 0 0 1-20.701503-37.745741 127.728276 127.728276 0 0 1-5.934431-61.345454 252.489336 252.489336 0 0 1 4.830351-31.397281zM888.088034 326.738727a9.798712 9.798712 0 0 1-8.625626-5.10637 9.936722 9.936722 0 0 1 0.897065-10.626772c1.725125-2.277165 3.450251-4.623336 5.106371-6.900501a9.660702 9.660702 0 0 1 8.004581-4.278311 9.729707 9.729707 0 0 1 8.004581 4.209306c1.587115 2.277165 3.243236 4.485326 4.899356 6.900501a9.867717 9.867717 0 0 1 0.96607 10.350752 10.212742 10.212742 0 0 1-8.901646 5.38239c-2.829205 0-5.934431 0-9.660702 0.345026z" fill="#952D2E" /><path d="M1006.845658 600.343596h-79.838798a9.729707 9.729707 0 0 1-6.072441-2.139155A200.114532 200.114532 0 0 1 856.483739 504.633646c-24.220759-72.041232-7.935576-148.153759 40.436936-189.48776a10.074732 10.074732 0 0 1 6.900502-2.277166 9.729707 9.729707 0 0 1 6.900501 3.519256 284.714676 284.714676 0 0 0 38.918826 37.676736 9.867717 9.867717 0 0 1 2.89821 11.247817 146.635649 146.635649 0 0 0-1.10408 100.471296c13.801002 41.403007 43.680172 74.594417 79.355763 87.912384a9.591697 9.591697 0 0 1 5.865426 5.934431 9.729707 9.729707 0 0 1-0.897065 8.280601 187.14159 187.14159 0 0 1-21.943594 29.258125 9.936722 9.936722 0 0 1-6.969506 3.17423z m-76.388547-19.528418h72.041231c3.864281-4.485326 7.383536-8.970651 10.626772-13.801002a161.954761 161.954761 0 0 1-79.976808-95.226915 165.612027 165.612027 0 0 1-0.759055-107.095777 315.766931 315.766931 0 0 1-29.396135-28.016035c-36.779671 37.400716-47.889478 100.954331-27.602004 161.678741a184.312385 184.312385 0 0 0 55.065999 82.460988z" fill="#952D2E" /><path d="M892.57336 296.583538m-36.986686 0a36.986686 36.986686 0 1 0 73.973372 0 36.986686 36.986686 0 1 0-73.973372 0Z" fill="#F3A8BC" /><path d="M892.57336 343.368935A46.785398 46.785398 0 1 1 939.289752 296.721548a46.854403 46.854403 0 0 1-46.716392 46.647387z m0-74.042377a27.256979 27.256979 0 1 0 27.187974 27.39499 27.602004 27.602004 0 0 0-27.187974-27.602005z" fill="#952D2E" /><path d="M706.25983 567.428206m-36.986686 0a36.986686 36.986686 0 1 0 73.973372 0 36.986686 36.986686 0 1 0-73.973372 0Z" fill="#F3A8BC" /><path d="M706.25983 614.144599a46.785398 46.785398 0 1 1 46.716392-46.716393 46.854403 46.854403 0 0 1-46.716392 46.716393z m0-73.973372a27.187974 27.187974 0 1 0 27.187974 27.187974 27.256979 27.256979 0 0 0-27.187974-27.118969z" fill="#952D2E" /></svg>