<?xml version="1.0" standalone="no"?><!DOCTYPE svg PUBLIC "-//W3C//DTD SVG 1.1//EN" "http://www.w3.org/Graphics/SVG/1.1/DTD/svg11.dtd"><svg class="icon" width="200px" height="150.48px" viewBox="0 0 1361 1024" version="1.1" xmlns="http://www.w3.org/2000/svg"><path d="M58.687843 681.164999V687.952768l175.683413 2.635251-0.638849-145.737377C216.563346 646.747022 124.968403 678.68946 58.687843 673.17939M1304.52281 681.164999V687.952768l-175.683413 2.635251 0.558992-145.737377c17.488485 101.816523 108.84386 133.758962 175.124421 128.248892" fill="#D8E1F3" /><path d="M464.117247 702.486577v72.669048c0 6.5482-11.179854 11.818702-24.835246 11.818703H245.151829c-13.735249 0-24.915102-5.270502-24.915102-11.818703v-72.669048M1138.981121 702.486577v72.669048c0 6.5482-11.179854 11.818702-24.915102 11.818703h-193.730891c-13.655393 0-24.835246-5.270502-24.835246-11.818703v-72.669048" fill="#C9E4F7" /><path d="M424.748191 690.667875H234.371256V180.067992H424.748191v510.599883zM1095.539404 690.667875h-190.376935v-507.884776H1095.539404v507.884776z" fill="#F4D5E6" /><path d="M301.769802 361.501044v-58.374807a41.764739 41.764739 0 0 1 41.684882-41.52517 41.764739 41.764739 0 0 1 41.764739 41.52517V364.535576h-41.445314M301.769802 594.361422V536.226184a41.684883 41.684883 0 0 1 41.684882-41.445315A41.764739 41.764739 0 0 1 385.219423 536.226184v61.489194h-41.445314M974.078281 361.501044v-58.374807a41.764739 41.764739 0 0 1 41.684882-41.52517 41.764739 41.764739 0 0 1 41.684883 41.52517V364.535576h-41.046034M974.078281 594.361422V536.226184a41.684883 41.684883 0 0 1 41.684882-41.445315A41.684883 41.684883 0 0 1 1057.448046 536.226184v61.489194h-41.046034" fill="#FFFFFF" /><path d="M220.236727 888.311715V736.505274h243.481239v151.806441l-113.95465 37.212941-129.526589-37.212941zM1138.981121 736.505274v170.173343c0 10.780573-11.419422-8.624458-25.154671-8.624459l-86.484153-30.584885-107.007169 7.98561c-13.655393 0-24.835246-8.784171-24.835246-19.484888v-119.784145" fill="#88CAEF" /><path d="M452.617969 187.255041H234.371256v-76.342429l58.694231 33.14028 52.78488-96.226596 56.05898 94.948899 50.708622-31.862583v76.342429zM906.679735 187.255041h218.166857v-76.342429l-58.694231 33.14028-52.78488-96.226596-55.979124 94.948899-50.708622-31.862583v76.342429z" fill="#F3A8BC" /><path d="M245.311541 130.157931s-5.510071 28.269058-3.114387 110.760407l1.357553 446.156013a200.91794 200.91794 0 0 0 18.127334-49.031644c4.471941-27.949634-5.430215-51.427326-4.71151-59.253224 1.357554-15.971219 13.815105-17.089205 17.328773-31.942438 18.127334-76.581997-35.056827-128.248891-14.294241-168.336653a209.781966 209.781966 0 0 0 22.199995-66.28056c4.312229-29.4669-1.676978-41.12589-7.98561-66.679841-2.954676-12.058271-27.230929-126.571913-6.787768-119.784145zM918.817862 131.196061s-5.510071 28.269058-3.114388 110.760406l1.277698 445.996301a203.553191 203.553191 0 0 0 18.287046-48.871932c4.471941-28.02949-5.430215-51.507182-4.71151-59.33308 1.43741-15.971219 13.815105-17.089205 17.328773-31.942438 18.127334-76.661853-35.056827-128.328748-14.214385-168.336652a210.420815 210.420815 0 0 0 22.120139-66.280561c4.312229-29.4669-1.597122-41.12589-7.98561-66.759697-2.874819-12.058271-27.230929-126.492057-6.707912-119.784145z" fill="#FFFFFF" /><path d="M452.617969 701.927585H234.371256a11.339566 11.339566 0 0 1-11.339566-11.25971v-579.755263a11.339566 11.339566 0 0 1 16.929493-9.902156L288.433834 128.96009l47.434521-86.564009a11.339566 11.339566 0 0 1 9.742444-5.909351 11.738846 11.738846 0 0 1 9.982012 5.589927l50.149629 84.88703 40.806465-25.633807a11.339566 11.339566 0 0 1 17.568342 9.582732v579.755263a11.25971 11.25971 0 0 1-11.499278 11.25971z m-206.907147-22.599276h195.567581V131.355773L408.217979 152.357926a11.499278 11.499278 0 0 1-8.704315 1.43741 11.179854 11.179854 0 0 1-7.027336-5.270502l-46.316536-77.859695-43.202149 78.817968a11.339566 11.339566 0 0 1-6.787768 5.51007 11.738846 11.738846 0 0 1-8.704315-1.038129l-41.764738-23.956829zM235.648954 88.073768A11.419422 11.419422 0 0 1 224.548956 76.734203v-23.956829a11.339566 11.339566 0 1 1 22.679132 0v23.956829a11.419422 11.419422 0 0 1-11.579134 11.339565zM452.538113 88.073768a11.419422 11.419422 0 0 1-11.339566-11.339565v-23.956829a11.339566 11.339566 0 1 1 22.679131 0v23.956829a11.419422 11.419422 0 0 1-11.339565 11.339565z" fill="#952D2E" /><path d="M345.610799 55.492481a11.25971 11.25971 0 0 1-11.339566-11.25971v-31.942439a11.339566 11.339566 0 1 1 22.599276 0v31.942439a11.25971 11.25971 0 0 1-11.25971 11.25971zM1347.804814 706.31967H12.291451a11.339566 11.339566 0 1 1 0-22.599276h1335.513363a11.339566 11.339566 0 1 1 0 22.599276zM384.899999 375.875141h-41.12589a11.339566 11.339566 0 1 1 0-22.599275h30.105748v-50.149629a30.425173 30.425173 0 0 0-60.770489 0v58.374807a11.339566 11.339566 0 1 1-22.599276 0v-58.374807a53.024448 53.024448 0 0 1 105.969041 0v58.374807a6.069063 6.069063 0 0 1 0 1.197841v3.034532a11.419422 11.419422 0 0 1-11.579134 10.141724zM384.899999 608.655663h-41.12589a11.339566 11.339566 0 1 1 0-22.599275h30.105748V536.226184a30.425173 30.425173 0 0 0-60.770489 0v58.454663a11.339566 11.339566 0 0 1-22.599276 0V536.226184a53.024448 53.024448 0 0 1 105.969041 0v58.454663a5.270502 5.270502 0 0 1 0 1.117985v3.034532a11.419422 11.419422 0 0 1-11.579134 9.822299zM220.236727 885.676463a11.339566 11.339566 0 0 1-11.65899-11.339565V729.557794a11.339566 11.339566 0 1 1 22.679131 0v144.779104a11.25971 11.25971 0 0 1-11.020141 11.339565z" fill="#952D2E" /><path d="M464.117247 899.411712a11.339566 11.339566 0 0 1-11.25971-11.339566V701.847728a11.339566 11.339566 0 1 1 22.599275 0v186.224418a11.339566 11.339566 0 0 1-11.339565 11.339566z" fill="#952D2E" /><path d="M460.204298 747.685128H265.035997a11.339566 11.339566 0 0 1 0-22.679131h195.168301a11.339566 11.339566 0 0 1 0 22.679131zM436.566893 193.483816h-155.719389a11.339566 11.339566 0 1 1 0-22.599275h155.719389a11.339566 11.339566 0 1 1 0 22.599275zM436.566893 456.370087h-155.719389a11.339566 11.339566 0 1 1 0-22.599276h155.719389a11.339566 11.339566 0 1 1 0 22.599276zM1116.781126 456.370087h-155.719389a11.339566 11.339566 0 1 1 0-22.599276h155.719389a11.339566 11.339566 0 1 1 0 22.599276zM906.280455 256.729845H454.374803a11.339566 11.339566 0 1 1 0-22.599276h451.905652a11.339566 11.339566 0 1 1 0 22.599276zM906.280455 296.657893H584.859665a11.339566 11.339566 0 0 1 0-22.679131h321.42079a11.339566 11.339566 0 1 1 0 22.679131zM531.675505 296.657893h-78.897824a11.339566 11.339566 0 0 1 0-22.679131h78.897824a11.339566 11.339566 0 0 1 0 22.679131zM65.555467 659.364285h-3.513668a11.339566 11.339566 0 1 1 0.479137-22.599275c127.769755 2.954676 159.712194-190.856071 159.712193-192.772618a11.339566 11.339566 0 1 1 22.359707 3.433812 401.995591 401.995591 0 0 1-34.417977 105.729472c-34.497834 69.55466-84.567607 106.208609-144.619392 106.208609z" fill="#952D2E" /><path d="M1124.846592 701.927585h-218.166857a11.25971 11.25971 0 0 1-11.339566-11.25971v-579.755263a11.339566 11.339566 0 0 1 17.328773-9.582732l40.886322 25.633807 50.069773-84.88703a12.058271 12.058271 0 0 1 9.982012-5.589927 11.339566 11.339566 0 0 1 9.742444 5.909351L1070.544446 128.96009l48.392795-27.949634a11.339566 11.339566 0 0 1 16.929492 9.902156v579.755263a11.339566 11.339566 0 0 1-11.020141 11.25971z m-206.907147-22.599276h195.567581V130.317644l-41.764739 23.956829a11.738846 11.738846 0 0 1-8.704314 1.038129 11.339566 11.339566 0 0 1-6.787768-5.510071l-43.202149-79.137392-45.837399 77.859695a11.339566 11.339566 0 0 1-15.97122 3.833092l-33.379848-21.002153zM1123.568894 88.073768a11.339566 11.339566 0 0 1-11.25971-11.339565v-23.956829a11.339566 11.339566 0 1 1 22.599276 0v23.956829a11.339566 11.339566 0 0 1-11.339566 11.339565zM906.679735 88.073768A11.419422 11.419422 0 0 1 895.340169 76.734203v-23.956829a11.339566 11.339566 0 1 1 22.679132 0v23.956829a11.419422 11.419422 0 0 1-11.339566 11.339565z" fill="#952D2E" /><path d="M1013.686905 55.492481a11.25971 11.25971 0 0 1-11.339566-11.25971v-31.942439a11.339566 11.339566 0 1 1 22.599276 0v31.942439a11.25971 11.25971 0 0 1-11.25971 11.25971zM1057.128622 375.875141h-41.046034a11.339566 11.339566 0 1 1 0-22.599275h30.025892v-50.149629a30.425173 30.425173 0 0 0-60.770489 0v58.374807a11.339566 11.339566 0 1 1-22.599276 0v-58.374807a53.024448 53.024448 0 0 1 106.048897 0v62.60718a11.339566 11.339566 0 0 1-11.65899 10.141724zM1057.128622 608.655663h-41.046034a11.339566 11.339566 0 1 1 0-22.599275h30.025892V536.226184a30.425173 30.425173 0 0 0-60.770489 0v58.454663a11.339566 11.339566 0 0 1-22.599276 0V536.226184a53.024448 53.024448 0 0 1 106.048897 0v62.60718a11.25971 11.25971 0 0 1-11.65899 9.822299zM895.340169 890.068549a11.339566 11.339566 0 0 1-11.339565-11.339566V729.557794a11.339566 11.339566 0 0 1 22.679131 0v149.171189a11.339566 11.339566 0 0 1-11.339566 11.339566zM1138.981121 918.018183a11.339566 11.339566 0 0 1-11.339566-11.339566V701.847728a11.339566 11.339566 0 0 1 22.679132 0v204.830889a11.339566 11.339566 0 0 1-11.339566 11.339566z" fill="#952D2E" /><path d="M1135.467453 747.685128h-195.168301a11.339566 11.339566 0 0 1 0-22.679131h195.168301a11.339566 11.339566 0 1 1 0 22.679131zM1116.781126 193.483816h-155.719389a11.339566 11.339566 0 1 1 0-22.599275h155.719389a11.339566 11.339566 0 1 1 0 22.599275zM1300.21058 699.372189a11.339566 11.339566 0 0 1-11.339565-11.419421v-55.100707a11.339566 11.339566 0 0 1 22.679131 0V687.952768a11.339566 11.339566 0 0 1-11.339566 11.419421zM54.934607 699.372189A11.339566 11.339566 0 0 1 43.595041 687.952768v-55.100707a11.339566 11.339566 0 0 1 22.679131 0V687.952768a11.339566 11.339566 0 0 1-11.339565 11.419421z" fill="#952D2E" /><path d="M1293.66238 659.364285c-60.051785 0-110.041701-36.653948-144.699247-106.288465a401.995591 401.995591 0 0 1-34.417978-105.729472 11.339566 11.339566 0 1 1 22.359707-3.433812c0 1.916546 31.942439 196.046718 159.712194 192.772617a11.339566 11.339566 0 1 1 0.479137 22.599276zM887.993409 818.916766a11.25971 11.25971 0 0 1-6.308632-1.916546 358.713587 358.713587 0 0 0-310.001368-44.000709A11.339566 11.339566 0 0 1 564.735929 751.837645a381.712143 381.712143 0 0 1 329.566111 46.795673 11.339566 11.339566 0 0 1-6.308631 20.682729zM466.832354 824.586549a11.579134 11.579134 0 0 1-9.263307-4.711509 11.339566 11.339566 0 0 1 2.635251-15.97122 376.920777 376.920777 0 0 1 69.874085-39.928048 11.179854 11.179854 0 0 1 14.853234 5.829495 11.339566 11.339566 0 0 1-5.909352 14.93309 362.067543 362.067543 0 0 0-65.641711 37.133085 11.25971 11.25971 0 0 1-6.5482 2.715107zM352.318711 935.506668a202.515062 202.515062 0 0 1-111.798535-30.345317 181.512908 181.512908 0 0 0-100.698539-27.63021 220.402827 220.402827 0 0 0-32.820855 2.315827 11.419422 11.419422 0 0 1-12.936688-9.502875 11.339566 11.339566 0 0 1 9.502875-12.856832 210.021535 210.021535 0 0 1 36.494237-2.555395 202.515062 202.515062 0 0 1 111.798535 30.345317A181.512908 181.512908 0 0 0 352.318711 912.508112a181.67262 181.67262 0 0 0 100.698538-27.789922 202.435205 202.435205 0 0 1 111.798536-30.584885 202.435205 202.435205 0 0 1 111.798535 30.425173 182.231613 182.231613 0 0 0 100.698538 27.550353 181.033771 181.033771 0 0 0 100.698538-27.710065 202.435205 202.435205 0 0 1 111.798536-30.584885 202.994198 202.994198 0 0 1 111.798536 30.425173 181.67262 181.67262 0 0 0 100.618682 27.550353 180.634491 180.634491 0 0 0 100.778394-27.789922 275.263966 275.263966 0 0 1 42.882724-20.123736 11.339566 11.339566 0 0 1 7.346761 21.401434 248.432317 248.432317 0 0 0-39.369056 18.60647 202.515062 202.515062 0 0 1-111.798536 30.584885 202.914342 202.914342 0 0 1-111.798535-30.425172 182.231613 182.231613 0 0 0-100.698538-27.550354 181.033771 181.033771 0 0 0-100.698538 27.710066 202.435205 202.435205 0 0 1-111.798536 30.584885 202.515062 202.515062 0 0 1-111.798535-30.345317 181.512908 181.512908 0 0 0-100.698539-27.630209A181.033771 181.033771 0 0 0 464.117247 904.522502a201.796357 201.796357 0 0 1-111.798536 30.584885zM14.367709 916.660629a11.339566 11.339566 0 0 1-4.951078-21.08201c6.5482-3.2741 12.776975-6.707912 19.085607-10.141724s15.012946-7.98561 23.238125-12.138127a11.339566 11.339566 0 1 1 9.662587 20.523017c-7.98561 3.593524-14.613666 7.426617-22.040282 11.499278s-13.016544 7.187049-20.043881 10.541005a11.020141 11.020141 0 0 1-4.951078 0.798561zM297.856853 1017.119599a113.475514 113.475514 0 0 1-61.648907-16.769781 11.419422 11.419422 0 0 1-4.551797-15.412226 11.25971 11.25971 0 0 1 15.33237-4.471942 91.115806 91.115806 0 0 0 50.868334 13.974817 90.476958 90.476958 0 0 0 50.868334-14.054673 113.395657 113.395657 0 0 1 61.808619-16.849636 113.475514 113.475514 0 0 1 61.808619 16.76978c3.353956 1.83669 6.707912 3.67338 10.22158 5.350359s5.11079 2.395683 7.98561 3.433812a11.339566 11.339566 0 0 1-7.98561 21.241721c-3.513668-1.357554-6.707912-2.794963-9.8223-4.232373s-7.98561-3.912949-11.339566-5.909351a90.476958 90.476958 0 0 0-50.948189-14.054673 90.476958 90.476958 0 0 0-50.868334 14.054673 113.794938 113.794938 0 0 1-61.808619 16.929493zM583.901392 1011.928952a78.338831 78.338831 0 0 1-42.882724-11.65899 11.339566 11.339566 0 1 1 10.780573-19.884168 57.336678 57.336678 0 0 0 31.942439 8.943883 57.576246 57.576246 0 0 0 31.942438-8.943883 79.057536 79.057536 0 0 1 42.96258-11.738846 78.97768 78.97768 0 0 1 42.882724 11.65899c2.156115 1.197841 4.392085 2.395683 6.707913 3.513668l4.871221 2.076259a11.419422 11.419422 0 0 1 6.787769 14.533809 11.25971 11.25971 0 0 1-14.53381 6.707913 55.020851 55.020851 0 0 1-6.94748-2.954676c-2.715107-1.277698-5.190646-2.635251-7.98561-3.992805a56.857541 56.857541 0 0 0-31.942439-8.864027 57.576246 57.576246 0 0 0-31.942438 8.864027 78.418687 78.418687 0 0 1-42.643156 11.738846zM959.225047 1023.987223a50.708621 50.708621 0 0 1-27.310785-7.346761 11.339566 11.339566 0 1 1 10.860429-19.884168 28.987763 28.987763 0 0 0 16.450356 4.631654 29.4669 29.4669 0 0 0 16.530212-4.631654 50.069773 50.069773 0 0 1 27.390641-7.426617 51.267614 51.267614 0 0 1 27.390641 7.346761l3.673381 1.996402 2.475539 1.03813a11.339566 11.339566 0 1 1-7.98561 21.241721l-4.471941-1.916546-4.71151-2.475539a29.227331 29.227331 0 0 0-16.530212-4.631654 29.067619 29.067619 0 0 0-16.530212 4.631654 50.069773 50.069773 0 0 1-27.390641 7.426617zM1112.229328 1023.987223a51.267614 51.267614 0 0 1-27.390641-7.346761 11.339566 11.339566 0 0 1 10.860429-19.884168 29.4669 29.4669 0 0 0 16.530212 4.631654 28.987763 28.987763 0 0 0 16.450356-4.631654 50.309341 50.309341 0 0 1 27.390642-7.426617 50.708621 50.708621 0 0 1 27.310785 7.346761c1.277698 0.638849 2.475539 1.357554 3.753236 1.916546l2.475539 1.117986a11.339566 11.339566 0 1 1-7.985609 21.241721l-4.551798-1.916546-4.631654-2.475539a28.828051 28.828051 0 0 0-16.530212-4.631654 28.987763 28.987763 0 0 0-16.450356 4.631654 50.309341 50.309341 0 0 1-27.390641 7.426617z" fill="#952D2E" /></svg>