<?xml version="1.0" standalone="no"?><!DOCTYPE svg PUBLIC "-//W3C//DTD SVG 1.1//EN" "http://www.w3.org/Graphics/SVG/1.1/DTD/svg11.dtd"><svg class="icon" width="200px" height="180.76px" viewBox="0 0 1133 1024" version="1.1" xmlns="http://www.w3.org/2000/svg"><path d="M270.85962 507.53578a301.683052 300.466588 90 1 0 600.933176 0 301.683052 300.466588 90 1 0-600.933176 0Z" fill="#FBDEB5" /><path d="M296.946013 495.033234a263.026532 261.945231 90 1 0 523.890461 0 263.026532 261.945231 90 1 0-523.890461 0Z" fill="#C1E1C4" /><path d="M643.300323 253.700309A260.999092 260.999092 0 0 1 556.323153 264.242996c-20.274399-1.01372-40.548797-4.392786-59.944639 2.770835a44.198189 44.198189 0 0 0-27.032531 25.410579c-4.122461 11.623989-5.136181 26.086393-17.77389 31.425318-8.109759 3.446648-17.706308 1.554371-26.153974 4.257624a108.130126 108.130126 0 0 0-31.492899 16.895332 52.510693 52.510693 0 0 0-22.504583 40.886704c0 17.909052 11.286082 33.790664 10.948175 52.037623s-11.556407 32.709363-21.490862 47.306931c-18.855191 27.43802-30.141273 77.988854 2.02744 100.493436a184.834935 184.834935 0 0 1 20.88263 13.516265c10.745431 8.988317 10.880594 22.842489 10.204781 36.020849l-3.649392 71.298302L301.473962 569.710603l11.826732-174.021922 97.992927-126.714992 113.198726-43.927864z" fill="#FFFFFF" /><path d="M165.973397 224.7755a56.43041 56.43041 0 0 1 71.70379 70.284582 56.497991 56.497991 0 0 1-108.130126-33.790664M313.368276 70.419745A56.43041 56.43041 0 1 1 298.567965 148.678924a55.889759 55.889759 0 0 1-8.380085-44.400933M531.318061 16.76017A56.497991 56.497991 0 0 1 615.321653 66.229702a56.497991 56.497991 0 1 1-108.670777-21.558444 23.788628 23.788628 0 0 1 1.216464-2.703253" fill="#F4D5E6" /><path d="M558.891244 767.656315a272.623081 272.623081 0 1 1 271.474198-272.623081 272.352756 272.352756 0 0 1-271.474198 272.623081z m0-526.053064a253.429983 253.429983 0 1 0 252.348682 253.429983 253.294821 253.294821 0 0 0-252.348682-253.429983z" fill="#952D2E" /><path d="M558.891244 827.465791a332.432557 332.432557 0 1 1 331.148511-332.432557 332.09465 332.09465 0 0 1-331.148511 332.432557z m0-645.604435a313.23946 313.23946 0 1 0 311.887832 313.171878 312.969134 312.969134 0 0 0-311.887832-313.171878z" fill="#952D2E" /><path d="M516.855657 435.021014a75.961414 75.961414 0 0 1 117.997 63.594031 76.028995 76.028995 0 1 1-145.97567-29.735785" fill="#F5E455" /><path d="M484.551782 487.666869a50.550834 50.550834 0 0 0 7.839434 0c30.884667-2.162603 60.823196-27.032532 58.593012-58.457849v-5.338925h-1.486789a110.157566 110.157566 0 0 0-43.72512 23.247977c-12.164639 11.286082-16.625007 27.370438-21.220537 40.548797z" fill="#FFFFFF" /><path d="M950.389882 498.615045a56.43041 56.43041 0 1 0 112.860819 0 56.43041 56.43041 0 1 0-112.860819 0Z" fill="#F4D5E6" /><path d="M96.364628 449.753744a56.43041 56.43041 0 1 1-26.018811 33.385176" fill="#F4D5E6" /><path d="M891.256219 278.299912a56.43041 56.43041 0 1 0 112.860819 0 56.43041 56.43041 0 1 0-112.860819 0Z" fill="#F4D5E6" /><path d="M127.316877 718.930177a56.43041 56.43041 0 1 0 112.860819 0 56.43041 56.43041 0 1 0-112.860819 0Z" fill="#F4D5E6" /><path d="M505.907482 58.9985a39.805403 39.805403 0 0 0 5.676831 0c22.234257-1.554371 43.387213-19.463423 42.17075-42.035586v-3.852136h-1.081302c-11.69157 3.311485-27.032532 7.501528-34.669221 15.070636s-8.785573 21.288119-12.097058 30.817086zM292.147738 116.172304a38.521357 38.521357 0 0 0 5.609251-0.675813c21.896351-4.190042 41.021867-24.599604 36.831824-46.766279l-0.743395-3.852136h-1.081301c-11.150919 4.730693-25.545742 10.745431-32.574201 19.125516s-5.879576 22.301839-8.042178 32.168712zM134.480498 275.529078a40.886704 40.886704 0 0 0 5.60925-0.675813c21.828769-4.190042 41.021867-24.599604 36.764243-46.76628l-0.743394-3.784554h-1.01372c-11.218501 4.865856-25.613324 10.880594-32.371457 19.32826s-6.149901 22.099095-8.244922 31.898387z" fill="#FFFFFF" /><path d="M729.804424 116.98328a56.43041 56.43041 0 1 0 112.86082 0 56.43041 56.43041 0 1 0-112.86082 0Z" fill="#F4D5E6" /><path d="M288.768672 880.179228a56.43041 56.43041 0 1 0 112.860819 0 56.43041 56.43041 0 1 0-112.860819 0Z" fill="#F4D5E6" /><path d="M891.256219 718.930177a56.43041 56.43041 0 1 0 112.860819 0 56.43041 56.43041 0 1 0-112.860819 0Z" fill="#F4D5E6" /><path d="M537.738288 592.553092l-108.130127 421.842655h257.957933l-108.130126-421.842655a22.099095 22.099095 0 0 0-41.69768 0z" fill="#C9E4F7" /><path d="M544.158514 571.400136A125.971597 125.971597 0 0 1 562.067566 635.264492a88.937029 88.937029 0 0 1-2.56809 31.087411c-5.136181 15.543706-18.517284 27.032532-25.140255 42.103168-14.25966 32.439038 6.149901 73.055417-10.272362 104.480735-8.312503 15.949194-25.275417 27.032532-28.857227 45.009165-2.56809 12.570127 2.297765 26.559462-3.446648 38.115869-4.865856 9.799293-15.74645 14.597567-25.680905 19.193098-28.924809 13.516266-10.880594 38.994427-34.534059 60.417708z" fill="#FFFFFF" /><path d="M729.804424 880.179228a56.43041 56.43041 0 1 0 112.86082 0 56.43041 56.43041 0 1 0-112.86082 0Z" fill="#F4D5E6" /><path d="M558.891244 584.510914a86.098613 86.098613 0 0 1-78.867411-119.348627 9.596549 9.596549 0 0 1 12.570127-5.0686 9.461386 9.461386 0 0 1 5.0686 12.502546 66.364865 66.364865 0 1 0 61.228684-40.548797 65.283564 65.283564 0 0 0-36.696662 11.083338 9.596549 9.596549 0 1 1-10.67785-15.949194 85.760706 85.760706 0 1 1 47.30693 157.464496zM1006.820292 564.574422a66.026958 66.026958 0 1 1 66.026958-65.959377 66.09454 66.09454 0 0 1-66.026958 65.959377z m0-112.793238a46.833861 46.833861 0 1 0 46.833861 46.833861 46.901442 46.901442 0 0 0-46.833861-46.833861zM124.681205 564.574422a65.891796 65.891796 0 0 1-63.526449-84.071173 9.528967 9.528967 0 0 1 18.382122 5.271343 47.847581 47.847581 0 0 0-1.757115 12.840453 46.833861 46.833861 0 1 0 23.38314-40.548798 9.596549 9.596549 0 0 1-9.596549-16.557425 66.026958 66.026958 0 1 1 33.114851 123.0656zM947.821791 344.259289a66.026958 66.026958 0 1 1 57.106223-98.939065 66.026958 66.026958 0 0 1-57.106223 98.939065z m0-112.793237a46.901442 46.901442 0 1 0 40.548798 23.383139 46.901442 46.901442 0 0 0-40.751542-23.383139zM183.882449 784.889554a65.959377 65.959377 0 1 1 57.038642-98.939066 65.959377 65.959377 0 0 1-57.038642 98.939066z m0-112.793238a46.76628 46.76628 0 1 0 40.548798 23.38314 46.563536 46.563536 0 0 0-40.751542-23.38314zM786.167253 183.010239a66.026958 66.026958 0 0 1-57.106223-99.006647 66.162121 66.162121 0 0 1 90.221074-24.126535 66.026958 66.026958 0 0 1 24.194116 90.153493 66.229702 66.229702 0 0 1-57.308967 32.979689z m0-112.793238a46.901442 46.901442 0 0 0-40.548798 23.38314 46.698698 46.698698 0 0 0 17.098077 63.931937 46.901442 46.901442 0 0 0 64.067099-17.098077 46.698698 46.698698 0 0 0-17.165657-63.999518 46.428373 46.428373 0 0 0-23.247977-6.217482zM345.063919 946.138605a66.229702 66.229702 0 0 1-32.912107-8.785573 66.229702 66.229702 0 1 1 32.912107 8.785573z m0-112.725657a46.901442 46.901442 0 0 0-40.548797 23.38314 46.76628 46.76628 0 0 0 17.165657 63.931937 46.833861 46.833861 0 1 0 46.901442-81.097595 46.495954 46.495954 0 0 0-23.112814-6.217482zM947.619047 784.889554a65.891796 65.891796 0 0 1-57.106222-98.939066 66.026958 66.026958 0 0 1 114.415189 65.959378 66.09454 66.09454 0 0 1-57.308967 32.979688z m0-112.793238a46.833861 46.833861 0 1 0 40.548798 70.217001 46.833861 46.833861 0 0 0-40.548798-70.217001zM183.679705 344.259289a66.026958 66.026958 0 0 1-19.598585-2.973578 65.959377 65.959377 0 0 1-43.387213-82.584384 9.596549 9.596549 0 1 1 18.31454 5.676832 46.833861 46.833861 0 0 0 89.477679 27.843507 45.887722 45.887722 0 0 0-3.243903-35.412616 46.76628 46.76628 0 0 0-56.227666-22.707327 9.596549 9.596549 0 0 1-6.08232-18.179377A66.026958 66.026958 0 0 1 246.800667 297.898498a66.09454 66.09454 0 0 1-63.120962 46.360791zM786.369997 946.138605a66.229702 66.229702 0 0 1-57.308967-32.979689 66.09454 66.09454 0 1 1 57.308967 32.979689z m0-112.793238a46.901442 46.901442 0 1 0 40.548797 23.38314 46.631117 46.631117 0 0 0-40.751541-23.315559zM345.469407 183.010239a66.09454 66.09454 0 0 1-64.472588-80.759688 9.596549 9.596549 0 0 1 18.720028 4.325205 46.901442 46.901442 0 1 0 19.260679-28.248996 9.596549 9.596549 0 0 1-10.813013-15.814031A66.162121 66.162121 0 0 1 399.53447 79.813549a66.026958 66.026958 0 0 1-17.30082 91.707864 66.162121 66.162121 0 0 1-36.764243 11.488826zM558.891244 132.459405a66.297284 66.297284 0 0 1-60.823196-91.369957l1.419207-3.243904a9.596549 9.596549 0 0 1 17.368402 8.177341 17.030495 17.030495 0 0 0-1.01372 2.297765 46.225629 46.225629 0 0 0-3.514229 17.909052 46.901442 46.901442 0 1 0 23.721046-41.157029 9.596549 9.596549 0 0 1-9.393804-16.692588 66.162121 66.162121 0 1 1 32.236294 124.07932z" fill="#952D2E" /><path d="M558.891244 277.083449a9.528967 9.528967 0 0 1-9.596549-9.596549V127.12048a9.596549 9.596549 0 1 1 19.125516 0v140.434001A9.528967 9.528967 0 0 1 558.891244 277.083449zM944.780632 517.064748h-152.328316a9.596549 9.596549 0 0 1 0-19.193098h152.328316a9.596549 9.596549 0 0 1 0 19.193098zM329.722957 517.064748H182.328079a9.596549 9.596549 0 1 1 0-19.193098h147.394878a9.596549 9.596549 0 0 1 0 19.193098zM893.689147 707.441351a9.66413 9.66413 0 0 1-4.798274-1.284045L757.0397 630.128311a9.596549 9.596549 0 0 1 9.528967-16.625007L898.487421 689.329555a9.528967 9.528967 0 0 1-4.798274 17.841471zM357.634046 397.716121a9.258642 9.258642 0 0 1-4.730693-1.284046l-127.66113-73.663648a9.528967 9.528967 0 1 1 9.528967-16.557426L362.43232 379.807069a9.596549 9.596549 0 0 1-4.798274 17.909052zM749.132684 836.724433a9.528967 9.528967 0 0 1-8.312503-4.798274l-76.164158-131.71601a9.596549 9.596549 0 1 1 16.557426-9.596549L757.715513 822.32961a9.596549 9.596549 0 0 1-3.514229 13.110778 9.258642 9.258642 0 0 1-5.0686 1.284045zM444.949123 307.15714a9.66413 9.66413 0 0 1-8.312503-4.798274l-73.663649-127.525968A9.596549 9.596549 0 1 1 379.260071 165.236349l74.339462 127.525968a9.596549 9.596549 0 0 1-3.514229 13.110778 9.461386 9.461386 0 0 1-5.136181 1.284045zM767.71755 399.338073a9.596549 9.596549 0 0 1-4.798274-17.909053l131.918754-76.096576a9.596549 9.596549 0 0 1 9.596548 16.625007L772.515824 398.054027a10.204781 10.204781 0 0 1-4.798274 1.284046zM239.299139 704.062285a9.528967 9.528967 0 0 1-4.798274-17.841471l127.66113-73.663649a9.596549 9.596549 0 0 1 9.596549 16.625007L244.097413 702.845821a9.461386 9.461386 0 0 1-4.798274 1.216464zM682.227169 312.22574a9.596549 9.596549 0 0 1-8.312504-14.394823l76.164158-131.716011a9.596549 9.596549 0 0 1 16.625007 9.596549l-76.164158 131.783592a9.66413 9.66413 0 0 1-8.312503 4.730693zM377.16505 840.1035a9.461386 9.461386 0 0 1-4.798274-1.284046 9.596549 9.596549 0 0 1-3.514229-13.110777l73.731229-127.525968a9.596549 9.596549 0 1 1 16.557426 9.596549l-73.663648 127.525967a9.596549 9.596549 0 0 1-8.312504 4.798275zM1122.654689 1022.910994H265.115207a9.596549 9.596549 0 0 1 0-19.125516H1122.654689a9.596549 9.596549 0 1 1 0 19.125516zM208.617216 1022.910994h-53.186506a9.596549 9.596549 0 1 1 0-19.125516h53.186506a9.596549 9.596549 0 1 1 0 19.125516zM114.679169 1022.910994H10.401178a9.596549 9.596549 0 1 1 0-19.125516h104.277991a9.596549 9.596549 0 1 1 0 19.125516z" fill="#952D2E" /><path d="M687.836419 1023.992296H429.878487a9.66413 9.66413 0 0 1-9.326224-11.961895l108.130127-421.842656v-0.54065a31.763225 31.763225 0 0 1 60.823196 0l108.130126 422.383306a9.596549 9.596549 0 0 1-1.757115 8.244922 9.731711 9.731711 0 0 1-8.042178 3.716973z m-245.65813-19.193098h233.358328L570.717976 594.715694a12.029477 12.029477 0 0 0-11.826732-8.312503 12.232221 12.232221 0 0 0-11.961896 8.582829z" fill="#952D2E" /></svg>