<?xml version="1.0" standalone="no"?><!DOCTYPE svg PUBLIC "-//W3C//DTD SVG 1.1//EN" "http://www.w3.org/Graphics/SVG/1.1/DTD/svg11.dtd"><svg class="icon" width="200px" height="183.84px" viewBox="0 0 1114 1024" version="1.1" xmlns="http://www.w3.org/2000/svg"><path d="M753.712093 1014.693098H373.579037l19.662055-106.371716c0-8.454683 11.862773-15.336403 26.216073-15.336402h314.592873c14.41884 0 26.216073 6.881719 26.216073 15.336402l19.662055 106.371716z" fill="#88CAEF" /><path d="M437.349634 891.346475a27.526876 27.526876 0 0 0-6.095237-0.655402c-10.093188 0-25.757292-1.179723-32.770091 8.126983-10.224268 13.108036-10.420889 39.324109-10.420888 62.001012v6.554018h1.114183c23.725546-15.467483 39.848431-45.484886 48.172033-76.026611z" fill="#FFFFFF" /><path d="M779.928166 1023.999803H394.355275v-18.613411h374.824301l-17.89247-110.041966a11.731693 11.731693 0 0 1 0-1.507424c0-2.883768-6.554018-8.126983-16.974907-8.126983H419.457165a16.450586 16.450586 0 0 0-17.171528 10.093188l-19.268813 117.972328 0.786482 0.720942-1.048643 0.917563v0.589861h-0.458781L373.579037 1023.999803a9.437786 9.437786 0 0 1-7.078339-3.277009 9.306706 9.306706 0 0 1-2.097286-7.537121l19.662054-120.856095a34.474136 34.474136 0 0 1 35.391699-25.16743h314.592873c19.662055 0 34.932917 11.272911 35.522779 25.822832l19.662054 120.200693a9.306706 9.306706 0 0 1-2.097285 7.537121 9.437786 9.437786 0 0 1-7.20942 3.277009z m-385.572891-18.613411z" fill="#952D2E" /><path d="M859.100705 229.914958m32.770091 0l26.216073 0q32.770091 0 32.770091 32.770091l0 0q0 32.770091-32.770091 32.770091l-26.216073 0q-32.770091 0-32.770091-32.770091l0 0q0-32.770091 32.770091-32.770091Z" fill="#D8E1F3" /><path d="M211.367087 229.914958m32.770091 0l26.216073 0q32.770091 0 32.770091 32.770091l0 0q0 32.770091-32.770091 32.770091l-26.216073 0q-32.770091 0-32.770091-32.770091l0 0q0-32.770091 32.770091-32.770091Z" fill="#D8E1F3" /><path d="M455.373184 592.024464h244.268259v273.63026H455.373184z" fill="#D8E1F3" /><path d="M899.014676 279.528876a138.879646 138.879646 0 0 0-8.520223-47.975413H280.511979a138.879646 138.879646 0 0 0-8.520224 47.975413c0 77.140794 62.853035 140.255989 142.353276 145.433664 5.112134 75.305669 12.452635 152.774164 68.48949 203.567805S635.739765 694.725929 715.895408 694.725929a312.430048 312.430048 0 0 0 36.11264-2.162826V473.331194h0.458781v-48.106493c81.466446-3.211469 146.547847-67.178687 146.547847-145.695825z" fill="#FBDEB5" /><path d="M514.687049 9.306706m62.263173 0l0 0q62.263173 0 62.263173 62.263173l0 43.715301q0 62.263173-62.263173 62.263173l0 0q-62.263173 0-62.263173-62.263173l0-43.715301q0-62.263173 62.263173-62.263173Z" fill="#F3A8BC" /><path d="M301.943618 224.999445c45.878127-10.027648 66.719905 106.568336 85.726558 132.129007a281.822783 281.822783 0 0 0 33.556574 39.324109 89.527889 89.527889 0 0 0 14.54992 12.256014 69.341513 69.341513 0 0 1 15.270862 9.896567 40.503832 40.503832 0 0 1 8.323604 16.581666 164.964638 164.964638 0 0 1 6.554018 48.303115c0 16.057345-4.587813 32.770091-1.114183 48.434194 6.095237 28.247818 29.296461 47.975413 46.99231 69.275972 9.175625 11.010751 22.676903 64.68816 22.676903 64.68816l-218.379886-58.986164-44.108543-327.373209 2.556067-48.434194z" fill="#FFFFFF" /><path d="M652.190351 580.554932a50.53148 50.53148 0 0 1-50.53148-50.53148V209.204261h101.1285v321.146892a50.59702 50.59702 0 0 1-50.59702 50.203779z" fill="#E9D1E5" /><path d="M478.443329 632.397216c-4.194572 1.179723-16.253965-20.776238-19.662055-16.974907s1.835125 34.932917 1.310804 42.863279l-4.522273 150.742418c0 3.342549 0 6.554018-0.393241 10.093188 0-1.048643 5.767536-6.029697 6.554018-7.930362a28.444439 28.444439 0 0 0 1.179723-11.07629 76.550933 76.550933 0 0 1 5.636456-27.854578 55.971315 55.971315 0 0 0 5.570916-14.877621c1.114183-7.864822-2.228366-15.598563-2.752688-23.528925-1.114183-15.991804 8.716844-29.689702 11.469532-44.960565 2.490527-13.960059 0-30.738345 12.124933-40.831534a60.493588 60.493588 0 0 1 7.406041-4.325652 11.141831 11.141831 0 0 0 5.439835-7.995902 16.319505 16.319505 0 0 0-6.095237-0.983102L491.551365 633.90464z" fill="#FFFFFF" /><path d="M1105.400709 1023.999803H280.053198a9.306706 9.306706 0 0 1 0-18.613411h825.347511a9.306706 9.306706 0 1 1 0 18.613411zM224.344043 1023.999803h-72.0942a9.306706 9.306706 0 1 1 0-18.613411h72.0942a9.306706 9.306706 0 1 1 0 18.613411zM112.073711 1023.999803H9.306706a9.306706 9.306706 0 1 1 0-18.613411H112.073711a9.306706 9.306706 0 0 1 0 18.613411zM576.753601 186.789519a71.635419 71.635419 0 0 1-71.373258-71.569879v-43.649761a71.569879 71.569879 0 0 1 143.139758 0v43.649761A71.635419 71.635419 0 0 1 576.753601 186.789519z m0-168.241647a53.022007 53.022007 0 0 0-52.432145 53.022007v43.649761a52.956467 52.956467 0 1 0 105.912934 0v-43.649761A53.022007 53.022007 0 0 0 576.753601 18.547872z" fill="#952D2E" /><path d="M507.93641 218.445427h-0.524321a9.241166 9.241166 0 0 1-8.716844-9.831028l6.554018-112.466952a9.110085 9.110085 0 0 1 9.765487-8.782384 9.241166 9.241166 0 0 1 8.716844 9.831027L517.243116 209.728582a9.306706 9.306706 0 0 1-9.306706 8.716845zM646.684976 218.445427A9.306706 9.306706 0 0 1 637.37827 209.728582l-7.406041-112.466952a9.175625 9.175625 0 0 1 8.651304-9.831027 9.306706 9.306706 0 0 1 9.831028 8.651304l7.47158 112.466952a9.306706 9.306706 0 0 1-8.651304 9.896568zM270.353251 304.761846h-26.216073a42.076797 42.076797 0 1 1 0-84.088053h26.216073a9.306706 9.306706 0 1 1 0 18.547871h-26.216073a23.528925 23.528925 0 0 0 0 46.992311h26.216073a9.306706 9.306706 0 1 1 0 18.547871zM924.640887 304.761846h-26.216072a9.306706 9.306706 0 0 1 0-18.547871h26.216072a23.528925 23.528925 0 1 0 0-46.992311h-26.216072a9.306706 9.306706 0 0 1 0-18.547871h26.216072a42.076797 42.076797 0 1 1 0 84.088053z" fill="#952D2E" /><path d="M715.895408 703.967095c-61.28007 0-173.812563-9.372246-239.483825-72.0942-54.791592-52.432146-65.146941-126.558091-70.848937-211.629248a163.326134 163.326134 0 0 1-138.617485-124.526346 161.228848 161.228848 0 0 1-4.260112-36.833582 165.226799 165.226799 0 0 1 2.818228-29.493082 170.863254 170.863254 0 0 1 6.554018-23.201224 9.241166 9.241166 0 0 1 8.782385-6.226318h609.982474a9.241166 9.241166 0 0 1 8.782384 6.226318 162.08087 162.08087 0 0 1-137.634382 214.709636v41.749096a9.765487 9.765487 0 0 1-0.458781 2.818227v227.031191a9.306706 9.306706 0 0 1-8.192523 9.241166 318.590825 318.590825 0 0 1-37.423444 2.228366z m-428.63279-485.521668a138.551945 138.551945 0 0 0-3.47363 14.353299 143.532999 143.532999 0 0 0 131.080364 169.880152 9.306706 9.306706 0 0 1 8.651304 8.651304c5.374295 84.350214 14.025599 158.213999 65.540182 207.303596 60.952369 58.068601 168.176107 66.719905 226.637949 66.719905 8.782384 0 17.630309-0.393241 26.871475-1.310804V462.582604a10.093188 10.093188 0 0 1 0.393241-2.818227v-47.582172a9.241166 9.241166 0 0 1 8.913465-9.241166 143.664079 143.664079 0 0 0 131.670225-184.495612z m465.335292 244.137177z" fill="#952D2E" /><path d="M652.190351 589.861638a59.969267 59.969267 0 0 1-59.838186-59.838186V209.204261a9.241166 9.241166 0 0 1 9.306706-9.306706h101.1285a9.306706 9.306706 0 0 1 9.306706 9.306706v321.146892A59.969267 59.969267 0 0 1 652.190351 589.861638z m-41.290315-371.416211v311.578025a41.290315 41.290315 0 1 0 82.58063 0V218.445427zM443.903653 874.96143h-0.393241a9.306706 9.306706 0 0 1-8.913465-9.831028l11.469532-273.6958a9.306706 9.306706 0 0 1 9.699947-8.847924 9.175625 9.175625 0 0 1 8.847924 9.634406l-11.403992 273.6958a9.306706 9.306706 0 0 1-9.306705 9.044546zM699.641443 874.96143a9.306706 9.306706 0 0 1-9.306706-8.979005l-5.046594-165.48896a9.241166 9.241166 0 0 1 8.979005-9.568866 9.241166 9.241166 0 0 1 9.306706 8.979004l5.112134 165.48896a9.241166 9.241166 0 0 1-9.044545 9.568867zM581.538035 842.191339a9.241166 9.241166 0 0 1-9.306706-9.306706v-150.742419a9.306706 9.306706 0 0 1 18.613412 0v150.742419a9.306706 9.306706 0 0 1-9.306706 9.306706zM511.21342 779.928166a9.306706 9.306706 0 0 1-9.306706-9.306706v-117.972328a9.306706 9.306706 0 0 1 18.613411 0v117.972328A9.372246 9.372246 0 0 1 511.21342 779.928166zM640.524199 779.928166a9.306706 9.306706 0 0 1-9.306706-9.306706v-78.648219a9.306706 9.306706 0 0 1 18.613411 0v78.648219a9.372246 9.372246 0 0 1-9.306705 9.306706z" fill="#952D2E" /></svg>