<?xml version="1.0" standalone="no"?><!DOCTYPE svg PUBLIC "-//W3C//DTD SVG 1.1//EN" "http://www.w3.org/Graphics/SVG/1.1/DTD/svg11.dtd"><svg class="icon" width="200px" height="165.03px" viewBox="0 0 1241 1024" version="1.1" xmlns="http://www.w3.org/2000/svg"><path d="M349.111117 583.506165h501.496328v433.31905H349.111117z" fill="#F5E455" /><path d="M528.513507 1009.39564v-171.972815a68.177279 68.177279 0 0 1 67.885923-68.10444 68.177279 68.177279 0 0 1 67.958761 68.10444v171.972815" fill="#FBDEB5" /><path d="M607.980826 772.159105a68.177279 68.177279 0 0 0-10.270295-0.728389 73.931558 73.931558 0 0 0-72.838973 74.514269v7.283897h1.893814a152.45197 152.45197 0 0 0 81.215454-81.069777z" fill="#FFFFFF" /><path d="M84.924162 1004.515429V550.364433c0-27.897327 18.719616-50.987281 41.591053-50.987281 22.798599 0 41.518215 22.871438 41.518215 50.987281v460.342309M1110.132706 1004.515429V550.364433c0-27.897327-18.719616-50.987281-41.591054-50.987281s-41.518215 22.871438-41.518214 50.987281v460.342309" fill="#C2E5F3" /><path d="M141.592883 722.91996h263.968438v290.700341H141.592883zM793.865885 722.91996h263.968438v290.700341h-263.968438z" fill="#F4D5E6" /><path d="M229.436684 854.612823v-41.15402a47.126815 47.126815 0 0 1 47.418171-46.544104 47.053977 47.053977 0 0 1 47.345333 46.544104v41.15402M229.436684 1011.945004v-41.154019a47.126815 47.126815 0 0 1 47.418171-46.544104 47.053977 47.053977 0 0 1 47.345333 46.544104v41.154019M883.166466 854.612823v-41.15402a47.126815 47.126815 0 0 1 47.418172-46.544104 47.126815 47.126815 0 0 1 47.418171 46.544104v41.15402M883.166466 1011.945004v-41.154019a47.126815 47.126815 0 0 1 47.418172-46.544104 47.126815 47.126815 0 0 1 47.418171 46.544104v41.154019" fill="#FFFFFF" /><path d="M979.823783 597.127053c-31.102241-18.282582-52.589738-57.397111-52.589738-102.702951 0-4.297499 0-8.449321 0.582712-12.528304H925.922943c0 4.078982 0.582712 8.230804 0.582712 12.528304 0 45.815714-21.851692 85.367276-53.755162 103.358502V598.146799c-35.035546 24.255378-58.85389 71.163677-58.85389 125.137356h226.310689c0.145678-54.774908-24.401056-102.338757-60.383509-126.157102z" fill="#F3A8BC" /><path d="M1050.623265 733.627289h-246.851279v-10.270296c0-53.318128 22.361565-102.702952 58.781051-130.381761v-0.72839l5.244406-3.496271c29.135589-16.752964 48.510756-53.828001 48.510756-94.690664 0-3.787627 0-7.720931-0.509873-11.654236l-1.019746-11.217202h24.328217l-1.019745 11.217202c0 3.933305-0.509873 7.866609-0.509873 11.654236 0 39.988596 18.646777 76.845116 47.49101 93.816597h0.437034c40.207113 26.659064 65.118042 78.374735 65.118042 134.897778z m-225.800816-20.61343h204.96887c-2.767881-45.451519-23.454149-85.877149-55.430459-107.146129a116.542357 116.542357 0 0 1-47.49101-58.271178 116.542357 116.542357 0 0 1-45.815714 56.960077l-2.258008 1.820974c-31.17508 21.851692-51.351476 61.985966-54.046518 106.636256z" fill="#FFFFFF" /><path d="M324.710061 597.127053c-31.102241-18.282582-52.589738-57.397111-52.589739-102.702951 0-4.297499 0-8.449321 0.582712-12.528304h-1.748135c0.364195 4.078982 0.582712 8.230804 0.582711 12.528304 0 45.815714-21.851692 85.367276-53.755162 103.358502V598.146799C182.965419 622.475016 158.928558 669.383315 158.928558 723.356993h226.310689c0-54.847747-24.546734-102.411596-60.529186-126.22994z" fill="#F3A8BC" /><path d="M395.509542 733.627289H148.658263v-10.270296c0-53.318128 22.361565-102.702952 58.781051-130.381761v-0.72839l5.244406-3.496271c29.135589-16.752964 48.510756-53.828001 48.510756-94.690664 0-3.860466 0-7.720931-0.509873-11.654236l-1.019745-11.217202h24.328217l-1.019746 11.217202c0 3.933305-0.509873 7.79377-0.509873 11.654236 0 39.988596 18.646777 76.845116 47.491011 93.816597h0.437034c40.207113 26.659064 65.118042 78.374735 65.118041 134.897778z m-225.800816-20.61343h204.896031c-2.767881-45.451519-23.454149-85.731471-55.430458-107.146129a116.542357 116.542357 0 0 1-47.491011-58.271178 116.542357 116.542357 0 0 1-45.815714 56.960077l-2.258008 1.820974c-31.102241 21.851692-51.278637 61.985966-53.973679 106.636256z" fill="#FFFFFF" /><path d="M698.665348 376.133609A181.077687 181.077687 0 0 1 595.889557 212.828632a177.872772 177.872772 0 0 1 1.165423-19.88504h-3.423431a178.01845 178.01845 0 0 1 1.092584 19.88504 180.85917 180.85917 0 0 1-105.033799 164.324723v0.801229a227.257596 227.257596 0 0 0-115.012738 198.777557h442.351083A227.257596 227.257596 0 0 0 698.665348 376.133609z" fill="#D8E1F3" /><path d="M366.519631 496.536432a150.922352 150.922352 0 0 0 48.000883-20.176396c20.467751-16.680125 21.414658-42.610799 26.440547-47.782366 10.561651-10.707329 25.639318-0.437034 37.876266-8.303643 50.550247-32.486182 42.683638-74.44143 61.621771-95.419055 4.661694-5.171567-144.949556 31.612114-135.844684 29.13559" fill="#FFFFFF" /><path d="M853.666682 586.274046H338.039593A10.343134 10.343134 0 0 1 327.769297 576.295107a275.768352 275.768352 0 0 1 136.136041-238.911831 10.63449 10.63449 0 0 1 3.860465-3.059237 201.39976 201.39976 0 0 0 116.542357-182.097432 209.047852 209.047852 0 0 0-1.238262-21.851692 10.63449 10.63449 0 0 1 2.549364-8.012287 10.415973 10.415973 0 0 1 7.720931-3.423432h3.933304a10.270295 10.270295 0 0 1 10.270296 11.435719 209.047852 209.047852 0 0 0-1.238263 21.851692 201.763955 201.763955 0 0 0 113.847315 180.567814h0.437034A274.967123 274.967123 0 0 1 864.009816 576.295107a10.415973 10.415973 0 0 1-10.343134 9.978939z m-505.065438-20.686268h494.503787A253.91666 253.91666 0 0 0 711.047973 351.29552a222.523062 222.523062 0 0 1-115.813967-135.189134 221.940351 221.940351 0 0 1-115.449772 134.970617 9.541905 9.541905 0 0 1-2.622203 2.185169 254.499371 254.499371 0 0 0-128.560787 212.325606zM593.922905 98.325767A10.343134 10.343134 0 0 1 583.57977 88.273988V63.581577a10.343134 10.343134 0 1 1 20.61343 0V88.273988a10.343134 10.343134 0 0 1-10.270295 10.051779z" fill="#952D2E" /><path d="M405.269965 733.263094h-263.677082a10.343134 10.343134 0 0 1-10.343135-10.343134c0-63.005712 27.168937-121.349729 70.94516-152.961844a9.177711 9.177711 0 0 1 2.84072-2.476525c34.889868-19.812201 57.397111-63.588423 57.397111-111.589306 0-4.370338 0-9.032033-0.582712-13.693727a10.270295 10.270295 0 0 1 10.270295-11.217202h2.039491a10.343134 10.343134 0 0 1 10.270296 11.217202c-0.437034 4.661694-0.655551 9.25055-0.655551 13.693727 0 47.272493 21.851692 90.75736 56.231687 110.860917h0.437034C386.914544 598.146799 415.613099 657.65624 415.613099 722.91996a10.343134 10.343134 0 0 1-10.343134 10.343134z m-253.115431-20.61343h242.55378c-2.767881-54.265035-27.314615-102.630113-65.555076-128.050914a134.096549 134.096549 0 0 1-56.231687-70.872321 135.553329 135.553329 0 0 1-55.284781 70.435287 10.998685 10.998685 0 0 1-1.675296 1.529619c-37.075037 25.639318-61.039059 73.640202-63.80694 126.958329zM272.411678 410.003732a10.343134 10.343134 0 0 1-10.270295-10.343134v-20.467752a10.343134 10.343134 0 1 1 20.613429 0v20.467752a10.343134 10.343134 0 0 1-10.343134 10.343134zM124.694241 472.499571a10.270295 10.270295 0 0 1-10.270295-10.270296v-12.382625a10.343134 10.343134 0 0 1 20.613429 0v12.382625A10.270295 10.270295 0 0 1 124.694241 472.499571zM593.922905 36.776834A10.343134 10.343134 0 0 1 583.57977 26.4337V11.210355a10.343134 10.343134 0 1 1 20.61343 0v15.223345a10.343134 10.343134 0 0 1-10.270295 10.343134z" fill="#952D2E" /><path d="M453.12517 733.044577H98.035177a10.343134 10.343134 0 1 1 0-20.613429h355.089993a10.343134 10.343134 0 1 1 0 20.613429zM1229.370105 1023.963435H11.211121a10.343134 10.343134 0 1 1 0-20.61343h1218.158984a10.343134 10.343134 0 1 1 0 20.61343zM315.750867 621.163914H230.45643a10.343134 10.343134 0 1 1 0-20.613429h85.294437a10.343134 10.343134 0 1 1 0 20.613429zM613.880783 334.906751h-109.258459a10.343134 10.343134 0 0 1 0-20.686269h109.258459a10.343134 10.343134 0 1 1 0 20.686269zM323.835993 868.379389h-46.689782a10.343134 10.343134 0 0 1 0-20.686269h46.689782a10.343134 10.343134 0 0 1 0 20.686269z" fill="#952D2E" /><path d="M141.592883 1023.963435a10.343134 10.343134 0 0 1-10.343135-10.270295V722.91996a10.343134 10.343134 0 0 1 20.686269 0v290.77318a10.343134 10.343134 0 0 1-10.343134 10.270295zM405.561321 1023.963435a10.270295 10.270295 0 0 1-10.343135-10.270295V722.91996a10.343134 10.343134 0 0 1 20.61343 0v290.77318a10.270295 10.270295 0 0 1-10.270295 10.270295zM324.200188 864.955957a10.270295 10.270295 0 0 1-10.124617-10.343134v-41.15402a37.075037 37.075037 0 0 0-74.150075 0v41.15402a10.343134 10.343134 0 0 1-20.686268 0v-41.15402a57.761306 57.761306 0 0 1 115.449772 0v41.15402a10.270295 10.270295 0 0 1-10.488812 10.343134zM324.200188 1022.288138a10.270295 10.270295 0 0 1-10.124617-10.343134v-41.154019a37.075037 37.075037 0 0 0-74.150075 0v41.154019a10.343134 10.343134 0 1 1-20.686268 0v-41.154019a57.761306 57.761306 0 0 1 115.449772 0v41.154019a10.270295 10.270295 0 0 1-10.488812 10.343134zM667.781623 1015.878309a10.343134 10.343134 0 0 1-10.343134-10.343134V834.145071a61.184737 61.184737 0 0 0-61.69461-60.456347 62.277322 62.277322 0 0 0-41.518215 15.878896 10.343134 10.343134 0 1 1-13.766566-15.369023 82.745073 82.745073 0 0 1 55.284781-21.123303A81.871006 81.871006 0 0 1 678.270435 834.145071v171.390104a10.415973 10.415973 0 0 1-10.488812 10.343134zM524.72588 832.615453h-1.748135a10.415973 10.415973 0 0 1-8.449321-11.945592 83.619141 83.619141 0 0 1 3.787627-13.912243c0.437034-1.238263 0.946907-2.476525 1.456779-3.641949a10.343134 10.343134 0 1 1 18.938133 8.157965c0 0.874068-0.72839 1.748135-1.019745 2.695042a54.046518 54.046518 0 0 0-2.767881 10.197456 10.343134 10.343134 0 0 1-10.197457 8.449321zM523.706135 1015.878309a10.415973 10.415973 0 0 1-10.343134-10.343134v-139.70515a10.343134 10.343134 0 0 1 20.686268 0v139.70515a10.415973 10.415973 0 0 1-10.343134 10.343134zM1059.072586 733.263094h-263.677082a10.270295 10.270295 0 0 1-10.343134-10.343134c0-63.005712 27.096098-121.349729 70.945159-152.961844a8.157965 8.157965 0 0 1 2.767881-2.476525c34.889868-19.812201 57.46995-63.661262 57.46995-111.589306 0-4.443177 0-9.032033-0.655551-13.693727a10.343134 10.343134 0 0 1 10.343134-11.071524h2.039492a10.270295 10.270295 0 0 1 10.270295 11.217202c-0.437034 4.661694-0.582712 9.323389-0.582712 13.693727 0 47.272493 21.851692 90.75736 56.158848 110.860917h0.437034c46.398426 30.810886 75.16982 90.466004 75.16982 155.729724a10.270295 10.270295 0 0 1-10.343134 10.63449z m-253.115431-20.61343h242.480941c-2.767881-54.265035-27.314615-102.630113-65.555076-128.050914a134.096549 134.096549 0 0 1-56.231687-70.872321 135.699007 135.699007 0 0 1-55.357619 70.435287 8.376482 8.376482 0 0 1-1.675297 1.529619c-37.002198 25.639318-60.893381 73.640202-63.661262 126.958329zM925.922943 410.003732a10.343134 10.343134 0 0 1-10.343134-10.343134v-20.467752a10.343134 10.343134 0 1 1 20.61343 0v20.467752a10.343134 10.343134 0 0 1-10.270296 10.343134z" fill="#952D2E" /><path d="M1106.854952 733.044577H751.837798a10.343134 10.343134 0 1 1 0-20.613429h355.017154a10.343134 10.343134 0 1 1 0 20.613429zM969.626327 621.163914h-85.221598a10.343134 10.343134 0 1 1 0-20.613429H969.626327a10.343134 10.343134 0 1 1 0 20.613429zM977.638614 868.379389h-46.689782a10.343134 10.343134 0 0 1 0-20.686269h46.689782a10.343134 10.343134 0 1 1 0 20.686269z" fill="#952D2E" /><path d="M795.395504 1023.963435a10.270295 10.270295 0 0 1-10.343134-10.270295V722.91996a10.343134 10.343134 0 0 1 20.613429 0v290.77318a10.270295 10.270295 0 0 1-10.270295 10.270295zM1059.291103 1023.963435a10.343134 10.343134 0 0 1-10.343134-10.270295V722.91996a10.343134 10.343134 0 0 1 20.686268 0v290.77318a10.343134 10.343134 0 0 1-10.343134 10.270295zM978.002809 864.955957a10.270295 10.270295 0 0 1-10.343134-10.343134v-41.15402a37.075037 37.075037 0 0 0-74.150075 0v41.15402a10.343134 10.343134 0 0 1-20.686268 0v-41.15402a57.761306 57.761306 0 0 1 115.449772 0v41.15402a10.270295 10.270295 0 0 1-10.270295 10.343134zM978.002809 1022.288138a10.270295 10.270295 0 0 1-10.343134-10.343134v-41.154019a37.075037 37.075037 0 0 0-74.150075 0v41.154019a10.343134 10.343134 0 1 1-20.686268 0v-41.154019a57.761306 57.761306 0 0 1 115.449772 0v41.154019a10.270295 10.270295 0 0 1-10.270295 10.343134zM84.924162 1014.858563a10.415973 10.415973 0 0 1-10.343134-10.343134V550.364433c0-33.651606 23.308471-61.039059 51.934187-61.03906s51.861349 27.387454 51.861349 61.03906v57.761305a10.343134 10.343134 0 0 1-20.686268 0v-57.761305c0-21.851692-14.567795-40.42563-31.175081-40.42563S95.558652 528.439902 95.558652 550.364433v454.150996a10.343134 10.343134 0 0 1-10.63449 10.343134zM1070.362627 472.499571a10.270295 10.270295 0 0 1-10.343134-10.270296v-12.382625a10.343134 10.343134 0 0 1 20.613429 0v12.382625a10.270295 10.270295 0 0 1-10.270295 10.270296z" fill="#952D2E" /><path d="M1110.132706 1014.858563a10.343134 10.343134 0 0 1-10.343134-10.343134V550.364433c0-21.851692-14.567795-40.42563-31.24792-40.42563s-31.17508 18.501099-31.17508 40.42563v57.761305a10.343134 10.343134 0 0 1-20.686268 0v-57.761305c0-33.651606 23.308471-61.039059 51.861348-61.03906s51.861349 27.387454 51.861349 61.03906v454.150996a10.343134 10.343134 0 0 1-10.270295 10.343134z" fill="#952D2E" /></svg>