<?xml version="1.0" standalone="no"?><!DOCTYPE svg PUBLIC "-//W3C//DTD SVG 1.1//EN" "http://www.w3.org/Graphics/SVG/1.1/DTD/svg11.dtd"><svg class="icon" width="200px" height="199.22px" viewBox="0 0 1028 1024" version="1.1" xmlns="http://www.w3.org/2000/svg"><path d="M521.728126 39.780465h104.250172l55.294243 975.677782h-334.421513L402.084906 39.780465h29.518433M473.013656 39.780465h16.902171" fill="#C9E4F7" /><path d="M591.027024 193.65058H437.036179l14.54794-96.040546h124.955331l14.487574 96.040546zM394.780754 270.193266c68.634884 171.858853 112.278703 468.310848 114.029284 743.03148M633.463545 270.193266c-68.634884 171.858853-112.278703 468.310848-113.96892 743.03148M471.504534 99.119156l20.946618 90.004057M556.377575 99.119156l-20.946618 90.004057M441.503182 249.427742h146.203773M458.646812 301.58301h59.278325M545.511894 301.58301h25.051431M477.058104 349.93529h34.709814M539.41504 349.93529h12.736992M496.555965 398.77049h36.037842M355.422843 960.224369l147.229976 10.201667M668.414818 960.224369l-147.229976 10.201667M409.147598 644.214149l-1.569487 45.998049M406.068989 745.446076l-7.666342 136.485025" fill="#C9E4F7" /><path d="M633.463545 270.193266L563.983552 511.532112l-51.31016 398.4083-45.273671-398.4083-76.96524-259.569044 11.650425-212.182603h226.790907l4.587732 230.412801z" fill="#D8E1F3" /><path d="M419.590725 0c0.664014 31.57084 14.42721 62.4173 10.986411 93.807045-2.656055 24.145958-15.151588 46.239509-16.057062 70.325102-1.328028 36.218936 23.663038 70.385466 18.109468 106.061119-3.621894 22.999025-19.437496 42.255426-27.103837 64.167882-22.214281 63.564233 26.560553 133.285686 12.797357 199.20415-5.131016 24.568512-18.833847 49.921767-9.658383 73.282981 3.984083 10.201667 12.072979 18.109468 16.781441 28.190406 13.642466 27.345297 1.207298 59.881975-11.167506 87.770556l-25.53435 57.225919c-7.787071 17.566184-15.936332 35.554923-30.182447 48.71447-25.89654 24.145958-64.952626 26.258729-100.447183 26.862377-9.416923 0-20.463699-0.422554-25.836175-8.14926z" fill="#FFFFFF" /><path d="M591.027024 193.65058H437.036179l14.54794-96.040546h124.955331l14.487574 96.040546z" fill="#F5E455" /><path d="M504.403401 1012.560732H355.422843v-52.396728l148.195815 14.668669 0.784743 37.728059zM524.565276 1012.560732h148.920193v-52.396728l-148.13545 14.668669-0.784743 37.728059z" fill="#88CAEF" /><path d="M681.272541 1023.969697h-334.421513a8.63218 8.63218 0 0 1-6.03649-2.656056 8.209626 8.209626 0 0 1-2.293866-6.338313L393.573456 39.297546a8.51145 8.51145 0 0 1 8.51145-8.028531h29.518433a8.571815 8.571815 0 1 1 0 17.083265h-21.429537l-54.328405 958.534152h316.312045L617.949767 48.291915H521.728126a8.571815 8.571815 0 1 1 0-17.083265h104.250172A8.51145 8.51145 0 0 1 634.550113 39.297546l55.233878 975.677782a8.451085 8.451085 0 0 1-8.51145 8.994369z" fill="#952D2E" /><path d="M489.674367 48.291915h-16.90217a8.571815 8.571815 0 1 1 0-17.083265H489.674367A8.571815 8.571815 0 0 1 489.674367 48.291915zM591.027024 202.222395h-153.93048a8.63218 8.63218 0 0 1-8.51145-9.839478L443.133034 96.58383a8.51145 8.51145 0 0 1 8.451085-7.304152h124.955331a8.51145 8.51145 0 0 1 8.451085 7.304152l14.547939 95.799087a8.63218 8.63218 0 0 1-8.51145 9.839478z m-144.030637-17.14363h134.130794l-12.072978-78.896916H458.948636zM508.810038 1021.796561a8.571815 8.571815 0 0 1-8.571815-8.51145c-1.750582-274.539538-48.654105-573.466493-116.745704-744.057684A8.571815 8.571815 0 0 1 399.127026 262.889113C468.184465 435.170521 515.631271 736.451707 517.321488 1013.164381a8.571815 8.571815 0 0 1-8.451085 8.63218z" fill="#952D2E" /><path d="M519.494625 1021.796561a8.63218 8.63218 0 0 1-8.51145-8.63218C512.673392 736.089517 559.939104 434.627237 628.513623 262.889113a8.571815 8.571815 0 1 1 15.875967 6.338314c-67.850141 169.866812-114.693299 468.914497-116.383515 744.057684a8.51145 8.51145 0 0 1-8.51145 8.51145zM492.451152 197.634663a8.571815 8.571815 0 0 1-8.330355-6.579774l-20.946618-90.004056a8.571815 8.571815 0 1 1 16.66071-3.863354L500.781508 187.131171a8.571815 8.571815 0 0 1-6.398679 10.322397 10.443127 10.443127 0 0 1-1.931677 0.181095zM535.430957 197.634663h-1.931677A8.571815 8.571815 0 0 1 527.100601 187.131171l20.946619-89.943692a8.571815 8.571815 0 0 1 16.66071 3.863354L544.002772 191.054889a8.51145 8.51145 0 0 1-8.571815 6.579774zM587.706955 257.999557H441.382452a8.571815 8.571815 0 0 1 0-17.14363h146.324503a8.571815 8.571815 0 0 1 0 17.14363zM517.925137 310.154825h-59.278325a8.571815 8.571815 0 0 1 0-17.14363h59.278325a8.571815 8.571815 0 0 1 0 17.14363zM570.563325 310.154825h-25.051431a8.571815 8.571815 0 0 1 0-17.14363h25.051431a8.571815 8.571815 0 0 1 0 17.14363zM511.767918 358.446741h-34.709814a8.571815 8.571815 0 1 1 0-17.083265h34.709814a8.571815 8.571815 0 1 1 0 17.083265zM552.152032 358.446741h-12.736992a8.571815 8.571815 0 1 1 0-17.083265h12.736992a8.571815 8.571815 0 1 1 0 17.083265zM532.593807 407.28194h-36.218937a8.571815 8.571815 0 1 1 0-17.083265h36.218937a8.571815 8.571815 0 1 1 0 17.083265z" fill="#952D2E" /><path d="M502.713184 978.997851h-0.603649l-147.229976-10.201667a8.571815 8.571815 0 1 1 1.146933-17.083265l147.229976 10.262032a8.571815 8.571815 0 0 1-0.543284 17.083265zM521.184842 978.997851a8.571815 8.571815 0 0 1-0.603649-17.083265l147.229976-10.262032a8.571815 8.571815 0 0 1 1.207298 17.083265l-147.229976 10.201667zM407.578111 698.784013a8.51145 8.51145 0 0 1-8.451085-8.87364l1.509122-45.998049a8.571815 8.571815 0 0 1 8.571815-8.26999 8.51145 8.51145 0 0 1 8.269991 8.813274l-1.509123 46.058414a8.571815 8.571815 0 0 1-8.39072 8.269991zM398.402647 890.502916h-0.482919a8.571815 8.571815 0 0 1-8.088896-9.175464l7.666342-136.54539a8.571815 8.571815 0 1 1 17.083265 0.965838l-7.666342 136.485026a8.51145 8.51145 0 0 1-8.51145 8.26999zM1018.833028 1023.969697H240.54845a8.571815 8.571815 0 1 1 0-17.083265h778.284578a8.571815 8.571815 0 1 1 0 17.083265zM189.23829 1023.969697h-48.291916a8.571815 8.571815 0 1 1 0-17.083265h48.291916a8.571815 8.571815 0 0 1 0 17.083265zM103.942694 1023.969697H9.290541a8.571815 8.571815 0 1 1 0-17.083265H103.942694a8.571815 8.571815 0 1 1 0 17.083265z" fill="#952D2E" /></svg>