<?xml version="1.0" standalone="no"?><!DOCTYPE svg PUBLIC "-//W3C//DTD SVG 1.1//EN" "http://www.w3.org/Graphics/SVG/1.1/DTD/svg11.dtd"><svg class="icon" width="200px" height="126.50px" viewBox="0 0 1619 1024" version="1.1" xmlns="http://www.w3.org/2000/svg"><path d="M1433.32378 1005.786732a174.27767 174.27767 0 0 1-5.006491-32.455871c-8.631881-44.972098-65.429655-66.379162-66.724437-112.214449-0.431594-15.88266 6.387592-31.85164 2.934839-47.216387-6.387592-28.744163-41.001433-34.527523-59.042063-56.36618s-17.263761-55.848268-33.146422-78.981708-44.972098-29.779988-68.537132-43.159403a136.901627 136.901627 0 0 1-58.178876-75.528956l-201.72705-74.665767-76.564782-78.204839-249.806625 54.380848-17.867993 542.254742 833.839669 2.416926z" fill="#C1E1C4" /><path d="M616.83419 191.368794v-58.351513h-76.305824v58.178875h-76.305825v-58.178875h-76.219506v58.178875h-76.305825v-58.178875h-76.305825v58.178875h-76.305825v-58.178875H82.779735V316.790019h0.604232v694.95271h533.70918l0.086319-614.503582V191.368794h-0.345276z" fill="#FBDEB5" /><path d="M270.954733 1011.742729V871.819944a80.190171 80.190171 0 0 1 79.068027-80.794402 80.190171 80.190171 0 0 1 79.068026 80.794402v139.57751" fill="#F5E455" /><path d="M360.035741 792.406643a105.913175 105.913175 0 0 1-34.527522 57.660962A81.830228 81.830228 0 0 1 267.5883 869.23038l31.765321-61.976903zM11.394082 948.988957c46.525837-15.710023 27.794656-28.398887 62.753773-64.480148a67.501307 67.501307 0 0 0 14.674197-20.198601c8.631881-20.97547 0-46.439518 4.920172-69.055045 7.164461-34.527523 42.382534-53.258704 52.222878-87.095676 8.631881-30.297901-5.006491-62.408497-17.867993-90.721065-16.573211-36.253899-32.54219-77.686926-23.13344-116.875664 8.631881-35.131754 35.822305-62.92641 37.980274-99.266627 1.899014-32.887465-17.263761-62.753772-20.025963-95.641238-1.640057-22.615527 5.09281-44.885779 7.164461-67.414987C138.11009 154.855939 84.160836 71.730928 105.395263 0z" fill="#FFFFFF" /><path d="M709.972182 869.057743l-80.362808 54.639804-5.179129 82.952373 53.949254-52.222878 114.372419-70.86774 113.250274-16.227936 85.28298 8.7182 95.986513 5.869679 90.634747-15.796342 61.113715-21.579701 73.370985-48.856445 24.514541-14.933153 33.060103-10.012982-20.112282-43.073084-25.723004 6.301273-10.099301 0.431594-72.594116 46.007923-29.348394-69.40032-64.825423 32.283234 15.019472 76.305825-77.773245 15.451066-5.006491-76.564781-77.34165-2.762202-4.833853 74.234173-72.853073-6.905504-9.322431-70.090871-73.112029 4.143303 5.955998 69.40032-75.528956 18.558543-5.78336-47.7343-81.743909 25.291411 14.933153 46.871112 0.517913-0.172638M702.20349 367.200202l-77.686926 24.514541-1.122144 60.509484 0.69055 17.436398 96.763382-37.721318 75.18368 11.221445 54.639805 35.649667 58.955745 50.58282 65.515974 33.146422 79.068026 11.56672 58.265195-3.280114 31.851639-11.394083V498.663744l-80.96704 16.745849 7.596055-66.5518-61.804266-14.760516-26.75883 61.717947-70.177189-46.698474 30.643176-70.781422-64.307511-36.599174-39.361375 54.812442-61.804266-20.630194 5.697041-56.970412-71.471971-8.200287-9.40875 56.452499" fill="#F4D5E6" /><path d="M150.798955 522.315097V466.121554c0-29.434713 21.579702-53.51766 47.993256-53.51766 26.413555 0 48.079575 24.082947 48.079575 53.51766v56.193543H189.901374M302.806373 522.315097V466.121554c0-29.434713 21.579702-53.51766 47.993256-53.51766 26.413555 0 48.079575 24.082947 48.079575 53.51766v56.193543h-56.797774M454.813791 522.315097V466.121554c0-29.434713 21.66602-53.51766 48.079575-53.51766 26.413555 0 47.993256 24.082947 47.993256 53.51766v56.193543h-56.797774" fill="#F3A8BC" /><path d="M158.222372 332.241086H55.244036a12.257271 12.257271 0 0 1 0-24.428222h102.978336a12.257271 12.257271 0 1 1 0 24.428222zM612.863525 332.241086H210.358931a12.257271 12.257271 0 1 1 0-24.428222H612.863525a12.257271 12.257271 0 1 1 0 24.428222zM246.871786 534.486049H189.901374a12.257271 12.257271 0 1 1 0-24.428222h44.540504V466.121554c0-22.788165-16.055298-41.346708-35.822305-41.346708s-35.649667 18.558543-35.649667 41.346708v56.193543a12.257271 12.257271 0 0 1-24.428222 0V466.121554c0-36.253899 27.017786-65.77493 60.423165-65.77493S258.956419 429.867656 258.956419 466.121554v56.193543a12.170952 12.170952 0 0 1-12.084633 12.170952zM398.879204 534.486049h-56.797774a12.257271 12.257271 0 1 1 0-24.428222h44.540504V466.121554c0-22.788165-16.055298-41.346708-35.822305-41.346708S315.063643 443.33339 315.063643 466.121554v56.193543a12.257271 12.257271 0 0 1-24.514541 0V466.121554c0-36.253899 27.017786-65.77493 60.423165-65.77493s60.423164 29.521032 60.423164 65.77493v56.193543a12.257271 12.257271 0 0 1-12.516227 12.170952zM429.090786 1024a12.343589 12.343589 0 0 1-12.25727-12.257271V871.819944a66.810756 66.810756 0 1 0-133.621512 0v139.663829a12.257271 12.257271 0 0 1-24.514541 0V871.819944a91.325297 91.325297 0 1 1 182.650594 0v139.663829a12.343589 12.343589 0 0 1-12.257271 12.516227zM550.886622 534.486049h-56.797774a12.257271 12.257271 0 0 1 0-24.428222h44.540504V466.121554c0-22.788165-16.055298-41.346708-35.735986-41.346708s-35.822305 18.558543-35.822305 41.346708v56.193543a12.257271 12.257271 0 0 1-24.514541 0V466.121554c0-36.253899 27.104105-65.77493 60.423165-65.77493s60.423164 29.521032 60.423164 65.77493v56.193543a12.257271 12.257271 0 0 1-12.516227 12.170952zM617.265784 701.599258H402.590913a12.257271 12.257271 0 1 1 0-24.428222h214.674871a12.257271 12.257271 0 1 1 0 24.428222zM348.641659 701.599258h-43.159403a12.257271 12.257271 0 1 1 0-24.428222h43.159403a12.257271 12.257271 0 0 1 0 24.428222zM617.265784 784.120037H473.372334a12.257271 12.257271 0 1 1 0-24.514541h143.89345a12.257271 12.257271 0 0 1 0 24.514541zM168.666948 865.60499h-74.320493a12.257271 12.257271 0 1 1 0-24.428222h74.320493a12.257271 12.257271 0 1 1 0 24.428222z" fill="#952D2E" /><path d="M523.696198 778.595633a12.170952 12.170952 0 0 1-12.170951-12.25727V694.866391a12.257271 12.257271 0 1 1 24.428222 0v71.471972a12.170952 12.170952 0 0 1-12.257271 12.25727zM477.688274 692.363146a12.257271 12.257271 0 0 1-12.25727-12.257271v-51.791283a12.257271 12.257271 0 1 1 24.514541 0v51.791283a12.257271 12.257271 0 0 1-12.257271 12.257271zM570.480991 692.363146a12.257271 12.257271 0 0 1-12.25727-12.257271V588.435303a12.257271 12.257271 0 0 1 24.514541 0v91.670572a12.257271 12.257271 0 0 1-12.257271 12.257271zM719.294614 580.235016a12.257271 12.257271 0 0 1-12.257271-12.25727v-52.82711a12.257271 12.257271 0 1 1 24.428222 0v52.82711a12.257271 12.257271 0 0 1-12.170951 12.25727zM776.869257 580.235016a12.257271 12.257271 0 0 1-12.25727-12.25727v-52.82711a12.257271 12.257271 0 1 1 24.428222 0v52.82711A12.257271 12.257271 0 0 1 776.869257 580.235016zM845.924302 1020.547248a12.170952 12.170952 0 0 1-12.084632-10.789851l-5.179129-51.100733a12.170952 12.170952 0 1 1 24.255585-2.762202l5.869679 51.014414a12.257271 12.257271 0 0 1-10.703532 13.552053zM903.498946 1018.561915a12.170952 12.170952 0 0 1-12.170951-10.962488l-5.869679-56.020906a12.170952 12.170952 0 1 1 24.255584-2.589564l5.955998 56.107224a12.343589 12.343589 0 0 1-10.87617 13.465734zM925.941836 674.322515a10.617213 10.617213 0 0 1-3.62539-0.604231 12.084633 12.084633 0 0 1-8.027649-15.278429l15.796342-50.841777a12.170952 12.170952 0 0 1 15.278428-8.113968 12.343589 12.343589 0 0 1 8.113968 15.364748l-15.88266 50.841777a12.170952 12.170952 0 0 1-11.653039 8.63188zM981.790104 690.550451a14.242603 14.242603 0 0 1-3.711709-0.517913 12.343589 12.343589 0 0 1-8.027649-15.364747l15.796342-50.841777a12.257271 12.257271 0 1 1 23.392396 7.250779L993.443143 681.91857a12.257271 12.257271 0 0 1-11.653039 8.631881zM1238.674871 967.892776a12.084633 12.084633 0 0 1-11.394082-7.768693l-17.263761-44.972098a12.257271 12.257271 0 0 1 22.788165-8.63188l17.263761 45.058416A12.170952 12.170952 0 0 1 1242.990812 966.770631a11.394082 11.394082 0 0 1-4.315941 1.122145zM1293.918908 949.50687a12.170952 12.170952 0 0 1-11.394083-7.768692l-17.263761-45.058417a12.257271 12.257271 0 0 1 22.788165-8.631881l17.263761 45.058417a12.084633 12.084633 0 0 1-6.905505 15.796341 11.825676 11.825676 0 0 1-4.488577 0.604232z" fill="#952D2E" /><path d="M614.762539 269.055719h48.42485v746.139763h-48.42485zM1598.796932 698.491781c27.794656 0 27.794656-43.159403 0-43.159403s-27.794656 43.159403 0 43.159403z" fill="#FFFFFF" /><path d="M617.093147 1024H83.383967a12.257271 12.257271 0 0 1-12.257271-12.257271V320.242772a11.135126 11.135126 0 0 1-0.517912-3.452753V133.017281A12.170952 12.170952 0 0 1 82.779735 120.846329h76.305825a12.257271 12.257271 0 0 1 12.257271 12.170952v45.921605h51.791283v-45.921605A12.257271 12.257271 0 0 1 235.391385 120.846329h76.305825a12.170952 12.170952 0 0 1 12.170952 12.170952v45.921605h51.791283v-45.921605A12.170952 12.170952 0 0 1 388.434629 120.846329h76.219506a12.170952 12.170952 0 0 1 12.25727 12.170952v45.921605h51.791284v-45.921605A12.257271 12.257271 0 0 1 540.528366 120.846329h76.305824a12.257271 12.257271 0 0 1 12.257271 12.170952v55.244036a18.040631 18.040631 0 0 1 0 3.107477v820.02866a12.257271 12.257271 0 0 1-11.998314 12.602546z m-521.538228-24.514541h509.280957V194.303633a10.962488 10.962488 0 0 1 0-2.934839v-46.094243H552.440361v45.921605a12.257271 12.257271 0 0 1-12.257271 12.170952h-75.960549a12.170952 12.170952 0 0 1-12.170952-12.170952v-45.921605h-51.791284v45.921605A12.170952 12.170952 0 0 1 388.434629 203.367108h-76.737419a12.170952 12.170952 0 0 1-12.257271-12.170952v-45.921605h-51.791284v45.921605a12.257271 12.257271 0 0 1-12.25727 12.170952h-76.305825A12.257271 12.257271 0 0 1 146.741971 191.196156v-45.921605h-51.791284V313.337267a11.998314 11.998314 0 0 1 0.517913 3.452752zM1058.354885 591.111186a259.474332 259.474332 0 0 1-126.802327-33.664334 340.959285 340.959285 0 0 1-66.551799-52.654472c-28.312568-26.586192-55.071398-51.791284-94.087499-59.905252A162.106718 162.106718 0 0 0 664.654809 457.489674a12.257271 12.257271 0 1 1-10.444576-22.097615 186.017028 186.017028 0 0 1 121.968474-14.156284c45.748967 9.581388 76.305825 38.32555 105.826857 66.120206a325.767175 325.767175 0 0 0 61.717946 49.115401 227.277417 227.277417 0 0 0 189.901374 17.263761 12.257271 12.257271 0 0 1 8.631881 22.960802 239.966282 239.966282 0 0 1-83.90188 14.415241z" fill="#952D2E" /><path d="M1063.361376 527.580545a12.429908 12.429908 0 0 1-8.631881-3.193796 12.257271 12.257271 0 0 1-3.884346-10.358257l6.387591-55.761949-41.260389-9.926663-22.356571 52.309197a12.257271 12.257271 0 0 1-18.04063 5.351766l-70.17719-46.698474a12.170952 12.170952 0 0 1-4.402259-15.019473l26.327236-60.423164-45.231055-25.895642-32.973784 45.921605a12.343589 12.343589 0 0 1-13.811009 4.488578l-61.717946-20.802832a12.343589 12.343589 0 0 1-8.631881-12.861503l4.574897-44.972098-48.079575-5.524403-7.509736 45.058417a12.170952 12.170952 0 1 1-23.392397-4.056984l8.631881-56.538818a12.429908 12.429908 0 0 1 13.465733-10.099301l71.558291 8.200287a12.170952 12.170952 0 0 1 10.703532 13.379415l-4.661216 47.302706 43.936273 14.674197 34.095928-47.475344a12.170952 12.170952 0 0 1 15.968979-3.539071l64.39383 36.599174a12.343589 12.343589 0 0 1 5.179128 15.537385l-26.672511 61.372672 49.460676 32.887465 20.97547-48.338532a12.170952 12.170952 0 0 1 14.069966-6.991823l61.804265 14.760516a12.343589 12.343589 0 0 1 9.322431 13.293096l-5.697041 49.719633 64.393829-13.293097a12.257271 12.257271 0 1 1 5.006491 23.91031l-80.96704 17.263761z" fill="#952D2E" /><path d="M659.216724 393.009525a12.257271 12.257271 0 0 1-3.711708-23.910309l43.159403-13.552053a12.257271 12.257271 0 1 1 7.337098 23.392397l-43.159403 13.552053a13.120459 13.120459 0 0 1-3.62539 0.517912zM1455.852988 1024H12.257271a12.257271 12.257271 0 1 1 0-24.514541h1443.595717a12.257271 12.257271 0 1 1 0 24.514541zM659.216724 973.330861a12.084633 12.084633 0 0 1-9.149793-4.056984 12.257271 12.257271 0 0 1 0.949507-17.263762c37.635-33.405378 108.157464-65.602293 171.601787-78.291157 58.696788-11.739358 112.214448-6.47391 164.005732-1.381101 52.913428 5.265447 102.892017 10.185619 158.049734-1.812695 75.701593-16.573211 99.439265-34.527523 126.888646-56.020905a330.428391 330.428391 0 0 1 96.504425-54.467167 12.257271 12.257271 0 1 1 8.631881 22.874484A304.964343 304.964343 0 0 0 1286.150215 833.925988c-28.571525 22.011296-55.502992 43.159403-136.642671 60.423165-58.869426 12.861502-113.163955 7.509736-165.645789 2.244289-49.805951-4.920172-101.424597-9.926663-156.495996 1.035825-59.646295 11.911995-125.507544 41.778302-160.121386 72.507798a11.825676 11.825676 0 0 1-8.027649 3.193796z" fill="#952D2E" /><path d="M707.814212 878.63913a12.343589 12.343589 0 0 1-11.221445-7.25078L673.890921 820.028661a12.257271 12.257271 0 0 1 8.027649-16.486892l81.74391-25.205092a12.343589 12.343589 0 0 1 9.581387 1.035826 12.084633 12.084633 0 0 1 5.869679 7.596055l10.530895 40.224563 54.467167-13.379415-0.604232-51.791283A12.343589 12.343589 0 0 1 854.556183 749.333558l73.198348-4.143303a11.998314 11.998314 0 0 1 13.120458 11.480402l3.280115 51.791283 50.841777 4.747535 7.164461-49.805951a12.170952 12.170952 0 0 1 12.516227-10.444576l77.686926 2.675883a12.257271 12.257271 0 0 1 11.825676 12.084633l0.776869 49.115401 50.410183-10.012982-13.72469-48.597488a12.343589 12.343589 0 0 1 6.301273-14.328922l64.825424-32.283233a12.170952 12.170952 0 0 1 15.968979 4.833853l24.169266 41.433027c20.284919-17.781674 61.976903-51.791284 88.90837-54.467167a12.257271 12.257271 0 0 1 2.762202 24.341904c-20.112282 2.244289-63.61696 36.85813-86.318807 58.178875a11.998314 11.998314 0 0 1-10.0993 3.193796 12.257271 12.257271 0 0 1-8.63188-5.955998l-25.895642-44.540504-45.403693 22.701846 14.587879 51.791284a12.516227 12.516227 0 0 1-1.381101 9.754025 12.343589 12.343589 0 0 1-8.027649 5.610723l-77.686926 15.451066a12.429908 12.429908 0 0 1-10.0993-2.503245 12.257271 12.257271 0 0 1-4.574897-9.322432l-0.776869-51.791283-54.812442-1.985333-8.027649 50.323864a12.170952 12.170952 0 0 1-13.293096 10.444576l-72.853073-6.819186a12.257271 12.257271 0 0 1-11.048807-11.480401l-3.193796-50.410183-49.374357 2.84852 0.517912 50.151227a12.170952 12.170952 0 0 1-9.322431 11.998314l-75.528955 18.558543a12.257271 12.257271 0 0 1-14.760516-8.63188l-10.358257-39.534014-56.36618 17.263762 16.227935 36.340217a10.0993 10.0993 0 0 1 1.812695 3.884347 11.911995 11.911995 0 0 1-8.63188 14.933153h-0.517913a13.552053 13.552053 0 0 1-2.93484 0.431594z" fill="#952D2E" /><path d="M659.216724 905.139004a12.257271 12.257271 0 0 1-5.869679-22.960803l48.683807-26.499873a12.257271 12.257271 0 1 1 11.653039 21.493382L664.654809 903.671584a12.516227 12.516227 0 0 1-5.438085 1.46742z" fill="#952D2E" /></svg>