<?xml version="1.0" standalone="no"?><!DOCTYPE svg PUBLIC "-//W3C//DTD SVG 1.1//EN" "http://www.w3.org/Graphics/SVG/1.1/DTD/svg11.dtd"><svg class="icon" width="200px" height="147.66px" viewBox="0 0 1387 1024" version="1.1" xmlns="http://www.w3.org/2000/svg"><path d="M1067.366511 206.16025H315.952718a296.655722 296.655722 0 0 0 49.686983-50.257161 195.489767 195.489767 0 0 0 27.775838-63.45272h596.488152s19.793339 54.329864 28.753287 65.733434a372.326553 372.326553 0 0 0 48.709533 47.976447z" fill="#F3A8BC" /><path d="M930.44222 101.491771c-59.624379 29.567827-130.326512 16.290814-196.793032 14.824641a80.069351 80.069351 0 0 0-21.178058 1.710535 140.426816 140.426816 0 0 0-18.81589 7.738137 106.623377 106.623377 0 0 1-65.570527 6.109055c-16.290814-3.665433-32.011449-11.159208-48.872441-9.937397-27.042751 2.036352-48.383717 26.798389-75.426469 28.671833-20.444971 1.384719-38.935045-10.507575-58.158206-17.512625s-58.809838-11.892294-69.073051 5.783239l16.290814-41.297214z" fill="#FFFFFF" /><path d="M1133.1814 382.263949s-16.290814 46.347366-34.292164 57.750935-53.678232 15.394819-53.678232 15.39482H348.452892a111.917892 111.917892 0 0 1-59.461471-11.973749c-28.42747-15.557727-38.853591-61.172006-38.853591-61.172006s66.466521 18.327166 102.224858-5.620331c28.671833-19.22316 52.700783-64.348715 52.700783-64.348715h596.406698s14.091554 43.659381 43.659381 65.163256c31.034001 23.132956 88.051849 4.80579 88.05185 4.80579z" fill="#F3A8BC" /><path d="M1344.961981 1012.392632H49.842273l2.362168-367.2764a49.524074 49.524074 0 0 1 49.361166-49.44262h1196.560284a49.524074 49.524074 0 0 1 49.361166 49.44262z" fill="#E9D1E5" /><path d="M929.546225 561.137086c-14.41737 40.23831-57.017849 65.163256-99.129602 71.272311s-85.200957-1.710535-127.47562-8.145407-86.422768-10.589029-126.90544 2.932347c-38.446321 13.032651-72.412668 41.948846-112.976795 43.170657-29.975098 0.895995-61.172006-24.436221-90.251109-31.767088a143.359163 143.359163 0 0 0-82.594427 1.547628c-28.671833 10.589029-26.961297 36.328515-47.406268 54.085502-14.0101 12.21811-34.943796 9.448672-53.43387 8.145407a273.19695 273.19695 0 0 0-44.718284 0c-18.490074 1.303265-31.604179 6.353417-37.550326 24.436221a276.943837 276.943837 0 0 0-13.277014 64.511623c-1.710535 18.978798 3.258163 48.872442-13.928646 62.068001a82.105702 82.105702 0 0 1-76.974095 13.60283l10.507575-314.412709z" fill="#FFFFFF" /><path d="M338.59695 455.979882h712.560201v134.88794H338.59695z" fill="#F5E455" /><path d="M930.44222 320.44031c-59.624379 22.481323-130.326512 12.21811-196.793032 11.322116a101.736133 101.736133 0 0 0-21.178058 1.221811 174.311709 174.311709 0 0 0-19.141707 5.864693 138.471918 138.471918 0 0 1-65.570526 4.642882c-16.290814-2.769438-32.011449-8.145407-48.872442-7.493775-27.042751 1.547627-48.383717 20.282063-75.426468 21.666783-20.444971 1.058903-38.935045-8.145407-58.158206-13.195559s-58.809838-9.041402-69.073051 4.317065l16.290814-31.278362z" fill="#FFFFFF" /><path d="M401.316583 81.45407V54.655681c0-23.703134 16.290814-43.089203 36.491424-43.089203 20.119155 0 36.572877 19.386069 36.572877 43.089203V81.45407M908.693983 81.45407V54.655681c0-23.703134 16.290814-43.089203 36.491424-43.089203 20.119155 0 36.572877 19.386069 36.572877 43.089203V81.45407" fill="#D8E1F3" /><path d="M206.396995 1002.781052v-61.497823a35.676883 35.676883 0 0 1 35.351066-35.758336 35.676883 35.676883 0 0 1 35.351066 35.758336v61.497823M420.86556 1002.781052v-61.497823a35.676883 35.676883 0 0 1 35.351066-35.758336 35.758337 35.758337 0 0 1 35.432521 35.758336v61.497823M898.756587 1002.781052v-61.497823a35.676883 35.676883 0 0 1 35.351066-35.758336 35.676883 35.676883 0 0 1 35.351066 35.758336v61.497823M1113.225152 1002.781052v-61.497823a35.676883 35.676883 0 0 1 35.351067-35.758336 35.758337 35.758337 0 0 1 35.43252 35.758336v61.497823M635.334126 1002.781052v-91.554374a55.388767 55.388767 0 0 1 57.017848-53.189508 55.307313 55.307313 0 0 1 57.017849 53.189508v91.554374" fill="#88CAEF" /><path d="M622.871653 643.487151h137.49447v161.849236H622.871653z" fill="#FBDEB5" /><path d="M410.113623 206.16025h585.003128v97.337614H410.113623z" fill="#F5E455" /><path d="M474.380884 92.857639A11.566478 11.566478 0 0 1 462.814406 81.45407V54.655681c0-17.105355-11.40357-31.604179-25.006399-31.604179s-24.924945 14.498824-24.924946 31.604179V81.45407a11.566478 11.566478 0 1 1-23.132955 0V54.655681C389.750106 24.436221 411.335434 0 437.808007 0s48.139355 24.436221 48.139355 54.655681V81.45407a11.566478 11.566478 0 0 1-11.566478 11.403569zM981.758284 92.857639A11.485024 11.485024 0 0 1 970.27326 81.45407V54.655681c0-17.105355-11.40357-31.604179-25.006399-31.604179s-24.924945 14.498824-24.924946 31.604179V81.45407a11.566478 11.566478 0 0 1-23.377318 0V54.655681C896.964597 24.436221 918.712834 0 945.185407 0s48.139355 24.436221 48.139355 54.655681V81.45407a11.566478 11.566478 0 0 1-11.566478 11.403569z" fill="#952D2E" /><path d="M1067.366511 217.726728H574.813752a11.566478 11.566478 0 0 1 0-23.132956h462.088937a303.497864 303.497864 0 0 1-27.287113-29.242011c-8.145407-10.181759-21.503874-44.718284-27.775838-61.416368H402.294032A195.489767 195.489767 0 0 1 374.925465 162.908139a255.928687 255.928687 0 0 1-28.346016 31.848542h63.534174a11.566478 11.566478 0 1 1 0 23.132955H315.952718a11.566478 11.566478 0 0 1-7.086504-20.689333 283.460163 283.460163 0 0 0 47.406269-47.894993A183.597473 183.597473 0 0 0 382.174877 89.599477a11.485024 11.485024 0 0 1 11.240662-9.041402h596.488152a11.485024 11.485024 0 0 1 10.833391 7.575228c8.145407 21.829691 21.585328 55.714584 27.042751 62.556726a355.628468 355.628468 0 0 0 46.83609 46.184457 11.566478 11.566478 0 0 1-7.249412 20.526426z" fill="#952D2E" /><path d="M527.244575 217.726728H475.032516a11.566478 11.566478 0 1 1 0-23.132956h52.212059a11.566478 11.566478 0 1 1 0 23.132956zM340.388939 467.301998a122.181105 122.181105 0 0 1-57.017849-13.765738c-32.581628-17.756987-44.066652-66.629429-44.555376-68.665781a11.485024 11.485024 0 0 1 14.661733-13.684283c17.105355 4.642882 67.036699 13.032651 92.694731-4.154158s48.872442-59.705833 48.872442-60.194557a11.40357 11.40357 0 0 1 10.181759-6.109056h596.406698a11.566478 11.566478 0 0 1 10.996299 8.145407c0 0.40727 13.439921 40.727035 39.505224 59.787287 21.42242 15.720635 63.371266 7.330866 77.707183 2.769439a11.566478 11.566478 0 0 1 14.41737 14.82464c-2.932347 8.145407-18.327166 50.827339-39.179407 63.697083s-57.017849 16.860992-58.402568 17.105355H349.023071a77.544274 77.544274 0 0 1-8.634132 0.244362z m-73.308662-69.64323c5.538877 13.195559 14.580278 28.753287 27.124205 35.595429a100.840138 100.840138 0 0 0 52.700783 10.670483h697.246836a147.757682 147.757682 0 0 0 48.302264-13.765738c6.842142-4.235612 14.906095-17.838441 21.340966-31.685633-21.42242 3.502525-53.596778 4.968698-75.833739-11.40357-24.436221-18.082803-39.016499-48.872442-44.799738-63.208358H411.742704c-8.145407 13.521376-28.508924 46.021549-52.945145 62.312363-26.879843 18.001349-67.199607 15.313365-91.391466 11.485024z" fill="#952D2E" /><path d="M410.113623 315.064342a11.485024 11.485024 0 0 1-11.485024-11.566478V206.16025a11.566478 11.566478 0 1 1 23.051502 0v97.744884a11.485024 11.485024 0 0 1-11.566478 11.159208zM995.116751 315.064342a11.566478 11.566478 0 0 1-11.566477-11.566478V206.16025a11.566478 11.566478 0 0 1 23.132955 0v97.744884a11.566478 11.566478 0 0 1-11.566478 11.159208zM343.891464 591.193638a11.566478 11.566478 0 0 1-11.566478-11.566478V463.555111a11.566478 11.566478 0 0 1 23.132956 0v116.072049a11.566478 11.566478 0 0 1-11.566478 11.566478zM1052.1346 591.193638a11.566478 11.566478 0 0 1-11.566478-11.566478V463.555111a11.566478 11.566478 0 1 1 23.132956 0v116.072049a11.566478 11.566478 0 0 1-11.566478 11.566478z" fill="#952D2E" /><path d="M1344.961981 1023.95911H49.842273a11.40357 11.40357 0 0 1-8.145407-3.421071 11.159208 11.159208 0 0 1-3.339617-8.145407l1.873443-232.388461a11.566478 11.566478 0 0 1 11.566478-11.485023 11.566478 11.566478 0 0 1 11.40357 11.647931l-1.791989 220.821983h1271.905298l2.60653-355.954284a37.794688 37.794688 0 0 0-37.794688-37.713234H101.565607A37.876142 37.876142 0 0 0 63.689465 645.116232v5.946147a11.566478 11.566478 0 0 1-11.566478 11.485024 11.647932 11.647932 0 0 1-11.485024-11.647932v-5.946147a60.927644 60.927644 0 0 1 60.927644-60.764736h1196.560284a61.009098 61.009098 0 0 1 60.927644 60.927644l-2.687984 367.357854a11.566478 11.566478 0 0 1-11.40357 11.485024z" fill="#952D2E" /><path d="M51.634262 735.856066a11.485024 11.485024 0 0 1-11.566478-11.647932v-36.654332A11.566478 11.566478 0 0 1 51.878624 676.068778a11.647932 11.647932 0 0 1 11.485024 11.647932v36.654332a11.485024 11.485024 0 0 1-11.729386 11.485024zM286.059075 1015.569341a11.485024 11.485024 0 0 1-11.566478-11.485024v-57.017849c0-16.290814-14.335916-36.572877-31.034001-36.572877a24.436221 24.436221 0 0 0-13.521375 4.39852 11.485024 11.485024 0 0 1-13.032651-18.897344 47.487723 47.487723 0 0 1 26.22821-8.145407c30.952546 0 54.085502 31.441271 54.085502 59.624379v57.017848a11.485024 11.485024 0 0 1-11.159207 11.077754zM200.532302 1015.569341a11.485024 11.485024 0 0 1-11.566478-11.485024v-57.017849a56.44767 56.44767 0 0 1 1.954897-14.498824 42.193208 42.193208 0 0 1 1.38472-4.561428 11.566478 11.566478 0 1 1 21.82969 7.575228c0 0.977449-0.651633 1.954898-0.895995 2.932347a31.929995 31.929995 0 0 0-1.221811 8.145407v57.017849a11.485024 11.485024 0 0 1-11.485023 11.892294zM500.690548 1015.569341a11.485024 11.485024 0 0 1-11.566477-11.485024v-57.017849c0-16.290814-14.335916-36.572877-31.034001-36.572877a24.436221 24.436221 0 0 0-13.521376 4.39852A11.485024 11.485024 0 0 1 431.86186 895.994767a47.487723 47.487723 0 0 1 26.22821-8.145407c30.952546 0 54.085502 31.441271 54.085502 59.624379v57.017848a11.485024 11.485024 0 0 1-11.485024 11.077754zM415.489592 1015.569341a11.485024 11.485024 0 0 1-11.566478-11.485024v-57.017849a56.44767 56.44767 0 0 1 1.954897-14.498824 42.193208 42.193208 0 0 1 1.384719-4.561428 11.566478 11.566478 0 1 1 21.829691 7.575228c0 0.977449-0.651633 1.954898-0.895995 2.932347a31.929995 31.929995 0 0 0-1.221811 8.145407v57.017849a11.485024 11.485024 0 0 1-11.485023 11.892294zM975.323412 1015.569341a11.566478 11.566478 0 0 1-11.566477-11.485024v-57.017849c0-16.290814-14.335916-36.572877-31.034001-36.572877a23.947496 23.947496 0 0 0-13.439921 4.39852 11.566478 11.566478 0 1 1-12.788289-19.223161 47.650631 47.650631 0 0 1 26.22821-8.145407c31.034001 0 54.166956 31.441271 54.166956 59.624379v57.017849a11.566478 11.566478 0 0 1-11.566478 11.40357zM890.122456 1015.569341a11.566478 11.566478 0 0 1-11.566478-11.485024v-57.017849a56.44767 56.44767 0 0 1 1.954897-14.498824 42.519024 42.519024 0 0 1 1.466174-4.561428 11.485024 11.485024 0 1 1 21.748236 7.575228c0 0.977449-0.651633 1.954898-0.895995 2.932347a35.269612 35.269612 0 0 0-1.140357 8.145407v57.017849a11.566478 11.566478 0 0 1-11.566477 11.892294zM1190.199248 1015.569341a11.566478 11.566478 0 0 1-11.566478-11.485024v-57.017849c0-16.290814-14.335916-36.572877-31.034-36.572877a23.947496 23.947496 0 0 0-13.439922 4.39852 11.566478 11.566478 0 1 1-12.788289-19.223161 47.650631 47.650631 0 0 1 26.228211-8.145407c31.034001 0 54.166956 31.441271 54.166956 59.624379v57.017849a11.566478 11.566478 0 0 1-11.566478 11.40357zM1105.079746 1015.569341a11.566478 11.566478 0 0 1-11.566478-11.485024v-57.017849a56.44767 56.44767 0 0 1 1.954897-14.498824 42.519024 42.519024 0 0 1 1.466174-4.561428 11.485024 11.485024 0 1 1 21.748236 7.575228c0 0.977449-0.570178 1.954898-0.895995 2.932347a35.269612 35.269612 0 0 0-1.140357 8.145407v57.017849a11.566478 11.566478 0 0 1-11.566477 11.892294zM753.768343 1015.162071a11.485024 11.485024 0 0 1-11.566478-11.485024V920.430987c0-26.554027-22.562777-58.565476-50.582977-58.565476a40.727035 40.727035 0 0 0-22.481323 7.249413 11.566478 11.566478 0 1 1-12.788289-19.223161 64.104353 64.104353 0 0 1 35.269612-10.914845c41.541576 0 73.308663 43.822289 73.308662 81.454069v83.001697a11.485024 11.485024 0 0 1-11.159207 11.729387zM629.550887 1015.162071a11.566478 11.566478 0 0 1-11.566478-11.485024V920.430987a75.507923 75.507923 0 0 1 2.687984-19.711884q0.895995-3.258163 1.954898-6.353418a11.485024 11.485024 0 1 1 21.748236 7.575229c-0.488724 1.547627-0.977449 3.095255-1.384719 4.642882a55.470221 55.470221 0 0 0-1.873443 13.847191v83.001697a11.566478 11.566478 0 0 1-11.566478 11.729387zM760.366123 816.902865H622.871653a11.485024 11.485024 0 0 1-11.485024-11.485024V643.487151a11.566478 11.566478 0 0 1 11.485024-11.566478h137.49447A11.566478 11.566478 0 0 1 771.9326 643.487151v161.93069a11.485024 11.485024 0 0 1-11.566477 11.485024z m-125.927992-23.051502h114.035697v-138.471918h-114.035697zM577.420282 693.90722H304.304786a11.566478 11.566478 0 1 1 0-23.051502h273.115496a11.566478 11.566478 0 1 1 0 23.051502zM259.34214 693.90722h-24.436221a11.566478 11.566478 0 0 1 0-23.051502h24.436221a11.566478 11.566478 0 1 1 0 23.051502zM194.911971 693.90722h-74.123204a11.566478 11.566478 0 1 1 0-23.051502h74.123204a11.566478 11.566478 0 1 1 0 23.051502zM1087.974391 693.90722H814.777441a11.566478 11.566478 0 0 1 0-23.051502h273.19695a11.566478 11.566478 0 1 1 0 23.051502zM1149.472213 693.90722h-24.43622a11.566478 11.566478 0 1 1 0-23.051502h24.43622a11.566478 11.566478 0 1 1 0 23.051502zM1271.653318 693.90722h-74.204657a11.566478 11.566478 0 1 1 0-23.051502H1271.653318a11.566478 11.566478 0 0 1 0 23.051502zM574.813752 769.903867H489.694249a11.566478 11.566478 0 1 1 0-23.051502h85.119503a11.566478 11.566478 0 1 1 0 23.051502zM899.81549 769.903867H814.777441a11.566478 11.566478 0 0 1 0-23.051502h85.038049a11.566478 11.566478 0 1 1 0 23.051502z" fill="#952D2E" /><path d="M1374.77417 1023.95911H12.536309a11.566478 11.566478 0 1 1 0-23.051502h1362.237861a11.566478 11.566478 0 1 1 0 23.051502zM111.177187 485.384801a11.566478 11.566478 0 0 1-11.566478-11.566478v-35.269612a11.566478 11.566478 0 0 1 23.132956 0v35.269612a11.566478 11.566478 0 0 1-11.566478 11.566478zM111.177187 604.877922a11.647932 11.647932 0 0 1-11.566478-11.566478v-59.705833a11.566478 11.566478 0 0 1 23.132956 0v59.705833a11.647932 11.647932 0 0 1-11.566478 11.566478zM195.319241 469.093987a11.566478 11.566478 0 0 1-11.566478-11.566478v-51.560426a11.566478 11.566478 0 1 1 23.132956 0v51.560426a11.485024 11.485024 0 0 1-11.566478 11.566478zM195.319241 604.877922a11.647932 11.647932 0 0 1-11.566478-11.566478v-75.996647a11.566478 11.566478 0 0 1 23.132956 0v75.996647a11.566478 11.566478 0 0 1-11.566478 11.566478zM1183.682923 469.093987a11.485024 11.485024 0 0 1-11.566478-11.566478v-51.560426a11.566478 11.566478 0 1 1 23.051502 0v51.560426a11.485024 11.485024 0 0 1-11.485024 11.566478zM1183.682923 604.877922a11.566478 11.566478 0 0 1-11.566478-11.566478v-75.996647a11.566478 11.566478 0 1 1 23.051502 0v75.996647a11.566478 11.566478 0 0 1-11.485024 11.566478zM1267.824977 485.384801a11.566478 11.566478 0 0 1-11.566478-11.566478v-35.269612a11.566478 11.566478 0 0 1 23.132956 0v35.269612a11.566478 11.566478 0 0 1-11.566478 11.566478zM1267.824977 604.877922a11.647932 11.647932 0 0 1-11.566478-11.566478v-59.705833a11.566478 11.566478 0 1 1 23.132956 0v59.705833a11.647932 11.647932 0 0 1-11.566478 11.566478z" fill="#952D2E" /></svg>