<?xml version="1.0" standalone="no"?><!DOCTYPE svg PUBLIC "-//W3C//DTD SVG 1.1//EN" "http://www.w3.org/Graphics/SVG/1.1/DTD/svg11.dtd"><svg class="icon" width="200px" height="195.61px" viewBox="0 0 1047 1024" version="1.1" xmlns="http://www.w3.org/2000/svg"><path d="M522.118823 153.148144h-57.993301l28.99665-50.191236 28.996651-50.191236 28.935216 50.191236 28.996651 50.191236h-57.931867z" fill="#FBDEB5" /><path d="M414.118586 640.132144h208.444142v343.905188H414.118586z" fill="#D8E1F3" /><path d="M401.770437 279.639888h240.32817v53.017181H401.770437z" fill="#F3A8BC" /><path d="M451.470204 161.380244h139.392796v56.826062H451.470204z" fill="#F4D5E6" /><path d="M384.999069 359.995012m17.877172 0l261.58419 0q17.877172 0 17.877172 17.877173l0 244.382786q0 17.877172-17.877172 17.877173l-261.58419 0q-17.877172 0-17.877172-17.877173l0-244.382786q0-17.877172 17.877172-17.877173Z" fill="#F5E455" /><path d="M377.504172 565.981811c1.290105-2.150175 15.358395-13.453954 16.771368-15.481263A84.102573 84.102573 0 0 0 403.736311 467.688081c-10.197975-21.010285-13.515388-47.303858-7.740631-89.078693 3.133113-22.423257-3.747448-31.269693-13.146787-35.754345a199.229105 199.229105 0 0 0-17.017102 50.068369 269.324821 269.324821 0 0 0 0 106.771565c4.11605 20.027348-4.546085 38.518856 3.993183 54.122985A110.580447 110.580447 0 0 0 377.504172 565.981811zM468.180138 406.254499a96.57359 96.57359 0 1 1-25.924971 26.662175M426.036701 639.702109a15.542696 15.542696 0 0 0-6.143358 0.491468 11.119478 11.119478 0 0 0-6.573393 8.662135 133.249438 133.249438 0 0 0 0 23.221894V752.43273c0 35.324309 0 70.587185 0.368601 105.911495 0-0.675769 7.986366-7.187729 8.969303-8.539268 6.941995-9.829373 3.870316-18.430074 4.054617-29.610986 0-16.894235 14.866927-33.1127 12.716751-49.761201-0.921504-7.126295-6.143358-13.085353-7.802065-20.088781-3.931749-14.314024 5.713323-28.443748 8.600702-43.003507a48.409662 48.409662 0 0 0-1.597274-24.573433 57.256098 57.256098 0 0 1-4.546085-15.358395c-0.368601-9.337904 7.494897-12.286716 14.989794-14.74406 5.590456-1.72014 12.286716-5.344722 11.856681-11.242345z" fill="#FFFFFF" /><path d="M1036.870801 1023.96916H263.23771a8.723569 8.723569 0 1 1 0-17.385703h773.633091a8.723569 8.723569 0 1 1 0 17.385703zM211.019166 1023.96916h-67.576939a8.723569 8.723569 0 1 1 0-17.385703h67.576939a8.723569 8.723569 0 1 1 0 17.385703zM105.783441 1023.96916H9.455586a8.723569 8.723569 0 1 1 0-17.385703H105.783441a8.723569 8.723569 0 1 1 0 17.385703zM662.74029 648.855712H376.2755a28.382315 28.382315 0 0 1-28.259447-28.320881V352.93015a28.320881 28.320881 0 0 1 28.259447-28.259447h286.46479a28.382315 28.382315 0 0 1 28.320881 28.259447v267.604681a28.382315 28.382315 0 0 1-28.320881 28.320881zM376.2755 342.056407a10.873744 10.873744 0 0 0-10.81231 10.873743v267.604681a10.81231 10.81231 0 0 0 10.81231 10.873744h286.46479a10.873744 10.873744 0 0 0 10.873744-10.873744V352.93015a10.873744 10.873744 0 0 0-10.873744-10.873743z" fill="#952D2E" /><path d="M522.917459 590.862411A105.051424 105.051424 0 0 1 435.006004 428.370588a8.723569 8.723569 0 0 1 14.559759 9.522206 87.727154 87.727154 0 1 0 23.590495-24.204831 8.723569 8.723569 0 0 1-9.95224-14.314025A105.112858 105.112858 0 1 1 522.917459 590.862411z" fill="#952D2E" /><path d="M510.139274 524.882745a8.662135 8.662135 0 0 1-6.143358-2.580211L480.343987 498.404871a8.662135 8.662135 0 0 1 12.286716-12.286716l23.651929 23.651929a8.723569 8.723569 0 0 1-6.143358 14.866927z" fill="#952D2E" /><path d="M510.139274 524.882745a8.723569 8.723569 0 0 1-6.143358-14.866927L558.548936 455.401364a8.723569 8.723569 0 1 1 12.286717 12.286717l-54.614454 54.55302a8.539268 8.539268 0 0 1-6.081925 2.641644zM400.480331 341.319204A8.662135 8.662135 0 0 1 391.818196 332.534201V257.400931a8.723569 8.723569 0 1 1 17.385704 0V332.534201a8.662135 8.662135 0 0 1-8.723569 8.785003zM642.160041 341.319204A8.662135 8.662135 0 0 1 633.497906 332.534201V257.400931a8.723569 8.723569 0 1 1 17.385703 0V332.534201a8.662135 8.662135 0 0 1-8.723568 8.785003zM412.828481 1014.446955a8.723569 8.723569 0 0 1-8.723568-8.723568v-355.086101a8.723569 8.723569 0 1 1 17.385703 0v355.331835a8.723569 8.723569 0 0 1-8.662135 8.477834z" fill="#952D2E" /><path d="M426.221002 738.733042H387.76358a8.723569 8.723569 0 0 1 0-17.447137h38.518856a8.723569 8.723569 0 0 1 0 17.447137zM475.736469 825.231524a8.723569 8.723569 0 0 1-8.723569-8.723568v-30.716791a8.723569 8.723569 0 1 1 17.385704 0v30.716791a8.723569 8.723569 0 0 1-8.662135 8.723568zM562.542119 813.620578a8.723569 8.723569 0 0 1-8.907869-8.723569v-19.04441a8.723569 8.723569 0 1 1 17.385703 0v19.04441a8.723569 8.723569 0 0 1-8.477834 8.723569zM561.682049 923.402388a8.723569 8.723569 0 0 1-8.600701-8.785003l0.552902-81.768096a8.785002 8.785002 0 0 1 8.785002-8.600702 8.600701 8.600701 0 0 1 8.600701 8.785002l-0.798636 81.768097a8.662135 8.662135 0 0 1-8.539268 8.600702zM475.736469 703.101565a8.662135 8.662135 0 0 1-8.723569-8.723569v-49.146865a8.723569 8.723569 0 0 1 17.385704 0v49.146865a8.662135 8.662135 0 0 1-8.662135 8.723569zM561.682049 703.101565a8.662135 8.662135 0 0 1-8.662135-8.723569v-49.146865a8.723569 8.723569 0 0 1 17.385704 0v49.146865a8.662135 8.662135 0 0 1-8.723569 8.723569zM520.214382 48.833922a8.662135 8.662135 0 0 1-8.662135-8.662135v-30.71679a8.723569 8.723569 0 1 1 17.385703 0v30.71679a8.662135 8.662135 0 0 1-8.723568 8.662135zM651.313644 738.733042H456.999226a8.723569 8.723569 0 0 1 0-17.447137h194.314418a8.723569 8.723569 0 0 1 0 17.447137zM426.221002 884.084895H387.76358a8.723569 8.723569 0 0 1 0-17.078535h38.518856a8.723569 8.723569 0 1 1 0 17.385703z" fill="#952D2E" /><path d="M651.313644 884.084895H456.999226a8.723569 8.723569 0 1 1 0-17.385703h194.314418a8.723569 8.723569 0 0 1 0 17.385703z" fill="#952D2E" /><path d="M623.729966 1014.446955a8.723569 8.723569 0 0 1-8.723568-8.723568v-355.086101a8.723569 8.723569 0 1 1 17.385703 0v355.331835a8.723569 8.723569 0 0 1-8.662135 8.477834zM637.306788 288.302023H401.770437a8.723569 8.723569 0 1 1 0-17.385704h235.536351a8.723569 8.723569 0 0 1 0 17.385704z" fill="#952D2E" /><path d="M627.661715 288.302023H414.057153a8.662135 8.662135 0 0 1-7.433464-13.146787l36.860149-61.433581a8.723569 8.723569 0 0 1 7.494897-4.054616h139.822832a8.723569 8.723569 0 0 1 7.494897 4.238917l36.860148 61.433581a8.662135 8.662135 0 0 1-7.494897 13.146787zM429.476982 271.10062h182.826338l-26.41644-44.047878H455.893422z" fill="#952D2E" /><path d="M590.801567 226.868441H451.470204A8.662135 8.662135 0 0 1 443.053803 218.206306v-56.826062a8.662135 8.662135 0 0 1 8.723569-8.723569h139.024195a8.723569 8.723569 0 0 1 8.723568 8.723569v56.826062a8.723569 8.723569 0 0 1-8.723568 8.662135zM460.132339 209.667039h121.945659v-39.62466H460.132339z" fill="#952D2E" /><path d="M451.40877 170.103812a8.539268 8.539268 0 0 1-4.30035-1.167238 8.723569 8.723569 0 0 1-3.25598-11.856681L513.518121 34.949933A8.723569 8.723569 0 1 1 528.630782 43.796369L459.026534 165.680594a8.785002 8.785002 0 0 1-7.617764 4.423218z" fill="#952D2E" /><path d="M590.801567 170.103812a8.723569 8.723569 0 0 1-7.556331-4.423218L513.640988 43.796369A8.723569 8.723569 0 0 1 529.060817 34.949933l69.29708 122.12996a8.662135 8.662135 0 0 1-3.25598 11.856681 8.416401 8.416401 0 0 1-4.30035 1.167238z" fill="#952D2E" /></svg>