<?xml version="1.0" standalone="no"?><!DOCTYPE svg PUBLIC "-//W3C//DTD SVG 1.1//EN" "http://www.w3.org/Graphics/SVG/1.1/DTD/svg11.dtd"><svg t="1554486561300" class="icon" style="" viewBox="0 0 1080 1024" version="1.1" xmlns="http://www.w3.org/2000/svg" p-id="1976" xmlns:xlink="http://www.w3.org/1999/xlink" width="210.9375" height="200"><defs><style type="text/css"></style></defs><path d="M808.5976840406004 447.0750700180157C805.7313213609904 438.3308496053071 797.5748868789299 432.45299187220843 788.3952693445849 432.45299187220843L603.7579699712245 432.45299187220843 546.6992102480037 258.0692886558675C543.9271833229617 249.35409450815047 535.7997751058928 243.4762367750518 526.5621050415646 243.4762367750518 517.3824875072195 243.4762367750518 509.22605302515893 249.35409450815047 506.4249998351253 258.0039791662911L449.3009300978676 432.45299187220843 264.6999139490922 432.45299187220843C255.49127014975556 432.45299187220843 247.35660497309328 438.3308496053071 244.52652551806824 447.0750700180157 241.66016283845818 455.73221111128913 244.80227687109976 465.30368558309254 252.22579357309405 470.63004061012805L401.60320298299496 578.3617398015858 344.5734695247657 752.8397787724948C341.6780805801642 761.5259466552202 344.8201946128058 771.0103418075885 352.2727375797916 776.394749364607 359.63094479220945 781.7501311810946 369.79020519466087 781.7501311810946 377.1846951072031 776.394749364607L526.5621050415646 668.5977412080333 675.968540716457 776.394749364607C679.6331311901702 779.0506707052223 684.0088696140908 780.42942747038 688.4136348274636 780.42942747038 692.7821168162518 780.42942747038 697.1868820296243 779.0506707052223 700.880498768329 776.394749364607 708.3040149458628 771.0103418075885 711.4461295029647 761.5259466552202 708.5507400339028 752.8397787724948L651.5790596301172 578.3617398015858 800.8693897205831 470.63004061012805C808.2856499874445 465.30368558309254 811.3987377550944 455.73221111128913 808.5976840406004 447.0750700180157Z" p-id="1977"></path></svg>