<?xml version="1.0" standalone="no"?><!DOCTYPE svg PUBLIC "-//W3C//DTD SVG 1.1//EN" "http://www.w3.org/Graphics/SVG/1.1/DTD/svg11.dtd"><svg class="icon" width="200px" height="200.00px" viewBox="0 0 1024 1024" version="1.1" xmlns="http://www.w3.org/2000/svg"><path fill="#333333" d="M924.46933334 802.816l-632.32000001-1.024L1.33333334 511.488l290.81599999-289.792h632.32000001c55.808 0 100.864 45.056 100.86399999 100.864v379.904c0 55.296-45.056 100.352-100.86399999 100.352zM308.53333334 762.88l615.936 1.024c34.304 0 61.952-27.648 61.95199999-61.952V322.048c0-34.304-27.648-61.952-61.95199999-61.952H308.53333334l-251.904 250.88L308.53333334 762.88z"  /><path fill="#333333" d="M740.66133333 371.2l40.448 40.448-241.152 241.152-40.448-40.448 241.152-241.152z"  /><path fill="#333333" d="M539.44533333 371.2l241.152 241.152-40.44799999 40.448-240.64000001-241.152 39.936-40.448z"  /></svg>