<?xml version="1.0" standalone="no"?><!DOCTYPE svg PUBLIC "-//W3C//DTD SVG 1.1//EN" "http://www.w3.org/Graphics/SVG/1.1/DTD/svg11.dtd"><svg class="icon" width="200px" height="200.00px" viewBox="0 0 1024 1024" version="1.1" xmlns="http://www.w3.org/2000/svg"><path d="M156.518268 416.195132c2.012599 10.062995 4.850879 20.125989 8.669657 30.034168h-0.051605l0.051605 0.10321v0.051605l0.051605-0.051605c18.164995 47.476692 53.772514 83.084211 96.707958 102.229703 42.883838 19.145492 93.147206 21.983773 140.520687 3.870383l0.051605 0.051605 0.10321-0.051605h0.051606v-0.051605c47.425087-18.11339 82.981001-53.772514 102.178098-96.707958h0.051605c19.197097-42.883838 21.983773-93.147206 3.870382-140.572292l0.051605-0.051605-0.051605-0.051605v-0.051605h-0.051605c-3.147911-8.256816-6.863478-16.152396-10.991886-23.686741-7.48274 3.973593-14.810664 6.915083-21.261301 8.824472-2.63186 0.774077-5.26372 1.599758-7.947186 2.477045 4.386434 7.379529 8.153606 15.171899 11.301517 23.428715h-0.051605v0.051605l0.051605 0.10321 0.051605-0.051605c15.068689 39.374691 12.64325 81.174822-3.302726 116.885552l0.051605 0.051605c-15.945976 35.710729-45.567303 65.383662-84.9936 80.452351v-0.10321H391.476289l0.051605 0.051605c-39.323086 15.017084-81.123217 12.64325-116.833947-3.302727-35.762334-15.997581-65.435267-45.567303-80.503956-84.941994h0.051606v-0.051606l-0.051606-0.10321-0.051605 0.051605c-2.941491-7.740765-5.26372-15.636345-6.863478-23.531925-10.372625 2.167414-20.590435 3.715567-30.75664 4.644459z" fill="#2B2622" /><path d="M171.948193 414.337348c1.806179 8.876077 4.386434 17.752154 7.740765 26.525022 33.182079 86.851383 130.509298 130.354483 217.360682 97.172403 86.851383-33.182079 130.354483-130.509298 97.172403-217.360681-3.044701-7.998791-6.657058-15.636345-10.733861-22.86106-2.477045 0.928892-4.850879 1.754573-7.121504 2.42544C383.838734 327.795595 275.674444 398.907423 171.948193 414.337348z" fill="#FFFFFF" /><path d="M868.359018 439.314217c-1.651363 7.173109-3.818777 14.294613-6.502242 21.364511h0.051605l-0.051605 0.051605v0.051605h-0.051605c-15.945976 41.696921-47.270272 72.969611-84.941995 89.792874-37.671723 16.823263-81.794084 19.300307-123.439399 3.405937v0.051605l-0.051605-0.051605h-0.051606v-0.051605c-41.645316-15.894371-72.918006-47.218667-89.792874-84.941995h-0.051605c-16.823263-37.671723-19.300307-81.794084-3.405936-123.439399l-0.051605-0.051605v-0.10321h0.051605c3.715567-9.753364 8.308421-18.990677 13.675351-27.557124 7.431134 5.108905 15.017084 10.011389 22.86106 14.707454-4.334828 7.018294-8.102001 14.604243-11.146702 22.603033h0.051605v0.051606l-0.051605-0.051606c-13.159301 34.575417-11.095097 71.318248 2.941491 102.69415v0.051605c14.036587 31.375901 39.993953 57.384871 74.620974 70.647382v-0.051606h0.051605l0.051605 0.051606v0.051605c34.523812 13.159301 71.215038 11.095097 102.590939-2.889886 31.427506-14.036587 57.488081-40.045558 70.698987-74.620975l-0.051605-0.051605v-0.10321l0.051605 0.051605c2.580255-6.708663 4.541249-13.468931 5.986192-20.280804 8.824472 2.889886 17.442524 5.728166 25.957365 8.618052z" fill="#2B2622" /><path d="M855.406138 434.927783c-1.548153 7.018294-3.663962 14.036587-6.295822 20.951671-29.156882 76.272338-114.666532 114.511717-190.93887 85.354835s-114.511717-114.666532-85.354836-190.93887c3.405937-8.876077 7.534345-17.184498 12.333619-24.925263 79.471854 51.037444 181.288716 80.091115 270.255909 109.557627z" fill="#FFFFFF" /><path d="M729.644509 379.03946c10.372625 8.050396 14.810664 22.293403 9.856575 35.143073-6.037797 15.791161-23.738346 23.686741-39.529507 17.700549-15.791161-6.037797-23.686741-23.738346-17.648944-39.529506 0.516051-1.341733 1.083707-2.52865 1.754573-3.715568 2.32223 1.754573 4.902485 3.251121 7.79237 4.386434 14.397823 5.521746 30.498614-0.670866 37.774933-13.984982z m-8.618051 31.27269c4.644459 1.754573 6.966689 7.018294 5.212115 11.611148-1.754573 4.644459-7.018294 6.966689-11.611148 5.212115-4.644459-1.806179-6.966689-6.966689-5.16051-11.611148 1.702968-4.644459 6.863478-6.966689 11.559543-5.212115z" fill="#2B2622" /><path d="M583.13763 282.744343c4.95409-3.663962 13.468931-5.986192 19.093887-5.26372 5.573351 0.722471 6.089402 4.283223 1.135313 7.947185-15.48153 11.404727-25.286499 19.042282-25.131684 25.028474 0.154815 6.760268 10.991886 13.365721 37.052462 22.912664l0.154815 0.051605c40.251978 14.759059 86.593358 32.408003 132.883133 50.005342 44.999647 17.132893 89.999294 34.265786 133.141158 50.056947 4.283223 1.548153 2.786675 5.573351-3.354332 8.979288-6.141007 3.354332-14.604243 4.850879-18.887466 3.302726-40.406793-14.810664-86.851383-32.459608-133.295974-50.160157-44.793227-17.029683-89.638059-34.110971-132.625107-49.902132l-0.258025-0.10321c-29.466512-10.837071-41.696921-18.939072-41.903342-28.279595-0.20642-10.1146 12.282014-20.022779 31.995162-34.575417zM315.720002 353.391725c-11.817568 9.185708-16.874868 25.338104-11.249912 39.993953 6.863478 18.01018 27.041072 26.989467 44.999647 20.125989 18.01018-6.863478 26.989467-27.041072 20.125989-45.051253-0.567656-1.496548-1.238522-2.889886-1.960993-4.231618-2.63186 2.012599-5.624956 3.767172-8.876078 5.005695-16.462027 6.295822-34.781837-0.774077-43.038653-15.842766z m9.804969 35.555914c-5.26372 2.012599-7.89558 7.947185-5.882981 13.210906 2.012599 5.26372 7.947185 7.89558 13.210905 5.882981 5.26372-2.012599 7.89558-7.89558 5.882982-13.210906-2.012599-5.26372-7.947185-7.89558-13.210906-5.882981z" fill="#2B2622" /><path d="M482.507685 243.730887c-5.676561-4.180013-15.37832-6.863478-21.725747-6.037796-6.347427 0.825682-6.915083 4.850879-1.290127 9.030892 17.597339 12.95288 28.795646 21.674142 28.64083 28.486015-0.154815 7.68916-12.488434 15.223505-42.212972 26.112181l-0.154815 0.051605h-0.051605c-45.825329 16.771658-98.565741 36.897647-151.306153 56.972031C243.214836 377.800937 191.970972 397.35927 142.842917 415.36945c-4.850879 1.754573-3.147911 6.347427 3.818777 10.21781 7.018294 3.818777 16.616842 5.521746 21.519327 3.767172 45.980144-16.874868 98.875372-37.000857 151.718994-57.126845 51.037444-19.403518 102.023283-38.85864 151.048128-56.817216l0.309631-0.10321c33.543315-12.282014 47.476692-21.570932 47.683112-32.201582 0.20642-11.559542-14.036587-22.861059-36.433201-39.374692zM608.682155 623.544424c7.79237-1.186917 18.319811 3.612357 23.428715 10.63065 5.108905 7.018294 2.941491 13.675352-4.902484 14.810664-21.106486 3.147911-38.703825 8.514842-55.269062 13.572141l0.051605 0.051605c-43.141864 13.159301-79.987905 24.460817-146.094038-3.818777l-0.464446-0.20642c-9.856574-3.457542-23.893161 3.354332-37.310488 14.036587-15.58474 12.436829-28.744041 29.982563-35.143073 44.948042-0.412841 0.928892-0.928892 2.32223-1.548153 4.128408-2.012599 5.728166-11.095097 6.966689-20.229199 2.73507-9.134103-4.231618-14.862269-12.282014-12.84967-18.061785 0.412841-1.135312 1.032102-2.786675 1.960994-4.902484 7.173109-16.720052 21.880562-36.381596 39.219876-50.211763 19.558333-15.533135 43.761125-24.099582 68.118732-15.533135h0.051605c1.083707 0.412841 2.167414 0.825682 3.147911 1.238523h0.10321l0.051605 0.051605h0.051606l0.30963 0.10321 0.10321 0.051605h0.103211l0.154815 0.051605h0.051605c49.953737 21.364511 81.226427 11.817568 117.814443 0.670867l0.051605 0.051605h0.051606c17.752154-5.26372 36.691226-11.043491 58.984629-14.397823z m-103.055385 121.684826c6.502243-2.683465 17.184498 0.464446 23.893161 7.069898 6.657058 6.553848 6.863478 13.984982 0.464446 16.720053h0.051605c-2.115809 0.877287-5.005695 2.270624-8.153605 3.767172-18.939072 8.927682-44.01915 20.693645-69.71849 8.256816-9.030893-4.386434-14.501033-12.488434-12.178804-18.061785 2.32223-5.624956 11.559542-6.553848 20.590435-2.167414 5.779771 2.786675 23.015875-5.315325 36.071965-11.456332 2.889886-1.393338 5.676561-2.683465 8.772867-4.025198h0.051605l0.154815-0.051605v-0.051605z" fill="#2B2622" /></svg>