<?xml version="1.0" standalone="no"?><!DOCTYPE svg PUBLIC "-//W3C//DTD SVG 1.1//EN" "http://www.w3.org/Graphics/SVG/1.1/DTD/svg11.dtd"><svg class="icon" width="200px" height="200.00px" viewBox="0 0 1024 1024" version="1.1" xmlns="http://www.w3.org/2000/svg"><path d="M803.491408 590.259134c3.044701 11.765963 4.231618 24.202792 3.302726 37.000857h0.051605v0.051605h-0.051605c-2.373835 31.427506-17.236103 58.881419-39.271481 77.872096-22.035378 18.990677-51.39868 29.569722-82.722976 27.247493h-0.10321v-0.051605c-31.375901-2.32223-58.829814-17.184498-77.820491-39.219876h-0.051605c-18.990677-22.035378-29.621327-51.347075-27.299098-82.774581h-0.051605v-0.051605l0.051605-0.051605c2.373835-31.375901 17.184498-58.829814 39.271482-77.820491 16.049186-13.830167 35.91715-23.17069 57.591291-26.370206 4.850879 5.986192 10.733861 12.075593 17.029683 17.958575-23.531926-0.10321-45.309278 8.566447-62.080935 22.964269h0.051605c-18.371416 15.842766-30.75664 38.703825-32.717633 64.712796h0.051605v0.051605h-0.051605c-1.909389 26.00897 6.915083 50.418183 22.757849 68.789598v0.051605c15.791161 18.371416 38.65222 30.705035 64.66119 32.666029l0.051605-0.051605h0.10321-0.051605c26.00897 1.960994 50.418183-6.863478 68.789599-22.706244 18.423021-15.842766 30.75664-38.703825 32.717633-64.712796h-0.051605v-0.051605h0.051605c1.083707-14.449428-1.186917-28.43441-6.141007-41.129265l4.95409 1.960994c5.36693 2.115809 11.353122 3.560752 16.978078 3.663962z" fill="#2B2622" /><path d="M793.170388 588.762586c3.612357 11.920778 5.108905 24.667238 4.128408 37.826539-4.283223 57.436476-54.34017 100.57834-111.828252 96.295116-57.384871-4.283223-100.57834-54.34017-96.295117-111.776646 3.870383-51.759915 44.896437-91.908683 95.004989-96.191907 16.978078 17.855365 40.148768 35.401099 51.759916 44.586807 15.636345 12.385224 32.562818 20.280804 50.572998 27.195887 2.167414 0.774077 4.386434 1.496548 6.657058 2.064204z" fill="#FFFFFF" /><path d="M394.72741 389.876531c2.32223 2.32223 4.592854 4.747669 6.708663 7.276319 23.325505 27.092678 36.32999 63.164642 33.543315 101.713652h0.051605v0.10321h-0.051605c-2.838281 38.600615-21.158091 72.35035-48.250768 95.727461-27.144283 23.325505-63.164642 36.381596-101.713653 33.543315v0.051605h-0.10321v-0.051605c-38.54901-2.889886-72.35035-21.106486-95.675855-48.250769-23.37711-27.092678-36.381596-63.164642-33.543315-101.765257h-0.051605v-0.10321h0.051605c2.941491-38.54901 21.106486-72.298745 48.199163-95.675856h0.10321c2.32223-2.064204 4.799274-4.025198 7.327925-5.882981 9.443733 3.715567 18.939072 6.915083 28.486015 9.650154-7.276319 3.973593-14.191403 8.721262-20.487225 14.139797h0.051605c-22.603034 19.455123-37.826538 47.528297-40.200373 79.523459h0.051605v0.051605h-0.051605c-2.32223 31.995162 8.514842 61.977725 27.969965 84.580759v0.051605c19.455123 22.603034 47.476692 37.774933 79.575064 40.148768v-0.051605h0.10321c31.943557 2.373835 61.92612-8.463236 84.529154-27.918359 22.654639-19.506728 37.774933-47.528297 40.200373-79.575064h-0.051605v-0.10321h0.051605c2.373835-31.943557-8.463236-61.92612-27.969964-84.477549-4.489644-5.212115-9.443733-10.062995-14.759059-14.449428 8.979287-1.548153 18.371416-4.283223 25.90576-8.256816z" fill="#2B2622" /><path d="M382.806632 394.779015c27.402308 25.59613 43.399889 62.958222 40.406793 103.261805-5.26372 70.595777-66.776999 123.64582-137.372776 118.3821-70.595777-5.26372-123.64582-66.776999-118.382099-137.424381 3.096306-41.232475 25.338104-76.427153 57.384871-97.585245 39.787532 13.572141 79.781485 18.423021 125.193973 18.423021 9.237313 0 21.674142-1.548153 32.769238-5.0573z" fill="#FFFFFF" /><path d="M314.48148 438.74656c21.312906 8.205211 35.813939 29.724538 34.007761 53.72091-2.115809 29.414907-27.866754 51.450285-57.126846 49.28287-29.414907-2.219019-51.39868-27.815149-49.282871-57.230056 0.20642-2.42544 0.516051-4.799274 1.032102-7.069898 4.799274 1.806179 9.856574 3.044701 15.223505 3.405936 26.886257 2.012599 50.676208-16.410422 56.146349-42.109762z m1.186917 56.45598c8.618052 0.619261 15.120294 8.153606 14.501033 16.771657-0.619261 8.618052-8.205211 15.120294-16.823263 14.449428-8.566447-0.670866-15.068689-8.153606-14.397822-16.771657 0.619261-8.618052 8.102001-15.068689 16.720052-14.449428zM708.744444 578.338356c17.390919 6.708663 29.156882 24.202792 27.711939 43.70952-1.754573 23.893161-22.654639 41.851736-46.44459 40.097163-23.944766-1.806179-41.851736-22.603034-40.097163-46.547801 0.154815-1.960994 0.412841-3.921988 0.825681-5.779771 3.870383 1.444943 7.998791 2.477045 12.385224 2.786676 21.880562 1.651363 41.232475-13.314116 45.618909-34.265787z m1.032102 45.980144c7.018294 0.516051 12.230409 6.657058 11.765963 13.623747-0.516051 7.018294-6.657058 12.282014-13.623747 11.765962-7.069899-0.516051-12.333619-6.657058-11.765963-13.623746 0.516051-7.018294 6.605453-12.282014 13.623747-11.765963zM123.74903 704.770851c-8.721262-1.393338-18.371416-7.173109-21.622537-12.901275-3.199516-5.728166 1.238522-9.185708 9.959784-7.79237 21.158091 3.405937 41.954946 7.998791 61.358464 17.287709 21.054881 10.062995 38.239379 24.202792 48.457189 45.360883 2.73507 5.624956-2.270624 8.772867-11.146701 7.018293-8.824472-1.754573-18.268205-7.68916-21.003276-13.314116-6.037797-12.540039-14.346218-20.022779-23.893161-24.564027-11.198307-5.418536-26.163786-8.566447-42.109762-11.095097zM432.399133 327.950411c1.909389-2.373835 16.307212-3.715567 32.201583-2.993096 15.894371 0.670866 27.195888 3.199516 25.338104 5.573351-16.152396 19.919569-35.297888 36.32999-56.76561 48.508794-23.531926 13.314116-51.192259 21.932168-82.25853 25.080078-43.503099 4.283223-86.386937 0.928892-127.051756-11.198306-26.937862-8.050396-54.494986-20.796855-82.155319-38.75543-3.767172-2.42544 5.779771-4.541249 21.261301-4.74767 15.48153-0.154815 31.16948 1.702968 34.885048 4.180013 26.370206 17.132893 51.966336 29.105276 76.427153 36.381596 17.597339 5.212115 30.75664 7.224714 39.684322 6.347427 21.364511-2.167414 42.677418-9.340523 63.113037-20.900065 20.74525-11.869173 39.426296-27.866754 55.320667-47.476692zM870.939273 506.607267c-0.464446-3.199516 10.269415-3.612357 23.996372-0.877287 13.778562 2.73507 25.338104 7.58595 25.854155 10.785466 3.921988 27.195888 2.32223 48.97324-4.902485 64.35156-7.89558 16.823263-23.325505 26.370206-46.392985 27.505518-32.253188 1.599758-70.647382-7.89558-114.872952-29.827748-29.311697-14.552638-63.216248-36.02036-101.662047-65.074031-5.26372-3.973593 0.774077-6.037797 13.520536-4.592854 12.694855 1.393338 27.247493 5.779771 32.459608 9.753364 36.691226 27.660334 68.325152 47.786323 94.901779 60.997229 19.093887 9.495338 31.737137 13.830167 38.394194 13.468931 15.842766-0.825682 27.144283-8.979287 34.059366-23.583531 7.069899-14.862269 8.566447-36.12357 4.644459-62.906617zM400.661997 271.442826c1.083707-1.341733 11.146702-2.012599 22.499823-1.496548s19.713148 2.064204 18.732652 3.405937c-9.185708 11.404727-20.84846 20.796855-34.678628 27.711939-15.171899 7.534345-33.852946 12.333619-55.630297 13.933377-30.395404 2.167414-61.306859-0.051605-91.650658-7.37953-20.125989-4.850879-41.232475-12.436829-62.958222-23.015874-2.941491-1.496548 3.560752-2.63186 14.604243-2.580255 10.991886 0 22.345008 1.186917 25.286499 2.63186 20.74525 10.1146 40.355188 17.184498 58.623394 21.622537 13.107695 3.147911 22.757849 4.386434 29.002066 3.921987 14.913874-1.083707 29.208487-5.108905 42.419392-11.662752 13.314116-6.657058 24.770448-15.842766 33.749736-27.092678z" fill="#2B2622" /></svg>