<?xml version="1.0" standalone="no"?><!DOCTYPE svg PUBLIC "-//W3C//DTD SVG 1.1//EN" "http://www.w3.org/Graphics/SVG/1.1/DTD/svg11.dtd"><svg class="icon" width="200px" height="200.00px" viewBox="0 0 1024 1024" version="1.1" xmlns="http://www.w3.org/2000/svg"><path d="M172.154614 275.571234c97.327219 18.2166 197.957164 14.810664 301.218969 0.051605 36.175175-19.093887 49.489291-44.638412 36.32999-76.220732 19.403518-6.141007 17.236103-22.551429 15.533135-44.896437 5.315325 21.932168 0.309631 38.084564-15.017084 48.405583-114.460112 20.900066-218.392783 27.144283-328.414857 17.958575-75.498261-6.244217-95.727461 38.600615-9.650153 54.701406z" fill="#FFFFFF" /><path d="M165.445951 265.92108c46.599405 8.721262 94.385728 12.230409 143.100942 11.869173 48.921635-0.412841 98.720556-4.799274 149.34516-11.972383 4.283223-2.32223 8.360026-4.850879 12.230408-7.585949 4.128408-2.889886 7.68916-5.831376 10.630651-8.721262 9.650154-9.443733 14.862269-20.022779 15.37832-31.685532-47.476692 7.740765-93.456836 12.95288-139.02414 15.533135-55.011037 3.096306-109.454417 2.373835-165.394345-2.322229-24.564028-2.064204-42.470997 2.115809-51.29547 8.824472-3.302726 2.52865-5.315325 5.418536-5.882981 8.411631-0.464446 2.477045 0.051605 4.902485 1.702968 7.018294l0.051605 0.051605h0.051605c2.63186 3.457542 11.765963 7.327924 29.105277 10.579045z m167.045709 32.201583c-51.70831 0.412841-102.952175-3.457542-153.679988-12.95288-40.510004-7.58595-65.280452-21.054881-76.272338-35.349494-4.231618-5.521746-5.831376-10.888676-4.902485-15.739555 0.774077-4.334828 3.560752-8.463236 8.205211-11.920778 11.404727-8.669657 34.420602-14.036587 66.106133-11.353122 54.03054 4.489644 106.616137 5.212115 159.614575 2.219019 52.121151-2.941491 104.758353-9.392128 159.8726-19.300307-0.464446-1.960994 0.619261-3.302726 2.73507-3.973593l-0.051605-0.051605c4.076803-1.290128 6.966689-3.147911 9.082497-5.624956 1.496548-2.219019 2.63186-4.541249 3.509147-7.069899 1.857784-6.811873 1.135312-15.68795 0.258026-26.060575l-0.206421-2.735071c-0.309631-4.438039 7.637555-5.212115 17.855365-1.806178 9.650154 3.251121 17.855365 9.237313 18.939072 13.623746h0.051605c2.73507 11.249912 2.838281 21.158091 0.361235 29.724538-0.928892 4.696064-2.73507 8.824472-6.037796 12.127198-2.219019 2.941491-4.902485 5.624956-7.998791 8.050396 7.121504 21.828957 2.115809 40.768029-14.036587 56.610795-3.509147 3.457542-7.327924 6.657058-11.456332 9.546943-3.973593 2.786675-8.566447 5.624956-13.830167 8.411631l-0.309631 0.206421c-0.670866 0.464446-1.702968 0.774077-2.889885 0.928892-52.172756 7.431134-103.881066 12.075593-154.91851 12.488434z" fill="#2B2622" /><path d="M447.209797 214.625611c10.32102 0.412841 19.661543 7.431134 22.396613 17.90697 3.405937 12.84967-4.334828 26.00897-17.132893 29.414907-12.84967 3.405937-26.060576-4.283223-29.414907-17.184499-0.258026-1.032102-0.464446-2.115809-0.567656-3.147911 2.270624 0.051605 4.644459-0.154815 6.966688-0.774076 11.765963-3.096306 19.197097-14.449428 17.752155-26.215391z m8.824472 23.893161c3.767172-0.980497 7.637555 1.290128 8.618052 5.005695 0.928892 3.767172-1.290128 7.637555-5.005695 8.618052-3.818777 0.980497-7.68916-1.238522-8.618052-5.005695-1.032102-3.767172 1.238522-7.637555 5.005695-8.618052z" fill="#2B2622" /><path d="M777.740463 236.506173c36.071965 25.183289 141.914025 41.903341 136.237464-29.311696-4.644459-58.210553-69.150834-32.046767-110.89936-24.409213-46.392985 8.463236-83.600262 13.05609-25.338104 53.720909z" fill="#FFFFFF" /><path d="M789.04198 235.938517c15.791161 10.991886 45.722119 20.229199 69.408859 18.371416 6.915083-0.567656 13.675352-2.064204 19.764753-4.747669 6.708663-2.941491 12.385224-7.276319 16.513632-13.159301 5.212115-7.431134 7.843975-17.287709 6.811874-30.085773-2.167414-27.505518-14.965479-33.3885-30.240589-32.149977-11.249912 0.877287-24.976868 4.076803-37.878143 7.069898l-0.774077 0.154816c-7.327924 1.702968-14.501033 3.354332-21.158091 4.592854l-5.573351 0.980496-16.874867 48.97324z m81.329637 25.441315c-38.032959 2.993096-82.516555-9.237313-103.984276-24.254397-27.866754-19.506728-34.678627-31.221086-29.156882-39.219876 6.347427-9.082498 27.402308-12.901275 51.863126-17.287709l5.521745-1.032102c6.089402-1.083707 12.798065-2.63186 19.661543-4.231618l0.670867-0.20642c14.243008-3.302726 29.311697-6.811873 44.328781-7.998791 35.143073-2.786675 64.093534 4.128408 67.08663 40.974449 1.083707 13.262511-1.754573 23.635136-7.276319 31.479111-4.592854 6.605453-11.198307 11.559542-19.093887 15.017085-8.463236 3.715567-18.629441 5.882981-29.621328 6.760268z m-64.506375-74.362949l-0.20642 0.051605c-21.054881 3.818777-39.116666 7.121504-43.967545 13.984982-4.644459 6.657058 1.806179 17.081288 27.350703 34.936652l16.823262-48.973239z m0 0z" fill="#2B2622" /><path d="M854.064406 189.081087c8.102001 0.309631 15.37832 5.779771 17.545734 13.984982 2.683465 10.062995-3.354332 20.384015-13.417326 23.015874-10.062995 2.63186-20.280804-3.354332-22.96427-13.417326-0.20642-0.825682-0.412841-1.651363-0.464446-2.477045 1.754573 0.051605 3.612357-0.154815 5.470141-0.619261 9.185708-2.373835 15.017084-11.249912 13.830167-20.487224z m6.966688 18.732651c2.889886-0.774077 5.934587 0.980497 6.708663 3.921987 0.774077 2.941491-0.980497 5.986192-3.921988 6.760269-2.941491 0.774077-5.986192-0.980497-6.760268-3.921988-0.825682-2.993096 0.980497-5.986192 3.973593-6.760268z" fill="#2B2622" /><path d="M740.429975 846.01401c-5.986192-10.475835-17.132893-19.248702-21.725747-30.188984-21.622537-51.089049 45.980144-130.922139 56.45598-170.348435 5.108905-19.506728-11.456332-9.443733-55.372273-12.436829-176.386232-12.023988-368.357204-116.833946-467.645416-53.824119-96.295117 60.997228-73.330847 223.501688 89.792874 266.849972 103.932671 27.608729 239.91211 30.653429 345.444539 24.357607 26.989467-1.651363 66.570579-0.516051 53.050043-24.409212z" fill="#FFFFFF" /><path d="M753.33125 849.781182c-2.889886-5.005695-6.708663-9.546944-10.52744-14.088192-4.334828-5.108905-8.669657-10.21781-10.991886-15.739556l-0.103211-0.20642-0.20642-0.516051c-13.623746-33.852946 12.282014-80.968402 33.69813-119.930252 10.42423-18.887467 19.764753-35.91715 23.17069-48.66361 3.251121-12.282014-3.302726-18.371416-22.448218-22.861059-6.760268-1.599758-13.159301-1.341733-21.880563-1.032102-8.463236 0.309631-19.661543 0.722471-33.285289-0.20642h-0.10321c-65.177241-4.438039-133.347578-22.190193-197.802349-38.961851-110.022073-28.640831-209.981152-54.649801-273.455425-14.346218-23.841556 15.120294-40.458398 36.381596-49.489291 60.481177-11.507937 30.705035-10.837071 66.106133 2.73507 99.494633 13.984982 34.317392 42.109762 67.035025 85.303231 91.237817 19.867964 11.146702 42.522602 20.384015 67.809101 27.092678h0.051605l0.309631 0.10321c15.37832 4.076803 31.375901 7.637555 47.786323 10.733861 16.204001 2.993096 32.717633 5.624956 49.540896 7.79237 85.148415 10.888676 177.676359 11.249912 254.309933 6.657058h0.10321c0.20642 0 0.361236-0.051605 0.619261-0.051605 1.702968-0.10321 5.005695-0.258026 8.463236-0.412841 27.608729-1.186917 59.965126-2.73507 46.392985-26.576627z m-35.143073-19.867963c3.509147 4.076803 6.915083 8.205211 9.288918 12.436829 10.630651 18.732651-17.442524 20.022779-41.438895 21.158091-2.270624 0.10321-4.541249 0.20642-8.566447 0.464446H676.852492c-75.188631 4.489644-165.910397 4.231618-248.994608-6.450638-15.894371-2.064204-31.530716-4.489644-46.65101-7.327924-14.810664-2.786675-29.156882-5.986192-42.883838-9.598549l-0.309631-0.10321c-17.545734-4.696064-33.027264-10.940281-46.44459-18.474626-35.762334-20.022779-59.861916-49.024845-72.659981-80.555561-13.210906-32.459608-13.830167-67.08663-2.580255-97.172403 8.876077-23.635136 25.131684-44.431991 48.457189-59.19105 59.29426-37.620118 153.060727-13.210906 256.270927 13.675352 67.035025 17.442524 137.837222 35.865545 207.194477 40.664819l0.464446 0.051605c13.830167 0.928892 24.873658 0.670866 33.49171 0.361235-0.154815 0.10321-0.309631 0.258026-0.309631 0.412841-3.354332 12.694855-12.64325 29.466512-22.912664 48.147558-21.725747 39.477902-47.941138 87.212619-33.749736 122.458903h0.051605l0.154815 0.412841 0.154816 0.361235c2.786675 6.708663 7.637555 12.488434 12.591644 18.268206z m57.694502-190.474424c4.95409 1.135312 0.825682 0.516051-4.128408 0.10321 2.42544-0.10321 3.973593-0.154815 4.128408-0.10321z" fill="#2B2622" /><path d="M217.979943 690.631054c-2.73507 4.747669-9.753364 10.21781-15.687951 12.178803-5.934587 2.012599-8.463236-0.20642-5.728166-4.902484 15.636345-26.886257 32.046767-38.65222 47.837928-41.232475 10.940281-1.754573 19.661543 3.818777 26.628231 12.023988 19.197097 22.757849 24.357607 27.815149 25.028474 27.247493l0.051605-0.051605 0.051605-0.051605c0.258026-0.412841 1.806179-3.302726 3.509147-6.347427 3.870383-6.811873 7.637555-13.365721 16.410422-19.816359 12.64325-9.185708 26.112181-9.185708 43.503099 14.604243l0.051605 0.103211 0.619261 0.928891 0.103211 0.103211c2.941491 4.283223 5.0573 8.618052 7.069898 12.746459 5.418536 11.043491 10.1146 20.64204 24.202792 18.11339l0.10321-0.051605c10.52744-1.909389 24.822053-7.79237 38.910246-13.572141 10.682256-4.386434 21.364511-8.772867 31.117875-11.869173 5.779771-1.857784 8.153606 0.567656 5.16051 5.36693-2.941491 4.799274-10.062995 10.21781-15.945976 12.075594-8.411631 2.683465-18.11339 6.657058-27.763544 10.63065-15.791161 6.502243-31.840347 13.107695-45.309277 15.636346l-0.722472 0.10321c-21.158091 3.818777-26.679837-7.431134-33.027264-20.384015-2.064204-4.180013-4.180013-8.618052-6.760268-12.385224l-0.722471-0.980496c-12.488434-17.184498-13.778562-23.325505-14.552639-22.75785 0.20642 0.774077 0.051605 1.909389-0.567656 3.199517-0.10321 0.20642-0.20642 0.412841-0.361235 0.619261-3.354332 5.831376-6.760268 11.869173-13.262511 17.803759l-0.309631 0.309631-0.20642 0.154815-0.516051 0.464446-0.10321 0.051605-0.154816 0.10321-0.20642 0.154816c-14.604243 12.282014-32.408003 14.759059-58.004132-15.636346-5.728166-6.760268-12.127199-11.507937-18.784257-10.42423-1.702968 0.464446-5.315325 4.799274-11.662752 15.739556z" fill="#2B2622" /></svg>