<?xml version="1.0" standalone="no"?><!DOCTYPE svg PUBLIC "-//W3C//DTD SVG 1.1//EN" "http://www.w3.org/Graphics/SVG/1.1/DTD/svg11.dtd"><svg class="icon" width="200px" height="200.00px" viewBox="0 0 1024 1024" version="1.1" xmlns="http://www.w3.org/2000/svg"><path d="M688.154009 293.891045c3.560752 68.118732 192.693444 164.362244 224.120949 134.018444-1.599758-115.337399-77.872096-180.41143-224.120949-134.018444z" fill="#050509" /><path d="M887.762536 418.981807c0 3.405937 10.991886 10.21781 24.512422 15.068689 13.520536 4.902485 24.512423 6.141007 24.512423 2.735071-0.361236-29.053671-5.573351-55.062642-15.37832-76.99481-10.733861-24.047977-27.969964-44.01915-51.553495-58.881419-33.027264-20.796855-70.544172-32.304793-111.931462-32.924054-27.402308-0.412841-58.365368 4.489644-92.78597 15.37832-4.696064 1.496548 1.754573 7.379529 14.449428 13.159301s26.731442 9.288918 31.427506 7.79237c32.769239-10.42423 61.616489-15.068689 86.541753-14.759059 17.90697 0.258026 30.034168 2.683465 36.794436 6.966689 16.204001 10.21781 29.105276 26.318601 38.4458 47.167061 9.546944 21.364511 14.552638 46.754221 14.965479 75.291841z" fill="#2B2622" /><path d="M323.770398 314.89432c-7.379529 67.809101-201.621126 153.267147-231.294059 121.22038 8.050396-115.027768 87.83188-175.715366 231.294059-121.22038z" fill="#050509" /><path d="M117.453208 428.580356c-0.20642 3.405937-11.559542 9.546944-25.38971 13.726956-13.778562 4.128408-24.822053 4.747669-24.615632 1.290128 2.012599-28.950461 8.618052-54.649801 19.661543-76.014312C99.185002 344.206017 117.504813 325.21534 141.914025 311.694804c34.162576-18.887467 72.24714-28.3312 113.582825-26.576626 27.402308 1.135312 58.055738 7.79237 91.753868 20.590435 4.592854 1.754573-2.167414 7.276319-15.171899 12.333619-13.004485 5.0573-27.247493 7.740765-31.840347 6.037796-32.149977-12.230409-60.687598-18.526231-85.561256-19.558333-17.855365-0.774077-30.137378 0.980497-37.155672 4.902485-16.771658 9.237313-30.498614 24.564028-41.026054 44.896437-10.630651 20.64204-17.029683 45.773724-19.042282 74.259739zM755.343849 338.168221c57.694502 2.219019 109.041576 27.505518 145.371567 66.673789 36.32999 39.116666 57.746107 92.115104 55.630298 149.809605h0.10321V554.80643h-0.10321c-2.167414 57.694502-27.453913 109.041576-66.622184 145.423172-39.116666 36.32999-92.166709 57.746107-149.809606 55.630298v0.051605H739.759109v-0.051605c-57.642897-2.115809-108.989971-27.453913-145.371567-66.673789h-0.051605c-36.278385-39.116666-57.694502-92.166709-55.578693-149.861211h-0.051605V539.170085h0.051605c2.167414-57.642897 27.453913-108.989971 66.570579-145.319962h0.051606c39.116666-36.278385 92.166709-57.694502 149.809605-55.578692v-0.051605l0.154815-0.051605z m-1.238522 35.194678l-0.051605 0.051605h-0.10321v-0.051605c-47.837928-1.754573-91.960288 16.100791-124.574712 46.34138l0.051605 0.051605c-32.614423 30.292194-53.720909 72.969611-55.527088 120.755934h0.051606v0.20642h-0.051606c-1.754573 47.786323 16.100791 91.908683 46.34138 124.574712v0.051605c30.240589 32.562818 72.918006 53.669304 120.859145 55.475482v-0.051605H741.255657v0.051605c47.837928 1.754573 91.908683-16.100791 124.523106-46.392985 32.614423-30.292194 53.720909-72.969611 55.527088-120.859144h-0.051605V553.413093h0.051605c1.754573-47.786323-16.100791-91.857078-46.392985-124.471502-30.343799-32.717633-72.969611-53.824119-120.807539-55.578692z" fill="#2B2622" /><path d="M754.672983 355.76556c105.584035 3.921988 188.048985 92.734365 184.126997 198.370004-3.921988 105.584035-92.734365 188.048985-198.370005 184.075392-105.584035-3.921988-188.048985-92.734365-184.126997-198.318399 3.973593-105.584035 92.78597-187.997379 198.370005-184.126997z" fill="#FFFFFF" /><path d="M755.498665 523.998186c10.011389 3.405937 17.081288 13.159301 16.668447 24.306002-0.516051 13.623746-12.023988 24.306002-25.59613 23.789951-13.623746-0.516051-24.306002-11.972383-23.789951-25.647735 0.051605-1.083707 0.154815-2.219019 0.361236-3.302726 2.219019 0.774077 4.592854 1.238522 7.069898 1.341732 12.540039 0.464446 23.222295-8.463236 25.2865-20.487224z m1.548153 26.11218c3.973593 0.154815 7.121504 3.560752 6.966688 7.48274-0.154815 4.025198-3.509147 7.121504-7.534345 7.018293-4.025198-0.154815-7.121504-3.509147-6.966688-7.482739 0.20642-4.025198 3.509147-7.173109 7.534345-7.018294zM282.176687 338.168221h-0.051605v0.051605c-57.642897 2.167414-108.989971 27.453913-145.319962 66.622184-36.32999 39.116666-57.746107 92.115104-55.630298 149.809605h-0.051605V554.80643h0.051605c2.167414 57.694502 27.505518 109.041576 66.622185 145.423172 39.116666 36.32999 92.166709 57.746107 149.809605 55.630298v0.051605h0.10321v-0.051605c57.642897-2.115809 108.989971-27.453913 145.371567-66.673789h0.051605c36.32999-39.116666 57.694502-92.166709 55.578693-149.861211h0.10321V539.170085h-0.10321c-2.167414-57.642897-27.453913-108.989971-66.622184-145.319962h-0.051606c-39.116666-36.278385-92.166709-57.694502-149.809605-55.578692v-0.051605l-0.051605-0.051605z m1.290127 35.194678l0.051606 0.051605h0.10321v-0.051605c47.889533-1.754573 91.960288 16.100791 124.574711 46.34138l-0.051605 0.051605c32.614423 30.292194 53.720909 72.969611 55.527088 120.755934h-0.051605v0.20642h0.051605c1.754573 47.786323-16.049186 91.908683-46.34138 124.574712v0.051605c-30.240589 32.562818-72.918006 53.669304-120.859144 55.475482v-0.051605H296.316484v0.051605c-47.786323 1.754573-91.908683-16.100791-124.471501-46.392985-32.614423-30.292194-53.720909-72.969611-55.527088-120.859144h0.051606V553.413093h-0.051606c-1.754573-47.786323 16.100791-91.857078 46.34138-124.471502 30.292194-32.717633 72.969611-53.824119 120.807539-55.578692z" fill="#2B2622" /><path d="M282.847553 355.76556c-105.584035 3.921988-188.048985 92.734365-184.126997 198.370004 3.921988 105.584035 92.734365 188.048985 198.3184 184.075392 105.584035-3.921988 188.048985-92.734365 184.126997-198.318399-3.870383-105.584035-92.68276-187.997379-198.3184-184.126997z" fill="#FFFFFF" /><path d="M307.721212 523.998186c10.011389 3.405937 17.081288 13.159301 16.668447 24.306002-0.516051 13.623746-12.023988 24.306002-25.59613 23.789951-13.623746-0.516051-24.306002-11.972383-23.789951-25.647735 0.051605-1.083707 0.154815-2.219019 0.361236-3.302726 2.219019 0.774077 4.592854 1.238522 7.069898 1.341732 12.488434 0.464446 23.17069-8.463236 25.2865-20.487224z m1.496547 26.11218c4.025198 0.154815 7.121504 3.560752 6.966689 7.48274-0.154815 4.025198-3.509147 7.121504-7.534345 7.018293-4.025198-0.154815-7.121504-3.509147-6.966688-7.482739 0.154815-4.025198 3.509147-7.173109 7.534344-7.018294z" fill="#2B2622" /></svg>