<?xml version="1.0" standalone="no"?><!DOCTYPE svg PUBLIC "-//W3C//DTD SVG 1.1//EN" "http://www.w3.org/Graphics/SVG/1.1/DTD/svg11.dtd"><svg class="icon" width="200px" height="200.00px" viewBox="0 0 1024 1024" version="1.1" xmlns="http://www.w3.org/2000/svg"><path d="M701.055284 232.171345c7.379529 56.76561 171.844983 125.090762 196.150985 97.636849-8.772867-96.295117-76.788389-145.836013-196.150985-97.636849z" fill="#050509" /><path d="M876.099783 323.925213c0.258026 2.889886 9.908179 7.843975 21.519327 11.095096 11.714358 3.251121 20.900066 3.509147 20.693645 0.670867-2.167414-24.306002-8.205211-45.722119-17.855364-63.422668-10.52744-19.455123-26.266996-35.039863-46.960642-45.928539-29.002066-15.27511-61.100438-22.499824-95.72746-20.33241-22.96427 1.393338-48.612004 7.534345-76.633574 18.835862-3.818777 1.548153 1.960994 6.089402 12.95288 10.114599 10.991886 4.025198 23.015875 6.037797 26.783047 4.489644 26.783047-10.837071 50.624603-16.565237 71.473064-17.90697 14.965479-0.980497 25.286499 0.309631 31.272691 3.457542 14.243008 7.48274 26.00897 20.125989 35.194678 36.949252 9.288918 17.236103 15.171899 38.136169 17.287708 61.977725z" fill="#2B2622" /><path d="M701.055284 598.670766c9.959784-47.167061 160.388651-76.220733 180.359825-48.508795-13.623746 80.658771-77.098019 110.89936-180.359825 48.508795z" fill="#050509" /><path d="M862.321222 551.452099c0.361236-2.42544 9.185708-4.902485 19.764753-5.624956 10.52744-0.670866 18.835862 0.670866 18.423021 3.096306-3.405937 20.332409-10.062995 37.568513-19.661543 50.934234-10.579046 14.707454-25.492919 25.234894-44.535202 30.85985-26.731442 7.843975-55.733508 8.360026-86.386937 0.361235-20.332409-5.315325-42.729023-15.068689-67.035025-29.672932-3.302726-2.012599 2.115809-4.850879 12.127198-6.347427 10.011389-1.496548 20.84846-1.083707 24.151187 0.928891 23.119085 13.984982 44.01915 23.119085 62.442171 27.918359 13.262511 3.457542 22.551429 4.231618 28.073175 2.580255 13.05609-3.870383 24.357607-12.540039 33.543315-25.286499 9.288918-12.95288 15.68795-29.776143 19.093887-49.747316z" fill="#2B2622" /><path d="M160.285441 369.595726c40.406793 37.774933 187.945774-2.167414 186.139596-35.762334C280.215693 267.572444 205.852744 268.398125 160.285441 369.595726z" fill="#050509" /><path d="M329.343748 341.058106c1.960994 2.012599 11.198307 0.361236 20.590435-3.663962 9.443733-4.025198 15.533135-8.876077 13.572142-10.837071-16.720052-16.720052-34.007761-29.208487-51.243865-37.000857-18.939072-8.514842-38.75543-11.404727-58.778209-8.050395-28.021569 4.696064-52.998438 16.978078-73.640477 37.620118-13.675352 13.675352-26.112181 32.253188-36.846042 55.991533-1.444943 3.251121 5.108905 3.405937 14.604244 0.309631 9.495338-3.044701 18.423021-8.153606 19.867963-11.404727 10.21781-22.706244 21.725747-40.045558 34.162576-52.430782 8.927682-8.927682 16.307212-13.675352 22.086983-14.655848 13.778562-2.32223 29.208487 0.516051 45.670514 7.947185 16.720052 7.534345 33.59492 19.764753 49.953736 36.175175z" fill="#2B2622" /><path d="M157.13753 615.390818c42.470997-33.28529 197.647533 1.909389 195.738144 31.479111-69.61528 58.210553-147.900217 57.488081-195.738144-31.479111z" fill="#050509" /><path d="M334.917099 640.470897c2.064204-1.754573 11.714358-0.309631 21.674142 3.199516 9.908179 3.509147 16.307212 7.79237 14.243008 9.546943-17.545734 14.655848-35.710729 25.69934-53.875725 32.511213-19.867964 7.48274-40.716424 10.062995-61.771304 7.121504-29.466512-4.128408-55.785113-14.913874-77.459255-33.078869-14.397823-12.023988-27.453913-28.3312-38.755431-49.282871-1.496548-2.838281 5.315325-2.993096 15.37832-0.30963 10.011389 2.683465 19.351913 7.173109 20.848461 10.062994 10.785466 19.919569 22.861059 35.194678 35.917149 46.13496 9.443733 7.843975 17.132893 12.023988 23.222295 12.84967 14.449428 2.012599 30.705035-0.464446 47.992743-6.966689 17.597339-6.605453 35.297888-17.390919 52.585597-31.788741z" fill="#2B2622" /><path d="M242.853601 343.689966c43.451494-5.418536 84.9936 7.224714 116.988762 31.995162 31.995162 24.822053 54.546591 61.82291 60.068336 105.222799h0.051605v0.051605l0.051605 0.051605h-0.051605c5.470141 43.451494-7.173109 84.9936-31.995162 116.988762-24.770448 31.995162-61.874515 54.546591-105.222799 60.016732l0.051605 0.051605H282.641133l-0.051605-0.051605c-43.348284 5.470141-84.89039-7.173109-116.937157-31.995162-31.995162-24.822053-54.546591-61.874515-60.068336-105.274405h-0.051605V520.592249h0.051605c-5.470141-43.399889 7.173109-84.941995 31.943557-116.937157h0.051605c24.822053-31.943557 61.82291-54.494986 105.222799-60.016731l0.051605 0.051605z m3.405936 26.473417l-0.10321 0.051605v-0.051605c-36.02036 4.541249-66.828605 23.325505-87.522249 49.953736v0.051605c-20.64204 26.628232-31.221086 61.203649-26.679837 97.172404h0.10321v0.10321h-0.051605c4.541249 36.02036 23.325505 66.828605 49.953737 87.470645v0.051605c26.679837 20.64204 61.152044 31.16948 97.275613 26.628231v-0.051605H279.390012v0.051605c35.968755-4.592854 66.776999-23.325505 87.470644-50.005342 20.64204-26.679837 31.221086-61.203649 26.679837-97.224008h-0.051605v-0.051605l-0.051605-0.10321h0.10321c-4.592854-35.968755-23.37711-66.776999-50.005342-87.41904-26.731442-20.64204-61.306859-31.16948-97.275614-26.628231z" fill="#2B2622" /><path d="M244.504964 356.900872c79.523459-10.062995 152.131835 46.23817 162.143224 125.761629 10.062995 79.471854-46.23817 152.08023-125.761629 162.143224-79.471854 10.062995-152.08023-46.23817-162.143224-125.761629-10.062995-79.471854 46.289775-152.08023 125.761629-162.143224z" fill="#FFFFFF" /><path d="M265.869475 482.714106c7.89558 1.341733 14.397823 7.740765 15.429925 16.100791 1.290128 10.269415-5.986192 19.661543-16.204001 20.951671-10.32102 1.290128-19.661543-5.986192-20.951671-16.255607-0.10321-0.825682-0.154815-1.702968-0.154815-2.52865 1.754573 0.309631 3.612357 0.361236 5.470141 0.10321 9.392128-1.135312 16.307212-9.134103 16.410421-18.371415z m4.334829 19.351912c2.993096-0.412841 5.779771 1.754573 6.141007 4.747669 0.361236 2.993096-1.754573 5.779771-4.74767 6.141007-3.044701 0.361236-5.779771-1.754573-6.141006-4.747669-0.412841-2.993096 1.754573-5.779771 4.747669-6.141007zM722.36819 267.778864c48.147558-6.037797 94.076097 7.998791 129.477196 35.452704 35.349494 27.453913 60.377967 68.428363 66.467369 116.421105h0.051605l0.051605 0.103211v0.051605h-0.10321c6.037797 48.095953-7.89558 94.024492-35.349493 129.477196-27.453913 35.401099-68.479968 60.326362-116.472711 66.415764v0.051605h-0.10321v-0.051605c-47.992743 6.037797-93.972887-7.89558-129.425591-35.401099v0.051605c-35.401099-27.453913-60.377967-68.479968-66.467369-116.524316h-0.051605v-0.10321l-0.051605-0.051605h0.10321c-6.037797-48.044348 7.89558-93.972887 35.349493-129.425591h0.051606c27.453913-35.401099 68.428363-60.326362 116.421105-66.415764v-0.051605h0.051605z m3.767173 29.311697v0.051605H725.980547v-0.051605c-39.839137 5.108905-73.950108 25.854155-96.811167 55.320667h0.051605c-22.861059 29.518117-34.575417 67.757496-29.518117 107.596634h0.10321V460.162677h-0.051605c5.0573 39.839137 25.80255 73.950108 55.320667 96.811168v0.051605c29.466512 22.861059 67.705891 34.523812 107.596633 29.466512v-0.051605H762.826589v0.051605c39.839137-5.0573 73.898503-25.80255 96.811167-55.320667 22.861059-29.518117 34.523812-67.705891 29.518118-107.596634h-0.103211v-0.10321h0.051606c-5.0573-39.839137-25.80255-73.898503-55.320668-96.759563-29.621327-23.015875-67.809101-34.678627-107.648238-29.621327z" fill="#2B2622" /><path d="M724.225974 282.434712c87.93509-11.146702 168.335836 51.192259 179.430933 139.178955 11.146702 87.93509-51.192259 168.335836-139.12735 179.430933-87.986696 11.146702-168.335836-51.192259-179.430933-139.178955-11.198307-87.986696 51.192259-168.335836 139.12735-179.430933z" fill="#FFFFFF" /><path d="M747.809505 421.613667c8.772867 1.496548 15.945976 8.566447 17.081288 17.855365 1.444943 11.353122-6.605453 21.725747-17.90697 23.17069-11.404727 1.444943-21.725747-6.605453-23.222295-18.01018-0.10321-0.928892-0.10321-1.857784-0.10321-2.786675 1.960994 0.309631 3.973593 0.412841 6.037796 0.10321 10.372625-1.290128 18.01018-10.1146 18.113391-20.33241z m4.799274 21.416117c3.354332-0.412841 6.399032 1.960994 6.811873 5.26372 0.412841 3.354332-1.960994 6.399032-5.315325 6.811873-3.302726 0.412841-6.347427-1.960994-6.760268-5.26372-0.412841-3.354332 1.960994-6.399032 5.26372-6.811873zM276.861362 719.4267c86.077307 0.774077 171.844983 0.877287 256.219321-1.909389 84.735574-2.786675 168.387441-8.463236 250.23313-19.145492 1.754573-0.20642 3.509147 0.722471 5.108905 2.477045 12.798065 14.707454 19.197097 32.769239 19.197098 54.185355 0 18.526231-5.418536 38.394194-16.255607 59.449075-1.444943 2.838281-3.509147 4.128408-5.624956 3.767172h0.051605l-1.857783-0.30963-0.361236-0.051606c-133.141158-20.487225-281.40261-18.526231-429.612458-16.616842l-6.863478 0.10321c-2.63186 0.051605-5.108905-2.32223-6.915084-6.037796l-0.10321-0.154816c-2.889886-5.882981-10.682256-12.74646-21.261301-20.177594-11.662753-8.256816-26.370206-16.616842-41.696921-24.925263-4.438039-2.42544-7.637555-11.095097-7.069899-19.403518 0.464446-6.811873 3.354332-11.249912 6.811874-11.249911z m259.057602 29.311696c-68.583178 2.270624-137.475986 2.683465-206.52361 2.32223 7.58595 6.037797 13.984982 12.333619 18.42302 18.990677l3.457542-0.051605c148.158242-1.960994 296.316484-3.921988 429.767273 16.513632 6.811873-14.243008 10.21781-26.370206 10.21781-36.381596 0-7.069899-2.373835-13.830167-7.173109-20.229199-81.432848 10.52744-164.413849 16.100791-248.168926 18.835861z" fill="#2B2622" /><path d="M278.151489 735.063045c171.844983 1.599758 342.761074 0.258026 506.968503-21.106486 19.042282 21.932168 19.042282 51.50189 0 88.709167-136.082649-21.261301-287.853248-18.887467-439.417427-16.874868-8.153606-16.926473-36.433201-33.852946-67.551076-50.727813z" fill="#FFFFFF" /><path d="M795.286197 766.748576c-0.619261-8.256816 5.418536-10.475835 4.850879-18.732651-26.473416 3.199516-89.741269 6.089402-149.087134 10.269415 50.005342 10.785466 107.493423 8.360026 144.236255 8.463236z" fill="#2B2622" /></svg>