<?xml version="1.0" standalone="no"?><!DOCTYPE svg PUBLIC "-//W3C//DTD SVG 1.1//EN" "http://www.w3.org/Graphics/SVG/1.1/DTD/svg11.dtd"><svg class="icon" width="200px" height="200.00px" viewBox="0 0 1024 1024" version="1.1" xmlns="http://www.w3.org/2000/svg"><path d="M256.374137 320.570881c-11.043491 33.69813-106.254901 56.76561-115.595424 37.362093 16.771658-57.642897 58.829814-80.14272 115.595424-37.362093z" fill="#050509" /><path d="M152.647886 356.694451c-0.464446 1.702968-6.192612 3.663962-12.74646 4.334829-6.553848 0.670866-11.404727-0.20642-10.991886-1.909389 4.231618-14.552638 10.062995-26.886257 17.390919-36.588016 7.998791-10.630651 18.2166-18.371416 30.498614-22.654639 17.184498-6.037797 34.988258-6.811873 52.946832-1.599758 11.920778 3.457542 24.615633 10.062995 37.981354 20.125989 1.806179 1.393338-1.806179 3.457542-8.102001 4.696064-6.295822 1.238522-12.84967 1.083707-14.655848-0.30963-12.74646-9.598549-24.564028-15.791161-35.349494-18.939072-7.79237-2.270624-13.365721-2.63186-16.874867-1.393338-8.463236 2.941491-16.255607 9.288918-23.17069 18.526231-7.069899 9.340523-12.798065 21.467722-16.926473 35.710729z" fill="#2B2622" /><path d="M179.379328 367.737943c46.702616-22.499824 102.797359-2.889886 125.348788 43.81273 22.499824 46.702616 2.838281 102.797359-43.81273 125.297183-46.702616 22.499824-102.848964 2.889886-125.348788-43.81273-22.499824-46.65101-2.889886-102.797359 43.81273-125.297183z" fill="#FFFFFF" /><path d="M175.663761 359.945573l0.051605 0.051605c25.492919-12.282014 53.566094-13.05609 78.284936-4.438039 24.718843 8.618052 46.134959 26.731442 58.416974 52.224361h0.051605v0.051606c12.333619 25.544525 13.107695 53.617699 4.438038 78.336541-8.669657 24.718843-26.783047 46.186565-52.224361 58.468579h0.051605l-0.051605 0.051605h-0.051605v-0.051605c-25.492919 12.282014-53.566094 13.05609-78.336542 4.438038h-0.051605c-24.718843-8.618052-46.134959-26.731442-58.468578-52.224361h-0.051605v-0.10321c-12.282014-25.492919-13.107695-53.566094-4.438039-78.284937h0.051605c8.618052-24.718843 26.731442-46.134959 52.224361-58.416973l0.103211-0.10321z m7.482739 15.58474l-0.051605 0.051605v-0.051605c-21.158091 10.21781-36.22678 28.073174-43.399889 48.663609-7.173109 20.590435-6.553848 43.967545 3.612357 65.125637l0.051605-0.051606v0.103211c10.21781 21.158091 28.073174 36.175175 48.663609 43.399889l0.051605 0.051605c20.590435 7.173109 43.91594 6.553848 65.125637-3.663962v-0.051605h0.10321c21.106486-10.21781 36.12357-28.021569 43.348284-48.66361 7.224714-20.590435 6.553848-43.967545-3.612357-65.125636h-0.051605v-0.051605c-10.21781-21.106486-28.073174-36.175175-48.612005-43.348284-20.693645-7.224714-44.070755-6.605453-65.228846 3.612357z" fill="#2B2622" /><path d="M207.555712 381.155269c16.513632-2.580255 33.59492 5.779771 41.232475 21.622537 9.392128 19.455123 1.186917 42.832233-18.2166 52.172756-19.403518 9.340523-42.780628 1.186917-52.121151-18.268206-0.774077-1.599758-1.393338-3.251121-1.960994-4.850879 3.715567-0.567656 7.379529-1.702968 10.888676-3.405937 17.80376-8.566447 26.112181-28.950461 20.177594-47.270271z m21.416117 35.349493c5.676561-2.73507 12.540039-0.361236 15.275109 5.315326 2.73507 5.676561 0.361236 12.540039-5.315325 15.326714-5.728166 2.73507-12.540039 0.361236-15.275109-5.36693-2.73507-5.676561-0.412841-12.488434 5.315325-15.27511z" fill="#2B2622" /><path d="M478.843723 337.239329c8.566447 26.421811 83.032606 44.690017 90.412135 29.518117-12.95288-45.154463-45.825329-62.855012-90.412135-29.518117z" fill="#050509" /><path d="M559.96694 365.776949c0.361236 1.341733 4.850879 2.889886 9.959785 3.405937s8.927682-0.10321 8.566446-1.496548c-3.251121-11.404727-7.79237-21.054881-13.468931-28.692436-6.244217-8.308421-14.243008-14.397823-23.789951-17.803759-13.417326-4.747669-27.402308-5.418536-41.4905-1.393338-9.340523 2.683465-19.300307 7.79237-29.776143 15.636345-1.393338 1.083707 1.393338 2.73507 6.347427 3.663962 4.902485 0.980497 10.062995 0.877287 11.507938-0.20642 9.959784-7.48274 19.248702-12.282014 27.711938-14.707454 6.089402-1.754573 10.475835-2.064204 13.262511-1.083707 6.553848 2.32223 12.694855 7.327924 18.11339 14.552639 5.418536 7.48274 9.856574 16.926473 13.05609 28.124779z" fill="#2B2622" /><path d="M500.930706 362.938669c40.251978-5.108905 77.046414 23.428715 82.103714 63.680693 5.108905 40.251978-23.428715 76.994809-63.680693 82.103714-40.251978 5.108905-76.994809-23.428715-82.103714-63.680693-5.0573-40.251978 23.428715-76.994809 63.680693-82.103714z" fill="#FFFFFF" /><path d="M500.105024 356.230006c21.983773-2.73507 43.038653 3.663962 59.242655 16.204001 16.204001 12.540039 27.608729 31.324296 30.395404 53.256463h0.051605v0.051605c2.786675 21.983773-3.612357 43.038653-16.204001 59.242655-12.591644 16.204001-31.375901 27.608729-53.308068 30.395404h0.051605-0.051605v-0.051605c-21.983773 2.786675-43.038653-3.612357-59.242655-16.204001-16.204001-12.540039-27.608729-31.324296-30.395404-53.308069v0.051605c-2.786675-21.983773 3.612357-42.987048 16.152396-59.191049h0.051605c12.540039-16.204001 31.272691-27.608729 53.256463-30.447009z m1.702969 13.417326l-0.051605 0.051605v-0.051605c-18.268205 2.32223-33.801341 11.817568-44.277176 25.338104-10.475835 13.520536-15.842766 30.96306-13.520536 49.231265h0.051605v0.051605h-0.051605c2.32223 18.2166 11.817568 33.852946 25.338104 44.277176v0.051605c13.468931 10.475835 30.96306 15.791161 49.231265 13.468931h0.051605v0.051605c18.2166-2.32223 33.852946-11.817568 44.277176-25.338104 10.475835-13.520536 15.842766-30.96306 13.520536-49.231265h-0.051605v-0.051605h0.051605c-2.32223-18.2166-11.817568-33.801341-25.338104-44.277176-13.520536-10.52744-31.014665-15.894371-49.231265-13.572141z" fill="#2B2622" /><path d="M508.723076 373.104873c12.95288 2.167414 23.531926 12.64325 25.234894 26.266996 2.167414 16.720052-9.753364 32.046767-26.473416 34.162576-16.771658 2.115809-32.046767-9.753364-34.214182-26.525021-0.154815-1.393338-0.258026-2.73507-0.20642-4.076803 2.889886 0.464446 5.882981 0.567656 8.927682 0.20642 15.37832-1.909389 26.628232-14.965479 26.731442-30.034168z m7.121504 31.582321c4.902485-0.619261 9.392128 2.889886 10.011389 7.740765 0.670866 4.902485-2.838281 9.443733-7.79237 10.062995-4.902485 0.619261-9.392128-2.889886-10.011389-7.79237-0.619261-4.902485 2.889886-9.392128 7.79237-10.01139z" fill="#2B2622" /><path d="M447.777453 640.212871c45.360883-59.655496 87.83188-20.53883 87.62546 22.861059-0.20642 38.290984-37.310487 81.381243-83.342237 43.296679-29.156882-21.467722-30.550219-43.503099-4.283223-66.157738z" fill="#050509" /><path d="M443.855465 633.504208c-1.857784 2.477045-1.651363 7.48274 0.516051 11.146702 2.167414 3.663962 5.470141 4.644459 7.37953 2.167414 11.507937-15.171899 22.757849-23.686741 33.027264-27.144283 7.947185-2.73507 15.326715-2.42544 21.674142 0.10321 6.037797 2.373835 11.198307 6.657058 15.068689 12.178804 5.521746 7.79237 8.721262 18.164995 8.669657 28.950461-0.10321 12.74646-5.0573 26.370206-13.468931 36.536411-3.921988 4.696064-8.566447 8.669657-13.726957 11.404727-5.212115 2.73507-10.991886 4.283223-17.184498 4.283223-9.804969-0.051605-20.74525-4.076803-32.304793-13.623746-2.73507-2.270624-5.624956-1.083707-6.450637 2.73507-0.774077 3.767172 0.825682 8.721262 3.560752 10.991887 13.468931 11.198307 26.370206 15.894371 37.878143 15.945975 7.224714 0.051605 13.984982-1.754573 20.022779-4.954089 6.037797-3.199516 11.404727-7.740765 15.894371-13.159301 10.166205-12.282014 16.100791-29.363302 16.204001-45.876934 0.10321-16.152396-4.799274-31.840347-13.159301-43.657914-5.624956-7.947185-12.798065-14.036587-21.003275-17.287709-7.89558-3.096306-16.771658-3.509147-26.266996-0.258025-11.456332 3.870383-23.893161 13.159301-36.329991 29.518117z" fill="#2B2622" /><path d="M487.358565 649.346974c2.32223-3.612357 1.651363-7.79237-1.548153-9.288918-3.199516-1.548153-7.637555 0.154815-9.959785 3.715567-5.624956 8.721262-10.166205 17.390919-10.579045 25.647735-0.412841 8.927682 3.818777 16.513632 16.204001 21.519326 3.302726 1.290128 7.68916-0.567656 9.804969-4.231618s1.186917-7.740765-2.115809-9.082497c-7.327924-2.941491-9.908179-6.657058-9.701759-10.682256 0.258026-4.747669 3.663962-10.991886 7.895581-17.597339zM649.966235 571.113642c3.973593 0 7.68916 0.980497 10.888676 2.786675l5.779771-101.352416c5.16051 14.243008 64.66119 11.817568 85.870887 1.083707 12.84967-6.502243 7.843975 15.27511-18.629441 32.562818-18.526231 12.023988-22.086983 0-39.735927 0-13.572141 0-11.920778-0.877287-21.364512 6.089402-1.393338 1.032102-1.290128 40.922844-0.10321 79.678275 0.051605 0.670866 0.10321 1.341733 0.10321 2.012598v0.825682h-0.051605c-0.412841 12.230409-10.42423 22.035378-22.757849 22.035378-12.591644 0-22.809454-10.21781-22.809454-22.809454s10.21781-22.912664 22.809454-22.912665zM796.989165 478.534093c3.973593 0 7.68916 1.032102 10.888676 2.786675l5.779771-101.352416c7.069899 19.558333 70.337751 8.979287 85.870887 1.083707 12.385224-6.295822 8.205211 13.778562-15.894371 30.705034l-1.186917 4.025198c-0.516051 1.651363 4.644459 40.664819 11.507937 78.852593 0.154815 0.670866 0.258026 1.290128 0.361236 1.960994l0.10321 0.567656 0.051605 0.20642h-0.051605c1.393338 12.178804-7.173109 23.325505-19.351913 25.080079-12.436829 1.857784-24.047977-6.760268-25.854155-19.248703-1.857784-12.436829 6.811873-24.047977 19.248702-25.90576 3.921988-0.567656 7.68916-0.10321 11.198307 1.135312-1.651363-18.061785-2.993096-32.614423-3.973593-44.328781-0.567656-6.399032-0.619261-12.178804-0.361235-17.390918-13.881772 6.399032-18.423021-3.147911-34.162576-3.147911-13.572141 0-11.920778-0.877287-21.364512 6.089401-1.393338 1.032102-1.290128 40.922844-0.10321 79.678275 0.051605 0.670866 0.10321 1.341733 0.10321 2.012599v0.825681h-0.051605c-0.361236 12.230409-10.42423 22.035378-22.809454 22.035378-12.591644 0-22.809454-10.21781-22.809454-22.809454 0.051605-12.64325 10.269415-22.861059 22.861059-22.861059z" fill="#2B2622" /></svg>