<?xml version="1.0" standalone="no"?><!DOCTYPE svg PUBLIC "-//W3C//DTD SVG 1.1//EN" "http://www.w3.org/Graphics/SVG/1.1/DTD/svg11.dtd"><svg class="icon" width="200px" height="200.00px" viewBox="0 0 1024 1024" version="1.1" xmlns="http://www.w3.org/2000/svg"><path d="M615.855264 274.539132c34.265786 54.959432 214.883637 55.269062 223.295268 16.874868-54.907826-94.850174-139.953031-116.730736-223.295268-16.874868z" fill="#050509" /><path d="M817.373179 294.355491c1.599758 2.838281 12.64325 3.818777 24.615633 2.219019 12.075593-1.599758 20.487225-5.26372 18.835862-8.050396-13.830167-23.893161-29.621327-43.296679-46.909036-57.333266-18.887467-15.429925-40.561609-24.770448-64.45477-27.144282-33.440105-3.354332-65.744897 2.838281-95.675856 19.713148-19.867964 11.198307-39.787532 28.22799-59.39747 51.70831-2.683465 3.199516 4.747669 5.36693 16.513632 4.850879 11.817568-0.516051 23.531926-3.560752 26.163786-6.760268 18.732651-22.396613 37.258882-38.342589 55.269062-48.508794 12.95288-7.327924 22.809454-10.372625 29.724538-9.701759 16.358817 1.651363 33.078869 9.546944 49.540896 22.96427 16.823263 13.572141 32.201582 32.562818 45.773723 56.043139z" fill="#2B2622" /><path d="M181.959583 349.366527c35.349494 40.458398 176.850678 11.611148 177.521544-21.828957-57.694502-70.492567-127.722623-75.085421-177.521544 21.828957z" fill="#050509" /><path d="M342.81268 333.523762c1.702968 2.115809 10.52744 1.186917 19.713148-2.11581 9.134103-3.302726 15.171899-7.637555 13.468931-9.804969-14.501033-17.752154-29.879353-31.427506-45.618909-40.406793-17.184498-9.856574-35.607519-14.191403-54.649801-12.333619-26.679837 2.63186-51.037444 12.95288-71.885904 31.891952-13.830167 12.540039-26.834652 30.034168-38.54901 52.843622-1.599758 3.096306 4.541249 3.715567 13.726957 1.393338 9.134103-2.32223 17.90697-6.760268 19.506728-9.908179 11.146702-21.725747 23.222295-38.084564 35.762334-49.489291 9.030893-8.205211 16.307212-12.385224 21.777352-12.901275 13.107695-1.290128 27.402308 2.683465 42.367788 11.198307 15.120294 8.772867 30.137378 22.138588 44.380386 39.632717zM674.427052 274.951973l0.051605 0.051605c57.126846-7.224714 111.776647 9.392128 153.886409 42.058157 42.109762 32.614423 71.782694 81.381243 79.059013 138.456483h0.051605l0.051605 0.10321v0.051605h-0.10321c7.224714 57.178451-9.392128 111.828252-42.058157 153.989619-32.666028 42.058157-81.432848 71.782694-138.508088 79.007408l0.051605 0.051605-0.10321 0.051605h-0.051605v-0.051605c-57.126846 7.173109-111.776647-9.392128-153.938014-42.109762l-0.051605 0.051606c-42.109762-32.666028-71.782694-81.432848-79.007408-138.559694l-0.051605 0.051605-0.051605-0.10321v-0.051605l0.10321-0.051605c-7.224714-57.126846 9.392128-111.776647 42.058157-153.886409h0.10321c32.666028-42.058157 81.381243-71.731089 138.456483-79.007408v-0.051605l0.051605-0.051605z m4.438039 34.833443v0.051605H678.710276v-0.051605c-47.425087 6.037797-87.93509 30.75664-115.182584 65.796502h0.051605c-27.195888 35.091468-41.026055 80.555561-35.091468 127.877438h0.103211V503.614171h-0.051605c5.986192 47.373482 30.705035 87.93509 65.796502 115.130978v0.051606c35.039863 27.195888 80.452351 41.026055 127.929043 35.039862v-0.10321h0.051605l0.10321-0.051605v0.051605c47.373482-5.986192 87.83188-30.705035 115.079373-65.796502 27.247493-35.091468 41.07766-80.555561 35.143074-127.929043h-0.103211v-0.051605l-0.051605-0.103211h0.051605c-5.986192-47.373482-30.705035-87.83188-65.796502-115.079373-35.039863-27.092678-80.503956-40.974449-127.877438-34.988257z" fill="#2B2622" /><path d="M676.594467 292.342892c104.551933-13.210906 200.124578 60.894018 213.335483 165.497556 13.262511 104.603538-60.842413 200.176183-165.497556 213.387088-104.603538 13.210906-200.176183-60.894018-213.387088-165.497556-13.159301-104.551933 60.945623-200.124578 165.549161-213.387088z" fill="#FFFFFF" /><path d="M661.577382 451.802651c11.198307 1.857784 20.280804 10.888676 21.777353 22.706244 1.806179 14.501033-8.463236 27.711939-22.912665 29.569722-14.449428 1.806179-27.711939-8.411631-29.518117-22.912664-0.10321-1.186917-0.20642-2.373835-0.20642-3.560752 2.52865 0.412841 5.108905 0.516051 7.740765 0.154815 13.262511-1.651363 22.96427-12.901275 23.119084-25.957365z m6.089402 27.299098c4.283223-0.516051 8.153606 2.477045 8.669657 6.708663s-2.477045 8.153606-6.708663 8.669657c-4.283223 0.516051-8.102001-2.477045-8.669657-6.708663-0.516051-4.231618 2.477045-8.153606 6.708663-8.669657zM243.679282 331.459558c40.406793-5.0573 78.955803 6.708663 108.680341 29.724537 29.724538 23.06748 50.676208 57.436476 55.785113 97.791665h0.051605l0.051605 0.10321v0.051605h-0.051605c5.108905 40.355188-6.657058 78.955803-29.724537 108.731946-23.06748 29.724538-57.488081 50.676208-97.74006 55.785113v0.051605H280.576929v-0.051605c-40.303583 5.108905-78.955803-6.657058-108.680341-29.724538l-0.051605 0.051605c-29.724538-23.06748-50.676208-57.488081-55.785113-97.843269h-0.051605v-0.10321h0.051605c-5.108905-40.355188 6.657058-78.955803 29.672932-108.628736h0.051606c23.06748-29.724538 57.436476-50.676208 97.740059-55.785113v-0.051605h0.154815v-0.10321z m3.147911 24.615632v0.051605H246.672378v-0.051605c-33.440105 4.231618-62.13254 21.674142-81.329637 46.44459h0.051605c-19.248702 24.770448-29.002066 56.86882-24.770448 90.36053l0.051605-0.051605v0.051605l0.051605 0.051606-0.10321 0.051605c4.283223 33.440105 21.725747 62.080935 46.496195 81.278032v0.051605c24.770448 19.197097 56.817215 28.950461 90.36053 24.770448v-0.051605h0.051605l0.10321-0.051605v0.051605c33.440105-4.231618 62.02933-21.674142 81.226428-46.44459 19.248702-24.770448 29.053671-56.86882 24.770448-90.412135h-0.051605v-0.10321h0.051605c-4.283223-33.440105-21.725747-62.02933-46.44459-81.226428-24.770448-19.197097-56.920425-29.002066-90.360531-24.770448z" fill="#2B2622" /><path d="M245.227435 343.741571c73.846898-9.340523 141.346369 42.987048 150.686892 116.885552 9.340523 73.846898-42.987048 141.346369-116.833946 150.686892-73.846898 9.340523-141.346369-42.987048-150.686892-116.833946-9.392128-73.898503 42.987048-141.397974 116.833946-150.738498z" fill="#FFFFFF" /><path d="M235.061231 453.454014c9.134103 1.548153 16.565237 8.927682 17.803759 18.526231 1.496548 11.817568-6.863478 22.603034-18.681046 24.099582-11.765963 1.444943-22.551429-6.863478-24.047977-18.681047-0.10321-0.980497-0.20642-1.960994-0.154815-2.889885 2.012599 0.361236 4.128408 0.412841 6.295822 0.154815 10.785466-1.393338 18.732651-10.630651 18.784257-21.209696z m5.057299 22.241798c3.457542-0.464446 6.605453 2.012599 7.069899 5.470141 0.464446 3.457542-2.012599 6.657058-5.47014 7.069898-3.457542 0.412841-6.657058-2.012599-7.069899-5.47014-0.464446-3.457542 1.960994-6.605453 5.47014-7.069899zM626.434309 815.567001c-7.379529 5.26372-18.01018 6.863478-23.686741 3.457542-5.728166-3.354332-4.334828-10.372625 3.044701-15.636346 17.958575-12.84967 36.32999-24.254397 56.249559-29.776142 21.674142-5.934587 42.677418-4.747669 62.545382 9.030892 5.212115 3.663962 3.251121 10.733861-4.438039 15.842766-7.68916 5.0573-18.2166 6.192612-23.428715 2.580255-11.714358-8.153606-22.293403-9.392128-32.098373-6.708663-11.559542 3.147911-24.667238 11.507937-38.187774 21.209696z" fill="#2B2622" /></svg>