<?xml version="1.0" standalone="no"?><!DOCTYPE svg PUBLIC "-//W3C//DTD SVG 1.1//EN" "http://www.w3.org/Graphics/SVG/1.1/DTD/svg11.dtd"><svg class="icon" width="200px" height="200.00px" viewBox="0 0 1024 1024" version="1.1" xmlns="http://www.w3.org/2000/svg"><path d="M173.805977 258.283526v0.10321c-34.575417 30.705035-53.514489 72.505166-56.043139 115.285793-2.580255 42.677418 11.198307 86.438543 41.851736 121.01396l-0.051605 0.051605 0.051605 0.051605 0.051606 0.051605 0.051605-0.051605c30.653429 34.627022 72.556771 53.514489 115.234188 56.094744 42.780628 2.52865 86.490148-11.249912 121.065565-41.903341l0.051605 0.051605 0.051605-0.051605h0.051605l-0.051605-0.051605c34.575417-30.705035 53.462884-72.505166 56.043139-115.285794h0.051605c1.238522-21.261301-1.496548-42.780628-8.411632-63.319458-17.029683-11.611148-34.265786-23.841556-51.70831-35.762334 23.428715 28.176385 33.956156 63.113037 31.891952 97.378824l0.051605 0.051605c-2.115809 35.555914-17.80376 70.337751-46.5478 95.882276l-0.051605-0.051605-0.051605 0.051605-0.051606 0.051605 0.051606 0.051605c-28.692436 25.441314-65.074031 36.846041-100.681551 34.730232-35.659124-2.115809-70.440962-17.80376-95.933881-46.496195l0.051606-0.051605h-0.051606l-0.051605-0.10321-0.051605 0.051605c-25.389709-28.692436-36.794436-65.074031-34.678627-100.68155 2.167414-35.607519 17.80376-70.440962 46.496195-95.882276l0.051605 0.051605 0.10321-0.051605-0.051605-0.051605c28.744041-25.492919 65.125636-36.897647 100.681551-34.781838v0.051605c6.708663 0.412841 13.417326 1.290128 20.022778 2.683466-27.969964-13.262511-56.197954-21.777352-84.632364-21.416117-19.609938 7.018294-38.239379 17.80376-54.804616 32.459608h-0.051605v-0.20642z" fill="#2B2622" /><path d="M183.1465 268.862571c-63.371063 56.197954-69.150834 153.215542-12.901275 216.535 56.197954 63.371063 153.163937 69.150834 216.535 12.95288 52.895228-46.960641 65.693292-122.304087 35.762334-182.785264-49.798922-34.575417-101.042786-71.266643-153.060727-84.529154-30.96306 3.096306-61.306859 15.636345-86.335332 37.826538z" fill="#FFFFFF" /><path d="M809.735625 197.647533v0.051605c37.516908 12.023988 66.622184 38.136169 83.290631 70.544172 16.668447 32.408003 21.003276 71.163433 8.979288 108.680341h0.051605v0.10321h-0.103211c-12.023988 37.516908-38.084564 66.622184-70.492566 83.290631-32.408003 16.668447-71.215038 20.951671-108.680341 8.979288l-0.051605 0.051605-0.051605-0.051605h-0.051605l0.051605-0.051605c-37.516908-12.023988-66.570579-38.136169-83.290632-70.544172h-0.051605c-7.069899-13.778562-11.920778-28.692436-14.191402-44.173966 8.411631-7.637555 15.636345-16.255607 22.499823-25.131683-0.670866 20.487225 4.025198 40.510004 13.159301 58.313763v0.051605c13.830167 26.989467 38.032959 48.663609 69.202439 58.674998v-0.051605h0.051605l0.051605 0.051605v0.051606c31.06627 9.959784 63.319458 6.347427 90.36053-7.58595 26.989467-13.933377 48.76682-38.084564 58.674999-69.202439l-0.051605-0.051605 0.051605-0.051606h0.051605c9.959784-31.06627 6.295822-63.319458-7.534344-90.308925-13.933377-26.989467-38.084564-48.715214-69.202439-58.726603l-0.051606 0.051605-0.10321-0.051605v-0.051606c-31.117875-9.959784-63.422668-6.347427-90.412135 7.48274l0.051605 0.051605c-9.082498 4.696064-17.597339 10.52744-25.234894 17.390919 3.147911-13.365721 6.760268-26.318601 14.036587-38.703825l0.206421-0.10321h0.051605c32.356398-16.668447 71.163433-21.003276 108.628735-8.979288h0.103211z" fill="#2B2622" /><path d="M806.020057 209.103865c68.686388 22.035378 106.564532 95.572645 84.529154 164.259034-22.035378 68.686388-95.572645 106.512926-164.259033 84.529154-52.017941-16.668447-86.335332-62.958222-90.36053-114.305297 8.360026-9.392128 15.68795-19.506728 23.428715-29.466512 23.2739-30.034168 23.222295-60.171547 32.717634-88.141511 32.253188-22.190193 73.950108-29.724538 113.94406-16.874868z" fill="#FFFFFF" /><path d="M203.58212 345.805775c-3.715567 6.089402-3.251121 14.243008 1.754573 19.867964 6.141007 6.915083 16.720052 7.534345 23.635136 1.393338 6.863478-6.141007 7.534345-16.720052 1.393338-23.635136-0.516051-0.567656-1.083707-1.083707-1.599759-1.548153-0.877287 1.341733-1.909389 2.63186-3.147911 3.767172-6.347427 5.573351-15.791161 5.521746-22.035377 0.154815z m10.42423 14.294613c-2.012599 1.806179-2.167414 4.902485-0.412841 6.915083 1.754573 2.012599 4.902485 2.219019 6.915083 0.412841 2.064204-1.806179 2.219019-4.902485 0.412841-6.915083-1.754573-2.012599-4.850879-2.219019-6.915083-0.412841z" fill="#2B2622" /><path d="M465.116767 290.278688c-2.838281-12.075593-7.58595-25.69934-15.1719-35.659124-11.456332-15.48153-4.541249 31.891952-4.180013 34.110971 1.341733 7.637555 2.941491 15.326715 3.818778 23.015874 4.076803 27.711939-41.129265-9.185708-46.547801-14.243007-7.68916-7.327924-13.984982-14.810664-20.900065-22.706244-38.65222-43.81273-88.812377-76.530363-149.65479-60.945623-68.634783 19.661543-105.171194 88.709167-117.195183 154.454064-1.393338 8.411631 5.573351 23.686741 16.255607 20.796855 3.973593-0.980497 5.779771-5.16051 6.450637-8.824472 13.159301-64.24835 54.649801-131.025349 127.980649-131.334979 41.07766 1.186917 71.679484 23.480321 100.78476 50.160157 29.105276 26.989467 62.855012 55.578693 103.261805 62.855012 7.58595 1.290128 25.69934 2.993096 21.828957-10.21781-2.63186-9.701759-9.908179-19.506728-14.294612-28.43441-5.16051-10.52744-9.546944-21.467722-12.436829-33.027264zM395.243461 220.663408c4.541249 5.108905 12.385224 8.360026 17.442524 7.173109 5.108905-1.186917 5.573351-6.295822 1.032102-11.456333-11.043491-12.488434-22.706244-24.047977-36.897647-31.840346-15.429925-8.463236-31.788742-11.869173-50.005341-6.347428-4.799274 1.444943-4.799274 6.760268 0.051605 11.765963 4.799274 5.0573 12.64325 7.947185 17.442523 6.502243 10.733861-3.251121 19.145492-1.960994 26.112181 1.857783 8.205211 4.541249 16.462027 12.95288 24.822053 22.345009zM716.227183 300.290077c-2.42544 5.624956-1.032102 12.385224 3.870383 16.513632 6.037797 5.0573 15.017084 4.334828 20.074384-1.651363 5.108905-5.986192 4.334828-15.017084-1.702968-20.074384-0.516051-0.412841-0.980497-0.774077-1.496548-1.135312-0.567656 1.238522-1.290128 2.42544-2.21902 3.560752-4.644459 5.470141-12.591644 6.553848-18.526231 2.786675z m10.579046 10.785466c-1.496548 1.754573-1.290128 4.386434 0.516051 5.882981 1.702968 1.496548 4.386434 1.238522 5.882981-0.464445 1.496548-1.754573 1.290128-4.386434-0.464446-5.882982-1.857784-1.548153-4.489644-1.341733-5.934586 0.464446z" fill="#2B2622" /><path d="M593.819886 322.686691c-1.960994-10.372625-2.941491-22.603034-0.464446-32.975659 3.560752-15.945976 14.501033 23.325505 14.965479 25.183288 1.599758 6.399032 3.044701 12.901275 4.95409 19.248703 6.347427 23.015875 28.847251-21.312906 31.375901-27.092678 3.457542-8.360026 5.831376-16.358817 8.514841-24.873658 15.068689-47.425087 42.935443-90.15411 95.572645-98.926977 60.223152-8.308421 112.395908 32.924054 144.39107 79.987905 3.973593 6.089402 3.715567 20.384015-5.57335 21.777352-3.405937 0.567656-6.192612-2.064204-7.998791-4.644459-32.356398-45.515698-87.62546-83.290631-144.803911-58.313763-31.582321 15.068689-47.786323 42.935443-61.255253 73.743688-13.468931 31.014665-29.879353 64.867611-58.829814 84.425944-5.521746 3.612357-18.990677 11.198307-20.53883-0.412841-1.290128-8.463236 0.980497-18.577836 1.341732-27.041072 0.412841-10.062995 0-20.074384-1.651363-30.085773zM624.266895 244.453359c-1.806179 5.573351-6.760268 10.733861-11.146701 11.611147-4.334828 0.825682-6.502243-2.993096-4.696065-8.566446 4.334828-13.520536 9.443733-26.525021 17.80376-37.465303 9.030893-11.869173 20.693645-20.177594 36.742831-22.138588 4.283223-0.516051 6.037797 3.612357 4.025198 9.185708-2.064204 5.573351-7.173109 10.52744-11.404727 11.043491-9.495338 1.186917-15.58474 5.005695-19.661543 10.424231-4.850879 6.295822-8.360026 15.739556-11.662753 25.90576z" fill="#2B2622" /><path d="M663.744797 697.494532c-2.373835-5.212115-7.68916-10.475835-11.765963-11.765963-4.128408-1.290128-5.521746 1.909389-3.096306 7.069899 8.102001 17.700549 18.784256 33.49171 31.375901 47.941138 6.244217 7.173109 12.95288 13.933377 19.971173 20.384014-23.06748-1.135312-46.134959-1.806179-69.150834-1.806178-23.738346-2.167414-46.44459-2.63186-68.376757-1.290128-33.59492 2.115809-65.332057 8.514842-96.088696 19.661544-2.683465 0.980497-1.909389 5.728166 1.702968 10.940281 3.715567 5.315325 9.134103 8.979287 12.075593 8.205211 39.684322-10.21781 80.349141-15.27511 121.530011-17.184499 13.520536-0.619261 27.144283-0.877287 40.871239-0.928891 5.728166 0.567656 11.507937 1.186917 17.390919 1.909388-3.405937 6.708663-7.069899 13.004485-11.198307 19.093887-7.018294 10.52744-15.068689 20.280804-24.460817 29.879353-1.960994 2.012599 0 7.637555 4.334828 12.64325 4.334828 4.95409 9.443733 7.431134 11.404727 5.418535 9.701759-9.959784 17.958575-19.867964 24.976869-30.498614 7.121504-10.682256 13.210906-22.138588 18.577836-35.039863 0.309631-0.722471 0.361236-1.651363 0.20642-2.73507 14.243008 0.464446 28.53762 1.135312 42.883838 1.909389 1.754573 0.10321 2.889886-0.928892 2.889886-3.044701-0.10321-3.921988-3.973593-10.062995-8.721262-13.726957-12.540039-9.701759-23.944766-19.919569-33.698131-31.06627-9.495338-10.733861-17.494129-22.603034-23.635135-35.968755z" fill="#2B2622" /></svg>