<?xml version="1.0" standalone="no"?><!DOCTYPE svg PUBLIC "-//W3C//DTD SVG 1.1//EN" "http://www.w3.org/Graphics/SVG/1.1/DTD/svg11.dtd"><svg class="icon" width="200px" height="200.00px" viewBox="0 0 1024 1024" version="1.1" xmlns="http://www.w3.org/2000/svg"><path d="M156.260243 740.017135c-9.340523-5.108905-7.121504-10.579046 5.0573-12.178804 12.178804-1.651363 29.621327 1.186917 39.013455 6.244217 36.32999 19.816358 73.795293 38.136169 112.395908 55.062642 38.54901 16.823263 78.130121 32.201582 118.69173 46.083354 12.694855 4.334828 15.997581 10.372625 7.431135 13.520536-8.618052 3.199516-25.854155 2.219019-38.54901-2.115809-43.503099-14.862269-85.612861-31.221086-126.226075-48.97324-40.613214-17.752154-79.884695-36.949252-117.814443-57.642896z" fill="#2B2622" /><path d="M341.832183 218.289573c-19.197097 58.726604-185.210704 98.875372-201.517916 65.022426 29.208487-100.423525 102.487729-139.643401 201.517916-65.022426z" fill="#050509" /><path d="M160.956307 281.19619c-0.877287 2.993096-10.785466 6.347427-22.190193 7.534345-11.404727 1.135312-19.971174-0.361236-19.145492-3.354332 7.379529-25.338104 17.597339-46.857431 30.292194-63.732298 13.984982-18.526231 31.840347-31.995162 53.204858-39.529507 29.982563-10.475835 61.048833-11.869173 92.424734-2.73507 20.693645 6.037797 42.883838 17.494129 66.209343 35.039863 3.147911 2.373835-3.147911 6.037797-14.139797 8.153605-10.940281 2.115809-22.396613 1.909389-25.544525-0.516051-22.241798-16.771658-42.832233-27.505518-61.668094-33.027264-13.572141-3.921988-23.325505-4.592854-29.518117-2.477044-14.655848 5.16051-28.279595 16.204001-40.406794 32.356397-12.333619 16.358817-22.241798 37.413698-29.518117 62.287356z" fill="#2B2622" /><path d="M207.607317 300.496498c81.432848-39.219876 179.224512-5.005695 218.444389 76.427153 39.271481 81.381243 5.0573 179.224512-76.375548 218.444388-81.381243 39.219876-179.224512 5.0573-218.444389-76.375548-39.271481-81.432848-5.005695-179.276118 76.375548-218.495993z" fill="#FFFFFF" /><path d="M201.105075 286.924356h0.051605v0.051605c44.431991-21.416117 93.405231-22.809454 136.547095-7.740765 43.038653 15.068689 80.452351 46.599405 101.868467 91.031397l0.051605-0.051605 0.051605 0.10321v0.051605h-0.051605c21.416117 44.535201 22.809454 93.456836 7.68916 136.547095-15.068689 43.090259-46.599405 80.452351-90.979791 101.920072v0.051605l-0.051605 0.051605h-0.051605v-0.051605c-44.483596 21.416117-93.405231 22.757849-136.5987 7.68916v0.051605c-43.038653-15.068689-80.452351-46.599405-101.920073-91.083001h-0.051605v-0.051605l-0.051605-0.051605h0.051605c-21.364511-44.483596-22.757849-93.405231-7.740765-136.49549l0.051605-0.051605c15.120294-43.038653 46.65101-80.452351 91.083002-101.868468l-0.051605-0.051605 0.10321-0.051605z m13.107695 27.092678v0.051605h-0.051605l-0.051605 0.051605-0.051605-0.051605c-36.846041 17.80376-63.113037 48.921635-75.704682 84.787179l0.051605 0.051605c-12.540039 35.91715-11.456332 76.581968 6.347428 113.479615h0.051605l0.051605 0.051605-0.051605 0.051605c17.80376 36.846041 48.921635 63.113037 84.787179 75.653077l0.051605 0.051605c35.91715 12.540039 76.530363 11.404727 113.479615-6.347427v-0.051605h0.10321v0.051605c36.846041-17.80376 63.061432-48.921635 75.601472-84.838785 12.540039-35.968755 11.456332-76.633574-6.347427-113.53122h-0.051606v-0.051605l-0.051605-0.051605 0.051605-0.051605c-17.80376-36.846041-48.921635-63.009827-84.787179-75.549866-35.865545-12.64325-76.581968-11.507937-113.42801 6.244217z" fill="#2B2622" /><path d="M268.088495 380.639218c28.847251-4.541249 58.520183 10.011389 71.885904 37.671723 16.358817 33.852946 2.012599 74.620975-31.788742 90.928186-33.904551 16.307212-74.56937 2.064204-90.928186-31.840347-1.341733-2.786675-2.477045-5.624956-3.405936-8.514841 6.399032-0.980497 12.84967-2.941491 18.990676-5.934587 31.06627-14.862269 45.618908-50.366578 35.246284-82.310134z m37.310487 61.668094c9.908179-4.799274 21.880562-0.567656 26.628232 9.340524 4.799274 9.908179 0.619261 21.880562-9.340523 26.679836-9.908179 4.799274-21.828957 0.619261-26.679837-9.340523-4.696064-9.959784-0.567656-21.880562 9.392128-26.679837z" fill="#2B2622" /><path d="M729.74772 247.240034c14.862269 46.083354 144.7007 77.923701 157.55037 51.50189-22.603034-78.697778-79.884695-109.557627-157.55037-51.50189z" fill="#050509" /><path d="M871.094089 297.038956c0.670866 2.32223 8.411631 4.95409 17.390918 5.882981 8.927682 0.980497 15.636345-0.20642 14.965479-2.52865-5.676561-19.867964-13.623746-36.742831-23.531925-49.953737-10.888676-14.552638-24.822053-25.131684-41.490501-31.06627-23.428715-8.308421-47.734718-9.495338-72.24714-2.425439-16.255607 4.696064-33.646525 13.572141-51.91473 27.247492-2.52865 1.857784 2.42544 4.747669 10.991886 6.450638 8.618052 1.651363 17.597339 1.548153 20.022779-0.361236 17.442524-13.004485 33.59492-21.364511 48.353978-25.647735 10.630651-3.044701 18.2166-3.560752 23.015875-1.857783 11.507937 4.025198 22.086983 12.74646 31.530716 25.389709 9.650154 12.84967 17.339314 29.363302 22.912665 48.87003z" fill="#2B2622" /><path d="M768.193519 292.084866c70.182936-8.824472 134.224865 40.871239 143.100943 111.00257 8.876077 70.182936-40.819634 134.224865-111.002571 143.152548-70.131331 8.824472-134.224865-40.871239-143.100942-111.00257-8.876077-70.182936 40.819634-134.27647 111.00257-143.152548z" fill="#FFFFFF" /><path d="M766.696971 280.422114h0.051605c38.290984-4.799274 74.930605 6.347427 103.158595 28.227989 28.279595 21.932168 48.147558 54.598196 53.050043 92.88918h0.051605v0.051605l-0.051605 0.051606c4.799274 38.342589-6.347427 74.98221-28.22799 103.261805-21.880562 28.22799-54.598196 48.147558-92.88918 52.998437v0.051606h-0.10321v-0.051606c-38.290984 4.850879-74.930605-6.295822-103.2102-28.227989-28.22799-21.880562-48.147558-54.598196-53.050043-92.940785h-0.051605v-0.103211l0.051605-0.051605c-4.850879-38.290984 6.295822-74.930605 28.22799-103.2102l0.051605-0.051605c21.828957-28.176385 54.598196-48.095953 92.88918-52.946833v-0.051605h0.051605v0.103211z m2.993096 23.37711l-0.051605 0.051605h-0.051605v-0.051605c-31.840347 4.025198-59.036234 20.590435-77.30444 44.12236l0.051605 0.051606c-18.268205 23.531926-27.557123 53.978935-23.583531 85.767676h0.051605l0.051606 0.051605v0.051605l-0.051606 0.051605c4.025198 31.788742 20.590435 58.933024 44.173966 77.20123v0.051605c23.531926 18.268205 53.978935 27.557123 85.819281 23.48032v-0.051605h0.103211v0.051605c31.788742-4.076803 58.933024-20.590435 77.149624-44.173965 18.268205-23.531926 27.557123-53.978935 23.531926-85.819282v-0.051605l-0.051605-0.10321h0.051605c-4.025198-31.737137-20.590435-58.881419-44.122361-77.20123-23.480321-18.2166-53.978935-27.505518-85.767676-23.48032z" fill="#2B2622" /><path d="M793.118782 366.602631c22.551429 3.818777 40.974449 22.035378 43.967546 45.825328 3.715567 29.208487-17.029683 55.939928-46.186565 59.603891-29.208487 3.663962-55.888323-16.978078-59.552285-46.23817-0.309631-2.42544-0.412841-4.799274-0.361236-7.121503 5.005695 0.825682 10.21781 0.980497 15.533135 0.30963 26.731442-3.354332 46.34138-26.112181 46.599405-52.379176z m12.385224 55.011036c8.566447-1.032102 16.410422 5.005695 17.442524 13.572142 1.083707 8.566447-5.005695 16.410422-13.572141 17.442523-8.566447 1.083707-16.410422-4.95409-17.442524-13.520536-1.083707-8.566447 5.005695-16.358817 13.572141-17.494129z" fill="#2B2622" /></svg>