<?xml version="1.0" standalone="no"?><!DOCTYPE svg PUBLIC "-//W3C//DTD SVG 1.1//EN" "http://www.w3.org/Graphics/SVG/1.1/DTD/svg11.dtd"><svg class="icon" width="200px" height="200.00px" viewBox="0 0 1024 1024" version="1.1" xmlns="http://www.w3.org/2000/svg"><path d="M792.241496 312.210855c-42.058157 41.748526-193.931966-4.283223-191.764552-41.748526 68.944414-73.176032 145.732802-71.524669 191.764552 41.748526z" fill="#050509" /><path d="M618.022678 278.719145c-2.012599 2.219019-11.559542 0.309631-21.261301-4.283223-9.701759-4.592854-15.945976-10.062995-13.881772-12.230409 17.390919-18.474626 35.349494-32.253188 53.204858-40.716424 19.609938-9.340523 40.097163-12.385224 60.739203-8.411631 28.847251 5.470141 54.546591 19.455123 75.653076 42.677418 14.036587 15.37832 26.679837 36.22678 37.516908 62.855012 1.444943 3.612357-5.26372 3.767172-15.068689 0.20642-9.804969-3.509147-18.939072-9.288918-20.384015-12.95288-10.32102-25.389709-22.035378-44.844832-34.781837-58.829814-9.134103-10.062995-16.668447-15.37832-22.603034-16.513632-14.139797-2.683465-30.137378 0.309631-47.167061 8.411631-17.339314 8.205211-34.833443 21.674142-51.966336 39.787532z" fill="#2B2622" /><path d="M163.433352 348.902081c29.311697 46.44459 163.588167 19.455123 167.148919-17.855364-47.321877-80.865192-112.137882-88.605957-167.148919 17.855364z" fill="#050509" /><path d="M314.636295 337.084513c1.393338 2.42544 9.650154 1.702968 18.474626-1.651363 8.824472-3.354332 14.810664-7.998791 13.417326-10.42423-11.920778-20.384015-25.028474-36.22678-38.858641-46.805826-15.120294-11.611148-31.891952-17.132893-49.798921-15.79116-25.028474 1.909389-48.663609 12.591644-69.71849 32.975659C174.167213 308.856524 160.491861 327.950411 147.590586 352.978884c-1.754573 3.405937 3.921988 4.334828 12.64325 2.064204s17.236103-6.915083 18.990676-10.32102c12.333619-23.893161 25.028474-41.696921 37.723329-53.927329 9.134103-8.824472 16.255607-13.210906 21.416116-13.623747 12.282014-0.980497 25.286499 3.973593 38.4458 14.088193 13.314116 10.269415 26.112181 25.750945 37.826538 45.825328zM842.504863 477.347175c-27.144283-39.477902-88.915587-87.161014-145.836013-103.468225-16.720052-4.799274-33.801341-7.173109-50.314972-6.244217-18.2166 1.032102-35.246283 6.089402-50.005342 16.255606-18.629441 12.798065-33.3885 33.49171-42.161367 64.24835-18.939072 66.054528 5.779771 90.979791 42.419393 101.455626 27.144283 7.740765 61.874515 12.282014 94.592148 16.565237l1.960994 0.258026c18.629441 2.42544 36.742831 4.850879 53.359673 7.79237l13.830167 2.52865L842.504863 477.347175z m-167.613365-130.354482c91.392632 26.215391 184.436628 93.714862 221.385879 147.43577 48.044348 69.873305 53.669304 103.2102 33.698131 116.937157-22.757849 15.636345-75.240236 6.141007-136.237464-4.902484l-13.726957-2.477045c-15.068689-2.73507-32.098372-4.95409-49.644106-7.224714l-1.754574-0.154815c-36.02036-4.696064-74.259739-9.650154-110.434914-20.022779-84.425944-24.202792-145.939223-65.641687-120.601118-154.092829 9.185708-31.995162 24.718843-53.669304 44.32878-67.18984 16.565237-11.404727 36.278385-17.132893 57.746107-18.319811 23.222295-1.393338 48.818425 2.477045 75.240236 10.01139z m85.561256 229.849115l0.619261 0.10321c52.430782 9.546944 97.430429 17.648944 114.666533 5.779772 16.720052-11.507937 10.733861-41.438895-33.28529-105.377615l-82.000504 99.494633z m0 0z" fill="#2B2622" /><path d="M869.39112 485.862017c-62.080935-90.308925-294.407096-221.69551-343.483546-50.572998-40.045558 139.849821 133.399184 135.205362 237.383461 153.886408 115.750239 20.74525 206.4204 42.522602 106.100085-103.31341z" fill="#FFFFFF" /><path d="M177.98599 379.34909c28.12478-15.636345 79.575064-25.80255 118.640125-18.629441 11.507937 2.115809 22.499824 5.779771 32.149977 11.301517 10.630651 6.089402 19.351913 14.243008 25.234894 24.718843 7.379529 13.262511 10.062995 30.137378 6.141007 51.29547-8.360026 45.412488-30.653429 52.998438-55.836718 48.353978-18.681046-3.457542-40.922844-11.095097-61.874515-18.31981l-1.290128-0.412841c-11.972383-4.128408-23.531926-8.050396-34.472206-11.249912l-9.082498-2.63186-19.609938-84.425944z m139.798216-28.279594c-62.803407-11.559542-138.972534 1.238522-177.263519 22.551428-49.798922 27.660334-63.164642 46.031749-55.269062 60.274757 9.030893 16.204001 43.451494 26.215391 83.445447 37.774933l8.979287 2.580255c9.856574 2.889886 20.796855 6.605453 32.046768 10.475836l1.135312 0.41284c23.06748 7.947185 47.579902 16.410422 72.401955 21.003276 58.055738 10.682256 107.441818 4.128408 118.640125-56.6624 4.076803-21.983773 1.186917-39.684322-6.605453-53.669304-6.605453-11.817568-16.720052-21.158091-29.260091-28.279595-13.520536-7.79237-30.085773-13.107695-48.250769-16.462026zM197.595928 463.775034l-0.361236-0.10321c-34.420602-9.908179-63.938719-18.526231-70.750592-30.808245-6.605453-11.920778 5.934587-28.12478 51.50189-53.462884l19.609938 84.374339z m0 0z" fill="#2B2622" /><path d="M159.201734 376.459205c64.35156-35.762334 243.421257-45.360883 221.79872 72.24714-17.700549 96.088696-120.704329 41.438895-188.823061 21.622537-75.859497-22.086983-136.90833-36.12357-32.975659-93.869677zM310.146651 687.483143c2.012599 13.210906 4.076803 26.473416 6.089402 39.684322 94.643753-3.560752 166.839288 9.650154 228.920224 30.498614-14.243008-55.423877-106.822557-71.679484-235.009626-70.182936z" fill="#FFFFFF" /><path d="M323.409162 692.850073l4.386433 28.43441c41.18087-0.619261 78.388147 1.960994 112.550724 6.915084 32.408003 4.696064 62.02933 11.559542 89.586453 19.867963-8.669657-20.796855-30.137378-34.420602-61.100438-42.625813-36.32999-9.546944-86.490148-13.004485-145.423172-12.591644z m-20.022779 31.788742l-6.089402-39.684322h0.051605c-0.258026-1.651363 1.857784-2.786675 5.882982-2.838281 66.518974-0.774077 124.471501 3.199516 168.748677 14.913874 47.218667 12.488434 77.975306 32.459608 85.922491 62.700197 0.361236 0.774077 0.20642 1.496548-0.464445 2.115809-2.167414 1.909389-9.443733 1.702968-16.255607-0.567656-29.053671-9.753364-60.481177-17.752154-95.675855-22.86106-35.762334-5.212115-75.653077-7.48274-121.11717-5.831376-2.012599 0.10321-4.592854-0.051605-7.379529-0.619261-7.121504-1.444943-13.210906-4.696064-13.623747-7.327924zM403.809908 795.079776c5.728166 1.909389 12.127199 7.224714 14.294612 11.869173 2.219019 4.644459-0.670866 6.863478-6.399032 4.95409-23.893161-7.89558-37.052462-23.841556-39.426296-47.786323-0.361236-3.870383 4.231618-4.386434 10.32102-1.186917 6.141007 3.199516 11.404727 8.927682 11.765962 12.798065 1.186917 11.198307 4.334828 17.648944 9.443734 19.351912z m48.663609-8.205211c5.728166 1.960994 12.127199 7.327924 14.243008 11.920778 2.115809 4.592854-0.825682 6.760268-6.553848 4.799275l-0.258025-0.10321-0.258026-0.103211h-0.051605l-0.10321-0.051605c-2.477045-0.877287-4.902485-1.960994-7.276319-3.199516-2.889886-1.548153-5.624956-3.302726-8.256816-5.36693-10.630651-8.308421-16.668447-18.990677-17.958575-31.943557-0.361236-3.870383 4.231618-4.386434 10.372625-1.186918 6.089402 3.199516 11.353122 8.927682 11.765963 12.798065 0.619261 6.502243 1.702968 10.52744 3.199516 11.972383l0.567656 0.206421 0.464446 0.154815 0.10321 0.10321zM694.914277 476.521494c10.888676 3.251121 19.093887 13.05609 19.506728 24.564027 0.516051 14.088192-10.785466 25.492919-25.234894 25.38971-14.449428-0.10321-26.576627-11.662753-27.144283-25.750945-0.051605-1.186917 0-2.32223 0.103211-3.457542 2.42544 0.722471 4.95409 1.135312 7.637554 1.135312 13.262511 0.10321 23.841556-9.443733 25.131684-21.880562z m3.612357 26.937862c4.231618 0.051605 7.79237 3.405937 7.947185 7.534345 0.154815 4.128408-3.147911 7.48274-7.379529 7.431134-4.231618 0-7.79237-3.405937-7.947185-7.534345-0.154815-4.128408 3.147911-7.48274 7.379529-7.431134zM251.213627 413.408456c7.534345-1.290128 15.429925 2.167414 19.093887 8.927683 4.541249 8.360026 1.135312 18.577836-7.58595 22.809454-8.721262 4.231618-19.506728 0.928892-24.047976-7.379529-0.361236-0.670866-0.670866-1.393338-0.928892-2.11581 1.702968-0.309631 3.302726-0.774077 4.954089-1.548153 7.947185-3.921988 11.507937-12.84967 8.514842-20.693645z m10.269415 15.06869c2.52865-1.238522 5.728166-0.258026 7.018293 2.167414 1.341733 2.42544 0.309631 5.418536-2.219019 6.708663-2.52865 1.238522-5.728166 0.258026-7.069899-2.167414-1.290128-2.42544-0.309631-5.418536 2.270625-6.708663z" fill="#2B2622" /></svg>