<?xml version="1.0" standalone="no"?><!DOCTYPE svg PUBLIC "-//W3C//DTD SVG 1.1//EN" "http://www.w3.org/Graphics/SVG/1.1/DTD/svg11.dtd"><svg class="icon" width="200px" height="200.00px" viewBox="0 0 1024 1024" version="1.1" xmlns="http://www.w3.org/2000/svg"><path fill="#333333" d="M844.7 493.7L512.9 838.1 181.4 496c-27.7-34-42.8-76.6-42.7-120.6 0-104.4 83.8-189.3 186.7-189.3 62.7 0 121.2 31.8 155.5 84.5l31.2 47.4 31.2-47.4c34.3-52.7 92.8-84.5 155.5-84.5 102.9 0 186.7 85 186.7 189.3-0.2 44-15.3 86.9-40.8 118.3m-146-382.6c-70.3 0-137.7 28.6-186.7 79.3-49-50.7-116.3-79.4-186.7-79.3C181.2 111.1 64 229.7 64 375.5c0 61.3 21.2 120.9 61.8 170.5l333.6 344.4c13.8 14.4 32.8 22.5 52.6 22.5 20 0 38.6-8 52.6-22.4l335.7-346.9c38.6-47.5 59.7-106.8 59.7-168.1 0-145.8-117.2-264.4-261.3-264.4"  /></svg>