<?xml version="1.0" standalone="no"?><!DOCTYPE svg PUBLIC "-//W3C//DTD SVG 1.1//EN" "http://www.w3.org/Graphics/SVG/1.1/DTD/svg11.dtd"><svg class="icon" width="200px" height="200.00px" viewBox="0 0 1024 1024" version="1.1" xmlns="http://www.w3.org/2000/svg"><path fill="#333333" d="M750.933333 341.333333c-16.110933 0-30.72 5.8368-42.3936 15.189334A85.265067 85.265067 0 0 0 631.466667 307.234133a83.285333 83.285333 0 0 0-20.309334 2.730667l36.0448-197.870933c0.9216-4.9152 1.365333-9.9328 1.365334-14.916267V77.482667c0-42.7008-32.187733-77.482667-71.816534-77.482667-33.1776 0-61.883733 24.302933-69.700266 58.811733l-78.711467 323.1744-62.2592-310.920533C358.6048 29.866667 325.0176 0 286.208 0 241.322667 0 204.834133 39.492267 204.834133 88.029867v8.0896c0 5.700267 0.512 11.400533 1.570134 17.271466l83.6608 416.904534-29.627734 29.661866C224.017067 600.098133 204.8 654.336 204.8 716.8c0 169.3696 137.8304 307.2 307.2 307.2 163.6352 0 307.2-151.517867 307.131733-324.266667v-187.050666L819.2 512v-102.4c0-37.649067-30.6176-68.266667-68.266667-68.266667z m-119.466666 0c28.228267 0 51.2 22.971733 51.2 51.2v102.4c0 28.228267-22.971733 51.2-51.2 51.2-5.802667 0-11.537067-1.024-17.1008-3.106133a85.0944 85.0944 0 0 0-3.310934-20.036267c-0.512-1.8432-1.467733-3.4816-2.082133-5.256533a82.363733 82.363733 0 0 0-6.2464-13.789867 80.213333 80.213333 0 0 0-5.700267-8.226133 73.966933 73.966933 0 0 0-6.417066-7.406933 75.639467 75.639467 0 0 0-8.874667-7.9872c-0.546133-0.4096-0.9216-0.955733-1.501867-1.3312V392.533333c0-15.291733 6.894933-28.910933 17.544534-38.2976l0.853333-0.682666c8.942933-7.509333 20.309333-12.219733 32.836267-12.219734z m-91.2384-274.7392c4.334933-19.114667 19.3536-32.4608 36.488533-32.4608C597.469867 34.133333 614.4 53.589333 614.4 77.482667v19.694933c0 2.935467-0.238933 5.870933-0.785067 8.772267l-41.028266 225.109333A85.026133 85.026133 0 0 0 546.133333 392.567467v69.905066l-15.2576-6.314666c-25.531733-10.581333-54.135467-14.267733-82.568533-12.0832l91.921067-377.480534zM239.889067 106.973867A60.8256 60.8256 0 0 1 238.933333 96.119467v-8.0896C238.933333 58.299733 260.130133 34.133333 286.173867 34.133333c22.289067 0 41.745067 18.090667 46.318933 43.3152l74.922667 374.0672a187.255467 187.255467 0 0 0-58.2656 28.296534l-29.457067 24.746666L239.889067 106.973867zM784.9984 699.733333c0 154.555733-127.5904 290.133333-273.066667 290.133334-148.002133 0-273.066667-125.064533-273.066666-273.066667 0-53.8624 16.213333-100.1472 46.216533-133.3248l33.041067-33.109333 52.087466-43.7248c41.642667-30.6176 100.9664-38.263467 147.592534-18.978134l35.566933 14.711467c0.6144 0.273067 1.1264 0.785067 1.7408 1.092267 0.2048 0.1024 0.273067 0.341333 0.477867 0.443733 7.441067 3.720533 13.550933 9.693867 17.851733 16.964267 0.512 0.9216 0.785067 1.9456 1.262933 2.901333 1.399467 2.798933 2.7648 5.632 3.652267 8.704 1.160533 4.334933 1.877333 8.9088 1.877333 13.6192 0 1.501867-0.2048 2.9696-0.273066 4.471467l-0.136534 1.6384 0.034134 0.1024c-1.911467 23.04-14.1312 44.987733-33.757867 44.987733h-17.066667c-39.082667 0-76.356267 19.2512-109.3632 55.808l-38.434133 33.792a17.1008 17.1008 0 0 0 22.562133 25.634133l39.8336-35.1232c27.613867-30.481067 56.354133-45.943467 85.435734-45.943466h17.066666c30.0032 0 54.1696-21.9136 63.726934-54.203734 7.0656 1.9456 14.336 3.003733 21.6064 3.003734 25.429333 0 48.059733-11.434667 63.6928-29.115734 12.356267 17.544533 32.699733 29.115733 55.773866 29.115734 12.458667 0 23.995733-3.618133 34.065067-9.454934V699.733333zM785.066667 511.658667l-0.068267 0.341333v0.341333c-0.2048 18.6368-15.394133 33.792-34.065067 33.792-18.807467 0-34.133333-15.325867-34.133333-34.133333v-102.4c0-18.807467 15.325867-34.133333 34.133333-34.133333s34.133333 15.325867 34.133334 34.133333v102.058667z" /></svg>