<?xml version="1.0" standalone="no"?><!DOCTYPE svg PUBLIC "-//W3C//DTD SVG 1.1//EN" "http://www.w3.org/Graphics/SVG/1.1/DTD/svg11.dtd"><svg class="icon" width="200px" height="200.00px" viewBox="0 0 1024 1024" version="1.1" xmlns="http://www.w3.org/2000/svg"><path d="M320.725697 655.126745c188.823061-21.209696 369.750542-95.933881 546.962455-159.820995-73.898503 104.139092-61.564884 214.986847-14.552638 332.543265-280.215693 146.661694-467.748627 17.081288-532.409817-172.72227z" fill="#2B2622" /><path d="M311.178753 640.935342l0.206421-0.051605c160.337046-18.061785 315.616792-75.188631 467.697021-131.231769 22.809454-8.411631 45.773724-16.874868 76.685179-27.969964 6.244217-2.270624 16.668447 1.960994 23.222295 9.495338 5.26372 5.986192 6.502243 12.333619 3.560752 15.739556-35.865545 50.676208-50.831024 102.900569-51.089049 156.673083-0.258026 53.824119 14.191403 109.351207 37.104067 166.581263 2.012599 5.005695 0.825682 9.030893-2.52865 10.785466h0.051605c-31.117875 16.307212-61.306859 29.260092-90.515346 39.219876-104.655143 35.607519-195.325304 31.014665-269.688252-0.30963-77.20123-32.511213-135.927833-92.373129-174.322028-165.807187-10.372625-19.867964-19.300307-40.716424-26.628232-62.23575-2.064204-5.986192 0.670866-10.269415 6.244217-10.888677z m491.899814-103.984276c-150.274051 55.320667-303.644409 111.828252-463.052563 131.231769 6.037797 16.410422 13.004485 32.201582 20.900066 47.321877 32.717633 62.493776 81.536058 112.963564 144.752305 139.591796 66.002923 27.815149 148.519478 31.117875 246.414353-2.167415 26.318601-8.979287 53.824119-20.64204 82.56816-35.349493-22.293403-57.539687-36.22678-113.582825-35.968755-168.077811 0.20642-41.28408 8.566447-81.587663 27.557124-120.962354l-23.17069 8.411631z" fill="#2B2622" /><path d="M557.954342 883.943759c9.701759-71.473064 78.542962-152.235045 178.0892-100.887971-12.798065-9.753364-29.982563-15.068689-51.50189-16.100791 61.668095-66.467369 137.992037-8.772867 164.001008 56.301164-114.666532 59.913521-209.103865 78.336542-290.588318 60.687598z" fill="#D22220" /><path d="M539.840951 888.433402c2.270624-16.565237 7.637555-33.59492 15.739556-49.334475 11.249912-21.777352 28.12478-41.748526 49.953737-55.630298 21.725747-13.830167 46.134959-22.654639 72.659981-24.047977 10.269415-8.669657 21.467722-15.27511 33.440104-20.074384 26.731442-10.733861 50.624603-11.765963 70.957013-5.779771 16.204001 4.747669 31.427506 14.191403 44.690017 26.525021 16.978078 15.68795 30.808245 36.22678 39.323086 57.539687 0.722471 1.857784-2.32223 4.644459-7.48274 7.173109-61.564884 32.098372-118.69173 53.308068-172.257824 64.35156l-1.599758 0.30963c-52.533992 10.579046-99.804263 10.888676-142.791311 1.599758-2.115809-0.464446-2.941491-1.393338-2.631861-2.63186z m51.605101-57.230056c-7.68916 14.862269-12.798065 30.75664-15.120295 46.23817 36.949252 7.58595 75.911102 7.431134 117.556418-1.032102l0.928892-0.206421c40.355188-8.308421 84.941995-24.822053 134.534496-50.108552-8.411631-19.867964-21.519327-38.85864-37.362093-53.617699-12.540039-11.611148-26.731442-20.487225-41.59371-24.822053-10.682256-3.147911-19.506728-4.076803-24.976869-1.857783-5.831376 2.32223-12.436829 6.966689-19.867963 14.294612 8.824472 0.825682 16.874868 2.373835 24.151186 4.644459 9.082498 2.838281 16.978078 6.811873 23.738347 11.972384 2.683465 2.012599-2.012599 6.192612-10.940282 9.701758-9.340523 3.663962-19.867964 5.108905-23.428715 3.251122-15.636345-8.050396-30.240589-12.694855-43.761125-14.501033-17.287709-2.373835-31.221086 0.928892-41.851736 7.68916-17.494129 11.198307-31.840347 28.589225-42.006551 48.353978z" fill="#2B2622" /><path d="M357.313713 724.277579c151.667389-56.76561 309.42418-106.925767 467.490601-140.159452 8.308421-30.137378 8.308421-55.062642 28.898856-84.167918-177.160308 63.887114-337.187724 133.96684-526.010785 155.176536 8.566447 25.028474 16.874868 46.702616 29.621328 69.150834z m478.637302 72.195535c-96.140301 39.168271-192.693444 67.138235-293.942649 83.548657 84.425944 23.17069 182.011188 14.036587 304.160459-49.902132-4.489644-11.249912-6.399032-22.448219-10.21781-33.646525z" fill="#FFFFFF" /><path d="M371.969561 711.84075c72.401955-26.834652 146.042433-52.121151 220.405382-74.77579 72.04072-21.932168 144.803911-41.38729 217.773522-57.436476 2.580255-11.095097 4.489644-21.725747 7.173109-32.046768 2.838281-10.52744 6.502243-21.054881 12.64325-32.046767-24.047977 8.772867-46.34138 17.081288-68.479968 25.338104-135.360177 50.469788-265.198609 98.926977-411.911908 119.775438 2.73507 7.637555 5.521746 15.017084 8.566446 22.190193 4.076803 9.804969 8.566447 19.351913 13.830167 29.002066z m212.974248-58.210553c-76.788389 23.37711-152.751096 49.644106-227.217256 77.459255-8.411631 3.354332-15.945976 3.921988-17.494128 1.135312-6.399032-11.301517-11.714358-22.345008-16.513632-33.80134-4.799274-11.456332-8.979287-23.06748-13.262511-35.504309-0.619261-1.444943 0.309631-3.612357 2.993096-6.192612 5.521746-5.315325 16.410422-10.372625 24.254397-11.198307 151.770599-17.029683 285.531018-66.931815 425.484049-119.156176 31.324296-11.662753 63.009827-23.480321 91.960289-33.90455 1.702968-0.619261 3.354332-1.135312 5.005694-1.496548 8.979287-2.115809 13.365721 0.20642 9.856574 5.212115-9.701759 13.675352-14.604243 26.525021-18.061785 39.529506-3.612357 13.726957-5.624956 27.299098-9.804969 42.522603-0.20642 0.774077-0.670866 1.651363-1.444942 2.63186-3.973593 5.0573-14.294613 10.682256-23.015875 12.488434-77.820491 16.255607-155.640982 36.846041-232.739001 60.274757z m235.474071 156.105428c-44.431991 17.494129-88.967192 32.717633-134.018444 45.567303-30.705035 8.772867-61.616489 16.462027-92.992391 23.015875 30.137378 4.541249 61.874515 4.850879 95.624251-0.103211 42.006551-6.192612 87.677065-20.693645 137.992037-45.567303-1.651363-4.850879-2.941491-9.598549-4.180013-14.294613-0.774077-2.889886-1.599758-5.779771-2.42544-8.618051z m-124.987552 28.53762c47.063851-13.417326 93.508441-29.621327 139.849821-48.508794 8.979287-3.663962 16.874868-4.128408 17.958575-0.928892 1.754573 5.108905 2.993096 9.856574 4.283223 14.552638 1.702968 6.295822 3.405937 12.74646 5.831377 18.784257 1.548153 2.786675-3.354332 8.102001-11.765963 12.488434-66.364159 34.730232-126.122864 54.598196-180.721061 62.596986-52.792017 7.740765-100.217104 4.180013-143.823413-7.79237l0.051605-0.051605c-3.096306-0.877287-3.354332-3.457542-0.10321-6.966688 4.799274-5.212115 15.37832-10.52744 23.68674-11.869173 49.17966-7.947185 97.224008-18.732651 144.752306-32.304793zM216.43179 237.17704c-8.463236 0-14.707454-2.838281-13.830167-6.399033 0.825682-3.560752 8.360026-6.399032 16.823262-6.399032 47.476692-0.051605 90.0509 1.032102 129.115961 2.993096 39.116666 1.960994 74.56937 4.799274 107.699843 8.153606 8.050396 0.774077 12.385224 4.231618 9.598549 7.689159-1.290128 1.651363-3.973593 2.993096-7.276319 3.870383C405.770902 261.276621 354.423827 276.603336 305.502192 293.581414c-48.818425 16.978078-95.469435 35.710729-138.920929 56.86882-5.779771 2.786675-15.533135 3.354332-21.777352 1.238523-6.244217-2.115809-6.605453-6.141007-0.825682-8.927683 44.844832-21.777352 92.88918-41.129265 143.255758-58.623393 22.706244-7.89558 45.825329-15.429925 69.357254-22.603034-13.830167 2.219019-27.660334 4.644459-41.38729 7.276319-43.761125 8.360026-87.057804 18.887467-129.580406 32.304793-7.069899 2.219019-16.668447 1.857784-21.364512-0.928892-4.696064-2.73507-2.786675-6.760268 4.334829-8.979288 44.741622-14.191403 90.15411-25.183289 136.082649-33.956155 28.692436-5.470141 57.642897-10.062995 86.696568-14.036588-15.842766-1.186917-32.304793-2.219019-49.437686-3.0447-37.826538-1.960994-79.213829-3.044701-125.503603-2.993096z m504.285037-116.317896c6.244217-2.63186 15.997581-2.838281 21.725747-0.516051 5.779771 2.32223 5.36693 6.399032-0.877286 9.030893-32.356398 13.623746-61.152044 26.834652-87.31583 39.684322-7.637555 3.715567-14.965479 7.431134-22.086983 11.095096 13.520536-3.199516 27.092678-6.141007 40.768029-8.824472 35.91715-7.018294 72.401955-12.127199 109.660838-14.604243 8.514842-0.567656 15.791161 1.806179 16.307212 5.315325 0.567656 3.457542-5.934587 6.760268-14.397823 7.327924-33.956156 2.270624-67.551076 7.018294-100.836366 13.520537-9.237313 1.806179-18.423021 3.767172-27.608728 5.831376 13.830167-0.928892 27.608729-1.651363 41.28408-2.167414 42.522602-1.599758 84.116313-1.083707 124.368291 2.373834 8.153606 0.670866 12.694855 4.076803 10.21781 7.534345-2.477045 3.457542-11.095097 5.676561-19.248703 5.005695-37.310487-3.199516-76.014312-3.715567-115.647029-2.21902-39.890742 1.496548-80.968402 5.005695-122.768533 9.753364-4.231618 0.464446-8.772867 0.309631-12.436829-0.774076-6.657058-1.909389-7.740765-5.882981-2.477045-8.824472 22.138588-12.436829 45.876934-25.080079 72.14393-38.032959 26.370206-12.95288 55.733508-26.421811 89.225218-40.510004z" fill="#2B2622" /></svg>