<?xml version="1.0" standalone="no"?><!DOCTYPE svg PUBLIC "-//W3C//DTD SVG 1.1//EN" "http://www.w3.org/Graphics/SVG/1.1/DTD/svg11.dtd"><svg class="icon" width="200px" height="200.00px" viewBox="0 0 1024 1024" version="1.1" xmlns="http://www.w3.org/2000/svg"><path d="M215.967344 358.810261c-4.128408 5.521746-12.84967 6.399032-19.455123 2.064204-6.605453-4.386434-8.618052-12.385224-4.489644-17.90697l4.592854-6.141007c36.846041-48.921635 121.22038-160.956307 182.320819-39.529507 3.354332 6.605453 0.309631 13.830167-6.760269 16.100792-28.795646-39.735927-45.980144-134.018445-151.615783 39.219876l-4.592854 6.192612z m509.961598-119.414202c5.882981 3.560752 14.294613 1.135312 18.835862-5.418535 4.489644-6.553848 3.354332-14.707454-2.52865-18.268206l-6.605453-3.921987c-52.430782-31.530716-172.670665-103.777856-183.817366 31.737136-0.567656 7.431134 4.902485 12.95288 12.282013 12.385224 23.2739-62.080935 17.752154-136.959935 155.279746-20.43562l6.553848 3.921988z" fill="#2B2622" /><path d="M201.466311 602.953989c193.46752-130.302878 400.507181-168.851887 621.015773-115.647029-2.115809 531.480925-570.236355 387.605906-621.015773 115.647029z" fill="#FFFFFF" /><path d="M191.712947 590.62037l0.10321-0.10321 0.20642-0.10321c27.144283-18.268205 54.598196-34.730232 82.310135-49.489291 27.866754-14.759059 55.991534-27.711939 84.271128-38.807036 146.248853-57.384871 299.774026-66.673789 460.575518-27.866754 6.760268 1.651363 13.623746 8.824472 15.429925 15.997581 0.412841 1.548153 0.516051 2.993096 0.412841 4.283224-0.877287 166.116817-56.301164 267.417628-134.121655 319.95162-41.4905 28.021569-89.431638 42.161367-138.92093 44.896437-49.695711 2.73507-100.991181-5.986192-149.035529-23.789951-110.538124-41.026055-203.943355-129.373986-223.966134-236.506174-0.567656-3.973593 0.464446-6.915083 2.735071-8.463236z m0.30963-0.20642c4.386434-2.73507 12.178804 0.464446 17.545734 7.224714l-17.545734-7.224714z m100.939576-24.254398c-26.163786 13.881772-52.172756 29.414907-77.923701 46.599406 19.403518 88.812377 99.701053 162.40125 194.602832 197.647533 44.844832 16.616842 92.940785 24.770448 139.643401 22.190193 46.909036-2.63186 92.424734-16.100791 131.902635-42.729023 72.401955-48.818425 124.523106-141.810815 128.445094-293.220178-150.841707-33.3885-295.387593-23.015875-433.68926 31.27269-27.969964 10.991886-55.630298 23.789951-82.981001 38.239379z" fill="#2B2622" /><path d="M811.903039 601.457441c-6.450638 9.546944 4.334828 11.353122-2.115809 20.84846-41.645316-22.706244-170.761276-13.05609-296.626115 7.069899 104.913168-30.395404 217.051051-45.464093 298.741924-27.918359z" fill="#2B2622" /></svg>