<?xml version="1.0" standalone="no"?><!DOCTYPE svg PUBLIC "-//W3C//DTD SVG 1.1//EN" "http://www.w3.org/Graphics/SVG/1.1/DTD/svg11.dtd"><svg class="icon" width="200px" height="200.00px" viewBox="0 0 1024 1024" version="1.1" xmlns="http://www.w3.org/2000/svg"><path d="M200.279393 345.031699c89.276823 16.720052 181.598347 13.623746 276.293706 0.051605 33.182079-17.494129 45.360883-40.922844 33.336894-69.924911 17.80376-5.676561 15.791161-20.64204 14.191403-41.180869 4.902485 20.125989 0.258026 34.936653-13.778562 44.431991-104.964773 19.145492-200.227788 24.925263-301.167364 16.513632-69.254044-5.779771-87.83188 35.349494-8.876077 50.108552z" fill="#FFFFFF" /><path d="M194.189991 336.258832c42.729023 7.998791 86.541753 11.249912 131.283375 10.888676 44.896437-0.361236 90.566951-4.386434 136.959935-10.991886 3.973593-2.115809 7.68916-4.438039 11.249912-6.915084 3.818777-2.683465 7.069899-5.36693 9.753364-7.99879 8.824472-8.669657 13.572141-18.371416 14.139798-29.053672-43.554704 7.121504-85.716071 11.869173-127.516203 14.191403-50.418183 2.838281-100.423525 2.167414-151.770599-2.115809-22.499824-1.857784-38.85864 1.909389-47.063851 8.102001-2.993096 2.32223-4.902485 4.95409-5.36693 7.689159-0.361236 2.270624 0.10321 4.489644 1.599758 6.450638l0.051605 0.051605c2.373835 3.147911 10.733861 6.708663 26.679836 9.701759z m153.163937 29.466512c-47.425087 0.412841-94.437333-3.147911-140.985133-11.817568-37.104067-6.966689-59.861916-19.351913-69.924911-32.459608-3.870383-5.0573-5.315325-9.959784-4.489643-14.397823 0.670866-4.025198 3.302726-7.740765 7.534344-10.991886 10.475835-7.947185 31.582321-12.84967 60.635993-10.42423 49.592501 4.128408 97.740059 4.799274 146.403669 2.064204 47.786323-2.683465 96.088696-8.618052 146.610089-17.70055-0.412841-1.806179 0.567656-3.044701 2.580255-3.663962h-0.051605c3.663962-1.186917 6.399032-2.889886 8.308421-5.16051 1.290128-2.012599 2.42544-4.180013 3.251121-6.502242 1.651363-6.244217 1.032102-14.397823 0.258026-23.841557l-0.206421-2.528649c-0.258026-4.076803 7.018294-4.799274 16.410422-1.651364 8.876077 2.993096 16.410422 8.463236 17.390919 12.488435h0.051605c2.477045 10.32102 2.63186 19.403518 0.361236 27.247492-0.877287 4.334828-2.52865 8.102001-5.521746 11.146702-2.012599 2.73507-4.438039 5.16051-7.327924 7.379529 6.502243 20.022779 1.909389 37.413698-12.84967 51.966336-3.199516 3.147911-6.760268 6.089402-10.527441 8.772867-3.715567 2.52865-7.89558 5.16051-12.694854 7.68916l-0.258026 0.20642c-0.670866 0.412841-1.548153 0.670866-2.73507 0.877287-47.992743 6.708663-95.366225 10.940281-142.223656 11.301517z" fill="#2B2622" /><path d="M452.576727 289.194981c9.443733 0.361236 17.958575 6.811873 20.53883 16.410421 3.096306 11.765963-3.921988 23.893161-15.68795 26.937863-11.817568 3.096306-23.893161-3.921988-26.989468-15.739556-0.258026-0.980497-0.412841-1.960994-0.516051-2.889885 2.064204 0.051605 4.231618-0.154815 6.399033-0.722472 10.785466-2.786675 17.545734-13.210906 16.255606-23.996371z m8.102001 21.932167c3.457542-0.877287 6.966689 1.186917 7.843975 4.644459 0.928892 3.457542-1.186917 6.966689-4.592854 7.89558-3.457542 0.877287-6.966689-1.186917-7.89558-4.592853-0.877287-3.509147 1.135312-7.069899 4.644459-7.947186z" fill="#2B2622" /><path d="M755.75669 309.269365c33.078869 23.119085 130.096457 38.4458 124.935947-26.937863-4.283223-53.359673-63.422668-29.363302-101.713652-22.396613-42.574208 7.843975-76.633574 12.023988-23.222295 49.334476z" fill="#FFFFFF" /><path d="M766.129315 308.701708c14.397823 10.1146 41.851736 18.577836 63.577483 16.874868 6.399032-0.516051 12.591644-1.909389 18.164996-4.334828 6.141007-2.73507 11.404727-6.657058 15.171899-12.075594 4.747669-6.811873 7.173109-15.842766 6.192612-27.608728-2.012599-25.234894-13.726957-30.601824-27.711939-29.518117-10.372625 0.825682-22.912664 3.715567-34.730232 6.502242l-0.722471 0.154815c-6.760268 1.599758-13.262511 3.096306-19.403518 4.180014l-5.108905 0.928891-15.429925 44.896437z m74.56937 23.325506c-34.885048 2.73507-75.704682-8.463236-95.31462-22.241798-25.59613-17.90697-31.840347-28.692436-26.731442-35.968755 5.831376-8.360026 25.131684-11.817568 47.579902-15.894371l5.0573-0.928892c5.521746-1.032102 11.662753-2.42544 18.061785-3.921987l0.619261-0.154816c13.004485-3.044701 26.834652-6.244217 40.664819-7.327924 32.253188-2.52865 58.778209 3.818777 61.461674 37.568513 0.980497 12.230409-1.599758 21.725747-6.605452 28.898856-4.283223 6.089402-10.32102 10.579046-17.545735 13.778562-7.843975 3.405937-17.132893 5.36693-27.247492 6.192612z m-59.139445-68.170338h-0.258025c-19.300307 3.509147-35.865545 6.553848-40.251978 12.84967-4.283223 6.089402 1.651363 15.68795 25.028473 31.995162l15.48153-44.844832z m0 0z" fill="#2B2622" /><path d="M825.784811 265.71466c7.379529 0.309631 14.088192 5.315325 16.049186 12.84967 2.42544 9.237313-3.096306 18.681046-12.333619 21.106486-9.134103 2.42544-18.629441-3.096306-21.054881-12.333619-0.154815-0.722471-0.309631-1.496548-0.412841-2.270624 1.651363 0.051605 3.302726-0.10321 5.005695-0.516051 8.463236-2.219019 13.778562-10.372625 12.74646-18.835862z m6.347427 17.184498c2.683465-0.722471 5.470141 0.877287 6.192612 3.612357 0.722471 2.683465-0.928892 5.470141-3.612357 6.192612-2.683465 0.670866-5.470141-0.928892-6.192612-3.612357-0.722471-2.73507 0.877287-5.470141 3.612357-6.192612zM616.42292 594.181122c-30.550219 0.361236-55.320667-7.069899-85.354836-23.428716-31.995162-17.442524-38.75543-35.555914-84.477548-27.092677-117.866048 21.880562-66.054528 262.669959-39.168271 243.730887 33.69813-23.738346 72.401955-15.68795 108.783551-22.448218 20.022779-3.715567-3.199516-93.818072 14.655848-119.775437 2.219019-3.251121 10.940281-31.117875 33.440105-29.105277 19.506728 1.702968 44.535201-4.696064 64.506375-11.765963 51.759915-18.319811 24.202792-10.52744-12.385224-10.114599z" fill="#2B2622" /><path d="M594.232727 602.592753c-7.276319-1.032102-14.501033-2.580255-21.725747-4.592854-15.533135-4.334828-30.75664-10.940281-47.270272-19.971174-9.030893-4.902485-16.049186-9.701759-22.396613-14.088192-13.107695-8.979287-22.345008-15.326715-48.87003-10.475835-49.334476 9.185708-66.002923 63.061432-67.241445 116.627526-0.567656 26.318601 2.63186 52.533992 7.585949 73.537268 3.044701 13.05609 6.502243 23.635136 9.804969 30.550219 23.015875-13.05609 47.321877-14.397823 71.576274-15.739556 11.249912-0.670866 22.499824-1.290128 33.233685-3.251121 3.302726-0.619261 2.42544-22.241798 1.393337-46.083354-1.083707-26.834652-2.270624-56.146349 7.58595-70.492567l0.051605-0.051605v-0.051605l0.154815-0.154816 0.774077-1.806178 0.051605-0.051605c4.334828-9.443733 15.120294-32.872449 42.522602-30.447009h0.464446l0.412841 0.051605c1.909389 0.10321 3.921988 0.154815 5.934587 0.10321 2.683465-0.051605 5.26372-0.20642 7.740765-0.516051 5.831376-0.567656 12.075593-1.651363 18.2166-3.096306z m-19.661543-23.119085c11.765963 3.302726 23.738346 4.850879 37.104067 4.696064 9.753364-0.10321 19.197097-0.825682 26.370206-1.341732 16.771658-1.290128 27.815149-2.115809 32.511213 9.753364l0.361236 0.825681c2.064204 5.934587-7.224714 11.043491-32.975659 20.177594-14.965479 5.315325-32.820844 10.269415-49.592501 12.023989-3.612357 0.412841-7.018294 0.619261-10.21781 0.722471-3.302726 0.051605-6.605453 0-9.701759-0.20642l-0.928892-0.051605-0.412841-0.051605c-10.733861-0.877287-18.2166 15.326715-21.261301 21.880562-0.516051 1.083707-0.928892 2.012599-1.290127 2.73507-0.154815 0.361236-0.412841 0.774077-0.619262 1.135312l-0.051605 0.051606c-7.637555 11.249912-6.553848 38.394194-5.521745 63.267852 1.238522 29.621327 2.32223 56.455979-14.759059 59.655496-12.385224 2.270624-24.667238 2.993096-36.949252 3.663962-23.480321 1.290128-47.012246 2.580255-67.757496 17.184498v-0.051605c-9.237313 6.502243-19.403518 4.180013-29.724538-5.212115-8.618052-7.89558-16.874868-26.421811-22.448218-50.005342-5.212115-22.190193-8.566447-49.644106-7.947186-77.046414 1.290128-58.933024 21.261301-118.382099 80.607167-129.373986 41.800131-7.740765 57.281661 2.889886 79.110618 17.855365 5.36693 3.715567 11.353122 7.843975 18.526231 11.714357 13.468931 7.379529 25.59613 12.694855 37.568513 15.997581z" fill="#2B2622" /><path d="M428.683566 707.351106c39.426296-7.327924 76.530363 14.501033 82.929396 48.76682 0.567656 3.147911 0.877287 6.295822 0.877286 9.495338-35.246283 5.573351-72.45356-1.083707-105.016378 21.828957-8.927682 6.295822-20.64204-16.204001-27.918359-49.850526 10.682256-14.965479 28.073174-26.318601 49.128055-30.240589z" fill="#D22220" /></svg>