<?xml version="1.0" standalone="no"?><!DOCTYPE svg PUBLIC "-//W3C//DTD SVG 1.1//EN" "http://www.w3.org/Graphics/SVG/1.1/DTD/svg11.dtd"><svg class="icon" width="200px" height="200.00px" viewBox="0 0 1024 1024" version="1.1" xmlns="http://www.w3.org/2000/svg"><path d="M914.235952 426.000101c-2.115809 10.166205-5.005695 20.280804-8.824472 30.292194h0.051605V456.44711h-0.10321c-19.300307 50.469788-57.178451 88.296326-102.797359 108.68034-45.618908 20.384015-99.030187 23.325505-149.44837 4.128408v0.051606l-0.10321-0.051606-0.051605-0.051605v-0.051605c-50.366578-19.300307-88.244721-57.178451-108.628736-102.848964h-0.051605c-20.384015-45.567303-23.37711-99.030187-4.128408-149.44837l-0.051605-0.051605 0.051605-0.10321h0.051605c3.818777-10.011389 8.411631-19.506728 13.623747-28.53762 10.52744 3.199516 21.054881 7.069899 31.582321 11.404727-5.676561 8.927682-10.52744 18.577836-14.449428 28.847251h0.051605v0.051605l-0.051605 0.10321h-0.051605c-15.945976 41.851736-13.468931 86.283727 3.509146 124.265081v0.051605c16.978078 37.929749 48.405584 69.51207 90.308926 85.509651l0.051605-0.051605h0.051605l0.10321 0.051605v0.051605c41.800131 15.945976 86.232122 13.417326 124.213476-3.560752 38.032959-16.978078 69.563675-48.405584 85.561256-90.308925h-0.051606l0.051606-0.051605v-0.051605h0.051605c3.509147-9.237313 6.141007-18.629441 7.89558-28.02157 10.32102 3.509147 20.84846 6.760268 31.582321 9.546944z" fill="#2B2622" /><path d="M898.341581 421.562062c-1.960994 9.701759-4.747669 19.455123-8.411631 29.002066-35.297888 92.321524-138.766114 138.611299-231.139243 103.313411-92.321524-35.297888-138.611299-138.766114-103.31341-231.139243 3.921988-10.32102 8.721262-20.022779 14.243007-29.105277 63.887114 23.17069 127.154966 67.447866 186.449227 81.123217 47.992743 11.043491 93.405231 32.098372 142.17205 46.805826z" fill="#FFFFFF" /><path d="M111.673436 434.463337c1.857784 7.327924 4.180013 14.604243 6.915084 21.828958h-0.051605V456.44711h0.051605c19.300307 50.469788 57.178451 88.296326 102.848964 108.68034 45.618908 20.384015 99.030187 23.325505 149.44837 4.128408l0.051605 0.051606 0.10321-0.051606 0.051605-0.051605v-0.051605c50.418183-19.300307 88.244721-57.178451 108.628736-102.848964h0.051605c20.384015-45.567303 23.325505-99.030187 4.128408-149.44837l0.051605-0.051605-0.051605-0.10321h-0.051605c-4.386434-11.404727-9.701759-22.190193-15.842766-32.304793-9.804969 2.941491-20.43562 6.966689-31.633926 11.611148 6.657058 9.959784 12.282014 20.796855 16.720052 32.408003h-0.051605v0.051605l0.051605 0.10321h0.103211c15.945976 41.851736 13.468931 86.283727-3.560752 124.265081v0.051605c-16.926473 37.929749-48.405584 69.51207-90.308925 85.509651v-0.051605h-0.051606l-0.10321 0.051605 0.051605 0.051605c-41.800131 15.945976-86.232122 13.417326-124.213475-3.560752-38.032959-16.978078-69.563675-48.405584-85.612861-90.308925h0.10321v-0.051605l-0.051605-0.051605h-0.051605c-2.786675-7.276319-5.005695-14.655848-6.657058-22.035378-10.372625 4.180013-20.64204 8.205211-31.066271 12.023988z" fill="#2B2622" /><path d="M127.154966 428.631961c1.806179 7.327924 4.025198 14.655848 6.811874 21.932167 35.297888 92.321524 138.766114 138.611299 231.139243 103.313411 92.373129-35.297888 138.611299-138.766114 103.31341-231.139243-4.489644-11.714358-10.062995-22.654639-16.513632-32.769239-50.624603 18.835862-116.524316 56.86882-155.486166 70.389357-57.281661 19.867964-112.395908 46.289775-169.264729 68.273547z" fill="#FFFFFF" /><path d="M341.883788 735.527491c-35.246283 3.199516-80.245931 1.186917-100.47513-4.541249-20.229199-5.728166-8.050396-12.95288 27.195888-16.204001 85.612861-7.843975 171.586958-13.881772 258.593156-12.901275 94.437333 1.083707 179.482538 9.856574 247.962506 32.046767 18.11339 5.882981 3.405937 13.004485-32.872449 15.842765-36.278385 2.889886-80.400746 0.412841-98.514136-5.47014-40.510004-13.107695-82.619765-18.2166-125.400393-18.732652-50.314973-0.516051-112.034672 4.076803-176.489442 9.959785zM451.18339 771.23822c-10.837071 1.806179-23.2739-0.516051-27.711939-5.212115-4.438039-4.644459 0.774077-9.908179 11.662752-11.662753 26.370206-4.334828 52.430782-7.327924 77.09802-5.057299 26.783047 2.52865 49.07645 10.630651 63.422668 28.53762 3.767172 4.747669-2.115809 9.804969-13.210906 11.301517-11.095097 1.496548-23.17069-1.135312-26.937862-5.882982-8.463236-10.579046-19.351913-15.171899-31.479111-16.307211-14.139797-1.290128-32.924054 1.032102-52.843622 4.283223zM745.280855 357.571738c12.591644 9.753364 17.90697 26.937862 11.972383 42.574208-7.276319 19.093887-28.795646 28.692436-47.837928 21.416116-19.093887-7.327924-28.692436-28.744041-21.364511-47.889533 0.619261-1.548153 1.290128-3.096306 2.115809-4.489643 2.786675 2.167414 5.934587 3.973593 9.443733 5.315325 17.442524 6.605453 36.897647-0.877287 45.670514-16.926473z m-10.42423 37.826538c5.624956 2.115809 8.411631 8.411631 6.244217 14.036588-2.115809 5.624956-8.411631 8.411631-14.036588 6.295822-5.624956-2.167414-8.411631-8.411631-6.295822-14.036587 2.167414-5.624956 8.463236-8.463236 14.088193-6.295823z" fill="#2B2622" /><path d="M567.965731 240.944212c5.986192-4.386434 16.358817-7.276319 23.06748-6.399032 6.760268 0.877287 7.379529 5.16051 1.393337 9.598548-18.681046 13.778562-30.601824 23.06748-30.447009 30.292194 0.20642 8.205211 13.314116 16.204001 44.844832 27.763544l0.206421 0.051605c48.715214 17.855365 104.809958 39.219876 160.853097 60.532782 54.443381 20.74525 108.938366 41.4905 161.162727 60.584388 5.16051 1.909389 3.354332 6.760268-4.076803 10.888676-7.431134 4.076803-17.648944 5.882981-22.861059 3.973592-48.921635-17.90697-105.119589-39.323086-161.317543-60.739202-54.23696-20.64204-108.47392-41.28408-160.595071-60.377967l-0.309631-0.10321c-35.659124-13.05609-50.469788-22.912664-50.727813-34.214182-0.20642-12.282014 14.965479-24.254397 38.807035-41.851736zM278.66754 357.571738c-12.591644 9.753364-17.90697 26.937862-11.972383 42.574208 7.327924 19.093887 28.795646 28.692436 47.837928 21.416116 19.145492-7.327924 28.692436-28.744041 21.364511-47.889533-0.619261-1.548153-1.290128-3.096306-2.064204-4.489643-2.786675 2.167414-5.986192 3.973593-9.443733 5.315325-17.442524 6.605453-36.949252-0.877287-45.722119-16.926473z m10.475835 37.826538c-5.573351 2.115809-8.411631 8.411631-6.295822 14.036588 2.167414 5.624956 8.463236 8.411631 14.036588 6.295822 5.624956-2.167414 8.411631-8.411631 6.295822-14.036587-2.167414-5.624956-8.463236-8.463236-14.036588-6.295823z" fill="#2B2622" /><path d="M455.982664 240.944212c-5.986192-4.386434-16.358817-7.276319-23.119085-6.399032-6.760268 0.877287-7.379529 5.16051-1.393338 9.598548 18.732651 13.778562 30.601824 23.06748 30.447009 30.292194-0.20642 8.205211-13.262511 16.204001-44.844832 27.763544l-0.154815 0.051605c-48.715214 17.855365-104.809958 39.219876-160.853097 60.532782-54.494986 20.74525-108.989971 41.4905-161.162727 60.635993-5.16051 1.909389-3.354332 6.760268 4.076803 10.888676 7.431134 4.076803 17.700549 5.882981 22.861059 3.973593 48.87003-17.90697 105.119589-39.323086 161.317543-60.739203 54.23696-20.64204 108.47392-41.28408 160.595071-60.377967l0.309631-0.10321c35.659124-13.05609 50.469788-22.912664 50.676208-34.214182 0.258026-12.333619-14.862269-24.306002-38.75543-41.903341z" fill="#2B2622" /></svg>