<?xml version="1.0" standalone="no"?><!DOCTYPE svg PUBLIC "-//W3C//DTD SVG 1.1//EN" "http://www.w3.org/Graphics/SVG/1.1/DTD/svg11.dtd"><svg class="icon" width="200px" height="200.00px" viewBox="0 0 1024 1024" version="1.1" xmlns="http://www.w3.org/2000/svg"><path d="M231.036033 687.018697c205.078668-23.06748 401.590888-104.190697 594.129517-173.599557-80.245931 113.118379-66.88021 233.461473-15.791161 361.184095-304.418485 159.253339-508.15542 18.526231-578.338356-187.584538z" fill="#2B2622" /><path d="M220.663408 671.588772h0.258025c174.167213-19.661543 342.81268-81.742478 508.05221-142.533286 24.770448-9.134103 49.747316-18.319811 83.290632-30.395404 6.811873-2.42544 18.061785 2.167414 25.234893 10.32102 5.676561 6.553848 7.018294 13.417326 3.870383 17.132893-38.961851 55.062642-55.217457 111.828252-55.527088 170.19362-0.309631 58.468578 15.429925 118.79494 40.303583 180.979086 2.167414 5.418536 0.928892 9.804969-2.73507 11.714357l0.051605 0.051605c-33.749735 17.700549-66.570579 31.737137-98.307715 42.574208-113.63443 38.703825-212.148566 33.69813-292.962153-0.309631-83.858288-35.349494-147.642191-100.37192-189.339112-180.101799-11.301517-21.570932-20.951671-44.225571-28.898856-67.551076-2.32223-6.811873 0.619261-11.404727 6.708663-12.075593zM754.982614 558.625208c-163.226931 60.119942-329.808194 121.478405-502.994911 142.584891 6.553848 17.752154 14.139797 34.988258 22.706244 51.39868 35.504309 67.860707 88.554352 122.716928 157.189135 151.615784 71.679484 30.188984 161.369148 33.852946 267.624049-2.373835 28.589225-9.701759 58.520183-22.396613 89.689664-38.445799-24.254397-62.493776-39.374691-123.387794-39.065061-182.578844 0.258026-44.844832 9.288918-88.605957 29.930958-131.386585l-25.080078 9.185708z" fill="#2B2622" /><path d="M488.700297 935.548859c10.52744-77.665676 85.354835-165.342741 193.415915-109.609233-13.881772-10.579046-32.562818-16.410422-55.939928-17.494129 66.98342-72.195535 149.912816-9.546944 178.140805 61.152044-124.471501 65.074031-227.06244 85.09681-315.616792 65.951318z" fill="#D22220" /><path d="M469.038754 940.502948c2.477045-18.061785 8.308421-36.536411 17.081288-53.617699 12.230409-23.686741 30.601824-45.257673 54.23696-60.429572 23.583531-15.068689 50.160157-24.615633 78.904198-26.060575 11.146702-9.443733 23.325505-16.616842 36.329991-21.828958 29.105276-11.662753 55.011037-12.74646 77.098019-6.244217 17.597339 5.108905 34.110971 15.429925 48.560399 28.795646 18.371416 17.029683 33.440105 39.374691 42.677418 62.493776 0.774077 2.012599-2.52865 5.005695-8.153606 7.740765-66.88021 34.885048-128.90954 57.952527-187.120092 69.873306l-1.702969 0.30963c-57.075241 11.559542-108.422315 11.869173-155.073325 1.754574-2.32223-0.464446-3.199516-1.496548-2.838281-2.786676z m56.043139-62.23575c-8.308421 16.152396-13.881772 33.440105-16.410422 50.211762 40.148768 8.205211 82.46495 8.050396 127.722623-1.083707l1.032102-0.258026c43.81273-9.030893 92.269919-26.937862 146.145643-54.44338-9.134103-21.622537-23.37711-42.264577-40.613214-58.262158-13.572141-12.591644-29.002066-22.241798-45.154462-26.989468-11.611148-3.405937-21.209696-4.438039-27.144283-2.012598-6.295822 2.52865-13.520536 7.534345-21.570932 15.533135 9.546944 0.928892 18.319811 2.580255 26.215391 5.057299 9.856574 3.096306 18.474626 7.431134 25.80255 13.004486 2.889886 2.167414-2.219019 6.708663-11.869173 10.475835-10.166205 3.973593-21.570932 5.573351-25.441314 3.560752-16.978078-8.721262-32.820844-13.778562-47.528297-15.739556-18.784256-2.580255-33.956156 1.032102-45.464094 8.308421-19.093887 12.282014-34.678627 31.221086-45.722118 52.637203z" fill="#2B2622" /><path d="M489.061533 190.83566c-33.233684 131.593005-319.95162 221.643905-348.128005 145.784408 50.469788-224.998236 177.108703-312.830116 348.128005-145.784408z" fill="#050509" /><path d="M176.592652 331.924003c-1.444943 6.708663-18.629441 14.243008-38.290984 16.823263s-34.472207-0.774077-33.027264-7.482739c12.74646-56.714005 30.343799-105.016379 52.327572-142.791312 24.099582-41.4905 54.907826-71.679484 91.857078-88.502747 51.759915-23.480321 105.429219-26.576627 159.511364-6.192612 35.865545 13.520536 74.156529 39.219876 114.356901 78.439752 5.470141 5.418536-5.418536 13.623746-24.357607 18.371416-18.939072 4.747669-38.75543 4.231618-44.22557-1.135312C416.453157 161.936804 380.794033 137.785617 348.231215 125.555208c-23.37711-8.824472-40.251978-10.372625-50.882629-5.521745-88.193116 40.045558-97.069193 106.254901-120.755934 211.89054z" fill="#2B2622" /><path d="M872.126191 163.226931c-41.851736 87.367434-247.033614 105.73885-254.619564 48.044349 67.344656-150.325656 165.084715-192.280603 254.619564-48.044349z" fill="#050509" /><path d="M642.070655 213.490299c-1.960994 4.489644-14.552638 7.121504-28.12478 5.831376-13.572141-1.238522-22.96427-5.934587-21.003276-10.42423 16.978078-37.878143 35.91715-69.047624 56.301165-92.218314 22.293403-25.389709 47.425087-41.800131 74.620974-47.837928 38.084564-8.411631 74.517764-2.219019 107.648239 20.590435 21.983773 15.120294 43.761125 39.168271 64.816006 73.072822 2.838281 4.592854-5.676561 8.721262-19.042282 9.082498-13.365721 0.361236-26.525021-3.096306-29.414907-7.740765-20.074384-32.356398-40.303583-54.907826-60.223152-68.583178-14.346218-9.908179-25.389709-13.623746-33.233685-11.869173-18.681046 4.128408-38.136169 17.90697-57.539686 39.993952-19.609938 22.396613-38.084564 52.895228-54.804616 90.102505z" fill="#2B2622" /><path d="M246.414353 239.138034c46.599405-62.493776 135.102152-75.395051 197.595928-28.744041 62.493776 46.599405 75.395051 135.050547 28.795646 197.595928-46.599405 62.493776-135.102152 75.395051-197.595929 28.795646-62.493776-46.65101-75.395051-135.153757-28.795645-197.647533zM698.88787 177.521544c38.342589-51.39868 111.10578-61.977725 162.50446-23.635136 51.39868 38.342589 62.02933 111.10578 23.686741 162.50446-38.342589 51.39868-111.10578 61.977725-162.556065 23.686741-51.39868-38.394194-62.02933-111.157385-23.635136-162.556065z" fill="#FFFFFF" /><path d="M235.990122 231.345663h0.051606c25.492919-34.110971 62.338961-54.649801 101.352416-60.377967 39.013456-5.676561 80.14272 3.560752 114.305297 28.950462v-0.051606l0.051605 0.051606h0.051605l-0.051605 0.051605c34.162576 25.492919 54.753011 62.390566 60.429572 101.352416 5.676561 39.013456-3.509147 80.194325-28.950461 114.305297h0.051605l-0.051605 0.051605h-0.10321c-25.441314 34.110971-62.338961 54.649801-101.352417 60.377967v0.051605c-38.961851 5.676561-80.194325-3.560752-114.305297-29.002066l-0.051605 0.051605-0.051605-0.051605h-0.051605l0.051605-0.051605C233.255052 421.613667 212.664617 384.767626 206.988056 345.75417l0.051605-0.051605c-5.676561-38.961851 3.509147-80.194325 28.950461-114.305296l-0.051605-0.051606h0.051605z m20.848461 15.48153l0.051605 0.051606v0.051605l-0.051605 0.051605-0.051605-0.051605c-21.106486 28.3312-28.744041 62.648591-24.047977 95.108199l0.051605-0.051605c4.747669 32.562818 21.828957 63.216248 50.108552 84.322733h0.103211l0.051605 0.051605-0.051605 0.051606c28.3312 21.106486 62.545381 28.744041 95.056594 23.996371h0.051605c32.459608-4.747669 63.113037-21.777352 84.271128-50.160157l-0.051605-0.051605h0.051605l0.051605-0.051605h0.051606c21.054881-28.279595 28.692436-62.493776 23.944766-95.004989-4.696064-32.511213-21.828957-63.216248-50.160157-84.322734v0.051605l-0.051605-0.051605 0.051605-0.051605c-28.382805-21.158091-62.648591-28.795646-95.1082-24.047977-32.511213 4.696064-63.216248 21.880562-84.322733 50.108552zM690.321423 171.122512l0.051605-0.051605 0.051605 0.051605c20.951671-28.073174 51.243864-44.999647 83.342237-49.644107 32.046767-4.696064 65.899713 2.889886 93.972887 23.789952l0.051605-0.051606 0.051605 0.051606h0.051605l-0.051605 0.051605c28.073174 20.951671 44.999647 51.347075 49.695712 83.393841 4.696064 32.046767-2.889886 65.951318-23.841557 94.024493l0.051606 0.051605-0.051606 0.051605h-0.051605c-20.951671 28.021569-51.295469 44.948042-83.393841 49.695711-32.046767 4.644459-65.951318-2.941491-94.024493-23.841556l-0.051605-0.051605h-0.051605l0.051605-0.051605c-28.073174-20.951671-44.999647-51.295469-49.695711-83.342237l0.051605-0.051605c-4.644459-32.046767 2.889886-65.899713 23.789951-94.024492h-0.051605l0.051605-0.051605z m17.132893 12.746459l-0.051605 0.103211 0.051605-0.103211c-17.442524 23.325505-23.686741 51.553495-19.816358 78.233332h0.051605c3.870383 26.731442 17.958575 51.966336 41.232475 69.357255h0.10321l-0.051605 0.051605c23.2739 17.339314 51.450285 23.635136 78.181727 19.764753h0.051605c26.679837-3.870383 51.914731-17.958575 69.305649-41.232475l-0.051605-0.051605 0.051605-0.051605c17.339314-23.2739 23.583531-51.450285 19.713148-78.130122-3.870383-26.731442-17.958575-52.017941-41.232475-69.408859H854.838482l0.051605-0.051605c-23.2739-17.339314-51.50189-23.583531-78.181726-19.713149-26.628232 3.870383-51.914731 17.958575-69.254045 41.232475z" fill="#2B2622" /><path d="M324.699289 276.345311c20.280804-14.965479 48.818425-15.68795 70.028121 0.154815 26.060576 19.351913 31.375901 56.249559 12.023988 82.206924-19.403518 26.00897-56.197954 31.375901-82.258529 11.972384-2.115809-1.599758-4.128408-3.302726-5.986192-5.108905 4.489644-3.354332 8.618052-7.327924 12.178804-12.127199 17.700549-23.841556 14.655848-56.817215-5.986192-77.098019z m53.153253 32.253187c5.676561-7.637555 16.462027-9.185708 24.099582-3.509147 7.637555 5.676561 9.185708 16.513632 3.509147 24.099582-5.676561 7.637555-16.513632 9.185708-24.099582 3.509147-7.637555-5.676561-9.237313-16.513632-3.509147-24.099582zM763.23943 208.071763c16.668447-12.282014 40.148768-12.901275 57.591291 0.103211 21.416117 15.945976 25.80255 46.289775 9.908179 67.654286-15.945976 21.364511-46.23817 25.80255-67.654286 9.804969-1.754573-1.290128-3.405937-2.683465-4.902484-4.231619 3.715567-2.73507 7.121504-6.037797 10.011389-9.959784 14.552638-19.558333 12.075593-46.702616-4.954089-63.371063z m43.761124 26.576627c4.644459-6.295822 13.572141-7.58595 19.816359-2.889886 6.295822 4.644459 7.58595 13.572141 2.889885 19.816359-4.696064 6.295822-13.572141 7.58595-19.867963 2.889885-6.244217-4.644459-7.534345-13.572141-2.838281-19.816358z" fill="#2B2622" /><path d="M270.77196 762.104117c164.775084-61.668095 336.104017-116.111475 507.845789-152.235045 9.030893-32.717633 8.979287-59.810311 31.427506-91.444237-192.487023 69.40886-366.344605 145.526382-571.423272 168.542257 9.288918 27.247493 18.319811 50.779418 32.149977 75.137025z m519.921383 78.491357c-104.448722 42.522602-209.310286 72.918006-319.280754 90.773371 91.702263 25.131684 197.699138 15.223505 330.37585-54.185355-4.902485-12.282014-6.966689-24.460817-11.095096-36.588016z" fill="#FFFFFF" /><path d="M286.717936 748.635186c78.594567-29.156882 158.634078-56.610795 239.447664-81.226427 78.233332-23.841556 157.292345-44.948042 236.557779-62.390566 2.786675-12.023988 4.850879-23.583531 7.843975-34.781838 3.044701-11.456332 7.069899-22.861059 13.726956-34.781837-26.112181 9.495338-50.366578 18.526231-74.414554 27.505518-147.02293 54.856221-288.059668 107.441818-447.416217 130.096457 2.993096 8.308421 6.037797 16.307212 9.288918 24.099582 4.334828 10.579046 9.237313 21.003276 14.965479 31.479111z m231.345663-63.216247c-83.445447 25.389709-165.962002 53.875724-246.878798 84.116313-9.134103 3.663962-17.287709 4.283223-18.990677 1.238522-6.966689-12.282014-12.74646-24.306002-17.90697-36.691226-5.212115-12.488434-9.753364-25.131684-14.397823-38.600615-0.670866-1.599758 0.309631-3.973593 3.251122-6.760268 5.986192-5.831376 17.80376-11.249912 26.370206-12.178804 164.82669-18.526231 310.146651-72.763191 462.175276-129.373985 34.007761-12.694855 68.428363-25.59613 99.855868-36.846042 1.806179-0.670866 3.663962-1.238522 5.470141-1.651363 9.753364-2.270624 14.501033 0.258026 10.733861 5.676561-10.579046 14.862269-15.842766 28.795646-19.609938 42.987048-3.973593 14.913874-6.141007 29.569722-10.682256 46.13496h-0.051605c-0.20642 0.825682-0.722471 1.806179-1.548153 2.889885-4.334828 5.470141-15.533135 11.559542-25.028474 13.572142-84.529154 17.648944-169.058308 39.993953-252.76178 65.486872z m255.754876 169.522753c-48.250769 19.042282-96.656352 35.555914-145.577987 49.540896-33.336895 9.495338-66.931815 17.855365-100.991181 24.976869 32.769239 4.95409 67.18984 5.315325 103.881066-0.10321 45.618908-6.708663 95.21141-22.448219 149.861211-49.489291-1.806179-5.26372-3.199516-10.42423-4.541249-15.533136-0.877287-3.147911-1.702968-6.295822-2.63186-9.392128z m-135.773018 31.014665c51.140654-14.655848 101.610442-32.201582 151.925414-52.688807 9.753364-3.973593 18.268205-4.489644 19.506728-1.032102 1.909389 5.624956 3.302726 10.733861 4.644459 15.842766 1.857784 6.863478 3.715567 13.830167 6.295822 20.384014 1.702968 2.993096-3.663962 8.772867-12.798064 13.572142-72.092325 37.723328-136.959935 59.29426-196.305801 68.015522-57.333266 8.411631-108.835156 4.541249-156.208638-8.463237l0.051605-0.051605c-3.354332-0.928892-3.663962-3.767172-0.154815-7.58595 5.16051-5.624956 16.720052-11.456332 25.750945-12.901275 53.462884-8.669657 105.687245-20.332409 157.292345-35.091468z" fill="#2B2622" /></svg>