<?xml version="1.0" standalone="no"?><!DOCTYPE svg PUBLIC "-//W3C//DTD SVG 1.1//EN" "http://www.w3.org/Graphics/SVG/1.1/DTD/svg11.dtd"><svg class="icon" width="200px" height="200.00px" viewBox="0 0 1024 1024" version="1.1" xmlns="http://www.w3.org/2000/svg"><path d="M661.422567 183.404526c4.438039 44.380386 115.130978 98.462531 131.851031 77.149624-4.95409-75.291841-50.521393-114.253691-131.851031-77.149624zM405.512876 233.822708c-15.37832 47.476692-149.241949 80.400746-162.556065 53.101648 23.325505-81.174822 82.413345-113.015169 162.556065-53.101648zM422.490954 473.580003c-30.085773-49.282871-169.419543-49.592501-173.393136-15.171899 48.560399 85.09681 115.647029 104.758353 173.393136 15.171899z" fill="#050509" /><path d="M273.661845 453.144383c-1.444943-2.52865-10.011389-3.457542-19.197097-2.012598-9.134103 1.444943-15.429925 4.696064-13.984982 7.224714 12.230409 21.416117 25.69934 38.85864 39.942348 51.450284 15.58474 13.830167 32.975659 22.190193 51.501889 24.357607 25.957365 2.993096 50.521393-2.52865 72.505166-17.700549 14.604243-10.011389 28.898856-25.338104 42.419392-46.392985 1.857784-2.889886-3.973593-4.850879-13.107695-4.386433-9.030893 0.464446-17.90697 3.199516-19.764754 6.037796-12.901275 20.074384-26.215391 34.420602-39.426296 43.5031-9.546944 6.553848-16.926473 9.288918-22.293403 8.669657-12.74646-1.496548-26.163786-8.566447-39.735927-20.590435-13.675352-12.075593-26.834652-29.105276-38.858641-50.160158z" fill="#2B2622" /><path d="M632.884947 400.145946c23.2739-49.282871 131.128559-49.592501 134.224865-15.1719-37.568513 85.09681-89.534849 104.758353-134.224865 15.1719z" fill="#050509" /><path d="M774.644157 382.187371c1.341733-2.373835 9.185708-3.199516 17.545734-1.857784s14.088192 4.386434 12.746459 6.760268c-11.146702 20.074384-23.480321 36.32999-36.484805 48.095954-14.243008 12.901275-30.034168 20.74525-47.012247 22.757849-23.686741 2.786675-46.083354-2.373835-66.157738-16.513632-13.314116-9.392128-26.318601-23.686741-38.703825-43.399889-1.702968-2.683465 3.663962-4.541249 11.920778-4.076803 8.256816 0.412841 16.358817 2.993096 18.01018 5.676561 11.817568 18.784256 23.944766 32.201582 35.968755 40.716424 8.669657 6.141007 15.429925 8.721262 20.332409 8.153605 11.611148-1.393338 23.893161-8.050396 36.226781-19.248702 12.591644-11.456332 24.615633-27.350703 35.607519-47.063851zM331.975609 230.416772c39.168271-4.902485 76.581968 6.502243 105.377614 28.847251 28.847251 22.345008 49.128055 55.733508 54.13375 94.798568h0.051605l0.051605 0.051605v0.051606h-0.051605c4.95409 39.168271-6.450638 76.581968-28.795646 105.429219-22.345008 28.795646-55.733508 49.128055-94.850174 54.082145v0.051605h-0.10321v-0.051605c-39.116666 4.95409-76.478758-6.450638-105.377614-28.795646l-0.051605 0.051605c-28.795646-22.345008-49.128055-55.733508-54.082145-94.850174V389.928136c-4.95409-39.116666 6.399032-76.530363 28.795646-105.326009h0.051605c22.345008-28.795646 55.733508-49.07645 94.798568-54.082145v-0.051605h0.051606v-0.051605z m3.096306 23.841556l-0.051606 0.051605h-0.051605v-0.051605c-32.459608 4.128408-60.223152 21.054881-78.852593 45.051252h0.051606c-18.629441 24.047977-28.12478 55.114247-24.047977 87.573855h0.051605v0.10321h-0.051605c4.128408 32.408003 21.003276 60.171547 44.999647 78.852593l0.051605 0.051605c23.996372 18.629441 55.114247 28.073174 87.573855 23.996372v-0.051605h0.10321v0.051605c32.408003-4.128408 60.171547-21.003276 78.749383-45.051253 18.681046-24.047977 28.12478-55.165852 24.047977-87.62546h-0.051606l-0.051605-0.051605v-0.051605h0.051605c-4.128408-32.408003-21.054881-60.119942-45.051252-78.749382-23.944766-18.732651-55.062642-28.22799-87.470644-24.099582z" fill="#2B2622" /><path d="M333.472156 242.33755C405.100035 233.255052 470.535302 284.034471 479.566195 355.610744c9.082498 71.576274-41.645316 137.011541-113.273195 146.094039-71.576274 9.030893-137.063146-41.696921-146.094038-113.273195-9.030893-71.627879 41.696921-137.063146 113.273194-146.094038z" fill="#FFFFFF" /><path d="M354.062591 347.663559c10.52744 1.806179 19.145492 10.269415 20.53883 21.416116 1.702968 13.675352-7.947185 26.112181-21.570932 27.866754-13.675352 1.702968-26.112181-7.947185-27.866754-21.622536-0.154815-1.135312-0.20642-2.219019-0.20642-3.354332 2.373835 0.412841 4.799274 0.464446 7.276319 0.154815 12.540039-1.548153 21.725747-12.178804 21.828957-24.460817z m5.779772 25.750945c3.973593-0.516051 7.637555 2.32223 8.153605 6.295822 0.516051 4.025198-2.32223 7.68916-6.347427 8.205211-3.973593 0.516051-7.637555-2.32223-8.153606-6.347427-0.464446-4.025198 2.32223-7.68916 6.347428-8.153606zM692.179207 220.611803c30.395404-3.767172 59.39747 5.0573 81.794083 22.396613 22.345008 17.339314 38.136169 43.245074 42.006552 73.588873v0.10321c3.818777 30.395404-4.95409 59.39747-22.345009 81.794083-17.339314 22.345008-43.245074 38.136169-73.588872 41.954947l0.051605 0.051605h-0.051605v-0.051605c-30.343799 3.818777-59.39747-5.005695-81.794084-22.345009-22.345008-17.339314-38.136169-43.245074-42.006551-73.588872h-0.051605v-0.051605h0.051605c-3.818777-30.343799 4.95409-59.345865 22.345008-81.742479h0.051605c17.339314-22.345008 43.245074-38.136169 73.588873-41.954946v-0.051605l-0.051605-0.10321z m2.373834 18.526231l-0.10321 0.051605v-0.051605c-25.183289 3.199516-46.702616 16.307212-61.152043 34.936652s-21.828957 42.780628-18.629441 67.963917h0.051605v0.10321h-0.051605c3.199516 25.183289 16.358817 46.702616 34.988257 61.152044v0.051605c18.629441 14.449428 42.729023 21.777352 68.015522 18.629441v-0.051605h0.051605v0.051605c25.183289-3.199516 46.702616-16.307212 61.152044-34.936653 14.449428-18.681046 21.828957-42.780628 18.629441-67.963916V318.919518c-3.199516-25.131684-16.307212-46.65101-34.988258-61.152043-18.681046-14.449428-42.780628-21.777352-67.963917-18.629441z" fill="#2B2622" /><path d="M693.314519 229.900721c55.578693-7.018294 106.358111 32.356398 113.376405 87.93509 7.069899 55.578693-32.304793 106.358111-87.883486 113.376405-55.578693 7.018294-106.358111-32.356398-113.376404-87.935091-7.069899-55.578693 32.304793-106.358111 87.883485-113.376404z" fill="#FFFFFF" /><path d="M709.3121 311.643199c8.153606 1.393338 14.862269 7.998791 15.945976 16.616842 1.341733 10.579046-6.192612 20.280804-16.771658 21.622537-10.579046 1.341733-20.280804-6.141007-21.622537-16.771657-0.10321-0.877287-0.154815-1.754573-0.154815-2.580255 1.806179 0.309631 3.715567 0.361236 5.624956 0.10321 9.753364-1.186917 16.874868-9.443733 16.978078-18.990677z m4.489644 19.971174c3.096306-0.412841 5.934587 1.806179 6.347427 4.902484 0.361236 3.096306-1.806179 5.934587-4.95409 6.347428-3.096306 0.412841-5.934587-1.806179-6.295822-4.902485-0.412841-3.096306 1.754573-5.934587 4.902485-6.347427z" fill="#2B2622" /><path d="M591.858892 521.779166c-26.00897-2.941491-48.302374 2.270624-66.880209 13.984983-58.055738 36.691226-65.435267 134.431286-69.30565 253.329436-1.290128 38.807035-0.051605 60.481177 53.462884 58.571788 64.919216-2.32223 38.032959-41.129265 35.504309-86.386937-4.592854-81.329638-10.888676-159.76939 6.141007-189.648743 14.088192-24.718843 28.950461-29.776143 41.077659-49.850527z" fill="#050509" /><path d="M452.576727 726.186968c0.20642-3.251121 2.838281-4.283223 5.934587-2.21902 3.147911 2.064204 5.470141 6.347427 5.315325 9.598549-0.567656 9.959784-1.032102 19.558333-1.444943 28.950461-0.412841 10.269415-0.774077 20.280804-1.135312 30.085773-0.567656 17.700549-0.670866 31.324296 4.128408 38.394195 4.902485 7.121504 16.616842 10.579046 40.922844 9.701759 33.646525-1.186917 40.871239-12.230409 40.303584-28.589226-0.20642-6.605453-1.702968-14.397823-3.251122-22.757849-1.806179-9.650154-3.715567-20.074384-4.386433-31.014665v-0.774076l-1.032102-17.80376-0.670867-11.714358c-0.20642-3.509147 2.115809-5.005695 5.263721-3.405936 3.096306 1.599758 5.779771 5.728166 5.986191 9.237313l0.722472 11.714357c0.309631 5.470141 0.619261 11.146702 1.032102 17.80376v0.464446l0.051605 0.361235h-0.051605c0.567656 9.959784 2.42544 19.764753 4.076803 28.898856 1.702968 9.030893 3.251121 17.442524 3.560751 25.183289 0.722471 20.951671-7.48274 34.988258-45.928539 36.329991-29.208487 1.032102-44.844832-5.36693-53.617698-18.319811-8.824472-13.004485-8.927682-29.621327-8.205211-50.727813 0.361236-10.579046 0.722471-20.74525 1.135312-30.240589 0.309631-10.32102 0.774077-20.125989 1.290127-29.156881z" fill="#2B2622" /><path d="M576.790203 557.747921c-20.280804-2.270624-37.671723 1.754573-52.121151 10.888676-45.206068 28.589225-50.934234 104.706748-54.03054 197.337903-0.980497 30.240589-0.051605 47.115456 41.645316 45.618908 50.572998-1.806179 29.621327-32.046767 27.660334-67.29305-3.560752-63.371063-8.463236-124.471501 4.799274-147.745402 10.991886-19.248702 22.603034-23.17069 32.046767-38.807035z" fill="#2B2622" /></svg>