<?xml version="1.0" standalone="no"?><!DOCTYPE svg PUBLIC "-//W3C//DTD SVG 1.1//EN" "http://www.w3.org/Graphics/SVG/1.1/DTD/svg11.dtd"><svg class="icon" width="200px" height="200.00px" viewBox="0 0 1024 1024" version="1.1" xmlns="http://www.w3.org/2000/svg"><path d="M613.378219 457.685632c-61.048833 25.183289-50.314973 176.076601-5.728166 185.46873 105.687245-39.890742 125.658419-109.557627 5.728166-185.46873z" fill="#050509" /><path d="M602.953989 624.782946c-3.147911 1.186917-3.612357 10.372625-1.032102 20.487225s7.276319 17.390919 10.42423 16.255606c26.628232-10.062995 47.941138-22.035378 63.061432-35.555914 16.565237-14.862269 25.957365-32.408003 27.247493-52.172756 1.806179-27.711939-7.276319-55.062642-28.53762-81.123217-14.088192-17.287709-34.936653-35.039863-63.113038-52.895227-3.870383-2.42544-5.934587 3.612357-4.592853 13.520536 1.341733 9.856574 5.521746 19.867964 9.392128 22.293403 26.886257 16.978078 46.392985 33.49171 59.191049 49.17966 9.185708 11.301517 13.365721 19.713148 12.952881 25.389709-0.877287 13.572141-8.979287 27.041072-23.325506 39.942348-14.604243 13.159301-35.452704 24.873658-61.668094 34.678627zM241.873104 142.636496c-8.514842-3.251121-14.036587-10.269415-12.385224-15.636345 1.651363-5.418536 9.908179-7.173109 18.371415-3.921987 47.579902 18.061785 90.0509 36.175175 128.70312 54.34017 38.75543 18.164995 73.640478 36.32999 106.048481 54.44338 7.89558 4.386434 11.404727 11.611148 7.843975 16.152397-1.702968 2.115809-4.696064 3.302726-8.205211 3.457541-56.352769 2.786675-111.415411 7.89558-164.465454 16.668448-52.998438 8.772867-104.139092 21.312906-152.802701 38.910245-6.450638 2.32223-16.358817-0.516051-22.086983-6.347427-5.728166-5.831376-5.16051-12.488434 1.290127-14.810664 50.108552-18.164995 102.848964-31.06627 157.498766-40.097163 24.615633-4.076803 49.592501-7.379529 74.879-10.062994-14.397823-1.702968-28.795646-3.044701-43.193469-4.076803-45.876934-3.199516-91.753868-2.786675-137.579196 2.73507-7.637555 0.877287-17.132893-3.405937-21.209697-9.650153-4.076803-6.244217-1.186917-12.023988 6.450638-12.95288 48.199163-5.779771 96.398327-6.244217 144.545885-2.889886 30.085773 2.115809 60.171547 5.728166 90.25732 10.52744-15.58474-7.998791-31.840347-15.945976-48.818425-23.893161-37.465303-17.700549-78.749383-35.297888-125.142367-52.895228z m533.183893 4.64446c6.915083-1.857784 16.720052 1.496548 21.932168 7.482739 5.212115 6.037797 3.870383 12.436829-3.044701 14.294613-35.659124 9.701759-67.654286 20.074384-96.965983 30.85985-8.514842 3.147911-16.771658 6.347427-24.770448 9.495338 14.294613 0.051605 28.640831 0.464446 42.935443 1.393338 37.671723 2.373835 75.446656 8.050396 113.42801 18.31981 8.618052 2.32223 15.429925 8.979287 15.120294 14.810664-0.309631 5.831376-7.534345 8.721262-16.204001 6.399032-34.627022-9.288918-69.40886-14.552638-104.293907-16.720052-9.701759-0.619261-19.351913-0.980497-29.053671-1.135312 14.088192 3.818777 28.073174 7.89558 41.903341 12.282013 42.987048 13.675352 84.580759 30.498614 124.110265 51.450285 7.998791 4.231618 11.765963 11.456332 8.463237 16.100791-3.302726 4.644459-12.488434 5.005695-20.487225 0.774077-36.639621-19.455123-75.291841-35.091468-115.389004-47.837928-40.355188-12.84967-82.36174-22.912664-125.400393-31.221085-4.334828-0.774077-8.876077-2.889886-12.282013-5.986192-6.244217-5.624956-6.399032-12.488434-0.412841-15.27511 25.131684-11.714358 51.914731-23.119085 81.381242-33.956155 29.518117-10.940281 62.13254-21.467722 99.030187-31.530716z" fill="#2B2622" /><path d="M637.529406 590.207529c-31.995162-65.435267-82.258529-81.794084-121.375195-77.872096-40.768029 4.025198-66.157738 32.408003-56.35277 60.997228 14.707454 43.038653 79.72988 42.832233 100.217105 86.541753 15.120294 32.304793 43.554704 62.700197 91.237816 54.288565 46.186565-8.153606 113.840851-51.140654 103.158595-106.306506-11.095097-57.488081-115.801844-85.09681-162.143224-80.03951 19.197097 20.229199 34.265786 41.026055 45.257673 62.390566z" fill="#D22220" /><path d="M652.34007 590.878395l0.722471 1.444943 0.051605 0.10321c1.960994 3.870383-3.405937 5.986192-12.023988 4.74767-8.566447-1.238522-17.184498-5.36693-19.145492-9.185708-5.36693-10.475835-11.714358-20.74525-19.093887-30.911455-3.560752-4.541249-7.224714-8.669657-10.888676-12.282014-21.674142-21.416117-45.876934-27.299098-65.486872-25.286499-6.089402 0.619261-11.869173 1.857784-17.236104 3.715567-11.507937 3.921988-20.796855 10.32102-27.041072 18.164995-6.295822 7.843975-9.392128 17.132893-8.411632 26.731442 0.258026 2.580255 0.825682 5.315325 1.754574 7.998791 6.553848 19.093887 24.357607 28.382805 42.625812 37.929748 22.809454 11.869173 46.134959 24.099582 57.436477 48.199164l0.20642 0.361235c2.064204 4.334828 4.386434 8.669657 6.915084 12.84967 2.580255 4.231618 5.36693 8.153606 8.256816 11.714358 11.456332 13.933377 27.402308 23.635136 48.612004 19.971174l1.806178-0.361236 0.206421-0.051605c21.570932-4.231618 47.837928-16.410422 67.860706-34.059366 20.177594-17.80376 33.69813-41.026055 29.105277-67.035025l-0.206421-1.032102v-0.154815l-0.30963-1.496548c-1.702968-7.431134-5.005695-14.191403-9.546944-20.33241-4.386434-5.986192-10.011389-11.404727-16.410422-16.307211-27.608729-21.003276-71.473064-31.737137-99.804263-31.737137 7.637555 8.411631 14.552638 16.978078 20.796855 25.59613 1.496548 1.857784 2.889886 3.767172 4.283224 5.728166 5.315325 7.327924 10.32102 15.68795 14.965479 24.976868z m-146.558485-85.767676c24.976868-2.52865 53.153253 1.083707 79.884695 15.120294 39.684322-2.889886 109.660838 12.282014 151.97702 44.431992 8.256816 6.295822 15.37832 13.210906 20.951671 20.74525 5.418536 7.379529 9.392128 15.326715 11.301516 23.789951l0.258026 1.393338c0.051605 0.154815 0.10321 0.361236 0.10321 0.516051l0.206421 1.032102c4.902485 27.969964-9.443733 52.792017-30.911455 71.731089-21.364511 18.835862-50.108552 32.046767-74.156529 36.794436l-0.774077 0.154815-1.806178 0.361236h-0.051605c-47.063851 8.256816-79.626669-9.753364-101.352417-36.278385-3.560752-4.386434-6.708663-8.824472-9.443733-13.210906-2.786675-4.489644-5.26372-9.134103-7.48274-13.830167v-0.051605l-0.20642-0.412841c-8.824472-18.784256-27.092678-28.3312-44.948042-37.671723-23.789951-12.436829-46.960641-24.512423-55.423877-49.28287-1.083707-3.096306-1.754573-6.244217-2.064204-9.392128-1.083707-10.837071 2.42544-21.261301 9.495338-30.137379 7.173109-8.927682 17.958575-16.307212 31.530716-21.003276 6.966689-2.32223 14.655848-3.973593 22.912664-4.799274z" fill="#2B2622" /><path d="M393.798518 444.629542c-61.7197 28.22799-50.882629 197.079877-5.779771 207.607317 106.874162-44.586806 127.000151-122.613718 5.779771-207.607317z" fill="#050509" /><path d="M383.271078 631.749635c-3.199516 1.290128-3.663962 11.559542-1.032102 22.912664 2.63186 11.301517 7.327924 19.455123 10.52744 18.164995 26.937862-11.249912 48.457189-24.667238 63.732299-39.839137 16.720052-16.616842 26.215391-36.175175 27.505518-58.365368 1.806179-31.014665-7.379529-61.616489-28.847251-90.824976-14.243008-19.351913-35.297888-39.168271-63.783903-59.19105-3.921988-2.683465-5.986192 4.025198-4.644459 15.120294 1.341733 11.095097 5.573351 22.241798 9.495338 24.925264 27.195888 19.042282 46.909036 37.516908 59.810311 55.062641 9.288918 12.64325 13.468931 22.086983 13.107695 28.434411-0.877287 15.223505-9.082498 30.292194-23.58353 44.741621-14.759059 14.655848-35.813939 27.763544-62.287356 38.858641z" fill="#2B2622" /><path d="M737.694905 755.189034c61.616489 30.240589 102.281308 154.350854 15.739556 147.074535-53.514489-45.825329 31.324296-59.39747-15.739556-147.074535z m48.250769-108.886761c49.231265-14.604243 134.534496 33.130474 83.239026 72.969611-52.688807 1.960994-12.901275-48.560399-83.239026-72.969611z m-149.499975 96.449932c29.002066 17.855365 43.193469 81.174822 0.825681 73.434057-24.306002-25.183289 18.319811-27.866754-0.825681-73.434057z" fill="#1997CC" /></svg>