<?xml version="1.0" standalone="no"?><!DOCTYPE svg PUBLIC "-//W3C//DTD SVG 1.1//EN" "http://www.w3.org/Graphics/SVG/1.1/DTD/svg11.dtd"><svg class="icon" width="200px" height="200.00px" viewBox="0 0 1024 1024" version="1.1" xmlns="http://www.w3.org/2000/svg"><path d="M890.136371 319.693595c1.444943 6.295822 2.580255 12.74646 3.405936 19.300307h0.10321V339.148717h-0.10321c6.760268 53.101648-8.721262 103.881066-39.065061 142.997733-30.343799 39.116666-75.601472 66.673789-128.651514 73.382452v0.051605h-0.10321v-0.051605c-53.050043 6.708663-103.829461-8.721262-142.946127-39.065061h-0.051605C543.608124 486.120042 516.102605 440.86237 509.342337 387.812327h-0.051605l-0.051605-0.10321v-0.051606h0.10321c-1.186917-9.237313-1.651363-18.423021-1.548153-27.453913 9.598549 0.928892 20.487225 0.309631 32.614424-1.135312-0.20642 8.050396 0.154815 16.255607 1.238522 24.512423h0.10321v0.10321h-0.051605c5.573351 44.01915 28.486015 81.690873 61.100439 106.977372v0.051605c32.562818 25.234894 74.724185 38.084564 118.846545 32.562818v-0.051605h0.051605l0.154815-0.051605v0.10321c43.967545-5.573351 81.587663-28.53762 106.874162-61.100438 25.286499-32.614423 38.187774-74.827395 32.614424-118.846545h-0.051605v-0.103211h0.051605c-0.877287-6.502243-2.012599-12.901275-3.612357-19.145492 11.146702-0.619261 21.828957-2.167414 32.408003-4.386433z" fill="#2B2622" /><path d="M874.035579 322.48027c1.444943 6.089402 2.580255 12.333619 3.354332 18.681046 12.282014 97.172403-56.55919 185.933175-153.679988 198.21519-97.172403 12.282014-185.933175-56.55919-198.215189-153.679988-1.083707-8.514842-1.496548-16.926473-1.341733-25.234894 26.628232-1.238522 60.635993-9.392128 101.249206-13.056091 40.871239-3.663962 81.587663-14.243008 124.265081-18.11339 29.053671-2.63186 64.919216-5.16051 100.991181-5.16051 7.998791-0.051605 15.842766-0.619261 23.37711-1.651363z" fill="#FFFFFF" /><path d="M138.508088 387.915537c59.603891 19.042282 158.479262-20.229199 134.534496-40.613214-100.526735-33.852946-163.226931-25.80255-134.534496 40.613214z" fill="#050509" /><path d="M263.28922 353.44333c2.993096 1.032102 9.753364-0.928892 15.120295-4.283223C283.82805 345.75417 285.737439 342.141813 282.795948 341.109711c-25.338104-8.514842-48.405584-14.449428-68.273547-17.442524-21.828957-3.302726-40.561609-3.096306-55.372272 0.980497-20.693645 5.676561-33.749735 15.739556-37.568513 30.395404-2.52865 9.753364-0.774077 22.345008 5.986191 37.981354 0.928892 2.115809 6.553848 1.599758 12.64325-1.238523 6.037797-2.838281 10.166205-6.863478 9.288918-8.979287-6.450638-14.913874-8.205211-26.679837-5.882982-35.504309 1.651363-6.347427 4.747669-10.011389 8.979288-11.146701 10.166205-2.786675 25.234894-2.63186 44.12236 0.258025 19.197097 2.889886 41.696921 8.669657 66.570579 17.029683zM707.557527 327.485965c15.533135 2.63186 28.22799 15.171899 30.343798 31.582321 2.52865 20.125989-11.765963 38.497405-31.840346 41.07766-20.125989 2.52865-38.497405-11.714358-41.07766-31.840347-0.154815-1.702968-0.258026-3.302726-0.258025-4.902485 3.457542 0.567656 7.069899 0.670866 10.785465 0.206421 18.423021-2.373835 31.891952-18.01018 32.046768-36.12357z m8.566446 37.929748c5.882981-0.722471 11.301517 3.457542 12.023988 9.340523 0.774077 5.882981-3.457542 11.301517-9.340523 12.075594-5.882981 0.722471-11.301517-3.457542-12.075593-9.340523-0.722471-5.934587 3.457542-11.353122 9.392128-12.075594z" fill="#2B2622" /><path d="M349.005292 457.582422c-51.70831 39.477902-206.988056 70.802197-203.117674-34.781837 3.199516-86.335332 100.217104-51.656705 162.349645-43.038654 69.099229 9.598549 124.265081 14.036587 40.768029 77.820491z" fill="#FFFFFF" /><path d="M332.233634 457.427607c-22.603034 17.287709-66.260948 32.769239-101.352416 31.479111-10.32102-0.361236-20.384015-2.167414-29.569723-5.779771-10.062995-3.921988-18.732651-9.959784-25.183289-18.423021-8.153606-10.682256-12.64325-25.080079-11.972383-44.070756 1.548153-40.768029 20.022779-50.263367 42.625813-49.437685 16.771658 0.567656 37.207277 4.489644 56.455979 8.102l1.135312 0.206421c10.991886 2.064204 21.622537 4.076803 31.582322 5.47014l8.256816 1.135312 28.021569 71.318249zM213.645114 500.053419c56.404374 2.064204 121.375195-18.835862 152.131835-42.367787 39.993953-30.550219 49.334476-48.302374 40.613214-59.758706-9.959784-13.05609-41.335685-17.339314-77.768886-22.345008l-8.205211-1.135312c-9.030893-1.238522-18.990677-3.096306-29.363302-5.0573l-0.980497-0.20642c-21.209696-4.025198-43.657915-8.256816-66.002923-9.082498-52.121151-1.960994-94.488938 10.1146-96.501537 64.712795-0.722471 19.713148 4.025198 34.833443 12.64325 46.083355 7.224714 9.495338 17.287709 16.358817 29.156881 21.003276 12.798065 5.005695 27.969964 7.58595 44.277176 8.153605z m90.670161-113.892455l0.361236 0.051605c31.324296 4.283223 58.262158 8.050396 65.796502 17.906969 7.327924 9.598549-1.599758 25.338104-38.187774 53.308069l-27.969964-71.266643z m0 0z" fill="#2B2622" /><path d="M233.203447 392.250365c-11.869173 0.928892-22.345008 9.546944-24.976868 21.777353-3.302726 15.017084 6.244217 29.879353 21.209696 33.130474 15.017084 3.251121 29.827748-6.244217 33.130474-21.261301 0.258026-1.238522 0.464446-2.477045 0.516051-3.715568-2.580255 0.20642-5.36693 0.051605-8.102001-0.567656-13.726957-2.993096-22.861059-15.68795-21.777352-29.363302z m-9.030892 28.02157c-4.334828-0.980497-8.721262 1.857784-9.650154 6.244217-0.980497 4.386434 1.806179 8.772867 6.192612 9.753364 4.386434 0.980497 8.721262-1.857784 9.701759-6.244217 0.980497-4.438039-1.806179-8.772867-6.244217-9.753364zM448.809555 704.409615c-30.188984 5.831376-69.305649 7.998791-87.315829 4.799275-18.01018-3.199516-8.102001-10.52744 22.086983-16.358817 73.330847-14.191403 147.177745-26.937862 222.521191-33.59492 81.742478-7.276319 156.105428-7.069899 217.205866 6.141007 16.204001 3.509147 4.076803 10.940281-27.041072 16.616842-31.117875 5.624956-69.51207 7.327924-85.716072 3.818777-36.175175-7.843975-72.969611-8.566447-110.073678-5.315325-43.451494 3.818777-96.449932 13.159301-151.667389 23.893161zM546.446404 725.774127c-9.237313 2.477045-20.177594 1.548153-24.409212-2.115809-4.231618-3.663962-0.20642-8.618052 9.030892-11.095097 22.396613-6.089402 44.741622-10.940281 66.209344-11.043491 23.37711-0.154815 43.348284 4.902485 57.333266 19.145492 3.663962 3.767172-0.980497 8.669657-10.475835 10.940281-9.392128 2.270624-20.074384 1.032102-23.789951-2.73507-8.256816-8.411631-18.01018-11.404727-28.640831-11.353122-12.333619 0.051605-28.382805 3.715567-45.257673 8.256816zM498.195636 308.392078c3.199516-6.657058 10.888676-13.984982 17.184498-16.358817 6.295822-2.373835 8.876077 1.083707 5.676561 7.740765-9.908179 20.796855-15.945976 34.420602-12.436829 40.716424 3.973593 7.069899 19.197097 7.947185 52.172756 3.302726h0.20642c50.882629-7.121504 109.867258-14.655848 168.800283-22.190193 57.281661-7.327924 114.563322-14.604243 169.109913-22.293403 5.470141-0.774077 6.141007 4.334828 1.548153 11.404727-4.592854 7.069899-12.694855 13.417326-18.061785 14.139798-51.140654 7.173109-110.228494 14.759059-169.316334 22.293403-57.075241 7.276319-114.047271 14.604243-168.490651 22.241798l-0.361236 0.051605c-37.258882 5.212115-54.753011 3.560752-60.223152-6.244217-6.089402-10.733861 1.599758-28.279595 14.191403-54.804616z" fill="#2B2622" /></svg>