<?xml version="1.0" standalone="no"?><!DOCTYPE svg PUBLIC "-//W3C//DTD SVG 1.1//EN" "http://www.w3.org/Graphics/SVG/1.1/DTD/svg11.dtd"><svg class="icon" width="200px" height="200.00px" viewBox="0 0 1024 1024" version="1.1" xmlns="http://www.w3.org/2000/svg"><path d="M265.559845 750.905811c-31.014665-36.02036-33.130474-94.540543-25.338104-115.440609 19.971174-53.411279 130.096457-26.937862 199.866552-5.470141 58.778209 18.11339 118.227284 16.720052 189.751953-6.708663 116.679131-38.290984 169.213123 43.81273 148.158242 89.999295-65.280452 143.358968-422.645769 141.75921-512.438643 37.620118z" fill="#FFFFFF" /><path d="M280.422114 750.080129l-0.412841-0.464446-0.206421-0.258025c-3.612357-4.283223-6.811873-9.082498-9.753364-14.294613-3.044701-5.470141-5.624956-11.146702-7.689159-16.874868-11.146702-30.343799-10.682256-63.216248-5.366931-77.459255 8.618052-23.015875 36.381596-28.898856 69.40886-26.628232 35.555914 2.373835 77.923701 13.778562 110.89936 23.893162 32.975659 10.166205 65.951318 14.862269 100.475129 13.778561 33.027264-1.083707 67.396261-7.534345 104.500328-19.713148 38.136169-12.488434 66.106133-11.095097 84.89039-2.52865l0.980496 0.412841c7.947185 3.767172 14.759059 9.134103 20.384015 15.37832 6.605453 7.224714 11.249912 15.533135 14.088192 24.047977 4.386434 13.417326 4.076803 27.247493-1.135312 38.652219-7.534345 16.410422-18.990677 30.911455-33.543315 43.451495-44.638412 38.497405-118.175679 59.08784-194.396412 63.680693-74.466159 4.489644-150.738497-6.244217-203.427304-30.240588-20.796855-9.598549-37.929749-21.209696-49.695711-34.833443z m-30.085774 1.238522l0.412841 0.464446c15.48153 17.958575 37.878143 33.182079 65.125636 45.618909 62.545381 28.53762 150.119236 41.38729 233.874314 36.381595 81.948899-4.95409 160.956307-26.989467 208.84584-68.273547 15.636345-13.520536 27.969964-29.053671 36.071964-46.754221 6.089402-13.365721 6.450638-29.518117 1.290128-45.154462-3.457542-10.630651-9.495338-21.106486-18.01018-30.498614-8.876077-9.856574-20.590435-18.681046-35.194678-25.544525-0.412841-0.258026-0.928892-0.464446-1.393338-0.722471-31.685531-14.449428-73.640478-18.577836-123.903845-2.115809-34.317392 11.249912-65.486872 17.184498-94.798569 18.164995-27.763544 0.928892-53.92733-2.786675-79.678274-10.682256-36.794436-11.301517-84.374339-23.996372-126.27768-26.834652-44.483596-3.044701-81.742478 4.592854-93.095601 34.988258-5.831376 15.68795-6.450638 51.347075 5.521746 83.909893 2.373835 6.502243 5.26372 12.95288 8.669657 18.990676 3.302726 5.934587 7.224714 11.765963 11.920778 17.287709 0.154815 0.309631 0.361236 0.516051 0.619261 0.774076z" fill="#2B2622" /><path d="M243.214836 676.955702c5.573351-10.1146-2.167414-15.223505 3.405937-25.338104 28.22799 39.271481 122.923348 61.7197 216.225369 70.286146-79.007408 9.753364-161.885199-1.444943-219.631306-44.948042z" fill="#2B2622" /><path d="M180.669455 272.836164c46.909036 32.872449 211.68412-7.379529 208.432999-37.568513-76.994809-57.694502-160.801492-54.753011-208.432999 37.568513z" fill="#050509" /><path d="M370.060172 242.285945c2.270624 1.702968 12.591644 0 23.119085-3.870383 10.475835-3.870383 17.132893-8.411631 14.862269-10.166205-19.403518-14.552638-39.323086-25.286499-59.036234-31.788741-21.622537-7.121504-44.01915-9.185708-66.467369-5.573351-31.427506 5.005695-59.08784 16.823263-81.587663 35.968755-14.965479 12.694855-28.3312 29.776143-39.477902 51.450284-1.548153 2.941491 5.831376 2.941491 16.462027-0.10321 10.579046-3.044701 20.384015-7.89558 21.932167-10.837071 10.682256-20.693645 23.015875-36.639621 36.588016-48.147558 9.753364-8.308421 17.855365-12.74646 24.306002-13.830167 15.429925-2.477045 32.924054-0.361236 51.759916 5.831376 19.042282 6.244217 38.497405 16.771658 57.539686 31.066271z" fill="#2B2622" /><path d="M847.252532 272.836164c-37.465303 32.872449-169.058308-7.379529-166.478052-37.568513 61.513279-57.694502 128.393489-54.753011 166.478052 37.568513z" fill="#050509" /><path d="M648.830923 242.285945c-2.373835 1.702968-12.95288 0-23.686741-3.870383-10.785466-3.870383-17.597339-8.411631-15.223505-10.166205 19.919569-14.552638 40.251978-25.286499 60.481178-31.788741 22.138588-7.121504 45.154463-9.185708 68.118732-5.573351 32.098372 5.005695 60.532782 16.823263 83.548657 35.968755 15.326715 12.694855 29.002066 29.776143 40.458398 51.450284 1.548153 2.941491-5.986192 2.941491-16.874868-0.10321-10.837071-3.044701-20.951671-7.89558-22.448218-10.837071-10.940281-20.693645-23.635136-36.639621-37.465303-48.147558-9.959784-8.308421-18.319811-12.74646-24.873658-13.830167-15.791161-2.477045-33.749735-0.361236-52.998438 5.831376-19.609938 6.244217-39.529507 16.771658-59.036234 31.066271zM226.907625 282.641133l0.051605-0.051605 0.051605 0.051605c31.324296-24.460817 69.61528-33.956156 106.151691-29.466512 36.484806 4.489644 71.318248 22.912664 95.830671 54.185355l0.051605-0.051605 0.051605 0.051605v0.051605l-0.051605 0.051605c24.512423 31.375901 33.956156 69.666885 29.518117 106.151691-4.489644 36.536411-22.96427 71.369853-54.23696 95.830671l0.051605 0.051605-0.051605 0.051605h-0.051605v-0.051605c-31.375901 24.460817-69.61528 33.956156-106.203296 29.466512v0.051605c-36.536411-4.489644-71.318248-22.912664-95.882276-54.23696v0.051605l-0.051605-0.051605 0.051605-0.051605c-24.460817-31.324296-33.956156-69.61528-29.466512-106.100086l0.051605-0.051605c4.489644-36.484806 22.912664-71.318248 54.185355-95.830671v-0.10321h-0.051605z m14.965479 19.093887l-0.051605 0.10321-0.051605-0.051605c-25.957365 20.384015-41.28408 49.334476-45.051253 79.781485-3.767172 30.447009 4.076803 62.287356 24.409213 88.244721l0.051605-0.051605h0.051605v0.10321c20.280804 25.957365 49.282871 41.28408 79.678274 44.999647l0.051605 0.051605c30.395404 3.715567 62.235751-4.128408 88.296327-24.460817l-0.051606-0.051605h0.051606l0.051605-0.051605v0.051605c25.957365-20.280804 41.232475-49.282871 44.999647-79.72988 3.715567-30.447009-4.128408-62.287356-24.460818-88.296326l-0.051605 0.051605v-0.051605l-0.051605-0.051605h0.051605c-20.332409-25.957365-49.334476-41.232475-79.729879-44.948042-30.343799-3.767172-62.235751 4.025198-88.193116 24.357607z" fill="#2B2622" /><path d="M234.390364 292.188076c57.384871-44.844832 140.262662-34.678627 185.107494 22.706244 44.793227 57.333266 34.678627 140.262662-22.706244 185.107494-57.384871 44.844832-140.262662 34.678627-185.107494-22.706244-44.793227-57.384871-34.678627-140.262662 22.706244-185.107494z" fill="#FFFFFF" /><path d="M302.405886 359.377917c15.739556-6.089402 34.317392-1.548153 45.257673 12.488434 13.468931 17.132893 10.372625 41.954946-6.708663 55.320667-17.132893 13.417326-41.954946 10.372625-55.372272-6.811873-1.083707-1.393338-2.064204-2.889886-2.941491-4.386434 3.509147-1.393338 6.863478-3.251121 10.011389-5.676561 15.68795-12.333619 19.506728-34.162576 9.753364-50.934233z m28.744041 30.240588c5.005695-3.921988 12.282014-3.044701 16.204001 1.960994 3.921988 5.005695 2.993096 12.333619-2.012599 16.255607-5.0573 3.921988-12.282014 3.044701-16.204001-2.012599-3.973593-5.005695-3.044701-12.282014 2.012599-16.204002zM797.092375 282.641133l-0.051605-0.051605v0.051605c-31.375901-24.460817-69.666885-33.956156-106.203296-29.466512-36.484806 4.489644-71.266643 22.912664-95.830671 54.185355v-0.051605l-0.051605 0.051605-0.051605 0.051605 0.051605 0.051605c-24.512423 31.375901-33.956156 69.666885-29.466512 106.151691 4.438039 36.536411 22.861059 71.369853 54.185355 95.830671l-0.051605 0.051605 0.051605 0.051605h0.051605l0.051605-0.051605c31.272691 24.460817 69.61528 33.956156 106.151691 29.466512v0.051605c36.536411-4.489644 71.369853-22.912664 95.882276-54.23696l0.051605 0.051605 0.051605-0.051605-0.051605-0.051605c24.512423-31.324296 33.956156-69.61528 29.466512-106.100086v-0.051605c-4.489644-36.484806-22.912664-71.318248-54.185355-95.830671l-0.051605-0.10321z m-14.965479 19.093887l0.051605 0.10321-0.051605-0.10321c26.060576 20.384015 41.335685 49.386081 45.102858 79.781485h-0.051606c3.767172 30.447009-4.076803 62.287356-24.409212 88.244721l-0.051605-0.051605-0.051605 0.051605 0.051605 0.051605c-20.332409 25.957365-49.334476 41.28408-79.781485 44.999647l-0.051605 0.051605c-30.395404 3.715567-62.235751-4.128408-88.244721-24.460817v-0.051605l-0.051605-0.051606-0.051605 0.051606c-25.957365-20.280804-41.232475-49.282871-44.999647-79.72988-3.715567-30.447009 4.128408-62.287356 24.460817-88.296326l0.051605 0.051605 0.051605-0.051605v-0.051605c20.280804-25.957365 49.282871-41.232475 79.72988-44.948042 30.447009-3.715567 62.287356 4.076803 88.296326 24.409212z" fill="#2B2622" /><path d="M789.609636 292.188076c-57.384871-44.844832-140.262662-34.678627-185.107494 22.706244-44.844832 57.333266-34.678627 140.262662 22.654639 185.107494 57.384871 44.844832 140.262662 34.678627 185.107494-22.706244 44.844832-57.384871 34.730232-140.262662-22.654639-185.107494z" fill="#FFFFFF" /><path d="M690.373028 359.377917c15.739556-6.089402 34.368997-1.548153 45.257673 12.488434 13.417326 17.132893 10.372625 41.954946-6.708663 55.320667-17.184498 13.417326-41.954946 10.372625-55.372272-6.811873-1.083707-1.393338-2.115809-2.889886-2.941491-4.386434 3.509147-1.393338 6.863478-3.251121 9.959784-5.676561 15.739556-12.333619 19.558333-34.162576 9.804969-50.934233z m28.692436 30.240588c5.0573-3.921988 12.333619-3.044701 16.204001 1.960994 3.973593 5.005695 3.044701 12.333619-1.960993 16.255607-5.0573 3.921988-12.282014 3.044701-16.255607-2.012599-3.870383-5.005695-3.044701-12.282014 2.012599-16.204002z" fill="#2B2622" /></svg>