<?xml version="1.0" standalone="no"?><!DOCTYPE svg PUBLIC "-//W3C//DTD SVG 1.1//EN" "http://www.w3.org/Graphics/SVG/1.1/DTD/svg11.dtd"><svg class="icon" width="200px" height="200.00px" viewBox="0 0 1024 1024" version="1.1" xmlns="http://www.w3.org/2000/svg"><path d="M152.493071 252.297334c-1.857784 3.302726-14.862269 4.541249-29.002067 2.63186-14.191403-1.909389-24.099582-6.141007-22.190193-9.495338 16.255607-28.176385 34.885048-50.985839 55.217457-67.499471 22.241798-18.164995 47.734718-29.156882 75.807892-31.943557 39.374691-3.921988 77.356045 3.354332 112.653934 23.222295 23.37711 13.159301 46.857431 33.233684 69.92491 60.894018 3.147911 3.767172-5.573351 6.347427-19.455122 5.728166-13.881772-0.619261-27.711939-4.180013-30.808245-7.947185-21.983773-26.421811-43.761125-45.206068-65.022426-57.178451-15.27511-8.618052-26.834652-12.230409-34.936653-11.404727-19.248702 1.909389-38.961851 11.249912-58.313763 26.989467-19.661543 15.997581-37.826538 38.342589-53.875724 66.002923zM711.066673 298.380688c-2.012599 2.477045-12.333619 1.393338-23.119084-2.477044s-17.90697-9.030893-15.894371-11.507938c17.081288-20.900066 35.194678-37.000857 53.669304-47.579902 20.280804-11.559542 41.954946-16.668447 64.403165-14.501033 31.375901 3.044701 60.016731 15.223505 84.529153 37.568513 16.307212 14.759059 31.582321 35.349494 45.360883 62.184145 1.909389 3.663962-5.36693 4.386434-16.100791 1.651364-10.733861-2.786675-21.054881-7.947185-22.912664-11.611148-13.159301-25.59613-27.299098-44.844832-42.109762-58.262158-10.579046-9.650154-19.093887-14.552638-25.544524-15.171899-15.37832-1.496548-32.304793 3.147911-49.902132 13.1593-17.90697 10.21781-35.555914 25.957365-52.379177 46.5478z" fill="#2B2622" /><path d="M320.828907 229.436275l-0.051605 0.10321c-67.241445-8.514842-131.593005 11.043491-181.185506 49.489291-49.489291 38.394194-84.477549 95.779066-92.992391 162.968906h-0.051605l-0.051605 0.10321v0.051605h0.10321c-8.463236 67.29305 11.043491 131.64461 49.489291 181.237111 38.4458 49.489291 95.882276 84.477549 163.020511 92.992391v0.051605h0.206421v-0.10321c67.241445 8.463236 131.5414-11.043491 181.133901-49.540896l0.051605 0.051605c49.540896-38.4458 84.477549-95.830671 92.99239-163.072116h0.051605l0.051605-0.103211v-0.051605h-0.10321c8.463236-67.241445-11.043491-131.5414-49.489291-181.082296h-0.10321c-38.394194-49.540896-95.779066-84.425944-163.020511-92.940785l0.051605-0.10321-0.10321-0.051605zM315.565187 270.410724v0.10321h0.20642v-0.10321c55.785113 7.069899 103.519831 36.175175 135.514993 77.40765 31.995162 41.28408 48.302374 94.798569 41.28408 150.532077h-0.10321v0.051605l-0.051605 0.10321h0.10321c-7.069899 55.733508-36.175175 103.468226-77.459255 135.514993v0.051605c-41.232475 31.995162-94.746964 48.302374-150.583682 41.232475v-0.10321h-0.206421v0.10321c-55.681903-7.069899-103.468226-36.12357-135.463387-77.459255-32.046767-41.28408-48.353979-94.798569-41.335685-150.635287h0.10321v-0.051605l0.051605-0.10321h-0.10321c7.069899-55.733508 36.175175-103.41662 77.459255-135.411783 41.335685-31.943557 94.850174-48.250769 150.583682-41.232475z" fill="#2B2622" /><path d="M318.248652 249.975105C195.170488 234.390364 82.67137 321.602983 67.08663 444.732752c-15.58474 123.078164 71.679484 235.577282 194.809253 251.162022C384.974046 711.479514 497.473164 624.266895 513.057905 501.137126c15.533135-123.129769-71.679484-235.628887-194.809253-251.162021z" fill="#FFFFFF" /><path d="M335.949201 437.611248c-13.107695 2.219019-23.893161 12.84967-25.647734 26.783047-2.167414 17.029683 9.908179 32.614423 26.937862 34.781838 17.029683 2.167414 32.562818-9.908179 34.730232-26.989468 0.20642-1.393338 0.258026-2.786675 0.258026-4.180013-2.993096 0.464446-6.037797 0.567656-9.134103 0.206421-15.58474-2.012599-27.041072-15.27511-27.144283-30.601825z m-7.224714 32.149978c-5.005695-0.670866-9.598549 2.941491-10.21781 7.89558-0.619261 5.005695 2.941491 9.546944 7.947186 10.21781 5.005695 0.619261 9.546944-2.889886 10.21781-7.895581 0.567656-5.0573-2.941491-9.598549-7.947186-10.217809zM827.745805 295.955249h-0.051606v0.051605c-47.425087-5.986192-92.88918 7.79237-127.877437 34.936653-34.988258 27.092678-59.603891 67.654286-65.693293 115.079373h-0.051605V446.177695h0.051605c-6.037797 47.528297 7.79237 92.940785 34.936653 127.929043 27.144283 34.988258 67.654286 59.655496 115.130978 65.641687v0.051605h0.10321v-0.051605c47.476692 5.986192 92.88918-7.79237 127.929043-34.988258v0.051605c34.988258-27.144283 59.655496-67.654286 65.693293-115.130978h0.10321V489.525979h-0.051605c5.934587-47.476692-7.843975-92.88918-34.936653-127.877438l-0.051605-0.051605c-27.144283-34.988258-67.654286-59.603891-115.130978-65.641687v-0.051605h-0.10321v0.051605z m-3.663963 28.950461v0.051605h0.103211l0.051605-0.051605c39.374691 4.95409 73.072822 25.544525 95.675855 54.649801 22.603034 29.156882 34.110971 66.931815 29.156882 106.306506h-0.051605V486.016832h0.051605c-5.005695 39.374691-25.492919 73.072822-54.701406 95.675856v0.051605c-29.105276 22.603034-66.931815 34.110971-106.358111 29.105276v-0.10321h-0.103211v0.051605c-39.374691-5.005695-73.072822-25.544525-95.675855-54.701406-22.654639-29.208487-34.162576-66.931815-29.208487-106.358111h0.051605v-0.051605l0.051605-0.10321h-0.10321c5.005695-39.374691 25.59613-73.021217 54.701406-95.624251 29.156882-22.499824 66.931815-34.007761 106.358111-29.053671z" fill="#2B2622" /><path d="M825.939626 310.404677c-86.902988-10.991886-166.323237 50.572998-177.366729 137.527591-10.940281 86.902988 50.624603 166.374843 137.527592 177.366729 86.902988 10.991886 166.374843-50.572998 177.366729-137.527591 10.991886-86.954594-50.572998-166.374843-137.527592-177.366729z" fill="#FFFFFF" /><path d="M75.137026 538.757244h429.870483c-64.403165 210.961649-366.293 207.039661-429.870483 0z m578.854407-25.338104h304.057249c-44.741622 150.170841-259.831679 147.384166-304.057249 0zM949.22421 399.423474h-286.408305c57.333266-119.981858 229.900721-117.969259 286.408305 0z m-446.745351 0H77.61407c69.357254-200.847049 356.488031-197.183087 424.864789 0z" fill="#050509" /><path d="M73.279242 528.79746h429.870483c3.457542 0 7.069899 4.438039 8.050396 9.959784 0.412841 2.52865 0.309631 4.799274-0.361236 6.553848-17.700549 57.488081-52.430782 99.391423-95.056594 125.813234l-0.361236 0.20642c-37.000857 22.861059-80.03951 34.214181-123.129768 34.110971-43.296679-0.10321-86.799778-11.714358-124.213476-34.730232-44.380386-27.299098-80.607166-70.698987-98.823767-129.993247-1.599758-5.36693-0.361236-10.630651 2.838281-11.714358 0.412841-0.10321 0.825682-0.154815 1.186917-0.20642z m420.117119 19.919569H84.941995c17.081288 46.186565 47.734718 80.865192 84.941994 103.777856 35.659124 21.932168 77.30444 33.027264 118.949756 33.130474 41.800131 0.051605 83.548657-10.940281 119.414201-33.130474l0.103211-0.051605c36.691226-22.861059 67.241445-57.384871 85.045204-103.726251z m158.788893-45.257673h304.108855c3.405937 0 7.069899 4.438039 7.99879 9.959784 0.464446 2.52865 0.258026 4.799274-0.361235 6.553848-12.540039 41.645316-37.620118 71.885904-68.376758 90.876581-26.318601 16.152396-56.817215 24.202792-87.367434 24.099582-30.653429-0.051605-61.461674-8.256816-88.089906-24.512423-32.459608-19.816358-58.829814-51.553495-71.989115-95.159804-1.599758-5.36693-0.309631-10.579046 2.889886-11.611148 0.464446-0.10321 0.825682-0.154815 1.186917-0.20642z m294.14907 19.867963h-282.486317c12.023988 30.498614 32.820844 53.514489 57.952527 68.841204 24.822053 15.171899 53.824119 22.809454 82.826186 22.861059 29.156882 0.051605 58.313763-7.58595 83.393841-23.015874 24.873658-15.223505 45.618908-38.084564 58.313763-68.686389z m4.386434-113.94406h-286.098675c-3.457542 0-7.121504-4.438039-8.050395-9.959785-0.516051-2.941491-0.154815-5.624956 0.825681-7.431134C674.478657 356.333216 701.313309 331.149927 732.27637 316.339263c22.499824-10.785466 47.167061-16.152396 71.834299-16.100791 24.770448 0.051605 49.540896 5.521746 72.195535 16.307212 32.149977 15.326715 60.119942 41.593711 77.820491 78.594567 2.373835 4.95409 2.115809 10.888676-0.619262 13.262511-0.825682 0.722471-1.806179 1.032102-2.786675 0.980497z m-272.784559-19.919569h258.593156c-15.223505-24.357607-36.536411-42.419392-60.739202-53.978935-21.261301-10.166205-44.690017-15.27511-68.118732-15.326714-23.531926-0.051605-47.167061 5.0573-68.634783 15.326714-24.047977 11.507937-45.412488 29.518117-61.100439 53.978935z m-173.702767 19.919569H79.368644c-3.405937 0-7.069899-4.438039-7.998791-9.959785-0.412841-2.42544-0.258026-4.644459 0.309631-6.347427l-0.051605-0.051605c18.01018-52.224361 50.314973-90.928186 89.534848-116.317896 37.826538-24.512423 82.258529-36.588016 126.638916-36.53641 44.535201 0.051605 89.276823 12.488434 127.464597 37.000856 40.664819 26.112181 74.156529 66.054528 92.734365 119.672227 1.857784 5.26372 0.825682 10.733861-2.270625 12.127199-0.464446 0.258026-0.980497 0.412841-1.496548 0.412841z m-414.337348-19.919569h402.21015C474.973341 348.334425 446.900166 316.855314 413.253641 295.284382c-36.32999-23.325505-79.059013-35.091468-121.942851-35.143073-42.987048-0.10321-85.974097 11.611148-122.562113 35.297889-33.182079 21.416117-61.100438 52.792017-78.852593 94.024492zM837.860404 439.572242c-10.733861 1.806179-19.506728 10.475835-20.900065 21.828957-1.754573 13.881772 8.102001 26.576627 21.983772 28.3312 13.881772 1.754573 26.576627-8.102001 28.3312-21.983772 0.154815-1.135312 0.258026-2.270624 0.206421-3.405937-2.373835 0.361236-4.850879 0.464446-7.37953 0.154815-12.74646-1.599758-22.086983-12.436829-22.241798-24.925263z m-5.831376 26.215391c-4.128408-0.516051-7.79237 2.373835-8.360026 6.450637-0.516051 4.076803 2.373835 7.79237 6.450637 8.308422 4.076803 0.516051 7.79237-2.373835 8.360026-6.450638 0.464446-4.076803-2.373835-7.843975-6.450637-8.308421zM373.466109 872.074585c9.753364 6.966689 23.686741 9.030893 31.16948 4.592854 7.534345-4.438039 5.728166-13.675352-4.025197-20.64204-23.583531-16.978078-47.786323-31.943557-74.053319-39.168271-28.53762-7.843975-56.197954-6.244217-82.310135 11.869173-6.915083 4.850879-4.283223 14.139797 5.831377 20.848461 10.1146 6.657058 23.944766 8.205211 30.85985 3.354331 15.429925-10.733861 29.311697-12.385224 42.264577-8.824472 15.171899 4.180013 32.459608 15.223505 50.263367 27.969964z" fill="#2B2622" /></svg>