<?xml version="1.0" standalone="no"?><!DOCTYPE svg PUBLIC "-//W3C//DTD SVG 1.1//EN" "http://www.w3.org/Graphics/SVG/1.1/DTD/svg11.dtd"><svg class="icon" width="200px" height="200.00px" viewBox="0 0 1024 1024" version="1.1" xmlns="http://www.w3.org/2000/svg"><path d="M604.553747 255.084009c44.380386 56.301164 241.047422 33.956156 245.330645-9.392128-71.782694-97.740059-167.252129-111.208991-245.330645 9.392128z" fill="#050509" /><path d="M826.610492 251.626468c2.115809 2.889886 14.243008 2.63186 27.144283-0.670867 12.901275-3.302726 21.622537-8.308421 19.455123-11.249911-18.11339-24.615633-37.774933-44.01915-58.365368-57.384872-22.551429-14.604243-47.373482-22.190193-73.640478-21.828957-36.794436 0.516051-71.215038 11.404727-101.662047 33.749736-20.177594 14.862269-39.787532 36.175175-58.107343 64.506375-2.477045 3.870383 5.831376 5.36693 18.629441 3.302726s25.183289-6.863478 27.660334-10.733861c17.494129-27.041072 35.659124-47.012246 53.978934-60.481177 13.159301-9.701759 23.531926-14.294613 31.066271-14.449428 18.061785-0.258026 37.258882 6.399032 56.86882 19.093887 19.971174 12.95288 39.168271 31.943557 56.97203 56.146349z" fill="#2B2622" /><path d="M153.576778 322.119034c33.49171 33.440105 160.749887 3.302726 160.130625-25.441314-54.753011-58.468578-118.382099-59.758706-160.130625 25.441314z" fill="#050509" /><path d="M298.896739 302.405886c1.599758 1.754573 9.546944 0.619261 17.752155-2.580255 8.205211-3.147911 13.520536-7.173109 11.869173-8.927682-13.778562-14.759059-28.22799-25.90576-42.780628-33.027264-15.945976-7.79237-32.820844-10.837071-50.005342-8.514842-24.099582 3.199516-45.773724 13.05609-63.990324 30.137379-12.075593 11.301517-23.222295 26.834652-33.027264 46.909036-1.341733 2.683465 4.231618 3.044701 12.488434 0.670866 8.205211-2.373835 15.945976-6.502243 17.287709-9.237313 9.340523-19.093887 19.661543-33.59492 30.653429-43.864335 7.89558-7.379529 14.294613-11.249912 19.248702-11.920778 11.817568-1.599758 24.976868 1.238522 38.807036 8.050396 14.036587 6.915083 28.12478 17.855365 41.69692 32.304792zM714.524215 268.914176h0.051605v0.051605c55.888323-7.069899 109.402812 9.237313 150.635287 41.18087 41.232475 31.943557 70.286146 79.678274 77.356045 135.566598h0.051605V445.868064l-0.051605 0.051605c7.069899 55.991534-9.185708 109.506022-41.18087 150.738498-31.943557 41.18087-79.678274 70.234541-135.566597 77.356045v0.051605l-0.103211 0.051605h-0.051605v-0.051605c-55.888323 7.069899-109.402812-9.237313-150.686892-41.232475l-0.051605 0.051605c-41.18087-31.995162-70.234541-79.72988-77.356045-135.618203h-0.051605V496.957113h0.051605c-7.069899-55.939928 9.185708-109.402812 41.18087-150.635287h0.051605c31.995162-41.18087 79.678274-70.234541 135.566598-77.30444v-0.10321h0.154815z m4.334828 34.059366l0.051606 0.103211h-0.051606l-0.10321 0.051605v-0.103211c-46.44459 5.882981-86.128912 30.085773-112.757143 64.403165h0.051605c-26.679837 34.368997-40.200373 78.852593-34.368997 125.245578h0.10321V492.828705h-0.10321c5.882981 46.392985 30.085773 86.077307 64.403165 112.705539v0.051605c34.317392 26.628232 78.800988 40.148768 125.297183 34.317391l-0.051605-0.051605H761.484856v0.051605c46.34138-5.882981 86.025702-30.034168 112.653933-64.403164 26.679837-34.368997 40.251978-78.852593 34.368997-125.297183h-0.10321V450.048077h0.051605c-5.882981-46.34138-30.085773-85.974097-64.403165-112.653933-34.317392-26.679837-78.800988-40.251978-125.193973-34.420602z" fill="#2B2622" /><path d="M716.691629 285.943859c102.384518-12.95288 195.944565 59.603891 208.897445 162.040014 12.95288 102.384518-59.603891 195.944565-161.988409 208.897445-102.436124 12.95288-195.944565-59.603891-208.897445-161.988409-13.004485-102.436124 59.552285-195.99617 161.988409-208.94905z" fill="#FFFFFF" /><path d="M748.273951 423.368241c20.693645 3.509147 37.620118 20.229199 40.406793 42.109761 3.405937 26.783047-15.636345 51.347075-42.367787 54.701406-26.834652 3.354332-51.295469-15.636345-54.701406-42.470997-0.309631-2.219019-0.412841-4.386434-0.361236-6.553848 4.592854 0.774077 9.392128 0.928892 14.294613 0.309631 24.512423-3.096306 42.522602-23.944766 42.729023-48.095953z m11.353122 50.521393c7.843975-0.980497 15.068689 4.592854 16.049186 12.436829 0.980497 7.843975-4.592854 15.068689-12.436829 16.049186-7.89558 0.980497-15.017084-4.592854-16.049187-12.436829-0.980497-7.843975 4.592854-15.017084 12.43683-16.049186zM233.771103 308.701708h0.051605v0.051606c48.250769-6.089402 94.385728 7.947185 129.993247 35.504308 35.555914 27.557123 60.584387 68.737993 66.725395 116.988762l0.051605-0.051605V461.349594h-0.051605c6.089402 48.302374-7.947185 94.437333-35.555914 130.044852-27.557123 35.555914-68.789598 60.635993-116.988762 66.725395v0.051605H277.841859v-0.051605c-48.250769 6.089402-94.385728-7.947185-129.993247-35.555914l-0.051605 0.051605C112.241093 595.006803 87.212619 553.825934 81.071612 505.575165h-0.051605V505.42035h0.051605c-6.089402-48.250769 7.947185-94.385728 35.504309-129.941642h0.051605c27.557123-35.555914 68.737993-60.584387 116.937157-66.725394v-0.051606h0.20642z m3.767172 29.414907v0.051606H237.38346v-0.051606c-40.045558 5.108905-74.311344 25.957365-97.275613 55.578693h0.051605c-22.96427 29.621327-34.678627 68.015522-29.621328 108.009475h0.051605V501.859598h-0.051605c5.0573 39.993953 25.957365 74.259739 55.578693 97.224008v0.051605c29.621327 22.96427 67.963917 34.678627 108.061079 29.621328v-0.10321H274.332712v0.10321c39.993953-5.0573 74.208134-25.957365 97.172403-55.578693 23.015875-29.672933 34.730232-68.067127 29.672933-108.112684h-0.051605v-0.103211h0.051605c-5.0573-39.993953-25.957365-74.208134-55.578693-97.172403-29.672933-23.015875-68.067127-34.730232-108.06108-29.672933z" fill="#2B2622" /><path d="M235.628887 323.409162c88.347931-11.198307 169.058308 51.39868 180.256614 139.798216 11.198307 88.347931-51.39868 169.058308-139.798216 180.256614-88.347931 11.146702-169.058308-51.39868-180.256614-139.798216-11.146702-88.347931 51.450285-169.058308 139.798216-180.256614z" fill="#FFFFFF" /><path d="M262.87638 441.997682c17.855365 3.044701 32.459608 17.442524 34.833442 36.32999 2.941491 23.119085-13.468931 44.277176-36.588016 47.218667-23.17069 2.889886-44.277176-13.468931-47.218666-36.639621-0.258026-1.909389-0.361236-3.818777-0.309631-5.624956 3.973593 0.670866 8.102001 0.774077 12.333619 0.258025 21.209696-2.73507 36.742831-20.74525 36.949252-41.542105z m9.804969 43.606309c6.760268-0.877287 12.95288 3.973593 13.830166 10.733861 0.825682 6.760268-3.973593 13.004485-10.73386 13.830167-6.811873 0.825682-13.004485-3.973593-13.830167-10.733861-0.877287-6.760268 3.973593-13.004485 10.733861-13.830167z" fill="#2B2622" /><path d="M310.507887 706.57703c-108.422315-30.96306-124.471501 54.443381-85.045205 106.564531 34.781837 45.980144 118.382099 64.45477 139.540191-22.964269 15.791161-52.121151-2.373835-79.987905-54.494986-83.600262z" fill="#050509" /><path d="M309.269365 695.017487c4.489644 1.290128 8.721262 7.48274 9.443733 13.881772 0.722471 6.347427-2.373835 10.52744-6.915084 9.237313-27.557123-7.89558-48.76682-7.998791-64.351559-2.941491-12.023988 3.921988-20.64204 10.888676-26.060576 19.661544-5.16051 8.256816-7.48274 18.11339-7.224714 28.279594 0.361236 14.346218 5.882981 29.724538 15.687951 42.677418 11.559542 15.326715 29.827748 27.247493 49.17966 31.891952 8.927682 2.115809 18.061785 2.73507 26.783047 1.341732 8.772867-1.393338 17.132893-4.747669 24.615633-10.372625 11.765963-8.876077 21.312906-23.583531 26.628231-45.567303 1.290128-5.26372 5.831376-6.399032 10.21781-2.52865 4.386434 3.818777 6.915083 11.249912 5.676561 16.513632-6.192612 25.647735-17.494129 42.883838-31.324296 53.359674-8.721262 6.605453-18.474626 10.475835-28.589225 12.075593-10.166205 1.599758-20.693645 0.928892-31.014665-1.548153-23.325505-5.624956-45.928539-20.84846-60.894018-40.664819-14.655848-19.403518-22.912664-42.677418-23.480321-64.55798-0.361236-14.655848 2.73507-28.486015 9.753364-39.735927 6.708663-10.837071 17.081288-19.351913 31.427506-23.996372 17.339314-5.521746 40.561609-5.521746 70.440962 2.993096z" fill="#2B2622" /><path d="M271.08159 753.33125c-6.037797-2.270624-8.927682-7.89558-6.502242-12.643249 2.42544-4.747669 9.288918-6.708663 15.326715-4.438039 14.655848 5.470141 27.969964 11.765963 35.917149 21.364512 8.618052 10.42423 10.269415 23.325505-0.154815 40.510003-2.786675 4.541249-9.753364 6.244217-15.636345 3.715567-5.831376-2.52865-8.360026-8.256816-5.573351-12.84967 6.192612-10.21781 5.934587-16.874868 2.012599-21.622536-4.644459-5.470141-14.397823-9.908179-25.38971-14.036588z" fill="#2B2622" /></svg>