<?xml version="1.0" standalone="no"?><!DOCTYPE svg PUBLIC "-//W3C//DTD SVG 1.1//EN" "http://www.w3.org/Graphics/SVG/1.1/DTD/svg11.dtd"><svg class="icon" width="200px" height="200.00px" viewBox="0 0 1024 1024" version="1.1" xmlns="http://www.w3.org/2000/svg"><path d="M817.321574 236.144938l0.051605 0.051605c46.805826 17.90697 81.897294 53.050043 100.836366 95.41783 18.887467 42.264577 21.674142 91.908683 3.818777 138.662904h0.051605l-0.051605 0.10321v0.051605l-0.051605-0.051605c-17.90697 46.857431-53.101648 81.948899-95.41783 100.88797-42.367787 18.887467-91.960288 21.674142-138.766114 3.818778v0.051605l-0.10321-0.051605v-0.10321c-46.805826-17.90697-81.897294-53.050043-100.836365-95.41783h-0.051605c-9.392128-21.054881-14.810664-43.91594-15.687951-67.396261 12.84967-18.268205 25.59613-37.310487 38.75543-55.991534-13.004485 37.516908-10.269415 76.943204 4.85088 110.89936v0.051606c15.739556 35.246283 44.948042 64.506375 83.858287 79.317038l0.051605-0.051605h0.051605l0.103211 0.051605-0.051606 0.051605c38.807035 14.810664 80.03951 12.488434 115.285794-3.302726 35.297888-15.791161 64.609585-44.948042 79.471854-83.755077l-0.051605-0.051605v-0.051606l0.051605-0.10321 0.051605 0.051605c14.810664-38.807035 12.436829-80.03951-3.302726-115.285793-15.739556-35.297888-44.948042-64.609585-83.755078-79.420249v0.051605h-0.051605l-0.10321-0.051605 0.051605-0.051605c-38.85864-14.810664-80.14272-12.488434-115.389004 3.251121v0.051605c-6.605453 2.993096-13.05609 6.450638-19.248702 10.372625 23.2739-24.151187 48.663609-43.554704 77.562466-54.082145 22.551429-0.412841 45.618908 3.457542 67.963916 11.972384v-0.051605l0.051605 0.10321z" fill="#2B2622" /><path d="M811.851434 250.43955c85.767676 32.769239 128.651514 128.80633 95.882276 214.522401-32.717633 85.716071-128.754725 128.651514-214.470796 95.882276-71.576274-27.402308-113.3248-98.823767-106.100086-171.586957 37.207277-54.13375 75.137026-110.89936 122.768533-144.236255 32.562818-8.618052 68.067127-7.48274 101.920073 5.418535z" fill="#FFFFFF" /><path d="M149.603185 417.846495C116.214685 444.423122 96.707957 481.991634 92.166709 521.21151c-4.541249 39.168271 5.934587 80.14272 32.408002 113.582826l0.051606 0.10321h0.051605c26.525021 33.440105 64.093534 52.895228 103.365015 57.436476 39.168271 4.541249 80.14272-5.986192 113.53122-32.408003h0.051605l0.10321-0.051605-0.051605-0.051605c33.440105-26.525021 52.895228-64.041929 57.436477-103.31341h0.051605c1.909389-16.668447 1.135312-33.646525-2.42544-50.211763-11.507937-4.541249-22.086983-10.475835-32.459608-16.823262 8.566447 20.487225 11.456332 42.574208 8.979288 64.093534l0.051605 0.051605c-3.767172 32.614423-19.971174 63.887114-47.734718 85.870887v-0.051605h-0.051605l-0.051605 0.051605 0.051605 0.051605c-27.711939 21.983773-61.82291 30.653429-94.488938 26.886257-32.666028-3.767172-63.887114-19.971174-85.922492-47.683113l0.051605-0.051605h-0.051605l-0.051605-0.051605-0.051605 0.051605c-21.932168-27.711939-30.601824-61.771305-26.834652-94.437333 3.767172-32.666028 19.971174-63.938719 47.631507-85.922491l0.051606 0.051605 0.10321-0.051605-0.051605-0.051605c27.763544-21.983773 61.771305-30.705035 94.437333-26.937863v0.051605c10.991886 1.290128 21.880562 3.921988 32.253187 7.998791-8.256816-12.282014-16.874868-24.099582-29.053671-33.852946h-0.206421c-39.271481-4.489644-80.194325 5.986192-113.582825 32.459608l-0.051605-0.051605-0.10321-0.10321z" fill="#2B2622" /><path d="M157.756791 428.0127c-61.152044 48.560399-71.421458 137.527592-22.86106 198.73124 48.560399 61.152044 137.579197 71.421458 198.731241 22.861059 46.392985-36.794436 63.474273-96.862773 47.889533-150.377261-12.075593-6.295822-23.37711-13.778562-35.039863-20.951671-35.039863-21.570932-46.496195-52.121151-66.88021-76.788389-41.026055-10.1146-86.180517-1.806179-121.839641 26.525022z" fill="#FFFFFF" /><path d="M743.784307 802.4077c-7.379529 6.708663-19.351913 10.062995-26.525022 7.534345-7.173109-2.52865-6.966689-10.062995 0.412841-16.771657 18.061785-16.307212 36.949252-31.16948 58.829814-40.097163 23.686741-9.753364 48.044348-11.972383 73.537268-1.032102 6.708663 2.941491 5.882981 10.579046-1.960994 17.132893-7.843975 6.553848-19.661543 9.443733-26.370206 6.553848-15.120294-6.502243-27.402308-6.037797-38.187774-1.599758-12.64325 5.16051-26.112181 15.997581-39.735927 28.279594zM820.521091 336.207227c6.141007 4.799274 8.772867 13.159301 5.882981 20.796855-3.560752 9.340523-14.088192 14.036587-23.428715 10.475835-9.340523-3.560752-14.036587-14.036587-10.424231-23.37711 0.309631-0.774077 0.619261-1.496548 0.980497-2.219019 1.393338 1.083707 2.941491 1.960994 4.592854 2.580255 8.618052 3.251121 18.11339-0.412841 22.396614-8.256816z m-5.0573 18.474626c2.73507 1.032102 4.076803 4.128408 3.096306 6.863478-1.083707 2.73507-4.128408 4.128408-6.863479 3.096306-2.73507-1.083707-4.128408-4.128408-3.096306-6.863478 1.032102-2.73507 4.076803-4.128408 6.863479-3.096306z" fill="#2B2622" /><path d="M534.319206 379.968352c-1.702968-13.314116-2.115809-29.002066 1.754573-41.954947 5.676561-20.074384 16.771658 30.601824 17.287709 32.975659 1.599758 8.256816 2.889886 16.616842 4.902484 24.822053 6.502243 29.672933 38.187774-25.028474 41.748526-32.201582 4.95409-10.32102 8.514842-20.384015 12.591645-31.014665 22.448219-59.139445 60.790808-111.518621 128.290278-118.949756 77.098019-6.347427 140.520687 49.644106 177.831175 111.673437 4.592854 7.998791 3.354332 26.112181-8.566447 27.299098-4.386434 0.464446-7.79237-3.044701-9.856574-6.450638-37.929749-60.016731-105.480824-111.879857-179.895379-84.167918-41.18087 16.926473-63.680693 51.243864-82.981 89.380033-19.197097 38.497405-42.419392 80.400746-80.607167 103.158595-7.224714 4.231618-24.925263 12.901275-26.00897-1.960994-1.032102-10.837071 2.580255-23.583531 3.612357-34.265786 1.186917-12.798065 1.341733-25.544525-0.10321-38.342589zM578.493171 282.641133c-2.63186 6.966689-9.392128 13.210906-14.965479 13.933377-5.624956 0.774077-8.050396-4.231618-5.36693-11.198307 6.399032-16.874868 13.830167-33.027264 25.183289-46.34138 12.333619-14.501033 27.711939-24.202792 48.250768-25.544524 5.418536-0.361236 7.431134 5.005695 4.438039 11.972383-2.941491 6.915083-9.753364 12.84967-15.171899 13.210906-12.178804 0.825682-20.177594 5.315325-25.750945 11.869173-6.553848 7.68916-11.765963 19.403518-16.616843 32.098372zM283.62163 486.016832c4.644459 4.747669 5.831376 12.178804 2.425439 18.2166-4.128408 7.431134-13.572141 10.062995-21.003275 5.934587-7.431134-4.128408-10.062995-13.520536-5.934587-20.951671 0.309631-0.619261 0.722471-1.186917 1.083707-1.754573 1.032102 1.032102 2.219019 1.960994 3.612357 2.73507 6.760268 3.818777 15.223505 1.909389 19.816359-4.180013z m-6.553848 14.965479c2.167414 1.186917 2.993096 3.973593 1.806179 6.141007-1.238522 2.167414-4.025198 2.941491-6.141007 1.702968-2.219019-1.186917-2.993096-3.921988-1.806179-6.141007 1.186917-2.167414 3.973593-2.941491 6.141007-1.702968z" fill="#2B2622" /><path d="M416.298342 461.968856c-2.012599-11.249912-5.728166-24.047977-12.178804-33.594921-9.701759-14.810664-5.779771 29.156882-5.521745 31.221086 0.825682 7.121504 1.857784 14.243008 2.373834 21.416116 2.373835 25.750945-37.413698-10.52744-42.109761-15.48153-6.708663-7.173109-12.127199-14.294613-18.11339-21.932167-33.3885-42.316182-77.975306-74.930605-134.689312-63.732299-64.196744 14.655848-101.300811 76.375548-115.750239 136.28907-1.651363 7.68916 4.025198 22.035378 13.933377 19.971173 3.715567-0.722471 5.573351-4.489644 6.347427-7.79237C125.916444 469.916041 167.45855 410.518571 235.009626 413.924507c37.826538 3.199516 64.816006 25.234894 90.25732 51.29547 25.492919 26.318601 55.062642 54.34017 91.908683 63.061432 6.966689 1.599758 23.583531 4.076803 20.64204-8.256816-1.960994-9.030893-8.153606-18.474626-11.714358-26.937862-4.283223-10.062995-7.68916-20.332409-9.804969-31.117875zM355.507534 394.314569c3.921988 4.95409 10.991886 8.308421 15.687951 7.48274 4.747669-0.825682 5.418536-5.521746 1.496547-10.475835-9.495338-12.075593-19.661543-23.325505-32.356397-31.169481-13.675352-8.566447-28.640831-12.540039-45.670514-8.411631-4.489644 1.083707-4.747669 5.986192-0.619261 10.888676 4.180013 4.850879 11.249912 7.947185 15.791161 6.863478 10.1146-2.477045 17.700549-0.877287 23.944766 3.044701 7.327924 4.541249 14.501033 12.694855 21.725747 21.777352z" fill="#2B2622" /></svg>