<?xml version="1.0" standalone="no"?><!DOCTYPE svg PUBLIC "-//W3C//DTD SVG 1.1//EN" "http://www.w3.org/Graphics/SVG/1.1/DTD/svg11.dtd"><svg class="icon" width="200px" height="200.00px" viewBox="0 0 1024 1024" version="1.1" xmlns="http://www.w3.org/2000/svg"><path d="M165.807186 254.671169c-2.064204 7.48274-3.612357 15.171899-4.644459 23.067479h-0.051605v0.103211h0.051605c-5.676561 45.051252 7.431134 88.089906 33.130475 121.22038 25.69934 33.130474 64.093534 56.507585 109.041576 62.184145v0.051605h0.10321v-0.051605c44.948042 5.676561 87.986696-7.431134 121.168775-33.130474v0.051605c33.130474-25.69934 56.507585-64.093534 62.184146-109.093181h0.051605v-0.103211h-0.051605c0.980497-7.534345 1.393338-15.068689 1.290127-22.448218-8.256816-0.774077-17.339314-2.219019-27.711939-3.405937 0.309631 7.379529 0 14.862269-0.980496 22.396614h-0.051606v0.10321h0.051606c-4.747669 37.310487-24.202792 69.202439-51.811521 90.618555v0.051606c-27.608729 21.416117-63.371063 32.304793-100.733155 27.557123v-0.051605H306.68911v0.051605c-37.258882-4.696064-69.150834-24.151187-90.566951-51.81152-21.467722-27.608729-32.356398-63.422668-27.660334-100.733156h0.051605V281.144585h-0.051605c1.032102-7.998791 2.683465-15.68795 5.005695-23.119085-9.237313-1.135312-18.474626-2.270624-27.660334-3.354331z" fill="#2B2622" /><path d="M179.740563 256.322532c-2.167414 7.534345-3.818777 15.27511-4.850879 23.2739-10.42423 82.36174 47.941138 157.601976 130.302878 168.026206C387.554301 457.995263 462.794537 399.6815 473.218767 317.31976c0.928892-7.534345 1.290128-15.017084 1.135313-22.396613-5.005695-0.670866-10.372625-1.393338-16.100792-2.012599-91.960288-9.959784-189.493927-25.59613-278.512725-36.588016z" fill="#FFFFFF" /><path d="M861.28912 311.591594c-60.068336 19.197097-159.717785-20.43562-135.566598-40.922844 101.249206-34.110971 164.465454-26.060576 135.566598 40.922844z" fill="#050509" /><path d="M735.475886 276.861362c-2.993096 1.032102-9.856574-0.928892-15.223505-4.334829-5.418536-3.405937-7.327924-7.069899-4.334828-8.050395 25.544525-8.618052 48.76682-14.552638 68.789598-17.597339 21.932168-3.302726 40.871239-3.096306 55.785113 0.980496 20.900066 5.728166 34.059366 15.842766 37.878144 30.65343 2.52865 9.804969 0.774077 22.551429-6.037797 38.239379-0.928892 2.167414-6.657058 1.599758-12.74646-1.238522-6.089402-2.838281-10.269415-6.915083-9.340523-9.082498 6.502243-15.017084 8.256816-26.886257 5.934587-35.762334-1.651363-6.399032-4.799274-10.062995-9.082498-11.249912-10.21781-2.838281-25.389709-2.683465-44.483596 0.258025-19.351913 2.941491-42.058157 8.721262-67.138235 17.184499zM318.867913 267.985284c-13.159301 2.219019-23.944766 12.84967-25.69934 26.731442-2.167414 17.029683 9.959784 32.666028 26.989468 34.781838 17.081288 2.167414 32.614423-9.959784 34.781837-26.989468 0.154815-1.393338 0.258026-2.786675 0.258026-4.180013-2.941491 0.516051-5.986192 0.567656-9.082498 0.206421-15.68795-1.909389-27.144283-15.223505-27.247493-30.55022z m-7.276319 32.149978c-4.95409-0.619261-9.598549 2.941491-10.21781 7.89558-0.619261 5.005695 2.889886 9.598549 7.895581 10.21781 5.005695 0.619261 9.598549-2.941491 10.217809-7.947185 0.670866-4.95409-2.889886-9.546944-7.89558-10.166205z" fill="#2B2622" /><path d="M649.192158 381.77453c52.069546 39.787532 208.587814 71.318248 204.717432-35.091468-3.251121-86.954594-100.991181-52.121151-163.588167-43.348284-69.71849 9.701759-125.297183 14.191403-41.129265 78.439752z" fill="#FFFFFF" /><path d="M666.067026 381.619715c22.757849 17.390919 66.776999 33.027264 102.126493 31.737136 10.42423-0.361236 20.53883-2.219019 29.776143-5.831376 10.166205-3.973593 18.887467-10.011389 25.389709-18.526231 8.205211-10.733861 12.74646-25.286499 12.023988-44.380386-1.548153-41.07766-20.177594-50.624603-42.987048-49.798921-16.874868 0.619261-37.465303 4.489644-56.86882 8.153605l-1.186917 0.206421c-11.043491 2.064204-21.828957 4.128408-31.840347 5.47014l-8.308421 1.135313-28.12478 71.834299z m119.517412 42.987048c-56.817215 2.115809-122.304087-18.990677-153.267147-42.677418-40.303583-30.808245-49.747316-48.715214-40.922845-60.274756 10.011389-13.107695 41.645316-17.494129 78.336542-22.551429l8.256816-1.135312c9.082498-1.290128 19.145492-3.147911 29.569723-5.108905l1.032102-0.206421c21.364511-4.025198 44.01915-8.308421 66.518974-9.134102 52.533992-1.960994 95.21141 10.166205 97.224008 65.177241 0.774077 19.867964-4.076803 35.143073-12.694855 46.44459-7.327924 9.546944-17.442524 16.462027-29.414907 21.158091-12.95288 5.108905-28.22799 7.68916-44.638411 8.308421z m-91.392632-114.769742l-0.361236 0.051605c-31.582321 4.334828-58.674999 8.102001-66.260948 18.01018-7.379529 9.650154 1.599758 25.544525 38.497404 53.720909l28.12478-71.782694z m0 0z" fill="#2B2622" /><path d="M765.87129 315.926422c11.972383 0.928892 22.499824 9.598549 25.183288 21.983773 3.302726 15.120294-6.295822 30.137378-21.364511 33.3885-15.120294 3.302726-30.085773-6.295822-33.3885-21.467722-0.309631-1.238522-0.464446-2.477045-0.567656-3.715567 2.683465 0.20642 5.418536 0.051605 8.205211-0.567656 13.830167-2.993096 23.015875-15.791161 21.932168-29.621328z m9.082497 28.279595c4.438039-0.980497 8.824472 1.857784 9.804969 6.295822 0.980497 4.438039-1.857784 8.824472-6.295822 9.804969-4.438039 0.928892-8.824472-1.857784-9.804969-6.295822-0.928892-4.438039 1.857784-8.824472 6.295822-9.804969zM496.337852 251.781283c-2.683465-5.676561-9.237313-11.869173-14.552638-13.881772-5.36693-2.064204-7.534345 0.928892-4.799274 6.553848 8.411631 17.648944 13.520536 29.208487 10.52744 34.472207-3.354332 5.986192-16.255607 6.760268-44.225571 2.786675h-0.154815c-43.141864-6.037797-93.147206-12.436829-143.100942-18.784256-48.508794-6.244217-97.069193-12.436829-143.358968-18.939072-4.592854-0.619261-5.16051 3.715567-1.290128 9.650154 3.870383 5.986192 10.733861 11.353122 15.326715 11.972383 43.296679 6.089402 93.405231 12.488434 143.513783 18.887466 48.353979 6.192612 96.707957 12.385224 142.842917 18.835862h0.258026c31.582321 4.438039 46.44459 3.044701 51.089049-5.26372 5.108905-8.927682-1.393338-23.789951-12.075594-46.289775z" fill="#2B2622" /><path d="M623.854054 757.872499c-5.108905-8.979287-14.655848-16.565237-18.681046-25.90576-18.526231-43.81273 39.426296-112.344303 48.405584-146.197248 4.438039-16.720052-9.753364-8.102001-47.528297-10.682256-151.306153-10.32102-316.029633-100.217104-401.281258-46.186565-82.619765 52.379177-62.906617 191.764552 77.098019 228.971829 89.173613 23.686741 205.852744 26.318601 296.419695 20.900066 23.17069-1.393338 57.178451-0.412841 45.567303-20.900066z" fill="#FFFFFF" /><path d="M634.897546 761.12362c-2.477045-4.386434-5.779771-8.205211-9.030893-12.127198-3.715567-4.386434-7.431134-8.721262-9.443733-13.520536l-0.10321-0.154816-0.206421-0.464445h0.051605c-11.714358-29.053671 10.52744-69.460465 28.898856-102.90057 8.927682-16.255607 16.926473-30.808245 19.816359-41.748526 2.786675-10.579046-2.838281-15.791161-19.197097-19.609938-5.831376-1.393338-11.301517-1.135312-18.784257-0.877287-7.276319 0.258026-16.874868 0.619261-28.589225-0.154815h-0.051605c-55.888323-3.818777-114.408507-19.042282-169.729174-33.440105-94.385728-24.564028-180.153404-46.909036-234.64839-12.282014-20.487225 12.95288-34.730232 31.221086-42.522603 51.914731-9.908179 26.370206-9.288918 56.76561 2.373835 85.354836 11.972383 29.466512 36.12357 57.539687 73.227637 78.284936 17.081288 9.546944 36.484806 17.494129 58.210553 23.2739h0.051605l0.258025 0.103211c13.210906 3.457542 26.937862 6.553848 41.026055 9.185707 13.881772 2.580255 28.12478 4.799274 42.522602 6.657058 73.021217 9.340523 152.441466 9.650154 218.186363 5.728166h0.051605c0.20642 0 0.361236 0 0.516051-0.051605 1.444943-0.10321 4.334828-0.20642 7.27632-0.30963 23.738346-1.135312 51.450285-2.42544 39.839137-22.86106z m-30.137379-17.081288c2.993096 3.509147 5.986192 7.018294 7.998791 10.630651 9.134103 16.049186-14.965479 17.184498-35.607519 18.164995-1.909389 0.051605-3.921988 0.20642-7.327924 0.361236h-0.516051 0.051605H569.204253c-64.506375 3.870383-142.326866 3.612357-213.593509-5.521746-13.675352-1.754573-27.092678-3.818777-39.993952-6.244217-12.74646-2.42544-25.080079-5.108905-36.794437-8.256816l-0.258025-0.051605c-15.068689-4.025198-28.382805-9.392128-39.839137-15.842766-30.705035-17.184498-51.39868-42.109762-62.390566-69.099229-11.353122-27.866754-11.869173-57.591292-2.219019-83.393841 7.637555-20.229199 21.570932-38.084564 41.542105-50.779419 50.882629-32.253188 131.33498-11.301517 219.940936 11.714358 57.488081 14.965479 118.278889 30.808245 177.77957 34.885047l0.412841 0.051606c11.920778 0.825682 21.312906 0.567656 28.744041 0.30963-0.154815 0.10321-0.258026 0.20642-0.258026 0.361236-2.889886 10.888676-10.837071 25.286499-19.661543 41.335685-18.629441 33.852946-41.18087 74.827395-28.950461 105.067984h0.051605l0.154815 0.361235 0.10321 0.309631c2.32223 5.728166 6.553848 10.682256 10.785466 15.636345z m49.489291-163.433352c4.231618 0.980497 0.722471 0.412841-3.560752 0.051606 2.064204-0.051605 3.457542-0.10321 3.560752-0.051606z" fill="#2B2622" /><path d="M175.508945 624.524921c-2.373835 4.076803-8.411631 8.772867-13.468931 10.475835-5.0573 1.702968-7.276319-0.20642-4.902484-4.231618 13.417326-23.06748 27.505518-33.130474 41.077659-35.349494 9.392128-1.548153 16.874868 3.251121 22.809454 10.32102 16.462027 19.506728 20.900066 23.841556 21.467722 23.377111l0.051605-0.051606c0.258026-0.361236 1.548153-2.838281 3.044701-5.47014h-0.051605c3.354332-5.831376 6.553848-11.507937 14.088192-16.978078 10.837071-7.89558 22.396613-7.89558 37.310488 12.540039l0.051605 0.10321 0.567656 0.774077 0.051605 0.10321c2.52865 3.715567 4.334828 7.379529 6.089402 10.940281 4.644459 9.495338 8.669657 17.752154 20.74525 15.584741h0.154815c9.030893-1.651363 21.261301-6.657058 33.3885-11.662753 9.185708-3.767172 18.319811-7.534345 26.679837-10.166205 5.005695-1.599758 6.966689 0.464446 4.438038 4.592854s-8.669657 8.772867-13.675351 10.32102c-7.224714 2.270624-15.48153 5.728166-23.841556 9.082498-13.623746 5.624956-27.350703 11.249912-38.910246 13.417326l-0.619261 0.154815c-18.11339 3.251121-22.861059-6.399032-28.279595-17.494129-1.754573-3.612357-3.612357-7.379529-5.831376-10.579045l-0.619261-0.877287v-0.051605c-10.733861-14.707454-11.817568-20.022779-12.488435-19.506728 0.20642 0.670866 0 1.599758-0.516051 2.73507-0.051605 0.20642-0.154815 0.361236-0.258025 0.567656-2.838281 5.005695-5.779771 10.166205-11.404727 15.27511l-0.258026 0.258026-0.154815 0.154815-0.464446 0.412841-0.051605 0.051605-0.154815 0.10321-0.154816 0.10321c-12.540039 10.579046-27.815149 12.694855-49.798921-13.365721-4.902485-5.779771-10.42423-9.856574-16.100791-8.927682-1.444943 0.154815-4.489644 3.870383-10.01139 13.262511z" fill="#2B2622" /></svg>