<?xml version="1.0" standalone="no"?><!DOCTYPE svg PUBLIC "-//W3C//DTD SVG 1.1//EN" "http://www.w3.org/Graphics/SVG/1.1/DTD/svg11.dtd"><svg class="icon" width="200px" height="200.00px" viewBox="0 0 1024 1024" version="1.1" xmlns="http://www.w3.org/2000/svg"><path d="M859.637756 310.817518c1.341733 5.779771 2.373835 11.714358 3.147911 17.752154h0.051606V328.724487h-0.051606c6.141007 48.818425-8.050396 95.52104-35.917149 131.489795-27.866754 35.91715-69.51207 61.255254-118.278889 67.447866v0.051605H708.434813v-0.051605c-48.76682 6.141007-95.469435-8.050396-131.43819-35.968755v0.051605c-35.968755-27.866754-61.306859-69.51207-67.49947-118.278889h-0.051605V373.311294h0.051605c-1.083707-8.463236-1.548153-16.926473-1.393338-25.234894 8.824472 0.877287 18.835862 0.258026 29.982563-1.032102-0.20642 7.431134 0.154815 14.965479 1.135312 22.551428h0.051605V369.750542h-0.051605c5.108905 40.458398 26.215391 75.085421 56.146349 98.307715v0.051605c29.930958 23.222295 68.737993 35.039863 109.247997 29.930958v-0.051605H704.770851v0.051605c40.406793-5.16051 75.033815-26.215391 98.256111-56.197953 23.222295-29.982563 35.091468-68.789598 29.982563-109.299602h-0.051605v-0.206421h0.051605c-0.774077-5.986192-1.857784-11.869173-3.302727-17.597339 10.372625-0.464446 20.280804-1.909389 29.930958-3.921987z" fill="#2B2622" /><path d="M844.827093 313.346167c1.341733 5.624956 2.373835 11.353122 3.096306 17.184499 11.301517 89.328428-51.966336 170.916091-141.294764 182.217608-89.328428 11.301517-170.916091-51.966336-182.217608-141.294764-0.980497-7.79237-1.393338-15.533135-1.290128-23.17069 24.460817-1.186917 55.733508-8.669657 93.095601-12.023988 37.620118-3.405937 75.033815-13.107695 114.253691-16.668447 26.731442-2.42544 59.707101-4.747669 92.837575-4.74767 7.431134 0 14.552638-0.567656 21.519327-1.496548z" fill="#FFFFFF" /><path d="M168.645467 373.517714c54.804616 17.494129 145.681197-18.629441 123.697425-37.362092-92.424734-31.06627-150.119236-23.738346-123.697425 37.362092z" fill="#050509" /><path d="M283.415209 341.832183c2.73507 0.928892 8.979287-0.825682 13.881772-3.973593 4.95409-3.147911 6.708663-6.399032 3.973593-7.379529-23.2739-7.843975-44.483596-13.262511-62.751802-16.049186-20.022779-3.044701-37.310487-2.838281-50.882628 0.877286-19.042282 5.212115-31.06627 14.449428-34.575417 27.969964-2.32223 8.927682-0.670866 20.53883 5.521745 34.885048 0.877287 1.960994 6.037797 1.444943 11.611148-1.186917s9.392128-6.295822 8.514841-8.256816c-5.934587-13.726957-7.534345-24.512423-5.418535-32.666029 1.548153-5.831376 4.386434-9.185708 8.308421-10.269414 9.340523-2.580255 23.17069-2.42544 40.561609 0.20642 17.648944 2.838281 38.342589 8.153606 61.255253 15.842766zM691.817971 317.939021c14.294613 2.42544 25.957365 13.933377 27.866754 29.053672 2.32223 18.474626-10.785466 35.401099-29.260092 37.723328-18.526231 2.32223-35.401099-10.785466-37.723328-29.260092-0.20642-1.548153-0.258026-3.044701-0.258025-4.541249 3.147911 0.516051 6.502243 0.619261 9.856574 0.206421 16.926473-2.115809 29.363302-16.513632 29.518117-33.18208z m7.843975 34.885048c5.418536-0.670866 10.372625 3.199516 11.043492 8.566447 0.670866 5.418536-3.147911 10.372625-8.566447 11.095096-5.418536 0.670866-10.372625-3.147911-11.043491-8.566447-0.722471-5.470141 3.147911-10.42423 8.566446-11.095096z" fill="#2B2622" /><path d="M362.164592 437.559643c-47.528297 36.32999-190.319609 65.074031-186.758857-31.995162 2.941491-79.317039 92.166709-47.476692 149.241949-39.529506 63.577483 8.824472 114.253691 12.901275 37.516908 71.524668z" fill="#FFFFFF" /><path d="M346.734667 437.404828c-20.74525 15.894371-60.894018 30.137378-93.198811 28.950461-9.495338-0.361236-18.732651-2.012599-27.144282-5.315325-9.237313-3.612357-17.236103-9.134103-23.17069-16.926473-7.48274-9.804969-11.611148-23.06748-10.991886-40.510004 1.393338-37.465303 18.423021-46.186565 39.219876-45.412488 15.429925 0.567656 34.162576 4.128408 51.863125 7.431135l1.083707 0.154815c10.1146 1.909389 19.867964 3.767172 29.002067 5.005695l7.585949 1.032102 25.750945 65.590082z m-109.041576 39.219876c51.863126 1.909389 111.570226-17.287709 139.849821-38.910246 36.794436-28.12478 45.360883-44.431991 37.362092-54.959431-9.134103-12.023988-37.981354-15.945976-71.524668-20.53883l-7.534345-1.032102c-8.308421-1.135312-17.494129-2.889886-26.989467-4.644459l-0.928892-0.20642c-19.506728-3.715567-40.148768-7.58595-60.687598-8.360026-47.889533-1.754573-86.851383 9.288918-88.709167 59.50068-0.670866 18.164995 3.715567 32.046767 11.611148 42.367787 6.657058 8.721262 15.894371 15.017084 26.834652 19.300307 11.817568 4.592854 25.750945 6.915083 40.716424 7.48274z m83.393841-104.706748l0.361236 0.051605c28.795646 3.973593 53.514489 7.431134 60.481177 16.462027 6.708663 8.824472-1.496548 23.325505-35.143073 49.024845l-25.69934-65.538477z m0 0z" fill="#2B2622" /><path d="M255.703271 377.491307c-10.940281 0.877287-20.53883 8.772867-23.015875 20.022779-3.044701 13.778562 5.779771 27.453913 19.506728 30.447009 13.830167 2.993096 27.453913-5.728166 30.447009-19.558333 0.258026-1.135312 0.412841-2.270624 0.516051-3.405937-2.42544 0.154815-4.95409 0.051605-7.48274-0.516051-12.591644-2.73507-21.003276-14.397823-19.971173-26.989467z m-8.308421 25.80255c-4.025198-0.877287-8.050396 1.702968-8.927683 5.728166-0.877287 4.025198 1.702968 8.050396 5.728166 8.927682 4.076803 0.877287 8.050396-1.702968 8.927683-5.728166 0.877287-4.025198-1.651363-8.050396-5.728166-8.927682zM499.330948 300.393287c2.889886-6.141007 9.959784-12.84967 15.791161-15.017084 5.831376-2.219019 8.153606 0.980497 5.212115 7.121504-9.082498 19.093887-14.655848 31.633926-11.456333 37.413698 3.663962 6.502243 17.597339 7.276319 47.941138 3.0447h0.206421c46.805826-6.553848 100.991181-13.520536 155.228141-20.435619 52.637202-6.708663 105.326009-13.468931 155.486166-20.487225 5.005695-0.722471 5.573351 3.973593 1.393338 10.475835-4.231618 6.502243-11.662753 12.333619-16.668448 13.004486-46.960641 6.605453-101.300811 13.572141-155.640981 20.487224-52.430782 6.708663-104.861563 13.417326-154.918511 20.43562l-0.30963 0.051605c-34.265786 4.799274-50.366578 3.251121-55.423878-5.728166-5.470141-9.856574 1.548153-25.957365 13.159301-50.366578z" fill="#2B2622" /><path d="M364.899662 625.505418c2.889886-3.096306 7.89558-5.624956 11.095097-5.573351 3.199516 0.051605 3.457542 2.63186 0.516051 5.779771-9.908179 10.630651-21.158091 19.300307-33.49171 26.576626-6.141007 3.612357-12.436829 6.863478-18.939072 9.753364 16.616842 4.644459 33.130474 9.495338 49.386081 14.913874 17.339314 4.025198 33.543315 9.030893 48.715214 15.1719 23.2739 9.340523 44.277176 21.364511 63.474273 36.4332 1.651363 1.290128 0 4.489644-3.767172 7.327925-3.921988 2.889886-8.618052 4.231618-10.475835 2.993095-25.69934-16.565237-53.308068-29.672933-82.052109-40.664819-9.443733-3.612357-19.042282-7.018294-28.744041-10.217809-4.180013-0.980497-8.411631-1.857784-12.74646-2.735071 0.825682 5.573351 1.960994 10.888676 3.405937 16.152397 2.52865 9.134103 5.934587 17.90697 10.32102 26.886257 0.928892 1.857784-1.754573 5.418536-6.037797 7.947185-4.231618 2.52865-8.411631 3.044701-9.340523 1.186918-4.541249-9.340523-8.050396-18.268205-10.579045-27.453914-2.52865-9.237313-4.180013-18.784256-4.902485-29.156881-0.051605-0.567656 0.154815-1.238522 0.567656-1.960994-10.21781-3.044701-20.487225-5.882981-30.85985-8.721262-1.290128-0.361236-1.806179-1.341733-1.290127-2.83828 0.928892-2.73507 5.16051-6.192612 9.392128-7.68916 11.095097-3.921988 21.622537-8.514842 31.117875-14.088193 9.288918-5.470141 17.752154-12.023988 25.234894-20.022778z" fill="#2B2622" /></svg>