<?xml version="1.0" standalone="no"?><!DOCTYPE svg PUBLIC "-//W3C//DTD SVG 1.1//EN" "http://www.w3.org/Graphics/SVG/1.1/DTD/svg11.dtd"><svg class="icon" width="200px" height="200.00px" viewBox="0 0 1024 1024" version="1.1" xmlns="http://www.w3.org/2000/svg"><path d="M571.010432 263.031195c48.76682 49.17966 237.125435 6.915083 236.815804-35.091468-79.626669-85.922492-173.444741-88.709167-236.815804 35.091468z" fill="#050509" /><path d="M785.842463 236.144938c2.32223 2.580255 14.088192 1.032102 26.215391-3.509147 12.127199-4.541249 20.074384-10.269415 17.752155-12.84967-20.074384-21.674142-41.129265-38.136169-62.442171-48.715214-23.325505-11.559542-48.147558-16.204001-73.588873-13.056091-35.607519 4.386434-67.809101 18.423021-95.056594 43.141864-18.061785 16.358817-34.833443 38.85864-49.747317 67.963917-2.012599 3.973593 6.192612 4.489644 18.371416 1.186917 12.178804-3.354332 23.686741-9.288918 25.69934-13.262511 14.191403-27.763544 29.776143-48.76682 46.134959-63.629088 11.817568-10.682256 21.364511-16.204001 28.692436-17.132893 17.442524-2.167414 36.794436 2.167414 57.07524 12.230408 20.64204 10.166205 41.18087 26.318601 60.894018 47.631508z" fill="#2B2622" /><path d="M136.340674 443.49423c46.44459 33.801341 187.120093-29.672933 179.895379-64.661191C239.499269 318.919518 165.394346 330.582271 136.340674 443.49423z" fill="#050509" /><path d="M300.341682 388.896034c2.270624 1.806179 11.198307-1.238522 19.971174-6.863478 8.772867-5.573351 14.036587-11.611148 11.765963-13.365721-19.300307-15.120294-38.600615-25.750945-57.075241-31.324296-20.229199-6.192612-40.458398-6.399032-59.913521 0.051605-27.195888 8.979287-50.160157 25.544525-67.396261 50.211762-11.456332 16.410422-20.84846 37.671723-27.711938 64.196745-0.928892 3.612357 5.624956 2.838281 14.604243-1.754574s17.029683-11.249912 17.958575-14.862268c6.502243-25.338104 15.223505-45.206068 25.596129-60.068337 7.48274-10.682256 14.036587-16.720052 19.609938-18.577836 13.365721-4.438039 29.208487-3.663962 46.805826 1.651363 17.958575 5.470141 36.794436 15.894371 55.785113 30.705035zM632.162475 249.613869l0.103211 0.051605c57.849317-21.003276 118.743335-16.565237 170.348435 7.534345 51.6051 24.099582 94.024492 67.912312 115.027768 125.710023l0.10321-0.051605 0.051605 0.10321v0.051605h-0.051605c21.003276 57.900922 16.565237 118.846545-7.534345 170.451646s-67.963917 94.024492-125.761628 115.079373l0.051605 0.051605-0.10321 0.051605-0.051606 0.051605v-0.051605c-57.849317 20.951671-118.743335 16.513632-170.40004-7.58595v0.051606c-51.6051-24.099582-94.024492-67.963917-115.079373-125.761629h-0.051605l-0.051605-0.10321v-0.051606h0.051605C477.811621 477.347175 482.24966 416.453157 506.349242 364.848057l0.051605-0.051605C530.500428 313.242957 574.313158 270.77196 632.11087 249.768684l-0.051605-0.051605 0.10321-0.10321z m12.901275 35.297888v0.051605h-0.051605l-0.10321 0.051605v-0.051605c-47.992743 17.494129-84.477549 52.792017-104.551933 95.727461l0.051606 0.051605c-20.074384 42.987048-23.841556 93.663257-6.399033 141.656l0.10321-0.051605v0.051605l0.051605 0.154815h-0.051605c17.442524 47.992743 52.792017 84.425944 95.779066 104.500328v0.051605c42.935443 20.074384 93.560046 23.789951 141.707605 6.347427l-0.051605-0.10321h0.051605l0.10321-0.051605v0.051605c47.941138-17.442524 84.374339-52.740412 104.448722-95.727461 20.074384-43.038653 23.841556-93.663257 6.399033-141.707605l-0.051605 0.051606v-0.051606l-0.051605-0.10321 0.051605-0.051605c-17.442524-47.941138-52.792017-84.322733-95.779066-104.397117-43.038653-20.177594-93.714862-23.893161-141.656-6.450638z" fill="#2B2622" /><path d="M638.561508 267.262813c105.94527-38.4458 223.037242 16.255607 261.534647 122.200877 38.4458 105.94527-16.255607 223.037242-122.200877 261.534647-105.94527 38.4458-223.037242-16.255607-261.534647-122.149272-38.4458-105.94527 16.307212-223.088847 122.200877-261.586252z" fill="#FFFFFF" /><path d="M660.54528 437.043592c12.075593-0.670866 23.738346 6.553848 28.073175 18.526231 5.315325 14.655848-2.270624 30.911455-16.874868 36.175175-14.655848 5.315325-30.85985-2.219019-36.175175-16.926473-0.412841-1.238522-0.774077-2.42544-1.032102-3.663962 2.683465-0.154815 5.418536-0.670866 8.102001-1.651363 13.365721-4.799274 20.84846-18.835862 17.906969-32.459608z m12.84967 27.041073c4.283223-1.548153 9.082498 0.670866 10.579046 4.954089 1.548153 4.334828-0.670866 9.082498-4.95409 10.630651-4.283223 1.599758-9.082498-0.670866-10.63065-4.95409-1.548153-4.334828 0.670866-9.082498 5.005694-10.63065zM196.460616 410.20894h0.051605c40.871239-14.810664 83.858288-11.714358 120.291488 5.366931 36.433201 16.978078 66.415764 47.941138 81.226428 88.760772l0.051605-0.051605v0.10321h-0.051605c14.862269 40.871239 11.714358 83.858288-5.315326 120.343093-17.029683 36.433201-47.992743 66.415764-88.812377 81.226427v0.051606h-0.10321v-0.051606c-40.871239 14.810664-83.858288 11.662753-120.343093-5.36693v0.051605c-36.433201-17.029683-66.415764-47.992743-81.226428-88.812377h-0.051605l-0.051605-0.10321-0.051605-0.051605h0.051605c-14.862269-40.819634-11.714358-83.858288 5.315325-120.291488l0.051605-0.051606c17.029683-36.433201 47.941138-66.364159 88.760772-81.174822v-0.051605l0.206421 0.10321z m9.134103 24.873658v0.051605h-0.051606v-0.051605c-33.904551 12.333619-59.603891 37.258882-73.795293 67.602681h0.051605c-14.191403 30.395404-16.823263 66.157738-4.541248 100.062289l0.051605-0.051605v0.051605l0.051605 0.051606h-0.051605c12.333619 33.852946 37.258882 59.603891 67.602681 73.795293v0.051605c30.292194 14.191403 66.054528 16.771658 100.010684 4.438038v-0.051605l0.051605-0.051605h0.051605v0.051605c33.852946-12.333619 59.552285-37.258882 73.743688-67.602681 14.191403-30.395404 16.823263-66.157738 4.541249-100.062289h-0.051605v-0.10321h0.051605c-12.333619-33.852946-37.258882-59.552285-67.602681-73.743688-30.498614-14.088192-66.260948-16.720052-100.113894-4.438039z" fill="#2B2622" /><path d="M201.001865 422.645769c74.827395-27.195888 157.498765 11.456332 184.694653 86.283728 27.195888 74.77579-11.456332 157.498765-86.283728 184.694653-74.827395 27.144283-157.498765-11.507937-184.694653-86.283728-27.144283-74.827395 11.456332-157.55037 86.283728-184.694653z" fill="#FFFFFF" /><path d="M216.328579 539.428111c9.856574-0.516051 19.351913 5.36693 22.912665 15.120294 4.334828 11.920778-1.857784 25.183289-13.778562 29.518117-11.972383 4.334828-25.183289-1.806179-29.518117-13.778562-0.361236-0.980497-0.619261-1.960994-0.825682-2.94149 2.167414-0.154815 4.386434-0.567656 6.553848-1.341733 10.940281-4.025198 17.081288-15.48153 14.655848-26.576626z m10.475836 22.035377c3.509147-1.290128 7.379529 0.516051 8.669656 4.025198s-0.567656 7.379529-4.025197 8.669657c-3.509147 1.290128-7.379529-0.567656-8.669657-4.025198-1.290128-3.509147 0.516051-7.431134 4.025198-8.669657zM683.870786 843.536965c9.030893 0 16.358817 5.26372 16.358816 11.662753 0 6.450638-7.327924 11.714358-16.358816 11.714357s-16.358817-5.212115-16.358817-11.714357c0-6.399032 7.327924-11.662753 16.358817-11.662753z" fill="#2B2622" /></svg>