<?xml version="1.0" standalone="no"?><!DOCTYPE svg PUBLIC "-//W3C//DTD SVG 1.1//EN" "http://www.w3.org/Graphics/SVG/1.1/DTD/svg11.dtd"><svg class="icon" width="200px" height="178.55px" viewBox="0 0 1147 1024" version="1.1" xmlns="http://www.w3.org/2000/svg"><path d="M425.157435 502.609556h-37.691369M352.674032 502.609556H227.665448a6.742642 6.742642 0 0 1-2.562204-13.485284c26.296304-11.664771 62.773998-29.060787 81.990528-43.624895a453.038123 453.038123 0 0 0 62.369439-60.683779h411.301169a345.223276 345.223276 0 0 0 57.312458 56.840473c18.002854 12.81102 59.402677 33.713211 87.249789 47.198495a6.742642 6.742642 0 0 1-2.764484 13.080726H479.098572M424.820303 229.262845a649.181582 649.181582 0 0 1-105.252643 47.940185 6.203231 6.203231 0 0 0 1.887939 12.001903h516.014401a4.652423 4.652423 0 0 0 1.483381-8.900287c-37.354237-14.092122-108.691391-43.220336-150.698051-74.641048-31.825271-23.599247-74.169063-70.258331-97.498605-97.094047a21.643881 21.643881 0 0 0-33.71321 0.404559C547.199257 121.380571 532.702577 137.832618 514.025458 156.509737" fill="#FBDEB5" /><path d="M367.238139 289.407213h413.526241v95.947797H367.238139z" fill="#F4D5E6" /><path d="M528.859271 269.516418m17.598296 0l53.87371 0q17.598296 0 17.598296 17.598296l0 103.229851q0 17.598296-17.598296 17.598296l-53.87371 0q-17.598296 0-17.598296-17.598296l0-103.229851q0-17.598296 17.598296-17.598296Z" fill="#F3A8BC" /><path d="M941.171836 718.239251v177.938325H205.684434v-177.938325" fill="#F3A8BC" /><path d="M494.741502 894.22221v-80.237441a18.070281 18.070281 0 0 1 16.249767-19.283957H635.865001a18.070281 18.070281 0 0 1 16.249767 19.283957v80.237441" fill="#FFFFFF" /><path d="M253.220061 718.239251H131.245666a9.304846 9.304846 0 0 1-3.034189-17.935428A767.582378 767.582378 0 0 0 216.87722 660.79194c35.061739-19.823368 85.092143-55.087386 85.092144-55.087386h546.154011s62.571719 42.478645 93.453019 57.717016c20.227926 9.776831 53.334299 24.273512 80.911705 35.938283a9.911684 9.911684 0 0 1-3.506173 18.879398h-593.352506" fill="#FBDEB5" /><path d="M325.905743 605.502275l-11.192786 30.341889a21.778734 21.778734 0 0 1-8.495729 12.743594 37.017105 37.017105 0 0 1-14.226975 2.157645c-18.474839 1.955366-29.532772 21.441602-45.917392 30.274463a202.751248 202.751248 0 0 1-37.017106 14.496681 666.510172 666.510172 0 0 1-148.338126 20.227926zM412.211562 390.411991a44.164306 44.164306 0 0 0-35.870856 31.353286 71.876565 71.876565 0 0 1-8.226023 20.834764c-8.495729 11.462492-25.150055 12.81102-36.54512 21.374176-6.742642 5.259261-11.799624 13.013299-18.946825 17.935428a56.570767 56.570767 0 0 1-23.127262 7.686612 333.895637 333.895637 0 0 1-139.572692-6.742642L348.965579 380.298028zM576.597177 96.028237a55.559371 55.559371 0 0 1-13.485284 72.078844c-19.149104 14.024696-47.198495 14.901239-62.639146 32.634388-8.630582 9.776831-12.473888 23.464395-22.318145 32.02755-17.193737 15.036092-43.490042 8.023744-66.212745 10.383669s-43.018057 14.766386-65.066497 20.227926a109.567934 109.567934 0 0 1-96.015223-23.262115z" fill="#FFFFFF" /><path d="M296.440397 498.429118h551.750404v102.690439H296.440397z" fill="#F4D5E6" /><path d="M941.171836 905.684701H205.684434a9.507125 9.507125 0 0 1-9.574551-9.507125v-177.938325a9.574552 9.574552 0 1 1 19.081677 0v168.566052h716.47315v-168.566052a9.574552 9.574552 0 1 1 19.081677 0v177.938325a9.507125 9.507125 0 0 1-9.574551 9.507125z" fill="#952D2E" /><path d="M817.174647 896.177576h-0.337132v-72.483403h45.78254v30.746448h45.715114v-30.746448h45.715113v30.746448h45.78254v-30.746448h45.715113v30.746448H1091.263049v-30.746448h45.78254v30.813875h0.202279v159.868044H9.608402v-180.028544H55.323515v30.746448h45.715114v-30.746448h45.78254v30.746448h45.715113v-30.746448h45.715114v30.746448h45.78254v-30.746448h45.715113v30.813874h0.269706v31.016154h487.155892z" fill="#F5E455" /><path d="M787.237316 1014.376092h-64.864217l-27.037995-112.534697h58.189002l33.71321 112.534697zM421.85354 1014.376092h-64.864217l33.713211-112.534697h58.121575l-26.970569 112.534697z" fill="#FBDEB5" /><path d="M516.385383 894.22221v-61.897455a14.496681 14.496681 0 0 1 14.024695-14.901239h107.882274a14.496681 14.496681 0 0 1 14.024696 14.901239v61.897455" fill="#E9D1E5" /><path d="M9.608402 942.701806A9.507125 9.507125 0 0 1 0.03385 933.194681v-17.598296a9.574552 9.574552 0 1 1 19.081677 0v17.598296a9.507125 9.507125 0 0 1-9.507125 9.507125z" fill="#952D2E" /><path d="M1137.247868 1023.950644H9.608402A9.574552 9.574552 0 0 1 0.03385 1014.376092v-47.198495a9.574552 9.574552 0 0 1 19.081677 0V1004.666687h1108.557789v-148.338126a10.451095 10.451095 0 0 1 0-2.090219v-21.306749h-26.970568v21.239323a9.574552 9.574552 0 0 1-9.574552 9.574551h-45.715113a9.641978 9.641978 0 0 1-9.574552-9.574551v-21.239323h-26.633437v21.239323a9.574552 9.574552 0 0 1-9.507125 9.574551h-45.78254a9.574552 9.574552 0 0 1-9.507125-9.574551v-21.239323h-26.970569v21.239323a9.641978 9.641978 0 0 1-9.574551 9.574551h-45.715114a9.574552 9.574552 0 0 1-9.574552-9.574551v-21.239323h-26.970568v60.683779a10.113963 10.113963 0 0 1 0 2.494777 9.574552 9.574552 0 0 1-9.574552 9.507126H329.951328a9.507125 9.507125 0 0 1-9.507125-9.507126v-28.925934a7.147201 7.147201 0 0 1 0-2.090219v-21.239323h-26.903142v21.171896a9.574552 9.574552 0 0 1-9.507125 9.574552h-45.78254a9.574552 9.574552 0 0 1-9.507126-9.574552v-21.171896H202.313113v21.171896a9.641978 9.641978 0 0 1-9.574551 9.574552h-45.917393a9.574552 9.574552 0 0 1-9.574552-9.574552v-21.171896h-26.970568v21.171896a9.574552 9.574552 0 0 1-9.102567 9.641979H55.323515a9.641978 9.641978 0 0 1-9.574551-9.574552v-21.171896H19.115527v26.970568a9.574552 9.574552 0 0 1-19.081677 0v-36.477694a9.507125 9.507125 0 0 1 9.574552-9.574552H55.323515a9.574552 9.574552 0 0 1 9.574552 9.574552v21.171896h26.970569v-21.171896a9.507125 9.507125 0 0 1 9.304846-9.641978h45.78254a9.507125 9.507125 0 0 1 9.507125 9.574552v21.171896h26.633436v-21.171896a9.574552 9.574552 0 0 1 9.574552-9.574552h45.715114a9.507125 9.507125 0 0 1 9.574551 9.574552v21.171896h26.970569v-21.171896a9.507125 9.507125 0 0 1 9.574552-9.574552h45.243128a9.574552 9.574552 0 0 1 9.574552 9.574552V863.071203a10.316242 10.316242 0 0 1 0 2.022793v21.441602h467.804509v-62.908851a9.507125 9.507125 0 0 1 9.507126-9.574552h45.78254a9.507125 9.507125 0 0 1 9.507125 9.574552v21.171896h26.633436v-21.171896a9.574552 9.574552 0 0 1 9.574552-9.574552h45.715114a9.507125 9.507125 0 0 1 9.574552 9.574552v21.171896h26.970568v-21.171896a9.507125 9.507125 0 0 1 9.574552-9.574552h45.715113a9.574552 9.574552 0 0 1 9.574552 9.574552v21.171896h26.970569v-21.171896a9.507125 9.507125 0 0 1 9.507125-9.574552h45.78254a9.507125 9.507125 0 0 1 9.507125 9.574552v28.723655a7.416906 7.416906 0 0 1 0 2.090219v159.868045a9.641978 9.641978 0 0 1-9.776831 9.641978zM837.47 298.981764H653.39587a9.574552 9.574552 0 1 1 0-19.149103h157.575546c-39.781588-16.047488-93.655299-40.455853-128.1102-66.280172C649.754844 188.806992 606.467081 141.136513 583.542098 114.637929a12.069329 12.069329 0 0 0-9.574552-4.450144 12.339035 12.339035 0 0 0-9.372272 4.652423c-13.485284 16.114915-27.981965 32.364682-43.759747 48.209891a9.574552 9.574552 0 1 1-13.485285-13.485284c19.081677-19.21653 33.713211-36.073135 42.613498-47.198494a31.08358 31.08358 0 0 1 23.868954-11.597345 32.094976 32.094976 0 0 1 24.206085 10.990507C620.356924 128.123213 662.63329 174.782297 693.986576 198.246691c40.455853 30.476742 110.511904 59.065545 148.338126 73.359946a14.159548 14.159548 0 0 1-4.854702 27.375127zM489.010256 298.981764H321.455599a15.777783 15.777783 0 0 1-5.124408-30.544168 639.80931 639.80931 0 0 0 103.63441-47.198495 9.574552 9.574552 0 0 1 9.709404 16.519473 620.323074 620.323074 0 0 1-89.340008 42.074087h148.338127a9.574552 9.574552 0 0 1 0 19.149103zM352.674032 512.453814H227.665448a16.047488 16.047488 0 0 1-15.710356-13.485285 16.38462 16.38462 0 0 1 9.304846-18.542265C247.623668 468.963772 283.224819 451.770035 301.2951 438.28475a443.328719 443.328719 0 0 0 60.683778-58.930692 9.641978 9.641978 0 0 1 7.34948-3.438747h119.681898a9.574552 9.574552 0 0 1 0 19.149103H373.845929a447.509157 447.509157 0 0 1-60.683779 58.458708 447.374304 447.374304 0 0 1-72.618256 39.646735H352.674032a9.574552 9.574552 0 0 1 0 19.149104zM425.157435 512.453814h-37.691369a9.574552 9.574552 0 0 1 0-19.149104h37.691369a9.574552 9.574552 0 0 1 0 19.149104zM922.562143 512.453814H479.098572a9.574552 9.574552 0 0 1 0-19.149104h431.529095a718.293664 718.293664 0 0 1-78.349501-43.018057 342.795925 342.795925 0 0 1-56.368488-55.087386H653.39587a9.574552 9.574552 0 0 1 0-19.149103h127.36851a9.574552 9.574552 0 0 1 7.484333 3.641026 339.559457 339.559457 0 0 0 55.357091 55.01996 751.33261 751.33261 0 0 0 85.901261 46.456804 16.452047 16.452047 0 0 1 8.698008 18.609692 15.912635 15.912635 0 0 1-15.64293 12.676168z" fill="#952D2E" /><path d="M779.550704 394.929562H653.39587a9.574552 9.574552 0 0 1 0-19.149104h116.647709V298.981764H653.39587a9.574552 9.574552 0 1 1 0-19.149103h126.154834a9.574552 9.574552 0 0 1 9.372273 9.574552v95.947797a9.574552 9.574552 0 0 1-9.372273 9.574552zM489.010256 394.929562H367.238139a9.574552 9.574552 0 0 1-9.507125-9.574552V289.407213a9.574552 9.574552 0 0 1 9.507125-9.574552h121.772117a9.574552 9.574552 0 0 1 0 19.149103H376.812691v76.798694h112.197565a9.574552 9.574552 0 0 1 0 19.149104zM573.158429 104.928525a47.737906 47.737906 0 0 1-19.621088-4.180439 50.906948 50.906948 0 0 1-26.970569-29.532772A54.615401 54.615401 0 0 1 525.959935 35.614164a9.574552 9.574552 0 0 1 18.205133 5.933525 35.736003 35.736003 0 0 0 0.404559 23.127262 32.364682 32.364682 0 0 0 17.126311 18.609692 29.128214 29.128214 0 0 0 22.924983 0.337132A34.050343 34.050343 0 0 0 602.421496 40.468866a32.364682 32.364682 0 0 0-17.126311-18.811972 29.128214 29.128214 0 0 0-22.924983 0A9.574552 9.574552 0 1 1 555.155575 3.65404a47.603053 47.603053 0 0 1 37.826222 0.539411A50.772095 50.772095 0 0 1 620.356924 33.726224a53.401725 53.401725 0 0 1-28.656229 67.426421 49.221287 49.221287 0 0 1-18.542266 3.77588zM451.790871 221.643659a9.439699 9.439699 0 0 1-7.754038-3.978158 9.574552 9.574552 0 0 1 2.090219-13.485285c4.247865-3.034189 8.29345-6.203231 12.069329-9.372272 8.226023-6.742642 16.452047-13.957269 24.475791-21.306749a9.574552 9.574552 0 1 1 12.878447 14.092122 466.118849 466.118849 0 0 1-25.352335 22.048439c-4.113012 3.438747-8.495729 6.742642-13.080725 10.18139a9.574552 9.574552 0 0 1-5.326688 1.820513zM1018.914499 727.746376h-593.352505a9.574552 9.574552 0 1 1 0-19.081677h593.352505v-0.606838c-25.689466-10.855654-60.683779-25.959172-80.911705-36.073135a1069.652744 1069.652744 0 0 1-92.239344-56.773047h-540.759897c-10.653375 7.484333-52.390329 36.342841-83.406483 53.941137a728.205348 728.205348 0 0 1-88.598317 39.579309h120.221308a9.574552 9.574552 0 0 1 0 19.081677H131.245666a18.27256 18.27256 0 0 1-18.002855-15.238371 18.609692 18.609692 0 0 1 11.529918-21.171896 719.170207 719.170207 0 0 0 87.654348-38.905045c34.185195-19.351383 83.743615-53.941137 84.283026-54.547975a9.372273 9.372273 0 0 1 5.46154-1.753086h546.154011a8.967714 8.967714 0 0 1 5.326687 1.68566c0.606838 0.404559 62.36944 42.276366 92.374197 57.042752 15.912635 7.821465 43.624894 20.227926 80.170015 35.736003a19.149104 19.149104 0 0 1 11.260212 21.778734 18.811971 18.811971 0 0 1-18.542266 15.305798z" fill="#952D2E" /><path d="M355.438516 727.746376h-62.908851a9.574552 9.574552 0 1 1 0-19.081677h62.908851a9.574552 9.574552 0 1 1 0 19.081677zM850.550726 615.211679a9.574552 9.574552 0 0 1-9.574552-9.507125V502.609556a9.574552 9.574552 0 0 1 19.149103 0v103.094998a9.574552 9.574552 0 0 1-9.574551 9.507125zM296.305544 615.211679a9.507125 9.507125 0 0 1-9.574551-9.507125V502.609556a9.574552 9.574552 0 1 1 19.081677 0v103.094998a9.507125 9.507125 0 0 1-9.507126 9.507125zM600.128998 417.449986h-53.941137a26.970568 26.970568 0 0 1-26.970569-26.970568V287.114714a26.970568 26.970568 0 0 1 26.970569-26.970568h53.941137a26.970568 26.970568 0 0 1 26.970568 26.970568v103.162425a26.970568 26.970568 0 0 1-26.970568 27.172847z m-53.941137-138.426442a8.091171 8.091171 0 0 0-8.091171 8.09117v103.162425a8.023744 8.023744 0 0 0 8.091171 8.023744h53.941137a8.023744 8.023744 0 0 0 8.09117-8.023744v-103.162425a8.091171 8.091171 0 0 0-8.09117-8.09117zM661.621894 894.22221h-19.081677v-80.237441c0-5.731246-3.506174-9.709405-6.742642-9.709405H510.991269c-3.169042 0-6.742642 3.978159-6.742642 9.709405v80.237441H485.504082v-80.237441a27.375127 27.375127 0 0 1 25.756893-28.791082H635.865001a27.375127 27.375127 0 0 1 25.756893 28.791082zM351.460357 1023.950644a9.169993 9.169993 0 0 1-3.236468-0.606838 9.507125 9.507125 0 0 1-5.731246-12.204182l40.455852-112.534697a9.574552 9.574552 0 1 1 18.002855 6.742642l-40.455853 112.534697a9.641978 9.641978 0 0 1-9.03514 6.068378zM423.134642 1023.950644a7.214627 7.214627 0 0 1-1.68566 0 9.507125 9.507125 0 0 1-7.754039-11.057933l20.227927-112.534697a9.507125 9.507125 0 0 1 11.125359-7.956318 9.641978 9.641978 0 0 1 7.754039 11.12536l-20.227927 112.534697a9.574552 9.574552 0 0 1-9.439699 7.888891zM787.439596 1023.950644a9.574552 9.574552 0 0 1-8.967714-6.338084l-40.455853-112.534697a9.574552 9.574552 0 1 1 18.002854-6.742642l40.455853 112.534697a9.439699 9.439699 0 0 1-5.731246 12.204182 9.169993 9.169993 0 0 1-3.303894 0.876544zM715.76531 1023.950644a9.574552 9.574552 0 0 1-9.372273-7.888891l-20.227926-112.534697a9.574552 9.574552 0 1 1 18.811972-3.371321l20.227926 112.534697a9.439699 9.439699 0 0 1-7.686612 11.057933 7.754038 7.754038 0 0 1-1.753087 0.202279zM148.371977 929.149096h-59.807236a9.574552 9.574552 0 1 1 0-19.081677H148.371977a9.574552 9.574552 0 1 1 0 19.081677zM279.314086 929.149096h-59.604956a9.574552 9.574552 0 1 1 0-19.081677h59.604956a9.574552 9.574552 0 0 1 0 19.081677zM939.283896 929.149096h-59.604956a9.574552 9.574552 0 0 1 0-19.081677h59.604956a9.574552 9.574552 0 0 1 0 19.081677zM1070.428285 929.149096h-59.53753a9.574552 9.574552 0 1 1 0-19.081677h59.53753a9.574552 9.574552 0 1 1 0 19.081677z" fill="#952D2E" /></svg>