<?xml version="1.0" standalone="no"?><!DOCTYPE svg PUBLIC "-//W3C//DTD SVG 1.1//EN" "http://www.w3.org/Graphics/SVG/1.1/DTD/svg11.dtd"><svg class="icon" width="200px" height="200.00px" viewBox="0 0 1024 1024" version="1.1" xmlns="http://www.w3.org/2000/svg"><path d="M254.722774 612.604143c-41.593711 37.258882-68.789598 85.664466-77.51086 133.089553-30.85985 168.232626 190.887265 228.610593 249.923499 75.08542 18.01018-46.805826 17.545734-109.712443-3.251121-182.836869-55.423877-3.921988-113.686035-21.364511-169.161518-25.338104z" fill="#D22220" /><path d="M238.312352 607.546843l0.051605-0.051605h0.051605c1.651363-1.393338 5.418536-2.115809 10.630651-1.754574 30.240589 2.167414 60.016731 7.79237 89.844479 13.365721 27.041072 5.0573 54.03054 10.166205 79.213828 11.920778 1.238522 0.10321 2.580255 0.258026 3.921988 0.464446 9.443733 1.496548 17.90697 5.573351 18.939072 9.134103 15.017084 52.843622 19.506728 100.423525 14.139797 140.520687-1.032102 7.79237-2.477045 15.326715-4.283223 22.603034-1.806179 7.276319-3.973593 14.191403-6.399032 20.64204l-0.103211 0.20642-0.10321 0.258026c-20.229199 52.533992-59.861916 80.761982-102.590939 88.657562h-0.10321c-24.564028 4.541249-50.882629 2.838281-76.633574-4.438039-24.409212-6.915083-46.599405-18.629441-64.145139-34.523812-32.253188-29.260092-51.295469-74.930605-40.716424-132.728317 6.295822-34.420602 22.293403-69.357254 46.392985-100.268709 4.902485-6.295822 9.908179-12.178804 14.965479-17.597339 5.005695-5.36693 10.52744-10.785466 16.616842-16.204002l0.309631-0.20642z m30.085773 12.643249c-4.592854 4.231618-9.185708 8.824472-13.726956 13.675352-5.418536 5.831376-10.372625 11.559542-14.707454 17.184498-23.686741 30.343799-39.374691 64.66119-45.515698 98.410926-10.166205 55.527088 7.276319 98.720556 37.155672 125.813234 12.798065 11.559542 27.092678 19.609938 41.4905 23.686741 13.107695 3.715567 28.021569 4.283223 43.39989 1.444942h-0.051606c38.394194-7.121504 74.466159-33.646525 93.714862-83.600262v-0.051605l0.10321-0.258025 0.051605-0.051605c2.52865-6.553848 4.592854-13.314116 6.347428-20.280805 1.754573-7.069899 3.147911-14.449428 4.180013-22.190193 5.0573-37.568513 1.290128-81.845689-11.869173-131.025349-23.17069-2.73507-46.186565-7.069899-69.202439-11.404727-24.254397-4.644459-48.457189-9.134103-71.369854-11.353122z" fill="#2B2622" /><path d="M113.686035 560.482991c-20.796855-4.95409-17.184498-10.011389 8.360027-10.475835 26.00897 1.754573 64.970821 12.023988 86.748173 21.312906 42.109762 17.752154 83.806682 35.246283 126.329285 45.360883 40.716424 9.701759 82.052109 11.146702 122.923348 12.023989 40.664819 0.154815 81.794084-0.567656 123.439399-0.670867 41.748526-0.10321 84.271128 1.186917 127.567807 3.302727 27.247493 2.270624 35.401099 7.58595 18.01018 11.198307-17.390919 3.509147-53.566094 4.799274-80.658771 3.354331-46.134959-1.135312-91.444237-1.548153-135.824623-1.496548-44.380386 0.051605-88.141511-0.619261-131.593005-3.560752-44.277176-6.966689-89.070403-17.700549-133.347579-33.285289-45.206068-15.997581-89.122008-33.233684-131.954241-47.063852z" fill="#2B2622" /><path d="M676.955702 161.988409c28.021569 82.67137 220.921433 153.370357 235.938518 108.2675-43.81273-141.036738-131.231769-201.724336-235.938518-108.2675z" fill="#050509" /><path d="M889.155874 265.456635c1.290128 4.180013 12.901275 9.753364 26.00897 12.385224 13.107695 2.63186 22.654639 1.341733 21.364511-2.838281-11.043491-35.504309-24.873658-66.157738-41.129264-90.56695-17.80376-26.783047-39.477902-47.012246-64.609586-59.29426-35.143073-17.184498-70.647382-21.983773-105.274404-12.333619-22.96427 6.399032-46.960641 20.125989-71.576273 42.109761-3.354332 2.993096 4.231618 8.618052 16.926472 12.591645 12.694855 3.921988 25.69934 4.696064 29.002067 1.651363 23.480321-20.951671 45.773724-33.904551 66.622184-39.684322 14.965479-4.180013 26.00897-4.231618 33.233684-0.670866 17.287709 8.463236 33.904551 24.925263 49.334476 48.250768 15.739556 23.531926 29.260092 53.462884 40.097163 88.399537z" fill="#2B2622" /><path d="M138.250063 216.689815c48.97324 52.895228 244.298544 14.759059 245.124225-29.053671-79.83309-92.218314-176.541047-98.04969-245.124225 29.053671z" fill="#050509" /><path d="M360.461624 195.480119c2.373835 2.73507 14.501033 1.496548 27.144282-2.838281s20.951671-10.062995 18.629441-12.849669c-20.074384-23.222295-41.38729-41.07766-63.061432-52.792018-23.789951-12.84967-49.231265-18.423021-75.549866-15.997581-36.846041 3.457542-70.440962 17.081288-99.185002 42.006552-19.042282 16.462027-36.949252 39.426296-53.101648 69.305649-2.167414 4.076803 6.295822 4.902485 18.939071 1.806178 12.64325-3.096306 24.667238-8.876077 26.834652-13.004485 15.37832-28.486015 31.995162-49.953737 49.282871-64.919216 12.436829-10.733861 22.448219-16.255607 29.982563-16.926472 18.061785-1.702968 37.878143 3.405937 58.520183 14.604243 21.054881 11.249912 41.800131 28.744041 61.564885 51.6051zM707.144686 211.838936l0.051605 0.051605c41.07766-14.191403 84.013103-10.372625 120.188278 7.173109s65.641687 48.97324 79.83309 89.999294l0.051605-0.051605V309.166154l-0.051605 0.051605c14.191403 41.129265 10.42423 84.064708-7.173109 120.239883-17.597339 36.12357-49.024845 65.590082-90.0509 79.83309l0.051605 0.051605H809.89044v-0.051605c-41.07766 14.191403-84.013103 10.372625-120.188278-7.224714s-65.641687-48.97324-79.83309-90.050899h-0.051605l-0.051605-0.103211h0.051605c-14.191403-41.07766-10.42423-84.013103 7.173109-120.188278h0.051605c17.597339-36.12357 48.97324-65.590082 89.999295-79.833089v-0.051605h0.10321z m8.669657 25.028473l-0.051606 0.051605h-0.051605v-0.051605c-34.110971 11.765963-60.223152 36.32999-74.879 66.467369h0.051605c-14.655848 30.137378-17.855365 65.848108-6.089401 99.907474h0.051605v0.10321h-0.051605c11.817568 34.059366 36.32999 60.171547 66.467368 74.827395v0.051605c30.085773 14.655848 65.796503 17.80376 99.907474 6.037797v-0.051605l0.051605-0.051605h0.10321v0.051605c34.007761-11.765963 60.119942-36.32999 74.77579-66.467369 14.655848-30.137378 17.855365-65.848108 6.089402-99.959079h-0.051605v-0.10321h0.051605c-11.765963-34.007761-36.32999-60.119942-66.467369-74.724185-30.137378-14.655848-65.848108-17.855365-99.907473-6.089402z" fill="#2B2622" /><path d="M711.479514 224.378975c75.188631-26.00897 157.24074 13.881772 183.24971 89.122008 26.00897 75.188631-13.881772 157.292345-89.122007 183.24971-75.188631 26.00897-157.24074-13.933377-183.249711-89.122008-26.00897-75.188631 13.881772-157.24074 89.122008-183.24971z" fill="#FFFFFF" /><path d="M756.840397 317.629391c18.474626-0.722471 36.071965 10.579046 42.419392 28.950461 7.79237 22.499824-4.180013 47.063851-26.628231 54.804616-22.499824 7.740765-47.063851-4.180013-54.856222-26.679837-0.670866-1.857784-1.135312-3.715567-1.496548-5.57335 4.076803-0.20642 8.256816-0.928892 12.385224-2.32223 20.590435-7.121504 32.356398-28.382805 28.176385-49.17966z m18.939072 41.4905c6.605453-2.270624 13.830167 1.238522 16.100791 7.79237 2.270624 6.605453-1.238522 13.830167-7.843975 16.100791-6.605453 2.270624-13.778562-1.238522-16.049186-7.79237-2.270624-6.605453 1.186917-13.830167 7.79237-16.100791zM233.151842 202.188782s0 0.051605 0 0c0.051605 0 0.051605 0.051605 0.051605 0.051605 25.338104-7.740765 50.985839-11.559542 75.601472-11.146702 24.770448 0.412841 48.715214 5.779771 70.492566 15.27511 21.983773 10.52744 42.212972 25.59613 58.778209 44.896437 17.287709 20.074384 30.96306 43.91594 39.839137 69.666885h0.051606v0.051605c0 0.051605 0 0.10321 0.051605 0.10321-0.051605-0.051605-0.10321 0-0.103211 0 8.979287 26.112181 11.920778 50.727813 8.927683 72.14393-2.889886 20.84846-11.920778 37.981354-25.854155 50.418183-14.088192 11.817568-33.130474 19.042282-55.785114 22.757849-22.603034 3.663962-48.76682 5.315325-77.356044 4.438039h-0.103211s0-0.051605-0.051605-0.051605c-28.073174 1.702968-55.991534 1.083707-82.155319 2.580255-25.957365 1.496548-50.160157 4.231618-71.782694 3.251121h-0.051605c-21.106486 0.928892-39.529507-2.115809-53.82412-10.42423-14.036587-8.153606-24.151187-22.345008-29.156881-42.729023l-0.051605 0.051605c-0.051605 0.051605-0.051605 0-0.051605 0v-0.051605l0.051605-0.051605c-4.95409-20.84846-4.592854-44.741622 0.258025-69.202439 4.696064-23.789951 13.726957-47.115456 26.473417-68.118732h0.051605c12.436829-19.609938 28.640831-37.362092 48.147558-51.347075 19.197097-13.830167 42.006551-24.770448 67.344656-32.511213-0.051605 0-0.051605 0-0.051606-0.051605 0.258026 0.051605 0.258026 0.051605 0.258026 0z m8.669657 21.674142v0.051605h-0.051605c-0.051605 0-0.10321 0.051605-0.103211 0.051605h-0.051605c-21.106486 6.295822-40.200373 15.429925-56.404374 26.989467-16.410422 11.765963-30.137378 26.215391-40.819634 42.109762h0.051605c-10.785466 16.668447-18.474626 34.781837-22.448219 53.153253-4.025198 18.732651-4.438039 37.000857-0.20642 53.101648 0 0 0.051605 0 0.10321-0.051605 0 0.051605-0.051605 0.051605-0.051605 0.051605v0.051605l-0.051605 0.051605c4.180013 15.894371 12.540039 27.608729 24.254397 35.297889 11.869173 7.79237 27.247493 11.869173 44.793227 13.26251v0.051606c17.90697 2.373835 37.981354 1.548153 59.449075 1.238522 21.777352-0.309631 44.896437 0.10321 68.170337-2.012599v-0.051605l0.051605 0.051605h0.103211v0.051605c23.531926-0.412841 44.948042-3.044701 63.577483-7.327924 18.577836-4.231618 34.265786-11.404727 45.928539-21.622537 11.507937-10.579046 19.145492-24.512423 21.932167-41.129265 2.786675-16.823263 0.877287-36.02036-6.089401-56.301164 0-0.051605-0.051605-0.051605-0.051605-0.051605v-0.051605c0-0.051605 0-0.10321-0.051606-0.10321h0.051606c-6.863478-20.074384-17.855365-38.703825-31.891952-54.494986-13.572141-15.37832-30.343799-27.608729-48.612005-36.433201-18.164995-8.102001-38.032959-13.004485-58.726603-13.881771-20.384015-0.877287-41.696921 1.909389-62.855012 7.947185z" fill="#2B2622" /><path d="M236.299753 209.929547c47.683112-14.449428 97.224008-13.726957 137.475987 4.902484 42.316182 19.558333 75.756287 58.365368 92.166708 106.048481 16.410422 47.683112 10.1146 89.947689-16.565237 113.42801-25.90576 22.809454-71.421458 26.370206-124.832737 28.073174-53.411279 1.702968-103.726251 5.831376-144.59749 3.921988-39.529507-1.806179-68.634783-14.552638-78.130122-52.069546-9.443733-37.516908 0.361236-86.128912 25.286499-125.710024 22.912664-36.175175 61.513279-64.145139 109.196392-78.594567z" fill="#FFFFFF" /><path d="M294.458701 332.130424c23.222295-0.928892 45.360883 13.365721 53.359673 36.4332 9.804969 28.279595-5.26372 59.19105-33.49171 68.944414-28.279595 9.753364-59.139445-5.26372-68.944413-33.543315-0.825682-2.32223-1.444943-4.696064-1.909389-7.018294 5.16051-0.20642 10.372625-1.135312 15.533135-2.94149 25.957365-8.927682 40.716424-35.659124 35.452704-61.874515z m23.841556 52.224361c8.308421-2.889886 17.339314 1.548153 20.229199 9.804969 2.889886 8.308421-1.548153 17.390919-9.804969 20.229199-8.308421 2.838281-17.339314-1.548153-20.229199-9.804969-2.889886-8.308421 1.496548-17.390919 9.804969-20.229199zM301.83823 618.538729c-15.945976 54.288565-11.559542 104.242302-4.231618 153.628383 4.799274-55.888323 21.932168-103.726251 48.095953-145.681198-14.604243-2.73507-29.311697-5.573351-43.864335-7.947185z" fill="#2B2622" /></svg>