<?xml version="1.0" standalone="no"?><!DOCTYPE svg PUBLIC "-//W3C//DTD SVG 1.1//EN" "http://www.w3.org/Graphics/SVG/1.1/DTD/svg11.dtd"><svg class="icon" width="200px" height="200.00px" viewBox="0 0 1024 1024" version="1.1" xmlns="http://www.w3.org/2000/svg"><path d="M284.447311 170.967696c-7.431134-2.32223-12.127199-6.502243-10.372625-9.392128 1.702968-2.889886 9.082498-3.302726 16.513632-1.032102 41.645316 12.95288 78.697778 25.59613 112.447513 38.084564 33.801341 12.488434 64.145139 24.667238 92.321524 36.691226 6.811873 2.889886 9.701759 7.121504 6.347428 9.392128-1.599758 1.083707-4.283223 1.548153-7.48274 1.393338-50.211762-2.012599-99.494633-2.683465-147.074535-1.186917-47.476692 1.496548-93.560046 5.16051-137.527592 11.765963-5.831376 0.877287-14.552638-1.290128-19.403517-4.902485-4.850879-3.560752-4.128408-7.173109 1.754573-8.102001 45.309278-6.811873 92.734365-10.579046 141.810815-12.127198 22.086983-0.722471 44.483596-0.928892 67.035025-0.774077-12.74646-1.857784-25.492919-3.509147-38.342589-5.005694-40.716424-4.696064-81.587663-7.327924-122.562113-7.173109-6.811873 0-15.120294-2.941491-18.474626-6.657058-3.405937-3.715567-0.567656-6.657058 6.244217-6.708663 43.141864-0.154815 86.025702 2.63186 128.754725 7.534344 26.731442 3.044701 53.359673 6.966689 79.9363 11.456333-13.572141-5.36693-27.711939-10.785466-42.522603-16.255607-32.717633-12.023988-68.737993-24.357607-109.402812-37.000857z m474.508895 36.226781c6.192612-0.619261 14.810664 1.909389 19.248703 5.521745 4.386434 3.612357 2.941491 7.069899-3.251122 7.637555-32.149977 3.096306-61.048833 6.760268-87.522249 10.888676-7.68916 1.186917-15.171899 2.42544-22.448219 3.715567 12.74646 0.877287 25.441314 2.012599 38.136169 3.457542 33.440105 3.663962 66.88021 9.185708 100.320314 17.236104 7.58595 1.806179 13.365721 5.934587 12.84967 9.134102-0.464446 3.199516-7.069899 4.334828-14.655848 2.477045-30.447009-7.327924-61.203649-12.385224-92.218314-15.791161-8.566447-0.980497-17.184498-1.806179-25.80255-2.477044 12.385224 2.993096 24.667238 6.089402 36.846042 9.392128 37.774933 10.269415 74.104924 22.138588 108.47392 36.175175 6.966689 2.838281 10.062995 7.069899 6.915083 9.443733-3.147911 2.373835-11.301517 1.960994-18.2166-0.877286-31.891952-13.05609-65.693292-24.047977-100.887971-33.646526-35.452704-9.650154-72.45356-17.80376-110.434914-25.080078-3.870383-0.722471-7.79237-2.167414-10.73386-4.076803-5.315325-3.509147-5.212115-7.276319 0.258025-8.411631 22.861059-4.850879 47.167061-9.443733 73.743688-13.572142 26.679837-4.231618 56.146349-7.947185 89.380033-11.146701z" fill="#2B2622" /><path d="M250.284735 715.504712c7.224714-14.707454 18.784256-24.925263 24.976869-40.871239 28.950461-74.414554-15.068689-226.546389-16.616843-293.581414-0.774077-33.130474 11.869173-11.146702 51.140655-0.412841 157.498765 43.090259 346.734667-57.384871 421.974903 78.955803 72.918006 132.057451 21.209696 384.922441-130.715719 396.843219-96.759563 7.58595-217.051051-35.607519-308.701708-83.084211-23.531926-12.127199-58.623394-24.357607-42.058157-57.849317z" fill="#FFFFFF" /><path d="M238.260747 716.89805c3.509147-7.121504 7.740765-13.004485 11.972383-18.887467 4.747669-6.657058 9.598549-13.314116 12.74646-21.416116l0.10321-0.309631 0.309631-0.722471h-0.051606c18.629441-49.540896 4.902485-134.37968-6.399032-204.562617-5.470141-34.007761-10.42423-64.66119-10.940281-86.335332-0.464446-20.900066 6.450638-28.382805 24.151187-28.795646 6.295822-0.154815 11.817568 2.477045 19.455122 6.089402 7.431134 3.509147 17.184498 8.153606 29.363302 11.456332h0.103211C377.181676 389.36048 440.604344 384.974046 500.56947 380.845638c102.384518-7.069899 195.325304-13.520536 243.472862 73.692083 18.01018 32.717633 28.53762 72.763191 31.840347 114.718137 4.180013 53.359673-3.302726 110.022073-21.725747 158.840498-18.939072 50.211762-50.056947 92.78597-92.734365 116.369501-19.661543 10.837071-41.335685 17.700549-64.919216 19.558333h-0.051605v0.051605h-0.30963c-14.346218 1.135312-29.105276 1.186917-44.173966 0.361236-14.810664-0.877287-29.930958-2.580255-45.102857-5.0573-77.046414-12.591644-158.530867-44.793227-224.998237-79.213829l-0.051605 0.051605-0.051605-0.051605c-0.20642-0.10321-0.361236-0.20642-0.516051-0.30963-1.496548-0.774077-4.386434-2.167414-7.379529-3.663962-24.047977-11.920778-52.224361-25.750945-35.607519-59.29426z m34.781837-19.506728c-3.870383 5.36693-7.740765 10.733861-10.63065 16.616842-13.004485 26.318601 11.456332 38.342589 32.408003 48.663609 2.012599 0.980497 3.921988 1.960994 7.431134 3.715568l0.412841 0.20642h0.051605-0.051605l0.10321 0.051605h0.051605c65.280452 33.852946 145.165146 65.435267 220.302172 77.717281 14.397823 2.32223 28.640831 3.973593 42.470997 4.799274 13.623746 0.774077 26.886257 0.722471 39.632717-0.309631l0.309631-0.051605v0.051605c16.358817-1.290128 31.221086-5.934587 44.483596-13.210905 35.349494-19.506728 62.184146-57.591292 79.575064-103.674646 17.90697-47.476692 25.183289-102.848964 21.054881-155.176536-3.199516-41.026055-13.468931-80.245931-31.117875-112.189487-44.896437-81.381243-132.109056-75.343446-228.197753-68.737994-62.338961 4.283223-128.238674 8.876077-190.164793-7.99879l-0.412841-0.10321h-0.051605c-12.333619-3.354332-21.983773-7.68916-29.518117-11.249912 0.10321 0.258026 0.20642 0.516051 0.20642 0.774076 0.516051 21.519327 5.418536 51.81152 10.785466 85.458046 11.456332 71.111828 25.338104 157.034319 5.934586 208.639419v0.051606l-0.258025 0.619261-0.154815 0.516051c-3.818777 9.753364-9.288918 17.339314-14.655849 24.822053z m-13.933377-326.350653c-4.541249 0.10321-0.825682 0.516051 3.663962 1.599758-2.115809-0.980497-3.509147-1.599758-3.663962-1.599758z" fill="#2B2622" /><path d="M276.13889 664.157637c4.231618-7.68916-1.599758-11.611148 2.580255-19.300307 21.519327 29.930958 93.611651 47.012246 164.72348 53.514489-60.171547 7.431134-123.284584-1.083707-167.303735-34.214182z" fill="#2B2622" /></svg>