<?xml version="1.0" standalone="no"?><!DOCTYPE svg PUBLIC "-//W3C//DTD SVG 1.1//EN" "http://www.w3.org/Graphics/SVG/1.1/DTD/svg11.dtd"><svg class="icon" width="200px" height="200.00px" viewBox="0 0 1024 1024" version="1.1" xmlns="http://www.w3.org/2000/svg"><path d="M892.200575 567.036839c-0.309631 2.63186 6.399032 8.669657 15.068689 13.365721 8.669657 4.696064 15.945976 6.347427 16.255606 3.715567 2.63186-22.551429 1.702968-43.038653-2.786675-60.687597-4.902485-19.351913-14.552638-36.02036-29.002066-49.07645-20.280804-18.319811-44.483596-29.776143-72.350351-32.975659-18.474626-2.167414-39.890742-0.412841-64.196744 5.728166-3.302726 0.825682 0.464446 5.882981 8.463236 11.198306 7.998791 5.315325 17.184498 8.979287 20.487225 8.102001 23.17069-5.882981 43.141864-7.534345 59.913521-5.624956 12.023988 1.393338 20.022779 4.076803 24.202792 7.843975 9.959784 8.979287 17.029683 22.293403 21.312906 39.116666 4.334828 17.132893 5.16051 37.155672 2.631861 59.29426z" fill="#2B2622" /><path d="M221.69551 558.831628c320.828907 126.690521 508.826286-146.713299 98.720556-222.830822C114.047271 297.709822 0.516051 471.464194 221.69551 558.831628z m536.073779 90.102505c148.829109 72.659981 251.523258-83.342237 61.668094-122.562113-128.341884-26.576627-195.067278 57.384871-61.668094 122.562113z" fill="#FFFFFF" /><path d="M227.217255 551.503704c111.931462 44.225571 206.936451 34.988258 260.966991 2.73507 22.138588-13.210906 37.465303-30.240589 44.380386-49.024845 6.811873-18.526231 5.418536-38.807035-5.728166-58.674998-22.241798-39.839137-85.767676-79.110618-204.201381-101.042786-71.524669-13.262511-131.5414 2.012599-167.355339 30.447009-15.017084 11.920778-25.69934 26.163786-31.16948 41.542105-5.418536 15.27511-5.728166 31.737137-0.051606 48.199164 10.682256 30.911455 43.038653 62.13254 103.158595 85.819281z m293.323389 19.661543c-62.02933 37.000857-172.464244 47.012246-304.36688-5.0573-75.291841-29.776143-115.647029-68.273547-128.754725-106.15169-6.450638-18.681046-6.192612-37.155672-0.10321-54.236961 6.037797-16.978078 17.752154-32.562818 34.214182-45.618908 40.819634-32.408003 111.10578-49.489291 196.770246-33.59492C458.769339 352.566043 534.990072 400.661997 562.49559 449.944867c12.84967 23.015875 14.552638 46.186565 6.863479 67.18984-7.68916 20.74525-24.512423 39.529507-48.818425 54.03054z m245.640276 71.731089c44.277176 21.622537 84.580759 17.132893 109.815653 1.496548 11.765963-7.327924 20.332409-17.029683 24.718843-27.711939 4.334828-10.579046 4.644459-22.035378-0.051605-33.233684-8.102001-19.403518-32.769239-38.032959-79.781485-47.734718-41.4905-8.566447-75.859497-3.509147-96.449932 9.134103-8.927682 5.470141-15.27511 12.282014-18.474626 20.074384-3.199516 7.68916-3.457542 16.307212-0.154815 25.234894 6.192612 16.874868 25.183289 35.555914 60.377967 52.740412z m142.378471 18.216601c-34.575417 21.467722-92.424734 26.421811-159.150128-6.141007-46.599405-22.809454-71.834299-47.631507-80.142721-70.286147-4.231618-11.507937-4.025198-22.345008 0-31.995162 4.025198-9.598549 11.765963-18.01018 22.654639-24.718843 26.318601-16.152396 71.060223-22.396613 126.122865-11.043491 70.182936 14.449428 106.977372 42.367787 119.104571 71.369853 5.779771 13.778562 5.521746 27.815149 0.30963 40.458399-5.16051 12.540039-15.171899 23.789951-28.898856 32.356398z" fill="#2B2622" /><path d="M211.993751 407.422265c11.765963-2.838281 24.667238 1.754573 31.272691 12.178803 8.102001 12.74646 3.767172 29.363302-9.598549 37.052462-13.417326 7.68916-30.85985 3.612357-38.961851-9.185708-0.670866-1.083707-1.238522-2.115809-1.754573-3.199516 2.63186-0.670866 5.212115-1.651363 7.637555-3.044701 12.282014-7.069899 16.926473-21.622537 11.404727-33.80134z m17.855365 22.912664c3.921988-2.270624 9.030893-1.032102 11.404727 2.683465 2.373835 3.715567 1.083707 8.618052-2.786676 10.888677-3.921988 2.219019-9.030893 1.032102-11.456332-2.683466-2.32223-3.767172-1.083707-8.618052 2.838281-10.888676z m524.978682 126.27768c7.89558-1.909389 16.462027 1.186917 20.900066 8.153606 5.418536 8.514842 2.52865 19.609938-6.399033 24.718843-8.927682 5.108905-20.590435 2.42544-26.00897-6.141007-0.412841-0.722471-0.825682-1.444943-1.186917-2.167414 1.754573-0.412841 3.457542-1.083707 5.108905-2.012599 8.153606-4.696064 11.301517-14.346218 7.585949-22.551429z m11.920778 15.326715c2.63186-1.496548 6.037797-0.670866 7.637555 1.806178 1.599758 2.477045 0.722471 5.728166-1.909389 7.276319-2.63186 1.496548-6.037797 0.722471-7.637554-1.806178-1.548153-2.52865-0.722471-5.779771 1.909388-7.276319zM134.947337 705.080482c-9.288918-1.496548-19.609938-7.637555-23.015875-13.726957-3.405937-6.089402 1.290128-9.804969 10.579045-8.308421 22.551429 3.612357 44.690017 8.514842 65.383662 18.423021 22.448219 10.733861 40.716424 25.80255 51.6051 48.353979 2.889886 5.986192-2.42544 9.340523-11.869173 7.482739-9.443733-1.857784-19.455123-8.205211-22.345008-14.191402-6.502243-13.365721-15.326715-21.312906-25.492919-26.163786-11.869173-5.779771-27.866754-9.134103-44.844832-11.869173z m163.949402-415.782291c-8.102001 0.10321-19.300307-4.850879-25.028473-11.146702-5.676561-6.295822-3.767172-11.456332 4.334828-11.559542l9.030893-0.154816c71.989115-0.928892 236.970619-3.096306 245.124225 94.643754 0.412841 5.315325-7.224714 6.966689-17.132893 3.663962-9.856574-3.302726-18.2166-10.269415-18.629441-15.636345-5.16051-62.338961-132.934738-60.635993-188.668246-59.913521l-9.030893 0.10321z" fill="#2B2622" /></svg>