<?xml version="1.0" standalone="no"?><!DOCTYPE svg PUBLIC "-//W3C//DTD SVG 1.1//EN" "http://www.w3.org/Graphics/SVG/1.1/DTD/svg11.dtd"><svg class="icon" width="200px" height="200.00px" viewBox="0 0 1024 1024" version="1.1" xmlns="http://www.w3.org/2000/svg"><path d="M295.955249 814.896135c-29.002066-33.646525-30.96306-88.399536-23.686741-107.906265 18.681046-49.953737 121.633221-25.183289 186.810462-5.108904 54.959432 16.926473 110.589729 15.636345 177.469939-6.295823 109.093181-35.762334 158.169632 40.974449 138.508088 84.116313-61.048833 134.07005-395.140251 132.521897-479.101748 35.194679z" fill="#FFFFFF" /><path d="M309.888626 814.070453l-0.361236-0.412841-0.258025-0.258025c-3.354332-3.973593-6.399032-8.514842-9.082498-13.365721-2.838281-5.108905-5.26372-10.42423-7.224714-15.791161-10.42423-28.382805-10.011389-59.08784-5.005695-72.45356 8.050396-21.570932 34.007761-26.989467 64.867611-24.873658 33.233684 2.270624 72.814796 12.84967 103.674646 22.345008 30.85985 9.495338 61.7197 13.881772 93.972887 12.84967 30.85985-1.032102 63.009827-7.018294 97.74006-18.423021 35.607519-11.662753 61.82291-10.372625 79.368643-2.373835l0.928892 0.412841c7.431134 3.560752 13.830167 8.514842 19.093887 14.346218 6.141007 6.760268 10.52744 14.501033 13.107696 22.448219 4.128408 12.540039 3.818777 25.492919-1.032102 36.12357-7.018294 15.37832-17.752154 28.898856-31.375901 40.613213-41.748526 36.02036-110.486519 55.269062-181.753163 59.552286-69.61528 4.180013-140.933528-5.831376-190.216398-28.279595-19.455123-8.824472-35.452704-19.713148-46.44459-32.459608z m-28.176385 1.186917l0.361236 0.412841c14.501033 16.771658 35.452704 31.06627 60.894018 42.625813 58.520183 26.679837 140.417477 38.703825 218.650809 34.007761 76.633574-4.592854 150.480472-25.234894 195.273698-63.835509 14.655848-12.591644 26.163786-27.195888 33.698131-43.70952 5.676561-12.488434 6.037797-27.608729 1.238522-42.264577-3.251121-9.959784-8.876077-19.764753-16.823263-28.53762-8.308421-9.237313-19.300307-17.442524-32.872448-23.841556-0.412841-0.20642-0.877287-0.412841-1.341733-0.619261-29.672933-13.520536-68.892809-17.390919-115.85345-2.012599-32.098372 10.52744-61.255254 16.100791-88.605956 16.978078-25.957365 0.825682-50.469788-2.580255-74.56937-10.01139-34.368997-10.579046-78.904198-22.448219-118.072469-25.080078-41.542106-2.838281-76.427153 4.334828-87.006198 32.717633-5.470141 14.655848-6.037797 47.992743 5.108904 78.439752 2.270624 6.141007 4.95409 12.127199 8.102001 17.80376 3.096306 5.573351 6.811873 10.991886 11.146702 16.204001 0.258026 0.258026 0.464446 0.516051 0.670866 0.722471z" fill="#2B2622" /><path d="M275.003578 745.693696c5.212115-9.443733-2.012599-14.243008 3.199516-23.686741 26.421811 36.691226 114.924558 57.694502 202.188782 65.693292-73.898503 9.185708-151.357758-1.290128-205.388298-42.006551z" fill="#2B2622" /><path d="M715.453107 148.725898c-0.10321 54.649801 147.02293 139.849821 173.444741 116.937157 3.767172-92.269919-54.443381-147.642191-173.444741-116.937157z" fill="#050509" /><path d="M869.700751 257.457844c-0.154815 2.73507 8.360026 8.618052 18.990677 13.159301 10.630651 4.541249 19.351913 5.986192 19.455122 3.251121 0.928892-23.2739-2.012599-44.277176-8.927682-62.235751-7.534345-19.713148-20.43562-36.433201-38.703825-49.334475-25.544525-18.061785-55.062642-28.950461-88.089906-31.221086-21.880562-1.496548-46.909036 1.083707-74.879 8.256816-3.818777 0.980497 1.135312 5.986192 10.991886 11.198307 9.908179 5.16051 21.003276 8.566447 24.822054 7.58595 26.679837-6.915083 50.005342-9.392128 69.873305-7.998791 14.294613 0.980497 23.893161 3.457542 29.156882 7.173109 12.540039 8.876077 22.138588 22.293403 28.692435 39.426296 6.657058 17.339314 9.546944 37.878143 8.618052 60.739203z" fill="#2B2622" /><path d="M669.627778 495.666986c15.37832-43.399889 161.369148-52.121151 176.799073-23.37711-22.96427 74.620975-86.851383 95.263015-176.799073 23.37711z" fill="#050509" /><path d="M828.158645 471.051353c0.670866-2.219019 9.392128-3.509147 19.455123-2.83828 10.062995 0.670866 17.700549 2.993096 17.029683 5.26372-5.779771 18.784256-14.191403 34.265786-24.976868 45.773724-11.817568 12.591644-27.247493 20.693645-45.980144 23.635135-26.266996 4.076803-53.772514 0.928892-81.845689-10.475835-18.577836-7.58595-38.54901-19.609938-59.707101-36.484806-2.889886-2.32223 2.63186-4.334828 12.282014-4.489643 9.650154-0.154815 19.816358 1.599758 22.706244 3.921987 20.177594 16.100791 38.75543 27.402308 55.630298 34.265787 12.127199 4.902485 20.796855 6.811873 26.215391 5.986191 12.901275-2.012599 24.615633-8.824472 34.936652-19.764753 10.372625-11.146702 18.577836-26.266996 24.254397-44.793227z" fill="#2B2622" /><path d="M186.449226 211.219674c33.543315 40.871239 178.19241 21.416117 180.669456-10.579045-54.391775-70.957013-124.935947-79.471854-180.669456 10.579045z" fill="#050509" /><path d="M350.037394 205.336693c1.599758 2.115809 10.52744 1.702968 19.971173-0.877287 9.443733-2.63186 15.791161-6.450638 14.191403-8.566446-13.726957-17.90697-28.53762-31.891952-43.864335-41.38729-16.874868-10.42423-35.246283-15.636345-54.598196-14.96548-27.092678 0.928892-52.275966 9.443733-74.414554 26.421812-14.655848 11.249912-28.744041 27.247493-41.851736 48.405584-1.754573 2.889886 4.386434 3.818777 13.778561 2.115809 9.392128-1.702968 18.474626-5.418536 20.229199-8.308421 12.488434-20.177594 25.544525-35.194678 38.858641-45.360883 9.598549-7.327924 17.132893-10.888676 22.706244-11.095097 13.314116-0.464446 27.557123 4.128408 42.212972 13.210906 14.862269 9.134103 29.311697 22.861059 42.780628 40.406793z" fill="#2B2622" /><path d="M152.699491 443.49423c44.380386-26.163786 186.862067 26.525021 181.391927 54.23696-73.176032 46.44459-147.177745 35.968755-181.391927-54.23696z" fill="#050509" /><path d="M317.835811 489.422769c2.167414-1.393338 11.198307 1.186917 20.125989 5.779771 8.927682 4.592854 14.449428 9.443733 12.282014 10.837071-18.423021 11.714358-37.052462 19.867964-55.062642 24.047977-19.764753 4.592854-39.839137 4.438039-59.39747-0.980497-27.350703-7.58595-50.882629-21.106486-69.202439-41.026055-12.127199-13.210906-22.448219-30.292194-30.498614-51.450285-1.083707-2.889886 5.418536-2.167414 14.552638 1.651364 9.134103 3.767172 17.442524 9.237313 18.526231 12.127198 7.68916 20.229199 17.236103 36.175175 28.22799 48.147558 7.89558 8.566447 14.707454 13.520536 20.332409 15.06869 13.468931 3.715567 29.156882 3.405937 46.34138-0.619262 17.494129-4.128408 35.659124-12.075593 53.772514-23.58353z" fill="#2B2622" /><path d="M267.778864 197.028272l0.051605 0.051605c41.800131 0.258026 79.523459 17.390919 106.719347 44.844832 27.195888 27.453913 43.864335 65.332057 43.70952 107.080583h0.051605v0.10321h-0.051605c-0.258026 41.800131-17.390919 79.575064-44.896437 106.719347-27.453913 27.195888-65.383662 43.91594-107.132188 43.709519v0.051605h-0.10321v-0.051605c-41.748526-0.258026-79.523459-17.390919-106.719347-44.896437-27.144283-27.453913-43.864335-65.383662-43.657915-107.132187h-0.051605V347.353928h0.051605c0.258026-41.800131 17.339314-79.523459 44.844832-106.667741h0.051605c27.453913-27.144283 65.332057-43.864335 107.080583-43.657915v-0.051605h0.051605v0.051605z m-0.10321 25.492919l-0.10321 0.051605v-0.051605c-34.678627-0.154815-66.157738 13.726957-89.070403 36.381596-22.912664 22.654639-37.155672 54.03054-37.362092 88.657562h0.051605v0.10321h-0.051605c-0.154815 34.627022 13.726957 66.157738 36.381595 89.070403v0.051605c22.603034 22.861059 53.978935 37.155672 88.709167 37.362092v-0.051605h0.10321v0.051605c34.627022 0.154815 66.106133-13.778562 89.018798-36.381595 22.912664-22.654639 37.207277-54.03054 37.413697-88.709167h-0.051605V348.902081h0.051605c0.154815-34.627022-13.778562-66.106133-36.381595-89.018797-22.654639-22.912664-54.03054-37.155672-88.709167-37.362093z" fill="#2B2622" /><path d="M267.727259 209.774732c76.530363 0.412841 138.198458 62.803407 137.785617 139.282165-0.412841 76.530363-62.803407 138.198458-139.282165 137.785617-76.478758-0.464446-138.198458-62.803407-137.785617-139.282165 0.412841-76.478758 62.803407-138.198458 139.282165-137.785617z" fill="#FFFFFF" /><path d="M272.216903 331.511163c7.327924 2.270624 12.64325 9.134103 12.591644 17.184498-0.051605 9.856574-8.102001 17.855365-17.958575 17.803759-9.856574-0.051605-17.855365-8.102001-17.803759-18.010179 0-0.825682 0.051605-1.599758 0.20642-2.42544 1.651363 0.516051 3.354332 0.774077 5.16051 0.825681 9.030893 0.051605 16.565237-6.657058 17.80376-15.378319z m1.702968 18.835861c2.889886 0 5.212115 2.373835 5.212115 5.26372s-2.373835 5.26372-5.26372 5.212115c-2.889886 0-5.26372-2.373835-5.212115-5.26372 0-2.889886 2.32223-5.212115 5.26372-5.212115zM731.192662 185.055889c46.289775 0.309631 88.038301 19.300307 118.124074 49.695711 30.085773 30.395404 48.560399 72.298745 48.353979 118.536915h0.051605V353.44333h-0.051605c-0.258026 46.289775-19.248702 88.038301-49.644106 118.124074-30.395404 30.085773-72.35035 48.560399-118.536915 48.353979v0.051605H729.334879v-0.051605c-46.186565-0.258026-87.986696-19.248702-118.124074-49.695711-30.085773-30.395404-48.560399-72.35035-48.353979-118.58852h-0.051605V351.482336h0.051605c0.258026-46.23817 19.248702-87.986696 49.644106-118.072469h0.051605c30.395404-30.085773 72.298745-48.560399 118.536915-48.302373v-0.051605h0.10321z m-0.154815 28.227989v0.051606h-0.10321v-0.051606c-38.394194-0.20642-73.227637 15.223505-98.565741 40.251978h0.051605c-25.338104 25.080079-41.18087 59.758706-41.38729 98.152901h0.051605V351.843572h-0.051605c-0.154815 38.342589 15.223505 73.227637 40.303583 98.565741v0.051605c25.028474 25.338104 59.758706 41.129265 98.1529 41.335685v-0.051605H729.644509v0.051605c38.290984 0.20642 73.176032-15.223505 98.514136-40.251978 25.338104-25.080079 41.18087-59.810311 41.387291-98.204505h-0.051606V353.185305h0.051606c0.20642-38.342589-15.223505-73.176032-40.303584-98.514136-25.131684-25.389709-59.861916-41.18087-98.204505-41.387291z" fill="#2B2622" /><path d="M731.089452 199.195686c84.632364 0.464446 152.957517 69.51207 152.441466 154.144434-0.464446 84.683969-69.460465 152.957517-154.144434 152.493071-84.632364-0.464446-152.957517-69.460465-152.441466-154.144434 0.464446-84.683969 69.51207-152.957517 154.144434-152.493071z" fill="#FFFFFF" /><path d="M736.043542 333.884997c8.102001 2.52865 14.036587 10.062995 13.984982 19.042282-0.051605 10.940281-8.979287 19.764753-19.919569 19.713148-10.940281-0.051605-19.713148-8.979287-19.661543-19.919568 0-0.877287 0.051605-1.754573 0.206421-2.63186 1.806179 0.567656 3.715567 0.877287 5.728166 0.877286 9.959784 0 18.268205-7.431134 19.661543-17.081288z m1.857783 20.848461c3.199516 0 5.779771 2.63186 5.779772 5.831376 0 3.199516-2.63186 5.779771-5.831377 5.779771-3.199516-0.051605-5.779771-2.63186-5.779771-5.831376 0.051605-3.199516 2.63186-5.779771 5.831376-5.779771z" fill="#2B2622" /></svg>