<?xml version="1.0" standalone="no"?><!DOCTYPE svg PUBLIC "-//W3C//DTD SVG 1.1//EN" "http://www.w3.org/Graphics/SVG/1.1/DTD/svg11.dtd"><svg class="icon" width="200px" height="200.00px" viewBox="0 0 1024 1024" version="1.1" xmlns="http://www.w3.org/2000/svg"><path d="M836.105831 275.313209v0.10321c33.182079 29.414907 51.347075 69.460465 53.824119 110.434914 2.477045 40.922844-10.682256 82.877791-40.045558 116.05987h0.051606l-0.051606 0.051605v0.051605l-0.051605-0.051605c-29.414907 33.233684-69.51207 51.347075-110.486519 53.824119-40.922844 2.477045-82.877791-10.682256-116.05987-40.045557h-0.051605l-0.051605-0.051605-0.051605-0.051605 0.051605-0.051606c-33.182079-29.363302-51.295469-69.460465-53.824119-110.434914h-0.051605c-0.928892-15.223505 0.309631-30.550219 3.767172-45.567303 13.159301-8.618052 25.854155-17.339314 38.290984-26.215391-11.507937 21.880562-16.410422 46.186565-14.965479 70.079726l-0.051605 0.051605c2.064204 34.110971 17.132893 67.447866 44.690017 91.857078l0.051605-0.051605 0.051605 0.051605-0.051605 0.051605c27.505518 24.357607 62.390566 35.246283 96.553142 33.18208 34.162576-2.064204 67.499471-17.132893 91.908683-44.690017l-0.051605-0.051605h0.051605l0.051605-0.051605h0.051605c24.357607-27.505518 35.246283-62.390566 33.18208-96.501537-2.064204-34.162576-17.132893-67.499471-44.638412-91.908683l-0.051605 0.051605h-0.051605l-0.051605-0.051605 0.051605-0.051605c-27.557123-24.409212-62.442171-35.297888-96.553142-33.28529v0.051605c-8.050396 0.464446-16.100791 1.702968-23.944767 3.612357 11.559542-9.753364 23.428715-20.022779 35.762335-30.911455 36.536411 0.825682 73.072822 14.139797 102.642544 40.303583l0.051605-0.051605 0.051605 0.258026z" fill="#2B2622" /><path d="M827.126543 285.427808c60.790808 53.824119 66.415764 146.81651 12.591645 207.607318-53.824119 60.790808-146.764905 66.415764-207.555713 12.591644-45.722119-40.510004-60.223152-103.10699-41.748525-157.55037 43.348284-29.518117 82.258529-60.326362 126.948546-99.081792 38.600615-3.199516 78.439752 8.772867 109.764047 36.4332z" fill="#FFFFFF" /><path d="M226.443179 217.773522v0.051605c-35.91715 11.507937-63.783904 36.588016-79.72988 67.654286-15.945976 31.014665-20.074384 68.273547-8.514841 104.190697h-0.051605v0.051605h0.051605C149.758 425.742075 174.786474 453.608829 205.852744 469.554805c31.06627 15.945976 68.273547 20.022779 104.190697 8.514842v0.051605h0.10321v-0.051605c35.91715-11.559542 63.783904-36.588016 79.72988-67.705892 7.069899-13.830167 11.817568-28.847251 13.881772-44.431991-2.63186-2.064204-5.108905-4.489644-7.37953-7.379529-5.315325-6.760268-10.21781-13.933377-14.965479-21.416116 2.115809 21.983773-2.373835 43.657915-12.075593 62.648591-13.262511 25.854155-36.433201 46.702616-66.312554 56.301164v-0.051605h-0.10321v0.051605c-29.776143 9.598549-60.687598 6.141007-86.593358-7.173109-25.90576-13.314116-46.754221-36.433201-56.352769-66.312553h0.051605v-0.051605h-0.051605c-9.546944-29.776143-6.141007-60.687598 7.173109-86.593358 13.314116-25.90576 36.433201-46.754221 66.260948-56.35277h0.051606v-0.051605c29.827748-9.598549 60.739203-6.141007 86.644963 7.121504 5.315325 2.73507 10.42423 5.882981 15.275109 9.443733-8.205211-13.417326-17.184498-26.679837-27.660333-39.219876-25.647735-7.740765-53.824119-8.050396-81.278033 0.722472v-0.051605 0.20642z" fill="#2B2622" /><path d="M229.952326 228.713803c-65.796503 21.158091-102.023283 91.702263-80.865192 157.498766s91.702263 102.023283 157.498765 80.865191c50.882629-16.358817 84.064708-62.235751 86.748173-112.602328-26.00897-34.885048-43.503099-79.72988-72.092324-120.033463-27.608729-12.84967-59.965126-15.791161-91.289422-5.728166z" fill="#FFFFFF" /><path d="M314.79111 601.612256c-31.014665 27.815149-51.295469 63.887114-57.746107 99.185002-23.015875 125.451998 142.326866 170.40004 186.346017 55.991534 13.417326-34.885048 13.107695-81.794084-2.42544-136.289069-41.38729-2.993096-84.838784-15.945976-126.17447-18.887467z" fill="#D22220" /><path d="M302.560702 597.793479l0.051605-0.051605h0.051605c1.186917-1.032102 4.025198-1.599758 7.89558-1.290128 22.551429 1.599758 44.793227 5.779771 67.035025 9.959785 20.125989 3.767172 40.251978 7.534345 59.036234 8.927682 0.928892 0.051605 1.909389 0.154815 2.941491 0.30963 7.069899 1.083707 13.365721 4.180013 14.088192 6.811874 11.198307 39.374691 14.552638 74.879 10.527441 104.758353-0.774077 5.831376-1.857784 11.456332-3.199516 16.823262-1.341733 5.418536-2.941491 10.579046-4.799275 15.429925l-0.051605 0.154816-0.051605 0.20642c-15.068689 39.168271-44.638412 60.223152-76.478758 66.106133v-0.051605h-0.051605c-18.319811 3.405937-37.981354 2.167414-57.126846-3.302726-18.2166-5.16051-34.730232-13.881772-47.837928-25.750945-24.047977-21.777352-38.239379-55.836718-30.343799-98.926977 4.696064-25.69934 16.616842-51.759915 34.575417-74.77579 3.663962-4.696064 7.379529-9.082498 11.146702-13.107695 3.715567-4.025198 7.843975-7.998791 12.385224-12.075594l0.206421-0.154815z m22.448218 9.392128c-3.405937 3.147911-6.863478 6.553848-10.21781 10.21781-4.025198 4.334828-7.740765 8.618052-10.991886 12.798065-17.648944 22.603034-29.311697 48.199163-33.956156 73.330847-7.58595 41.438895 5.418536 73.588873 27.711939 93.766467 9.546944 8.618052 20.177594 14.604243 30.911455 17.648944 9.804969 2.786675 20.900066 3.199516 32.356397 1.083707 28.589225-5.26372 55.527088-25.080079 69.873306-62.338961v-0.051605l0.051605-0.20642 0.051605-0.051606c1.857784-4.850879 3.457542-9.959784 4.747669-15.068689 1.290128-5.26372 2.32223-10.837071 3.147911-16.565237 3.767172-28.021569 0.928892-61.048833-8.876077-97.688454-17.287709-2.064204-34.472207-5.26372-51.6051-8.514842-18.11339-3.302726-36.175175-6.708663-53.204858-8.360026z" fill="#2B2622" /><path d="M209.671521 562.753616c-15.533135-3.715567-12.798065-7.48274 6.244218-7.843975 19.351913 1.341733 48.457189 8.979287 64.66119 15.89437 31.375901 13.262511 62.493776 26.266996 94.179307 33.852946 30.343799 7.224714 61.152044 8.308421 91.650658 8.927682 30.292194 0.10321 60.997228-0.412841 92.011893-0.516051 31.117875-0.10321 62.803407 0.877287 95.1082 2.42544 20.280804 1.702968 26.370206 5.676561 13.417326 8.360026-12.95288 2.63186-39.942347 3.560752-60.119942 2.477045-34.420602-0.877287-68.170337-1.186917-101.249206-1.135312-33.078869 0-65.693292-0.464446-98.101295-2.63186-32.975659-5.212115-66.415764-13.159301-99.443028-24.822053-33.69813-11.869173-66.467369-24.718843-98.359321-34.988258z" fill="#2B2622" /><path d="M349.934183 605.99869c-11.869173 40.458398-8.618052 77.717281-3.147911 114.511717 3.560752-41.645316 16.307212-77.356045 35.81394-108.577131-10.888676-2.064204-21.828957-4.128408-32.666029-5.934586zM807.619816 359.223101c3.612357 5.831376 3.147911 13.623746-1.651364 19.042282-5.882981 6.605453-15.997581 7.224714-22.654639 1.393338-6.605453-5.882981-7.224714-15.997581-1.393337-22.654639 0.464446-0.567656 0.980497-1.032102 1.548153-1.496548 0.825682 1.290128 1.806179 2.52865 2.993096 3.612357 6.141007 5.315325 15.171899 5.212115 21.158091 0.10321z m-10.01139 13.726957c1.960994 1.702968 2.115809 4.696064 0.412841 6.657058-1.702968 1.960994-4.696064 2.115809-6.657058 0.412841-1.960994-1.754573-2.115809-4.696064-0.412841-6.657058 1.754573-1.960994 4.747669-2.167414 6.657058-0.412841z" fill="#2B2622" /><path d="M556.870634 306.224664c2.73507-11.611148 7.276319-24.667238 14.501034-34.214182 10.940281-14.862269 4.386434 30.601824 4.025197 32.717634-1.238522 7.327924-2.786675 14.707454-3.663962 22.086983-3.870383 26.628232 39.426296-8.876077 44.586807-13.726957 7.327924-7.018294 13.417326-14.191403 20.074384-21.725747 37.052462-42.058157 85.09681-73.434057 143.358968-58.571789 65.796503 18.784256 100.939576 84.941995 112.499118 147.951822 1.290128 8.050396-5.36693 22.706244-15.584741 19.919569-3.767172-0.980497-5.521746-4.95409-6.192612-8.411632-12.64325-61.564884-52.482387-125.555208-122.768533-125.761628-39.374691 1.186917-68.686388 22.603034-96.604747 48.199163-27.866754 25.854155-60.171547 53.308068-98.926977 60.326362-7.327924 1.238522-24.667238 2.941491-20.95167-9.753364 2.52865-9.288918 9.443733-18.732651 13.675351-27.247493 5.0573-10.21781 9.185708-20.74525 11.972383-31.788741zM623.750844 239.447664c-4.334828 4.902485-11.869173 8.050396-16.771657 6.915084-4.902485-1.135312-5.315325-6.037797-0.980497-10.940282 10.579046-11.972383 21.777352-23.06748 35.349493-30.550219 14.759059-8.102001 30.447009-11.404727 47.889533-6.141007 4.644459 1.393338 4.644459 6.450638 0 11.301517-4.644459 4.850879-12.127199 7.637555-16.771657 6.244217-10.32102-3.096306-18.371416-1.909389-25.028474 1.806179-7.740765 4.283223-15.68795 12.333619-23.686741 21.364511zM316.132843 316.029633c2.32223 5.36693 0.980497 11.869173-3.663962 15.842765-5.728166 4.850879-14.397823 4.128408-19.248703-1.599758-4.850879-5.728166-4.128408-14.346218 1.599759-19.248702 0.464446-0.412841 0.980497-0.774077 1.496547-1.083707 0.516051 1.186917 1.238522 2.32223 2.11581 3.405936 4.438039 5.26372 12.023988 6.295822 17.700549 2.683466z m-10.062995 10.32102c1.393338 1.702968 1.186917 4.231618-0.464446 5.624956-1.702968 1.444943-4.231618 1.238522-5.624955-0.464446-1.444943-1.702968-1.238522-4.231618 0.464445-5.624956 1.651363-1.393338 4.180013-1.186917 5.624956 0.464446z" fill="#2B2622" /><path d="M433.534445 337.445749c1.857784-9.959784 2.73507-21.674142 0.361236-31.633926-3.457542-15.326715-13.881772 22.345008-14.346218 24.151187-1.548153 6.141007-2.838281 12.385224-4.696064 18.474625-6.089402 22.086983-27.711939-20.384015-30.085773-25.957365-3.302726-7.998791-5.573351-15.636345-8.205211-23.789951-14.449428-45.412488-41.18087-86.386937-91.702263-94.746964-57.694502-7.89558-107.699844 31.685531-138.301668 76.839994-3.767172 5.831376-3.560752 19.506728 5.315325 20.900066 3.302726 0.516051 5.986192-1.960994 7.68916-4.489644 30.911455-43.657915 83.858288-79.884695 138.766114-56.043139 30.292194 14.449428 45.825329 41.129265 58.778209 70.647382 12.901275 29.724538 28.640831 62.184146 56.45598 80.865192 5.26372 3.457542 18.2166 10.733861 19.661543-0.412841 1.186917-8.102001-0.980497-17.855365-1.341733-25.957365-0.309631-9.701759 0.051605-19.300307 1.651363-28.847251zM404.222749 262.463539c1.702968 5.36693 6.502243 10.32102 10.682255 11.095096s6.192612-2.889886 4.489644-8.205211c-4.128408-12.95288-9.082498-25.441314-17.081288-35.917149-8.721262-11.404727-19.816358-19.300307-35.246283-21.209696-4.076803-0.516051-5.831376 3.457542-3.870383 8.824472 1.960994 5.36693 6.863478 10.1146 10.940281 10.579045 9.082498 1.135312 14.913874 4.799274 18.887467 9.959785 4.644459 6.089402 8.102001 15.068689 11.198307 24.873658z" fill="#2B2622" /></svg>